  0
SECTION
  2
HEADER
  9
$ACADVER
  1
AC1027
  9
$ACADMAINTVER
 70
105
  9
$DWGCODEPAGE
  3
ANSI_1252
  9
$LASTSAVEDBY
  1
ezdxf
  9
$REQUIREDVERSIONS
160
0
  9
$INSBASE
 10
0.0
 20
0.0
 30
0.0
  9
$EXTMIN
 10
1e+20
 20
1e+20
 30
1e+20
  9
$EXTMAX
 10
-1e+20
 20
-1e+20
 30
-1e+20
  9
$LIMMIN
 10
0.0
 20
0.0
  9
$LIMMAX
 10
420.0
 20
297.0
  9
$ORTHOMODE
 70
0
  9
$REGENMODE
 70
1
  9
$FILLMODE
 70
1
  9
$QTEXTMODE
 70
0
  9
$MIRRTEXT
 70
1
  9
$LTSCALE
 40
1.0
  9
$ATTMODE
 70
1
  9
$TEXTSIZE
 40
2.5
  9
$TRACEWID
 40
1.0
  9
$TEXTSTYLE
  7
Standard
  9
$CLAYER
  8
0
  9
$CELTYPE
  6
ByLayer
  9
$CECOLOR
 62
256
  9
$CELTSCALE
 40
1.0
  9
$DISPSILH
 70
0
  9
$DIMSCALE
 40
1.0
  9
$DIMASZ
 40
2.5
  9
$DIMEXO
 40
0.625
  9
$DIMDLI
 40
3.75
  9
$DIMRND
 40
0.0
  9
$DIMDLE
 40
0.0
  9
$DIMEXE
 40
1.25
  9
$DIMTP
 40
0.0
  9
$DIMTM
 40
0.0
  9
$DIMTXT
 40
2.5
  9
$DIMCEN
 40
2.5
  9
$DIMTSZ
 40
0.0
  9
$DIMTOL
 70
0
  9
$DIMLIM
 70
0
  9
$DIMTIH
 70
0
  9
$DIMTOH
 70
0
  9
$DIMSE1
 70
0
  9
$DIMSE2
 70
0
  9
$DIMTAD
 70
1
  9
$DIMZIN
 70
8
  9
$DIMBLK
  1

  9
$DIMASO
 70
1
  9
$DIMSHO
 70
1
  9
$DIMPOST
  1

  9
$DIMAPOST
  1

  9
$DIMALT
 70
0
  9
$DIMALTD
 70
3
  9
$DIMALTF
 40
0.03937007874
  9
$DIMLFAC
 40
1.0
  9
$DIMTOFL
 70
1
  9
$DIMTVP
 40
0.0
  9
$DIMTIX
 70
0
  9
$DIMSOXD
 70
0
  9
$DIMSAH
 70
0
  9
$DIMBLK1
  1

  9
$DIMBLK2
  1

  9
$DIMSTYLE
  2
ISO-25
  9
$DIMCLRD
 70
0
  9
$DIMCLRE
 70
0
  9
$DIMCLRT
 70
0
  9
$DIMTFAC
 40
1.0
  9
$DIMGAP
 40
0.625
  9
$DIMJUST
 70
0
  9
$DIMSD1
 70
0
  9
$DIMSD2
 70
0
  9
$DIMTOLJ
 70
0
  9
$DIMTZIN
 70
8
  9
$DIMALTZ
 70
0
  9
$DIMALTTZ
 70
0
  9
$DIMUPT
 70
0
  9
$DIMDEC
 70
2
  9
$DIMTDEC
 70
2
  9
$DIMALTU
 70
2
  9
$DIMALTTD
 70
3
  9
$DIMTXSTY
  7
Standard
  9
$DIMAUNIT
 70
0
  9
$DIMADEC
 70
0
  9
$DIMALTRND
 40
0.0
  9
$DIMAZIN
 70
0
  9
$DIMDSEP
 70
44
  9
$DIMATFIT
 70
3
  9
$DIMFRAC
 70
0
  9
$DIMLDRBLK
  1

  9
$DIMLUNIT
 70
2
  9
$DIMLWD
 70
-2
  9
$DIMLWE
 70
-2
  9
$DIMTMOVE
 70
0
  9
$DIMFXL
 40
1.0
  9
$DIMFXLON
 70
0
  9
$DIMJOGANG
 40
0.785398163397
  9
$DIMTFILL
 70
0
  9
$DIMTFILLCLR
 70
0
  9
$DIMARCSYM
 70
0
  9
$DIMLTYPE
  6

  9
$DIMLTEX1
  6

  9
$DIMLTEX2
  6

  9
$DIMTXTDIRECTION
 70
0
  9
$LUNITS
 70
2
  9
$LUPREC
 70
4
  9
$SKETCHINC
 40
1.0
  9
$FILLETRAD
 40
10.0
  9
$AUNITS
 70
0
  9
$AUPREC
 70
2
  9
$MENU
  1
.
  9
$ELEVATION
 40
0.0
  9
$PELEVATION
 40
0.0
  9
$THICKNESS
 40
0.0
  9
$LIMCHECK
 70
0
  9
$CHAMFERA
 40
0.0
  9
$CHAMFERB
 40
0.0
  9
$CHAMFERC
 40
0.0
  9
$CHAMFERD
 40
0.0
  9
$SKPOLY
 70
0
  9
$TDCREATE
 40
2461306.274212963
  9
$TDUCREATE
 40
2458532.153996898
  9
$TDUPDATE
 40
2461306.274212963
  9
$TDUUPDATE
 40
2458532.1544311
  9
$TDINDWG
 40
0.0
  9
$TDUSRTIMER
 40
0.0
  9
$USRTIMER
 70
1
  9
$ANGBASE
 50
0.0
  9
$ANGDIR
 70
0
  9
$PDMODE
 70
0
  9
$PDSIZE
 40
0.0
  9
$PLINEWID
 40
0.0
  9
$SPLFRAME
 70
0
  9
$SPLINETYPE
 70
6
  9
$SPLINESEGS
 70
8
  9
$HANDSEED
  5
F3
  9
$SURFTAB1
 70
6
  9
$SURFTAB2
 70
6
  9
$SURFTYPE
 70
6
  9
$SURFU
 70
6
  9
$SURFV
 70
6
  9
$UCSBASE
  2

  9
$UCSNAME
  2

  9
$UCSORG
 10
0.0
 20
0.0
 30
0.0
  9
$UCSXDIR
 10
1.0
 20
0.0
 30
0.0
  9
$UCSYDIR
 10
0.0
 20
1.0
 30
0.0
  9
$UCSORTHOREF
  2

  9
$UCSORTHOVIEW
 70
0
  9
$UCSORGTOP
 10
0.0
 20
0.0
 30
0.0
  9
$UCSORGBOTTOM
 10
0.0
 20
0.0
 30
0.0
  9
$UCSORGLEFT
 10
0.0
 20
0.0
 30
0.0
  9
$UCSORGRIGHT
 10
0.0
 20
0.0
 30
0.0
  9
$UCSORGFRONT
 10
0.0
 20
0.0
 30
0.0
  9
$UCSORGBACK
 10
0.0
 20
0.0
 30
0.0
  9
$PUCSBASE
  2

  9
$PUCSNAME
  2

  9
$PUCSORG
 10
0.0
 20
0.0
 30
0.0
  9
$PUCSXDIR
 10
1.0
 20
0.0
 30
0.0
  9
$PUCSYDIR
 10
0.0
 20
1.0
 30
0.0
  9
$PUCSORTHOREF
  2

  9
$PUCSORTHOVIEW
 70
0
  9
$PUCSORGTOP
 10
0.0
 20
0.0
 30
0.0
  9
$PUCSORGBOTTOM
 10
0.0
 20
0.0
 30
0.0
  9
$PUCSORGLEFT
 10
0.0
 20
0.0
 30
0.0
  9
$PUCSORGRIGHT
 10
0.0
 20
0.0
 30
0.0
  9
$PUCSORGFRONT
 10
0.0
 20
0.0
 30
0.0
  9
$PUCSORGBACK
 10
0.0
 20
0.0
 30
0.0
  9
$USERI1
 70
0
  9
$USERI2
 70
0
  9
$USERI3
 70
0
  9
$USERI4
 70
0
  9
$USERI5
 70
0
  9
$USERR1
 40
0.0
  9
$USERR2
 40
0.0
  9
$USERR3
 40
0.0
  9
$USERR4
 40
0.0
  9
$USERR5
 40
0.0
  9
$WORLDVIEW
 70
1
  9
$SHADEDGE
 70
3
  9
$SHADEDIF
 70
70
  9
$TILEMODE
 70
1
  9
$MAXACTVP
 70
64
  9
$PINSBASE
 10
0.0
 20
0.0
 30
0.0
  9
$PLIMCHECK
 70
0
  9
$PEXTMIN
 10
1e+20
 20
1e+20
 30
1e+20
  9
$PEXTMAX
 10
-1e+20
 20
-1e+20
 30
-1e+20
  9
$PLIMMIN
 10
0.0
 20
0.0
  9
$PLIMMAX
 10
420.0
 20
297.0
  9
$UNITMODE
 70
0
  9
$VISRETAIN
 70
1
  9
$PLINEGEN
 70
0
  9
$PSLTSCALE
 70
1
  9
$TREEDEPTH
 70
3020
  9
$CMLSTYLE
  2
Standard
  9
$CMLJUST
 70
0
  9
$CMLSCALE
 40
20.0
  9
$PROXYGRAPHICS
 70
1
  9
$MEASUREMENT
 70
1
  9
$CELWEIGHT
370
-1
  9
$ENDCAPS
280
0
  9
$JOINSTYLE
280
0
  9
$LWDISPLAY
290
0
  9
$INSUNITS
 70
4
  9
$HYPERLINKBASE
  1

  9
$STYLESHEET
  1

  9
$XEDIT
290
1
  9
$CEPSNTYPE
380
0
  9
$PSTYLEMODE
290
1
  9
$FINGERPRINTGUID
  2
{FEA6B3C0-9488-44BB-A950-D11553BEDDB5}
  9
$VERSIONGUID
  2
{4F5A0576-91EF-4CF5-AED2-6390D1240794}
  9
$EXTNAMES
290
1
  9
$PSVPSCALE
 40
0.0
  9
$OLESTARTUP
290
0
  9
$SORTENTS
280
127
  9
$INDEXCTL
280
0
  9
$HIDETEXT
280
1
  9
$XCLIPFRAME
280
1
  9
$HALOGAP
280
0
  9
$OBSCOLOR
 70
257
  9
$OBSLTYPE
280
0
  9
$INTERSECTIONDISPLAY
280
0
  9
$INTERSECTIONCOLOR
 70
257
  9
$DIMASSOC
280
2
  9
$PROJECTNAME
  1

  9
$CAMERADISPLAY
290
0
  9
$LENSLENGTH
 40
50.0
  9
$CAMERAHEIGHT
 40
0.0
  9
$STEPSPERSEC
 40
24.0
  9
$STEPSIZE
 40
100.0
  9
$3DDWFPREC
 40
2.0
  9
$PSOLWIDTH
 40
0.005
  9
$PSOLHEIGHT
 40
0.08
  9
$LOFTANG1
 40
1.570796326795
  9
$LOFTANG2
 40
1.570796326795
  9
$LOFTMAG1
 40
0.0
  9
$LOFTMAG2
 40
0.0
  9
$LOFTPARAM
 70
7
  9
$LOFTNORMALS
280
1
  9
$LATITUDE
 40
37.795
  9
$LONGITUDE
 40
-122.394
  9
$NORTHDIRECTION
 40
0.0
  9
$TIMEZONE
 70
-8000
  9
$LIGHTGLYPHDISPLAY
280
1
  9
$TILEMODELIGHTSYNCH
280
1
  9
$CMATERIAL
347
20
  9
$SOLIDHIST
280
0
  9
$SHOWHIST
280
1
  9
$DWFFRAME
280
2
  9
$DGNFRAME
280
2
  9
$REALWORLDSCALE
290
1
  9
$INTERFERECOLOR
 62
256
  9
$CSHADOW
280
0
  9
$SHADOWPLANELOCATION
 40
0.0
  0
ENDSEC
  0
SECTION
  2
CLASSES
  0
CLASS
  1
ACDBDICTIONARYWDFLT
  2
AcDbDictionaryWithDefault
  3
ObjectDBX Classes
 90
0
 91
0
280
0
281
0
  0
CLASS
  1
SUN
  2
AcDbSun
  3
SCENEOE
 90
1153
 91
0
280
0
281
0
  0
CLASS
  1
VISUALSTYLE
  2
AcDbVisualStyle
  3
ObjectDBX Classes
 90
4095
 91
0
280
0
281
0
  0
CLASS
  1
MATERIAL
  2
AcDbMaterial
  3
ObjectDBX Classes
 90
1153
 91
0
280
0
281
0
  0
CLASS
  1
SCALE
  2
AcDbScale
  3
ObjectDBX Classes
 90
1153
 91
0
280
0
281
0
  0
CLASS
  1
TABLESTYLE
  2
AcDbTableStyle
  3
ObjectDBX Classes
 90
4095
 91
0
280
0
281
0
  0
CLASS
  1
MLEADERSTYLE
  2
AcDbMLeaderStyle
  3
ACDB_MLEADERSTYLE_CLASS
 90
4095
 91
0
280
0
281
0
  0
CLASS
  1
DICTIONARYVAR
  2
AcDbDictionaryVar
  3
ObjectDBX Classes
 90
0
 91
0
280
0
281
0
  0
CLASS
  1
CELLSTYLEMAP
  2
AcDbCellStyleMap
  3
ObjectDBX Classes
 90
1152
 91
0
280
0
281
0
  0
CLASS
  1
MENTALRAYRENDERSETTINGS
  2
AcDbMentalRayRenderSettings
  3
SCENEOE
 90
1024
 91
0
280
0
281
0
  0
CLASS
  1
ACDBDETAILVIEWSTYLE
  2
AcDbDetailViewStyle
  3
ObjectDBX Classes
 90
1025
 91
0
280
0
281
0
  0
CLASS
  1
ACDBSECTIONVIEWSTYLE
  2
AcDbSectionViewStyle
  3
ObjectDBX Classes
 90
1025
 91
0
280
0
281
0
  0
CLASS
  1
RASTERVARIABLES
  2
AcDbRasterVariables
  3
ISM
 90
0
 91
0
280
0
281
0
  0
CLASS
  1
LAYOUT
  2
AcDbLayout
  3
ObjectDBX Classes
 90
0
 91
0
280
0
281
0
  0
CLASS
  1
ACDBPLACEHOLDER
  2
AcDbPlaceHolder
  3
ObjectDBX Classes
 90
0
 91
0
280
0
281
0
  0
ENDSEC
  0
SECTION
  2
TABLES
  0
TABLE
  2
VPORT
  5
8
330
0
100
AcDbSymbolTable
 70
1
  0
VPORT
  5
EF
330
8
100
AcDbSymbolTableRecord
100
AcDbViewportTableRecord
  2
*Active
 70
0
 10
0.0
 20
0.0
 11
1.0
 21
1.0
 12
-1.2647660696529783e-12
 22
4.556121034256748
 13
0.0
 23
0.0
 14
0.5
 24
0.5
 15
0.5
 25
0.5
 16
0.0
 26
0.0
 36
1.0
 17
0.0
 27
0.0
 37
0.0
 40
105.00000000000763
 41
1.34
 42
50.0
 43
0.0
 44
0.0
 50
0.0
 51
0.0
 71
0
 72
1000
 73
1
 74
3
 75
0
 76
0
 77
0
 78
0
281
0
 65
1
110
0.0
120
0.0
130
0.0
111
1.0
121
0.0
131
0.0
112
0.0
122
1.0
132
0.0
 79
0
146
0.0
  0
ENDTAB
  0
TABLE
  2
LTYPE
  5
2
330
0
100
AcDbSymbolTable
 70
3
  0
LTYPE
  5
24
330
2
100
AcDbSymbolTableRecord
100
AcDbLinetypeTableRecord
  2
ByBlock
 70
0
  3

 72
65
 73
0
 40
0.0
  0
LTYPE
  5
25
330
2
100
AcDbSymbolTableRecord
100
AcDbLinetypeTableRecord
  2
ByLayer
 70
0
  3

 72
65
 73
0
 40
0.0
  0
LTYPE
  5
26
330
2
100
AcDbSymbolTableRecord
100
AcDbLinetypeTableRecord
  2
Continuous
 70
0
  3

 72
65
 73
0
 40
0.0
  0
ENDTAB
  0
TABLE
  2
LAYER
  5
1
330
0
100
AcDbSymbolTable
 70
2
  0
LAYER
  5
27
330
1
100
AcDbSymbolTableRecord
100
AcDbLayerTableRecord
  2
0
 70
0
 62
7
  6
Continuous
370
-3
390
13
347
21
  0
LAYER
  5
28
330
1
100
AcDbSymbolTableRecord
100
AcDbLayerTableRecord
  2
Defpoints
 70
0
 62
7
  6
Continuous
290
0
370
-3
390
13
347
21
  0
ENDTAB
  0
TABLE
  2
STYLE
  5
5
330
0
100
AcDbSymbolTable
 70
1
  0
STYLE
  5
29
330
5
100
AcDbSymbolTableRecord
100
AcDbTextStyleTableRecord
  2
Standard
 70
0
 40
0.0
 41
1.0
 50
0.0
 71
0
 42
2.5
  3
txt
  4

  0
ENDTAB
  0
TABLE
  2
VIEW
  5
7
330
0
100
AcDbSymbolTable
 70
0
  0
ENDTAB
  0
TABLE
  2
UCS
  5
6
330
0
100
AcDbSymbolTable
 70
0
  0
ENDTAB
  0
TABLE
  2
APPID
  5
3
330
0
100
AcDbSymbolTable
 70
3
  0
APPID
  5
2A
330
3
100
AcDbSymbolTableRecord
100
AcDbRegAppTableRecord
  2
ACAD
 70
0
  0
APPID
  5
F0
330
3
100
AcDbSymbolTableRecord
100
AcDbRegAppTableRecord
  2
HATCHBACKGROUNDCOLOR
 70
0
  0
APPID
  5
F1
330
3
100
AcDbSymbolTableRecord
100
AcDbRegAppTableRecord
  2
EZDXF
 70
0
  0
ENDTAB
  0
TABLE
  2
DIMSTYLE
  5
4
330
0
100
AcDbSymbolTable
 70
1
100
AcDbDimStyleTable
  0
DIMSTYLE
105
2B
330
4
100
AcDbSymbolTableRecord
100
AcDbDimStyleTableRecord
  2
Standard
 70
0
 40
1.0
 41
2.5
 42
0.625
 43
3.75
 44
1.25
 45
0.0
 46
0.0
 47
0.0
 48
0.0
 49
2.5
140
2.5
141
2.5
142
0.0
143
0.03937007874
144
1.0
145
0.0
146
1.0
147
0.625
148
0.0
 69
0
 70
0
 71
0
 72
0
 73
0
 74
0
 75
0
 76
0
 77
1
 78
8
 79
3
170
0
171
3
172
1
173
0
174
0
175
0
176
0
177
0
178
0
179
2
271
2
272
2
273
2
274
3
275
0
276
0
277
2
278
44
279
0
280
0
281
0
282
0
283
0
284
8
285
0
286
0
288
0
289
3
290
0
371
-2
372
-2
  0
ENDTAB
  0
TABLE
  2
BLOCK_RECORD
  5
9
330
0
100
AcDbSymbolTable
 70
2
  0
BLOCK_RECORD
  5
17
330
9
100
AcDbSymbolTableRecord
100
AcDbBlockTableRecord
  2
*Model_Space
340
1A
 70
0
280
1
281
0
  0
BLOCK_RECORD
  5
1B
330
9
100
AcDbSymbolTableRecord
100
AcDbBlockTableRecord
  2
*Paper_Space
340
1E
 70
0
280
1
281
0
  0
ENDTAB
  0
ENDSEC
  0
SECTION
  2
BLOCKS
  0
BLOCK
  5
18
330
17
100
AcDbEntity
  8
0
100
AcDbBlockBegin
  2
*Model_Space
 70
0
 10
0.0
 20
0.0
 30
0.0
  3
*Model_Space
  1

  0
ENDBLK
  5
19
330
17
100
AcDbEntity
  8
0
100
AcDbBlockEnd
  0
BLOCK
  5
1C
330
1B
100
AcDbEntity
  8
0
100
AcDbBlockBegin
  2
*Paper_Space
 70
0
 10
0.0
 20
0.0
 30
0.0
  3
*Paper_Space
  1

  0
ENDBLK
  5
1D
330
1B
100
AcDbEntity
  8
0
100
AcDbBlockEnd
  0
ENDSEC
  0
SECTION
  2
ENTITIES
  0
LINE
  5
2F
330
17
100
AcDbEntity
  8
0
100
AcDbLine
 10
104.99999999999106
 20
48.806121034274824
 30
-4.547473508864641e-13
 11
102.99999999999083
 21
50.80612103427461
 31
-4.547473508864641e-13
  0
LINE
  5
30
330
17
100
AcDbEntity
  8
0
100
AcDbLine
 10
102.99999999999083
 20
50.80612103427461
 30
-4.547473508864641e-13
 11
-103.00000000000912
 21
50.806121034238956
 31
-4.547473508864641e-13
  0
LINE
  5
31
330
17
100
AcDbEntity
  8
0
100
AcDbLine
 10
-103.00000000000912
 20
50.806121034238956
 30
-4.547473508864641e-13
 11
-105.0000000000089
 21
48.80612103423849
 31
-4.547473508864641e-13
  0
LINE
  5
32
330
17
100
AcDbEntity
  8
0
100
AcDbLine
 10
-105.0000000000089
 20
48.80612103423849
 30
-4.547473508864641e-13
 11
-104.99999999999358
 21
-39.69387896576146
 31
-4.547473508864641e-13
  0
LINE
  5
33
330
17
100
AcDbEntity
  8
0
100
AcDbLine
 10
-104.99999999999358
 20
-39.69387896576146
 30
-4.547473508864641e-13
 11
-102.99999999999312
 21
-41.693878965761115
 31
-4.547473508864641e-13
  0
LINE
  5
34
330
17
100
AcDbEntity
  8
0
100
AcDbLine
 10
-102.99999999999312
 20
-41.693878965761115
 30
-4.547473508864641e-13
 11
103.00000000000685
 21
-41.69387896572547
 31
-4.547473508864641e-13
  0
LINE
  5
35
330
17
100
AcDbEntity
  8
0
100
AcDbLine
 10
103.00000000000685
 20
-41.69387896572547
 30
-4.547473508864641e-13
 11
105.00000000000637
 21
-39.693878965725126
 31
-4.547473508864641e-13
  0
LINE
  5
36
330
17
100
AcDbEntity
  8
0
100
AcDbLine
 10
105.00000000000637
 20
-39.693878965725126
 30
-4.547473508864641e-13
 11
104.99999999999106
 21
48.806121034274824
 31
-4.547473508864641e-13
  0
LINE
  5
37
330
17
100
AcDbEntity
  8
0
100
AcDbLine
 10
34.98076211353407
 20
-8.19387896573739
 30
-4.547473508864641e-13
 11
43.64101615138094
 21
-23.193878965735724
 31
-4.547473508864641e-13
  0
LINE
  5
38
330
17
100
AcDbEntity
  8
0
100
AcDbLine
 10
43.64101615138094
 20
-23.193878965735724
 30
-4.547473508864641e-13
 11
26.320508075692235
 21
-23.193878965738648
 31
-4.547473508864641e-13
  0
LINE
  5
39
330
17
100
AcDbEntity
  8
0
100
AcDbLine
 10
26.320508075692235
 20
-23.193878965738648
 30
-4.547473508864641e-13
 11
34.98076211353407
 21
-8.19387896573739
 31
-4.547473508864641e-13
  0
LINE
  5
3A
330
17
100
AcDbEntity
  8
0
100
AcDbLine
 10
37.98076211352708
 20
30.8061210342631
 30
-4.547473508864641e-13
 11
46.64101615136889
 21
45.80612103426479
 31
-4.547473508864641e-13
  0
LINE
  5
3B
330
17
100
AcDbEntity
  8
0
100
AcDbLine
 10
46.64101615136889
 20
45.80612103426479
 30
-4.547473508864641e-13
 11
55.30127018921586
 21
30.8061210342661
 31
-4.547473508864641e-13
  0
LINE
  5
3C
330
17
100
AcDbEntity
  8
0
100
AcDbLine
 10
55.30127018921586
 20
30.8061210342661
 30
-4.547473508864641e-13
 11
37.98076211352708
 21
30.8061210342631
 31
-4.547473508864641e-13
  0
LINE
  5
3D
330
17
100
AcDbEntity
  8
0
100
AcDbLine
 10
61.30127018922287
 20
-8.19387896573258
 30
-4.547473508864641e-13
 11
78.62177826491153
 21
-8.193878965729837
 31
-4.547473508864641e-13
  0
LINE
  5
3E
330
17
100
AcDbEntity
  8
0
100
AcDbLine
 10
78.62177826491153
 20
-8.193878965729837
 30
-4.547473508864641e-13
 11
69.96152422706966
 21
-23.193878965731095
 31
-4.547473508864641e-13
  0
LINE
  5
3F
330
17
100
AcDbEntity
  8
0
100
AcDbLine
 10
69.96152422706966
 20
-23.193878965731095
 30
-4.547473508864641e-13
 11
61.30127018922287
 21
-8.19387896573258
 31
-4.547473508864641e-13
  0
LINE
  5
40
330
17
100
AcDbEntity
  8
0
100
AcDbLine
 10
78.62177826490543
 20
27.80612103427019
 30
-4.547473508864641e-13
 11
69.96152422706353
 21
12.806121034268749
 31
-4.547473508864641e-13
  0
LINE
  5
41
330
17
100
AcDbEntity
  8
0
100
AcDbLine
 10
69.96152422706353
 20
12.806121034268749
 30
-4.547473508864641e-13
 11
61.30127018921666
 21
27.80612103426745
 31
-4.547473508864641e-13
  0
LINE
  5
42
330
17
100
AcDbEntity
  8
0
100
AcDbLine
 10
61.30127018921666
 20
27.80612103426745
 30
-4.547473508864641e-13
 11
78.62177826490543
 21
27.80612103427019
 31
-4.547473508864641e-13
  0
LINE
  5
43
330
17
100
AcDbEntity
  8
0
100
AcDbLine
 10
31.98076211353333
 20
-5.193878965737717
 30
-4.547473508864641e-13
 11
14.660254037844545
 21
-5.193878965740957
 31
-4.547473508864641e-13
  0
LINE
  5
44
330
17
100
AcDbEntity
  8
0
100
AcDbLine
 10
14.660254037844545
 20
-5.193878965740957
 30
-4.547473508864641e-13
 11
23.32050807568633
 21
9.806121034260734
 31
-4.547473508864641e-13
  0
LINE
  5
45
330
17
100
AcDbEntity
  8
0
100
AcDbLine
 10
23.32050807568633
 20
9.806121034260734
 30
-4.547473508864641e-13
 11
31.98076211353333
 21
-5.193878965737717
 31
-4.547473508864641e-13
  0
LINE
  5
46
330
17
100
AcDbEntity
  8
0
100
AcDbLine
 10
43.641016151369
 20
45.80612103426401
 30
-4.547473508864641e-13
 11
34.98076211352716
 21
30.806121034262574
 31
-4.547473508864641e-13
  0
LINE
  5
47
330
17
100
AcDbEntity
  8
0
100
AcDbLine
 10
34.98076211352716
 20
30.806121034262574
 30
-4.547473508864641e-13
 11
26.320508075680294
 21
45.80612103426128
 31
-4.547473508864641e-13
  0
LINE
  5
48
330
17
100
AcDbEntity
  8
0
100
AcDbLine
 10
26.320508075680294
 20
45.80612103426128
 30
-4.547473508864641e-13
 11
43.641016151369
 21
45.80612103426401
 31
-4.547473508864641e-13
  0
LINE
  5
49
330
17
100
AcDbEntity
  8
0
100
AcDbLine
 10
20.320508075680166
 20
45.806121034259974
 30
-4.547473508864641e-13
 11
11.660254037838378
 21
30.80612103425854
 31
-4.547473508864641e-13
  0
LINE
  5
4A
330
17
100
AcDbEntity
  8
0
100
AcDbLine
 10
11.660254037838378
 20
30.80612103425854
 30
-4.547473508864641e-13
 11
2.9999999999916653
 21
45.806121034256975
 31
-4.547473508864641e-13
  0
LINE
  5
4B
330
17
100
AcDbEntity
  8
0
100
AcDbLine
 10
2.9999999999916653
 20
45.806121034256975
 30
-4.547473508864641e-13
 11
20.320508075680166
 21
45.806121034259974
 31
-4.547473508864641e-13
  0
LINE
  5
4C
330
17
100
AcDbEntity
  8
0
100
AcDbLine
 10
-78.62177826491623
 20
30.80612103424292
 30
-4.547473508864641e-13
 11
-69.96152422707495
 21
45.80612103424434
 31
-4.547473508864641e-13
  0
LINE
  5
4D
330
17
100
AcDbEntity
  8
0
100
AcDbLine
 10
-69.96152422707495
 20
45.80612103424434
 30
-4.547473508864641e-13
 11
-61.301270189227964
 21
30.80612103424616
 31
-4.547473508864641e-13
  0
LINE
  5
4E
330
17
100
AcDbEntity
  8
0
100
AcDbLine
 10
-61.301270189227964
 20
30.80612103424616
 30
-4.547473508864641e-13
 11
-78.62177826491623
 21
30.80612103424292
 31
-4.547473508864641e-13
  0
LINE
  5
4F
330
17
100
AcDbEntity
  8
0
100
AcDbLine
 10
-55.30127018922809
 20
30.806121034246956
 30
-4.547473508864641e-13
 11
-46.64101615138631
 21
45.80612103424865
 31
-4.547473508864641e-13
  0
LINE
  5
50
330
17
100
AcDbEntity
  8
0
100
AcDbLine
 10
-46.64101615138631
 20
45.80612103424865
 30
-4.547473508864641e-13
 11
-37.980762113539086
 21
30.806121034249955
 31
-4.547473508864641e-13
  0
LINE
  5
51
330
17
100
AcDbEntity
  8
0
100
AcDbLine
 10
-37.980762113539086
 20
30.806121034249955
 30
-4.547473508864641e-13
 11
-55.30127018922809
 21
30.806121034246956
 31
-4.547473508864641e-13
  0
LINE
  5
52
330
17
100
AcDbEntity
  8
0
100
AcDbLine
 10
-31.980762113539214
 20
30.806121034251234
 30
-4.547473508864641e-13
 11
-23.320508075697433
 21
45.80612103425241
 31
-4.547473508864641e-13
  0
LINE
  5
53
330
17
100
AcDbEntity
  8
0
100
AcDbLine
 10
-23.320508075697433
 20
45.80612103425241
 30
-4.547473508864641e-13
 11
-14.66025403785045
 21
30.806121034254232
 31
-4.547473508864641e-13
  0
LINE
  5
54
330
17
100
AcDbEntity
  8
0
100
AcDbLine
 10
-14.66025403785045
 20
30.806121034254232
 30
-4.547473508864641e-13
 11
-31.980762113539214
 21
30.806121034251234
 31
-4.547473508864641e-13
  0
LINE
  5
55
330
17
100
AcDbEntity
  8
0
100
AcDbLine
 10
-26.320508075691123
 20
9.806121034252143
 30
-4.547473508864641e-13
 11
-34.980762113532904
 21
-5.193878965749306
 31
-4.547473508864641e-13
  0
LINE
  5
56
330
17
100
AcDbEntity
  8
0
100
AcDbLine
 10
-34.980762113532904
 20
-5.193878965749306
 30
-4.547473508864641e-13
 11
-43.64101615137989
 21
9.806121034249152
 31
-4.547473508864641e-13
  0
LINE
  5
57
330
17
100
AcDbEntity
  8
0
100
AcDbLine
 10
-43.64101615137989
 20
9.806121034249152
 30
-4.547473508864641e-13
 11
-26.320508075691123
 21
9.806121034252143
 31
-4.547473508864641e-13
  0
LINE
  5
58
330
17
100
AcDbEntity
  8
0
100
AcDbLine
 10
-14.660254037849924
 20
27.806121034254048
 30
-4.547473508864641e-13
 11
-23.32050807569172
 21
12.806121034252605
 31
-4.547473508864641e-13
  0
LINE
  5
59
330
17
100
AcDbEntity
  8
0
100
AcDbLine
 10
-23.32050807569172
 20
12.806121034252605
 30
-4.547473508864641e-13
 11
-31.980762113538688
 21
27.806121034251305
 31
-4.547473508864641e-13
  0
LINE
  5
5A
330
17
100
AcDbEntity
  8
0
100
AcDbLine
 10
-31.980762113538688
 20
27.806121034251305
 30
-4.547473508864641e-13
 11
-14.660254037849924
 21
27.806121034254048
 31
-4.547473508864641e-13
  0
LINE
  5
5B
330
17
100
AcDbEntity
  8
0
100
AcDbLine
 10
-66.9615242270628
 20
-23.19387896575494
 30
-4.547473508864641e-13
 11
-58.3012701892213
 21
-8.193878965753278
 31
-4.547473508864641e-13
  0
LINE
  5
5C
330
17
100
AcDbEntity
  8
0
100
AcDbLine
 10
-58.3012701892213
 20
-8.193878965753278
 30
-4.547473508864641e-13
 11
-49.64101615137406
 21
-23.193878965751587
 31
-4.547473508864641e-13
  0
LINE
  5
5D
330
17
100
AcDbEntity
  8
0
100
AcDbLine
 10
-49.64101615137406
 20
-23.193878965751587
 30
-4.547473508864641e-13
 11
-66.9615242270628
 21
-23.19387896575494
 31
-4.547473508864641e-13
  0
LINE
  5
5E
330
17
100
AcDbEntity
  8
0
100
AcDbLine
 10
-81.62177826491614
 20
27.806121034242707
 30
-4.547473508864641e-13
 11
-72.96152422706919
 21
12.806121034244015
 31
-4.547473508864641e-13
  0
LINE
  5
5F
330
17
100
AcDbEntity
  8
0
100
AcDbLine
 10
-72.96152422706919
 20
12.806121034244015
 30
-4.547473508864641e-13
 11
-90.28203230275795
 21
12.806121034241023
 31
-4.547473508864641e-13
  0
LINE
  5
60
330
17
100
AcDbEntity
  8
0
100
AcDbLine
 10
-90.28203230275795
 20
12.806121034241023
 30
-4.547473508864641e-13
 11
-81.62177826491614
 21
27.806121034242707
 31
-4.547473508864641e-13
  0
LINE
  5
61
330
17
100
AcDbEntity
  8
0
100
AcDbLine
 10
-3.0000000000084768
 20
45.80612103425621
 30
-4.547473508864641e-13
 11
-11.660254037850265
 21
30.806121034254502
 31
-4.547473508864641e-13
  0
LINE
  5
62
330
17
100
AcDbEntity
  8
0
100
AcDbLine
 10
-11.660254037850265
 20
30.806121034254502
 30
-4.547473508864641e-13
 11
-20.320508075697248
 21
45.80612103425294
 31
-4.547473508864641e-13
  0
LINE
  5
63
330
17
100
AcDbEntity
  8
0
100
AcDbLine
 10
-20.320508075697248
 20
45.80612103425294
 30
-4.547473508864641e-13
 11
-3.0000000000084768
 21
45.80612103425621
 31
-4.547473508864641e-13
  0
LINE
  5
64
330
17
100
AcDbEntity
  8
0
100
AcDbLine
 10
-58.301270189221526
 20
-5.193878965753342
 30
-4.547473508864641e-13
 11
-66.96152422706878
 21
9.806121034245116
 31
-4.547473508864641e-13
  0
LINE
  5
65
330
17
100
AcDbEntity
  8
0
100
AcDbLine
 10
-66.96152422706878
 20
9.806121034245116
 30
-4.547473508864641e-13
 11
-49.64101615138003
 21
9.806121034248108
 31
-4.547473508864641e-13
  0
LINE
  5
66
330
17
100
AcDbEntity
  8
0
100
AcDbLine
 10
-49.64101615138003
 20
9.806121034248108
 30
-4.547473508864641e-13
 11
-58.301270189221526
 21
-5.193878965753342
 31
-4.547473508864641e-13
  0
LINE
  5
67
330
17
100
AcDbEntity
  8
0
100
AcDbLine
 10
-78.62177826491049
 20
-5.193878965756852
 30
-4.547473508864641e-13
 11
-69.96152422706847
 21
9.806121034244597
 31
-4.547473508864641e-13
  0
LINE
  5
68
330
17
100
AcDbEntity
  8
0
100
AcDbLine
 10
-69.96152422706847
 20
9.806121034244597
 30
-4.547473508864641e-13
 11
-61.301270189221725
 21
-5.193878965753861
 31
-4.547473508864641e-13
  0
LINE
  5
69
330
17
100
AcDbEntity
  8
0
100
AcDbLine
 10
-61.301270189221725
 20
-5.193878965753861
 30
-4.547473508864641e-13
 11
-78.62177826491049
 21
-5.193878965756852
 31
-4.547473508864641e-13
  0
LINE
  5
6A
330
17
100
AcDbEntity
  8
0
100
AcDbLine
 10
-37.98076211353856
 20
27.806121034250012
 30
-4.547473508864641e-13
 11
-46.6410161513806
 21
12.80612103424857
 31
-4.547473508864641e-13
  0
LINE
  5
6B
330
17
100
AcDbEntity
  8
0
100
AcDbLine
 10
-46.6410161513806
 20
12.80612103424857
 30
-4.547473508864641e-13
 11
-55.301270189227566
 21
27.80612103424727
 31
-4.547473508864641e-13
  0
LINE
  5
6C
330
17
100
AcDbEntity
  8
0
100
AcDbLine
 10
-55.301270189227566
 20
27.80612103424727
 30
-4.547473508864641e-13
 11
-37.98076211353856
 21
27.806121034250012
 31
-4.547473508864641e-13
  0
LINE
  5
6D
330
17
100
AcDbEntity
  8
0
100
AcDbLine
 10
-11.66025403784974
 20
27.806121034254815
 30
-4.547473508864641e-13
 11
-3.000000000002764
 21
12.806121034256371
 31
-4.547473508864641e-13
  0
LINE
  5
6E
330
17
100
AcDbEntity
  8
0
100
AcDbLine
 10
-3.000000000002764
 20
12.806121034256371
 30
-4.547473508864641e-13
 11
-20.320508075691535
 21
12.80612103425338
 31
-4.547473508864641e-13
  0
LINE
  5
6F
330
17
100
AcDbEntity
  8
0
100
AcDbLine
 10
-20.320508075691535
 20
12.80612103425338
 30
-4.547473508864641e-13
 11
-11.66025403784974
 21
27.806121034254815
 31
-4.547473508864641e-13
  0
LINE
  5
70
330
17
100
AcDbEntity
  8
0
100
AcDbLine
 10
-8.66025403784409
 20
-5.193878965744744
 30
-4.547473508864641e-13
 11
-2.3021584638627246e-12
 21
9.806121034256698
 31
-4.547473508864641e-13
  0
LINE
  5
71
330
17
100
AcDbEntity
  8
0
100
AcDbLine
 10
-2.3021584638627246e-12
 20
9.806121034256698
 30
-4.547473508864641e-13
 11
8.660254037844673
 21
-5.193878965741753
 31
-4.547473508864641e-13
  0
LINE
  5
72
330
17
100
AcDbEntity
  8
0
100
AcDbLine
 10
8.660254037844673
 20
-5.193878965741753
 30
-4.547473508864641e-13
 11
-8.66025403784409
 21
-5.193878965744744
 31
-4.547473508864641e-13
  0
LINE
  5
73
330
17
100
AcDbEntity
  8
0
100
AcDbLine
 10
8.660254037845192
 20
-8.193878965741689
 30
-4.547473508864641e-13
 11
3.40349970429088e-12
 21
-23.193878965743302
 31
-4.547473508864641e-13
  0
LINE
  5
74
330
17
100
AcDbEntity
  8
0
100
AcDbLine
 10
3.40349970429088e-12
 20
-23.193878965743302
 30
-4.547473508864641e-13
 11
-8.660254037843572
 21
-8.19387896574468
 31
-4.547473508864641e-13
  0
LINE
  5
75
330
17
100
AcDbEntity
  8
0
100
AcDbLine
 10
-8.660254037843572
 20
-8.19387896574468
 30
-4.547473508864641e-13
 11
8.660254037845192
 21
-8.193878965741689
 31
-4.547473508864641e-13
  0
LINE
  5
76
330
17
100
AcDbEntity
  8
0
100
AcDbLine
 10
-43.641016151374174
 20
-23.19387896575083
 30
-4.547473508864641e-13
 11
-34.98076211353239
 21
-8.193878965749498
 31
-4.547473508864641e-13
  0
LINE
  5
77
330
17
100
AcDbEntity
  8
0
100
AcDbLine
 10
-34.98076211353239
 20
-8.193878965749498
 30
-4.547473508864641e-13
 11
-26.32050807568541
 21
-23.193878965747782
 31
-4.547473508864641e-13
  0
LINE
  5
78
330
17
100
AcDbEntity
  8
0
100
AcDbLine
 10
-26.32050807568541
 20
-23.193878965747782
 30
-4.547473508864641e-13
 11
-43.641016151374174
 21
-23.19387896575083
 31
-4.547473508864641e-13
  0
LINE
  5
79
330
17
100
AcDbEntity
  8
0
100
AcDbLine
 10
-72.96152422706867
 20
9.806121034243816
 30
-4.547473508864641e-13
 11
-81.62177826491043
 21
-5.193878965757619
 31
-4.547473508864641e-13
  0
LINE
  5
7A
330
17
100
AcDbEntity
  8
0
100
AcDbLine
 10
-81.62177826491043
 20
-5.193878965757619
 30
-4.547473508864641e-13
 11
-90.28203230275744
 21
9.80612103424108
 31
-4.547473508864641e-13
  0
LINE
  5
7B
330
17
100
AcDbEntity
  8
0
100
AcDbLine
 10
-90.28203230275744
 20
9.80612103424108
 30
-4.547473508864641e-13
 11
-72.96152422706867
 21
9.806121034243816
 31
-4.547473508864641e-13
  0
LINE
  5
7C
330
17
100
AcDbEntity
  8
0
100
AcDbLine
 10
90.28203230274632
 20
45.80612103427208
 30
-4.547473508864641e-13
 11
81.62177826490453
 21
30.806121034270646
 31
-4.547473508864641e-13
  0
LINE
  5
7D
330
17
100
AcDbEntity
  8
0
100
AcDbLine
 10
81.62177826490453
 20
30.806121034270646
 30
-4.547473508864641e-13
 11
72.96152422705767
 21
45.80612103426935
 31
-4.547473508864641e-13
  0
LINE
  5
7E
330
17
100
AcDbEntity
  8
0
100
AcDbLine
 10
72.96152422705767
 20
45.80612103426935
 30
-4.547473508864641e-13
 11
90.28203230274632
 21
45.80612103427208
 31
-4.547473508864641e-13
  0
LINE
  5
7F
330
17
100
AcDbEntity
  8
0
100
AcDbLine
 10
11.660254037839152
 20
27.806121034258595
 30
-4.547473508864641e-13
 11
20.32050807568588
 21
12.806121034260158
 31
-4.547473508864641e-13
  0
LINE
  5
80
330
17
100
AcDbEntity
  8
0
100
AcDbLine
 10
20.32050807568588
 20
12.806121034260158
 30
-4.547473508864641e-13
 11
2.999999999997378
 21
12.806121034257416
 31
-4.547473508864641e-13
  0
LINE
  5
81
330
17
100
AcDbEntity
  8
0
100
AcDbLine
 10
2.999999999997378
 20
12.806121034257416
 30
-4.547473508864641e-13
 11
11.660254037839152
 21
27.806121034258595
 31
-4.547473508864641e-13
  0
LINE
  5
82
330
17
100
AcDbEntity
  8
0
100
AcDbLine
 10
55.301270189216496
 20
27.806121034266155
 30
-4.547473508864641e-13
 11
46.64101615137467
 21
12.806121034264713
 31
-4.547473508864641e-13
  0
LINE
  5
83
330
17
100
AcDbEntity
  8
0
100
AcDbLine
 10
46.64101615137467
 20
12.806121034264713
 30
-4.547473508864641e-13
 11
37.980762113527675
 21
27.806121034263413
 31
-4.547473508864641e-13
  0
LINE
  5
84
330
17
100
AcDbEntity
  8
0
100
AcDbLine
 10
37.980762113527675
 20
27.806121034263413
 30
-4.547473508864641e-13
 11
55.301270189216496
 21
27.806121034266155
 31
-4.547473508864641e-13
  0
LINE
  5
85
330
17
100
AcDbEntity
  8
0
100
AcDbLine
 10
66.96152422706386
 20
9.806121034268287
 30
-4.547473508864641e-13
 11
58.30127018922216
 21
-5.1938789657331625
 31
-4.547473508864641e-13
  0
LINE
  5
86
330
17
100
AcDbEntity
  8
0
100
AcDbLine
 10
58.30127018922216
 20
-5.1938789657331625
 30
-4.547473508864641e-13
 11
49.641016151375155
 21
9.806121034265288
 31
-4.547473508864641e-13
  0
LINE
  5
87
330
17
100
AcDbEntity
  8
0
100
AcDbLine
 10
49.641016151375155
 20
9.806121034265288
 30
-4.547473508864641e-13
 11
66.96152422706386
 21
9.806121034268287
 31
-4.547473508864641e-13
  0
LINE
  5
88
330
17
100
AcDbEntity
  8
0
100
AcDbLine
 10
61.30127018921591
 20
30.806121034267136
 30
-4.547473508864641e-13
 11
69.96152422705747
 21
45.80612103426856
 31
-4.547473508864641e-13
  0
LINE
  5
89
330
17
100
AcDbEntity
  8
0
100
AcDbLine
 10
69.96152422705747
 20
45.80612103426856
 30
-4.547473508864641e-13
 11
78.62177826490455
 21
30.806121034270376
 31
-4.547473508864641e-13
  0
LINE
  5
8A
330
17
100
AcDbEntity
  8
0
100
AcDbLine
 10
78.62177826490455
 20
30.806121034270376
 30
-4.547473508864641e-13
 11
61.30127018921591
 21
30.806121034267136
 31
-4.547473508864641e-13
  0
LINE
  5
8B
330
17
100
AcDbEntity
  8
0
100
AcDbLine
 10
58.30127018922275
 20
-8.193878965733354
 30
-4.547473508864641e-13
 11
66.96152422706965
 21
-23.193878965731614
 31
-4.547473508864641e-13
  0
LINE
  5
8C
330
17
100
AcDbEntity
  8
0
100
AcDbLine
 10
66.96152422706965
 20
-23.193878965731614
 30
-4.547473508864641e-13
 11
49.641016151381066
 21
-23.193878965734612
 31
-4.547473508864641e-13
  0
LINE
  5
8D
330
17
100
AcDbEntity
  8
0
100
AcDbLine
 10
49.641016151381066
 20
-23.193878965734612
 30
-4.547473508864641e-13
 11
58.30127018922275
 21
-8.193878965733354
 31
-4.547473508864641e-13
  0
LINE
  5
8E
330
17
100
AcDbEntity
  8
0
100
AcDbLine
 10
14.660254037845064
 20
-8.193878965740645
 30
-4.547473508864641e-13
 11
31.98076211353428
 21
-8.193878965737653
 31
-4.547473508864641e-13
  0
LINE
  5
8F
330
17
100
AcDbEntity
  8
0
100
AcDbLine
 10
31.98076211353428
 20
-8.193878965737653
 30
-4.547473508864641e-13
 11
23.320508075692295
 21
-23.19387896573962
 31
-4.547473508864641e-13
  0
LINE
  5
90
330
17
100
AcDbEntity
  8
0
100
AcDbLine
 10
23.320508075692295
 20
-23.19387896573962
 30
-4.547473508864641e-13
 11
14.660254037845064
 21
-8.193878965740645
 31
-4.547473508864641e-13
  0
LINE
  5
91
330
17
100
AcDbEntity
  8
0
100
AcDbLine
 10
14.660254037838314
 20
30.806121034259306
 30
-4.547473508864641e-13
 11
23.320508075680102
 21
45.806121034260755
 31
-4.547473508864641e-13
  0
LINE
  5
92
330
17
100
AcDbEntity
  8
0
100
AcDbLine
 10
23.320508075680102
 20
45.806121034260755
 30
-4.547473508864641e-13
 11
31.9807621135271
 21
30.806121034262063
 31
-4.547473508864641e-13
  0
LINE
  5
93
330
17
100
AcDbEntity
  8
0
100
AcDbLine
 10
31.9807621135271
 20
30.806121034262063
 30
-4.547473508864641e-13
 11
14.660254037838314
 21
30.806121034259306
 31
-4.547473508864641e-13
  0
LINE
  5
94
330
17
100
AcDbEntity
  8
0
100
AcDbLine
 10
72.9615242270699
 20
-23.193878965730576
 30
-4.547473508864641e-13
 11
81.62177826491154
 21
-8.193878965729319
 31
-4.547473508864641e-13
  0
LINE
  5
95
330
17
100
AcDbEntity
  8
0
100
AcDbLine
 10
81.62177826491154
 20
-8.193878965729319
 30
-4.547473508864641e-13
 11
90.28203230275851
 21
-23.193878965727603
 31
-4.547473508864641e-13
  0
LINE
  5
96
330
17
100
AcDbEntity
  8
0
100
AcDbLine
 10
90.28203230275851
 20
-23.193878965727603
 30
-4.547473508864641e-13
 11
72.9615242270699
 21
-23.193878965730576
 31
-4.547473508864641e-13
  0
LINE
  5
97
330
17
100
AcDbEntity
  8
0
100
AcDbLine
 10
61.301270189222095
 20
-5.193878965732644
 30
-4.547473508864641e-13
 11
69.9615242270638
 21
9.806121034268806
 31
-4.547473508864641e-13
  0
LINE
  5
98
330
17
100
AcDbEntity
  8
0
100
AcDbLine
 10
69.9615242270638
 20
9.806121034268806
 30
-4.547473508864641e-13
 11
78.62177826491083
 21
-5.193878965729645
 31
-4.547473508864641e-13
  0
LINE
  5
99
330
17
100
AcDbEntity
  8
0
100
AcDbLine
 10
78.62177826491083
 20
-5.193878965729645
 30
-4.547473508864641e-13
 11
61.301270189222095
 21
-5.193878965732644
 31
-4.547473508864641e-13
  0
LINE
  5
9A
330
17
100
AcDbEntity
  8
0
100
AcDbLine
 10
58.30127018921632
 20
27.806121034266667
 30
-4.547473508864641e-13
 11
66.96152422706339
 21
12.806121034268479
 31
-4.547473508864641e-13
  0
LINE
  5
9B
330
17
100
AcDbEntity
  8
0
100
AcDbLine
 10
66.96152422706339
 20
12.806121034268479
 30
-4.547473508864641e-13
 11
49.641016151374714
 21
12.806121034265232
 31
-4.547473508864641e-13
  0
LINE
  5
9C
330
17
100
AcDbEntity
  8
0
100
AcDbLine
 10
49.641016151374714
 20
12.806121034265232
 30
-4.547473508864641e-13
 11
58.30127018921632
 21
27.806121034266667
 31
-4.547473508864641e-13
  0
LINE
  5
9D
330
17
100
AcDbEntity
  8
0
100
AcDbLine
 10
20.320508075686398
 20
9.80612103425996
 30
-4.547473508864641e-13
 11
11.66025403784461
 21
-5.193878965741483
 31
-4.547473508864641e-13
  0
LINE
  5
9E
330
17
100
AcDbEntity
  8
0
100
AcDbLine
 10
11.66025403784461
 20
-5.193878965741483
 30
-4.547473508864641e-13
 11
2.999999999997634
 21
9.806121034257224
 31
-4.547473508864641e-13
  0
LINE
  5
9F
330
17
100
AcDbEntity
  8
0
100
AcDbLine
 10
2.999999999997634
 20
9.806121034257224
 30
-4.547473508864641e-13
 11
20.320508075686398
 21
9.80612103425996
 31
-4.547473508864641e-13
  0
LINE
  5
A0
330
17
100
AcDbEntity
  8
0
100
AcDbLine
 10
37.9807621135333
 20
-5.19387896573668
 30
-4.547473508864641e-13
 11
46.64101615137509
 21
9.80612103426477
 31
-4.547473508864641e-13
  0
LINE
  5
A1
330
17
100
AcDbEntity
  8
0
100
AcDbLine
 10
46.64101615137509
 20
9.80612103426477
 30
-4.547473508864641e-13
 11
55.30127018922216
 21
-5.193878965733681
 31
-4.547473508864641e-13
  0
LINE
  5
A2
330
17
100
AcDbEntity
  8
0
100
AcDbLine
 10
55.30127018922216
 20
-5.193878965733681
 30
-4.547473508864641e-13
 11
37.9807621135333
 21
-5.19387896573668
 31
-4.547473508864641e-13
  0
LINE
  5
A3
330
17
100
AcDbEntity
  8
0
100
AcDbLine
 10
34.98076211352784
 20
27.80612103426263
 30
-4.547473508864641e-13
 11
43.641016151374735
 21
12.806121034264443
 31
-4.547473508864641e-13
  0
LINE
  5
A4
330
17
100
AcDbEntity
  8
0
100
AcDbLine
 10
43.641016151374735
 20
12.806121034264443
 30
-4.547473508864641e-13
 11
26.320508075686256
 21
12.806121034261444
 31
-4.547473508864641e-13
  0
LINE
  5
A5
330
17
100
AcDbEntity
  8
0
100
AcDbLine
 10
26.320508075686256
 20
12.806121034261444
 30
-4.547473508864641e-13
 11
34.98076211352784
 21
27.80612103426263
 31
-4.547473508864641e-13
  0
LINE
  5
A6
330
17
100
AcDbEntity
  8
0
100
AcDbLine
 10
-31.980762113532208
 20
-8.193878965748716
 30
-4.547473508864641e-13
 11
-14.6602540378437
 21
-8.19387896574598
 31
-4.547473508864641e-13
  0
LINE
  5
A7
330
17
100
AcDbEntity
  8
0
100
AcDbLine
 10
-14.6602540378437
 20
-8.19387896574598
 30
-4.547473508864641e-13
 11
-23.32050807568548
 21
-23.19387896574716
 31
-4.547473508864641e-13
  0
LINE
  5
A8
330
17
100
AcDbEntity
  8
0
100
AcDbLine
 10
-23.32050807568548
 20
-23.19387896574716
 30
-4.547473508864641e-13
 11
-31.980762113532208
 21
-8.193878965748716
 31
-4.547473508864641e-13
  0
LINE
  5
A9
330
17
100
AcDbEntity
  8
0
100
AcDbLine
 10
-11.660254037843757
 20
-8.193878965745206
 30
-4.547473508864641e-13
 11
-2.9999999999962768
 21
-23.193878965743515
 31
-4.547473508864641e-13
  0
LINE
  5
AA
330
17
100
AcDbEntity
  8
0
100
AcDbLine
 10
-2.9999999999962768
 20
-23.193878965743515
 30
-4.547473508864641e-13
 11
-20.320508075685026
 21
-23.193878965746972
 31
-4.547473508864641e-13
  0
LINE
  5
AB
330
17
100
AcDbEntity
  8
0
100
AcDbLine
 10
-20.320508075685026
 20
-23.193878965746972
 30
-4.547473508864641e-13
 11
-11.660254037843757
 21
-8.193878965745206
 31
-4.547473508864641e-13
  0
LINE
  5
AC
330
17
100
AcDbEntity
  8
0
100
AcDbLine
 10
-3.0000000000022453
 20
9.806121034255924
 30
-4.547473508864641e-13
 11
-11.660254037844027
 21
-5.193878965745519
 31
-4.547473508864641e-13
  0
LINE
  5
AD
330
17
100
AcDbEntity
  8
0
100
AcDbLine
 10
-11.660254037844027
 20
-5.193878965745519
 30
-4.547473508864641e-13
 11
-20.32050807569101
 21
9.806121034253188
 31
-4.547473508864641e-13
  0
LINE
  5
AE
330
17
100
AcDbEntity
  8
0
100
AcDbLine
 10
-20.32050807569101
 20
9.806121034253188
 30
-4.547473508864641e-13
 11
-3.0000000000022453
 21
9.806121034255924
 31
-4.547473508864641e-13
  0
LINE
  5
AF
330
17
100
AcDbEntity
  8
0
100
AcDbLine
 10
8.66025403783896
 20
27.806121034258084
 30
-4.547473508864641e-13
 11
-2.8208546609675977e-12
 21
12.806121034256641
 31
-4.547473508864641e-13
  0
LINE
  5
B0
330
17
100
AcDbEntity
  8
0
100
AcDbLine
 10
-2.8208546609675977e-12
 20
12.806121034256641
 30
-4.547473508864641e-13
 11
-8.660254037849803
 21
27.806121034255085
 31
-4.547473508864641e-13
  0
LINE
  5
B1
330
17
100
AcDbEntity
  8
0
100
AcDbLine
 10
-8.660254037849803
 20
27.806121034255085
 30
-4.547473508864641e-13
 11
8.66025403783896
 21
27.806121034258084
 31
-4.547473508864641e-13
  0
LINE
  5
B2
330
17
100
AcDbEntity
  8
0
100
AcDbLine
 10
-34.98076211353862
 20
27.806121034250523
 30
-4.547473508864641e-13
 11
-26.32050807569165
 21
12.806121034252087
 31
-4.547473508864641e-13
  0
LINE
  5
B3
330
17
100
AcDbEntity
  8
0
100
AcDbLine
 10
-26.32050807569165
 20
12.806121034252087
 30
-4.547473508864641e-13
 11
-43.64101615138041
 21
12.806121034249095
 31
-4.547473508864641e-13
  0
LINE
  5
B4
330
17
100
AcDbEntity
  8
0
100
AcDbLine
 10
-43.64101615138041
 20
12.806121034249095
 30
-4.547473508864641e-13
 11
-34.98076211353862
 21
27.806121034250523
 31
-4.547473508864641e-13
  0
LINE
  5
B5
330
17
100
AcDbEntity
  8
0
100
AcDbLine
 10
-58.30127018922752
 20
27.806121034246488
 30
-4.547473508864641e-13
 11
-49.641016151380796
 21
12.80612103424805
 31
-4.547473508864641e-13
  0
LINE
  5
B6
330
17
100
AcDbEntity
  8
0
100
AcDbLine
 10
-49.641016151380796
 20
12.80612103424805
 30
-4.547473508864641e-13
 11
-66.9615242270693
 21
12.806121034245308
 31
-4.547473508864641e-13
  0
LINE
  5
B7
330
17
100
AcDbEntity
  8
0
100
AcDbLine
 10
-66.9615242270693
 20
12.806121034245308
 30
-4.547473508864641e-13
 11
-58.30127018922752
 21
27.806121034246488
 31
-4.547473508864641e-13
  0
LINE
  5
B8
330
17
100
AcDbEntity
  8
0
100
AcDbLine
 10
-81.62177826491018
 20
-8.193878965757307
 30
-4.547473508864641e-13
 11
-72.96152422706295
 21
-23.19387896575575
 31
-4.547473508864641e-13
  0
LINE
  5
B9
330
17
100
AcDbEntity
  8
0
100
AcDbLine
 10
-72.96152422706295
 20
-23.19387896575575
 30
-4.547473508864641e-13
 11
-90.28203230275173
 21
-23.193878965758977
 31
-4.547473508864641e-13
  0
LINE
  5
BA
330
17
100
AcDbEntity
  8
0
100
AcDbLine
 10
-90.28203230275173
 20
-23.193878965758977
 30
-4.547473508864641e-13
 11
-81.62177826491018
 21
-8.193878965757307
 31
-4.547473508864641e-13
  0
LINE
  5
BB
330
17
100
AcDbEntity
  8
0
100
AcDbLine
 10
-37.98076211353285
 20
-5.1938789657500735
 30
-4.547473508864641e-13
 11
-55.30127018922185
 21
-5.193878965752816
 31
-4.547473508864641e-13
  0
LINE
  5
BC
330
17
100
AcDbEntity
  8
0
100
AcDbLine
 10
-55.30127018922185
 20
-5.193878965752816
 30
-4.547473508864641e-13
 11
-46.64101615137983
 21
9.806121034248875
 31
-4.547473508864641e-13
  0
LINE
  5
BD
330
17
100
AcDbEntity
  8
0
100
AcDbLine
 10
-46.64101615137983
 20
9.806121034248875
 30
-4.547473508864641e-13
 11
-37.98076211353285
 21
-5.1938789657500735
 31
-4.547473508864641e-13
  0
LINE
  5
BE
330
17
100
AcDbEntity
  8
0
100
AcDbLine
 10
-78.62177826491572
 20
27.806121034242977
 30
-4.547473508864641e-13
 11
-61.301270189227196
 21
27.806121034245976
 31
-4.547473508864641e-13
  0
LINE
  5
BF
330
17
100
AcDbEntity
  8
0
100
AcDbLine
 10
-61.301270189227196
 20
27.806121034245976
 30
-4.547473508864641e-13
 11
-69.96152422706899
 21
12.80612103424479
 31
-4.547473508864641e-13
  0
LINE
  5
C0
330
17
100
AcDbEntity
  8
0
100
AcDbLine
 10
-69.96152422706899
 20
12.80612103424479
 30
-4.547473508864641e-13
 11
-78.62177826491572
 21
27.806121034242977
 31
-4.547473508864641e-13
  0
LINE
  5
C1
330
17
100
AcDbEntity
  8
0
100
AcDbLine
 10
-61.30127018922121
 20
-8.193878965753797
 30
-4.547473508864641e-13
 11
-69.961524227063
 21
-23.193878965755435
 31
-4.547473508864641e-13
  0
LINE
  5
C2
330
17
100
AcDbEntity
  8
0
100
AcDbLine
 10
-69.961524227063
 20
-23.193878965755435
 30
-4.547473508864641e-13
 11
-78.62177826490998
 21
-8.193878965756788
 31
-4.547473508864641e-13
  0
LINE
  5
C3
330
17
100
AcDbEntity
  8
0
100
AcDbLine
 10
-78.62177826490998
 20
-8.193878965756788
 30
-4.547473508864641e-13
 11
-61.30127018922121
 21
-8.193878965753797
 31
-4.547473508864641e-13
  0
LINE
  5
C4
330
17
100
AcDbEntity
  8
0
100
AcDbLine
 10
-46.64101615137412
 20
-23.19387896575135
 30
-4.547473508864641e-13
 11
-55.301270189220844
 21
-8.193878965753008
 31
-4.547473508864641e-13
  0
LINE
  5
C5
330
17
100
AcDbEntity
  8
0
100
AcDbLine
 10
-55.301270189220844
 20
-8.193878965753008
 30
-4.547473508864641e-13
 11
-37.980762113532336
 21
-8.193878965750017
 31
-4.547473508864641e-13
  0
LINE
  5
C6
330
17
100
AcDbEntity
  8
0
100
AcDbLine
 10
-37.980762113532336
 20
-8.193878965750017
 30
-4.547473508864641e-13
 11
-46.64101615137412
 21
-23.19387896575135
 31
-4.547473508864641e-13
  0
LINE
  5
C7
330
17
100
AcDbEntity
  8
0
100
AcDbLine
 10
-31.98076211353323
 20
-5.19387896574878
 30
-4.547473508864641e-13
 11
-23.320508075691194
 21
9.806121034252662
 31
-4.547473508864641e-13
  0
LINE
  5
C8
330
17
100
AcDbEntity
  8
0
100
AcDbLine
 10
-23.320508075691194
 20
9.806121034252662
 30
-4.547473508864641e-13
 11
-14.660254037844211
 21
-5.193878965746038
 31
-4.547473508864641e-13
  0
LINE
  5
C9
330
17
100
AcDbEntity
  8
0
100
AcDbLine
 10
-14.660254037844211
 20
-5.193878965746038
 30
-4.547473508864641e-13
 11
-31.98076211353323
 21
-5.19387896574878
 31
-4.547473508864641e-13
  0
LINE
  5
CA
330
17
100
AcDbEntity
  8
0
100
AcDbLine
 10
-8.660254037850322
 20
30.80612103425527
 30
-4.547473508864641e-13
 11
-8.277822871605167e-12
 21
45.80612103425672
 31
-4.547473508864641e-13
  0
LINE
  5
CB
330
17
100
AcDbEntity
  8
0
100
AcDbLine
 10
-8.277822871605167e-12
 20
45.80612103425672
 30
-4.547473508864641e-13
 11
8.660254037838442
 21
30.806121034258027
 31
-4.547473508864641e-13
  0
LINE
  5
CC
330
17
100
AcDbEntity
  8
0
100
AcDbLine
 10
8.660254037838442
 20
30.806121034258027
 30
-4.547473508864641e-13
 11
-8.660254037850322
 21
30.80612103425527
 31
-4.547473508864641e-13
  0
LINE
  5
CD
330
17
100
AcDbEntity
  8
0
100
AcDbLine
 10
-26.32050807569736
 20
45.8061210342519
 30
-4.547473508864641e-13
 11
-34.9807621135394
 21
30.806121034250708
 31
-4.547473508864641e-13
  0
LINE
  5
CE
330
17
100
AcDbEntity
  8
0
100
AcDbLine
 10
-34.9807621135394
 20
30.806121034250708
 30
-4.547473508864641e-13
 11
-43.641016151386125
 21
45.80612103424917
 31
-4.547473508864641e-13
  0
LINE
  5
CF
330
17
100
AcDbEntity
  8
0
100
AcDbLine
 10
-43.641016151386125
 20
45.80612103424917
 30
-4.547473508864641e-13
 11
-26.32050807569736
 21
45.8061210342519
 31
-4.547473508864641e-13
  0
LINE
  5
D0
330
17
100
AcDbEntity
  8
0
100
AcDbLine
 10
-49.64101615138601
 20
45.806121034247866
 30
-4.547473508864641e-13
 11
-58.30127018922805
 21
30.806121034246672
 31
-4.547473508864641e-13
  0
LINE
  5
D1
330
17
100
AcDbEntity
  8
0
100
AcDbLine
 10
-58.30127018922805
 20
30.806121034246672
 30
-4.547473508864641e-13
 11
-66.96152422707475
 21
45.80612103424514
 31
-4.547473508864641e-13
  0
LINE
  5
D2
330
17
100
AcDbEntity
  8
0
100
AcDbLine
 10
-66.96152422707475
 20
45.80612103424514
 30
-4.547473508864641e-13
 11
-49.64101615138601
 21
45.806121034247866
 31
-4.547473508864641e-13
  0
LINE
  5
D3
330
17
100
AcDbEntity
  8
0
100
AcDbLine
 10
-72.96152422707515
 20
45.8061210342441
 30
-4.547473508864641e-13
 11
-81.62177826491691
 21
30.806121034242636
 31
-4.547473508864641e-13
  0
LINE
  5
D4
330
17
100
AcDbEntity
  8
0
100
AcDbLine
 10
-81.62177826491691
 20
30.806121034242636
 30
-4.547473508864641e-13
 11
-90.28203230276367
 21
45.8061210342411
 31
-4.547473508864641e-13
  0
LINE
  5
D5
330
17
100
AcDbEntity
  8
0
100
AcDbLine
 10
-90.28203230276367
 20
45.8061210342411
 30
-4.547473508864641e-13
 11
-72.96152422707515
 21
45.8061210342441
 31
-4.547473508864641e-13
  0
LINE
  5
D6
330
17
100
AcDbEntity
  8
0
100
AcDbLine
 10
66.96152422705771
 20
45.806121034268315
 30
-4.547473508864641e-13
 11
58.3012701892159
 21
30.80612103426661
 31
-4.547473508864641e-13
  0
LINE
  5
D7
330
17
100
AcDbEntity
  8
0
100
AcDbLine
 10
58.3012701892159
 20
30.80612103426661
 30
-4.547473508864641e-13
 11
49.64101615136887
 21
45.80612103426532
 31
-4.547473508864641e-13
  0
LINE
  5
D8
330
17
100
AcDbEntity
  8
0
100
AcDbLine
 10
49.64101615136887
 20
45.80612103426532
 30
-4.547473508864641e-13
 11
66.96152422705771
 21
45.806121034268315
 31
-4.547473508864641e-13
  0
LINE
  5
D9
330
17
100
AcDbEntity
  8
0
100
AcDbLine
 10
31.980762113527874
 20
27.80612103426212
 30
-4.547473508864641e-13
 11
23.32050807568581
 21
12.806121034260677
 31
-4.547473508864641e-13
  0
LINE
  5
DA
330
17
100
AcDbEntity
  8
0
100
AcDbLine
 10
23.32050807568581
 20
12.806121034260677
 30
-4.547473508864641e-13
 11
14.660254037838833
 21
27.806121034259377
 31
-4.547473508864641e-13
  0
LINE
  5
DB
330
17
100
AcDbEntity
  8
0
100
AcDbLine
 10
14.660254037838833
 20
27.806121034259377
 30
-4.547473508864641e-13
 11
31.980762113527874
 21
27.80612103426212
 31
-4.547473508864641e-13
  0
LINE
  5
DC
330
17
100
AcDbEntity
  8
0
100
AcDbLine
 10
34.980762113533395
 20
-5.193878965737198
 30
-4.547473508864641e-13
 11
26.320508075686522
 21
9.806121034261253
 31
-4.547473508864641e-13
  0
LINE
  5
DD
330
17
100
AcDbEntity
  8
0
100
AcDbLine
 10
26.320508075686522
 20
9.806121034261253
 30
-4.547473508864641e-13
 11
43.641016151375155
 21
9.806121034264251
 31
-4.547473508864641e-13
  0
LINE
  5
DE
330
17
100
AcDbEntity
  8
0
100
AcDbLine
 10
43.641016151375155
 20
9.806121034264251
 30
-4.547473508864641e-13
 11
34.980762113533395
 21
-5.193878965737198
 31
-4.547473508864641e-13
  0
LINE
  5
DF
330
17
100
AcDbEntity
  8
0
100
AcDbLine
 10
81.62177826490532
 20
27.806121034270703
 30
-4.547473508864641e-13
 11
90.28203230275228
 21
12.806121034272515
 31
-4.547473508864641e-13
  0
LINE
  5
E0
330
17
100
AcDbEntity
  8
0
100
AcDbLine
 10
90.28203230275228
 20
12.806121034272515
 30
-4.547473508864641e-13
 11
72.96152422706362
 21
12.806121034269516
 31
-4.547473508864641e-13
  0
LINE
  5
E1
330
17
100
AcDbEntity
  8
0
100
AcDbLine
 10
72.96152422706362
 20
12.806121034269516
 30
-4.547473508864641e-13
 11
81.62177826490532
 21
27.806121034270703
 31
-4.547473508864641e-13
  0
LINE
  5
E2
330
17
100
AcDbEntity
  8
0
100
AcDbLine
 10
81.62177826491103
 20
-5.193878965729127
 30
-4.547473508864641e-13
 11
72.96152422706385
 21
9.806121034269324
 31
-4.547473508864641e-13
  0
LINE
  5
E3
330
17
100
AcDbEntity
  8
0
100
AcDbLine
 10
72.96152422706385
 20
9.806121034269324
 30
-4.547473508864641e-13
 11
90.28203230275255
 21
9.806121034272323
 31
-4.547473508864641e-13
  0
LINE
  5
E4
330
17
100
AcDbEntity
  8
0
100
AcDbLine
 10
90.28203230275255
 20
9.806121034272323
 30
-4.547473508864641e-13
 11
81.62177826491103
 21
-5.193878965729127
 31
-4.547473508864641e-13
  0
LINE
  5
E5
330
17
100
AcDbEntity
  8
0
100
AcDbLine
 10
55.30127018922271
 20
-8.193878965733617
 30
-4.547473508864641e-13
 11
46.6410161513809
 21
-23.193878965735156
 31
-4.547473508864641e-13
  0
LINE
  5
E6
330
17
100
AcDbEntity
  8
0
100
AcDbLine
 10
46.6410161513809
 20
-23.193878965735156
 30
-4.547473508864641e-13
 11
37.980762113534
 21
-8.193878965736616
 31
-4.547473508864641e-13
  0
LINE
  5
E7
330
17
100
AcDbEntity
  8
0
100
AcDbLine
 10
37.980762113534
 20
-8.193878965736616
 30
-4.547473508864641e-13
 11
55.30127018922271
 21
-8.193878965733617
 31
-4.547473508864641e-13
  0
LINE
  5
E8
330
17
100
AcDbEntity
  8
0
100
AcDbLine
 10
11.660254037845384
 20
-8.19387896574117
 30
-4.547473508864641e-13
 11
20.320508075692352
 21
-23.193878965739582
 31
-4.547473508864641e-13
  0
LINE
  5
E9
330
17
100
AcDbEntity
  8
0
100
AcDbLine
 10
20.320508075692352
 20
-23.193878965739582
 30
-4.547473508864641e-13
 11
3.0000000000036025
 21
-23.193878965742734
 31
-4.547473508864641e-13
  0
LINE
  5
EA
330
17
100
AcDbEntity
  8
0
100
AcDbLine
 10
3.0000000000036025
 20
-23.193878965742734
 30
-4.547473508864641e-13
 11
11.660254037845384
 21
-8.19387896574117
 31
-4.547473508864641e-13
  0
CIRCLE
  5
EB
330
17
100
AcDbEntity
  8
0
100
AcDbCircle
 10
-99.99999999999838
 20
-11.693878965760707
 30
-4.547473508864641e-13
 40
1.7500000000000029
  0
CIRCLE
  5
EC
330
17
100
AcDbEntity
  8
0
100
AcDbCircle
 10
-100.00000000000745
 20
40.80612103423934
 30
-4.547473508864641e-13
 40
1.7499999999999927
  0
CIRCLE
  5
ED
330
17
100
AcDbEntity
  8
0
100
AcDbCircle
 10
99.99999999999652
 20
18.306121034274042
 30
-4.547473508864641e-13
 40
1.75
  0
CIRCLE
  5
EE
330
17
100
AcDbEntity
  8
0
100
AcDbCircle
 10
100.0000000000017
 20
-11.693878965726096
 30
-4.547473508864641e-13
 40
1.7500000000000053
  0
ENDSEC
  0
SECTION
  2
OBJECTS
  0
DICTIONARY
  5
A
330
0
100
AcDbDictionary
281
1
  3
ACAD_COLOR
350
B
  3
ACAD_GROUP
350
C
  3
ACAD_LAYOUT
350
D
  3
ACAD_MATERIAL
350
E
  3
ACAD_MLEADERSTYLE
350
F
  3
ACAD_MLINESTYLE
350
10
  3
ACAD_PLOTSETTINGS
350
11
  3
ACAD_PLOTSTYLENAME
350
12
  3
ACAD_SCALELIST
350
14
  3
ACAD_TABLESTYLE
350
15
  3
ACAD_VISUALSTYLE
350
16
  3
EZDXF_META
350
2D
  0
DICTIONARY
  5
B
330
A
100
AcDbDictionary
281
1
  0
DICTIONARY
  5
C
330
A
100
AcDbDictionary
281
1
  0
DICTIONARY
  5
D
330
A
100
AcDbDictionary
281
1
  3
Model
350
1A
  3
Layout1
350
1E
  0
DICTIONARY
  5
E
330
A
100
AcDbDictionary
281
1
  3
ByBlock
350
1F
  3
ByLayer
350
20
  3
Global
350
21
  0
DICTIONARY
  5
F
330
A
100
AcDbDictionary
281
1
  3
Standard
350
2C
  0
DICTIONARY
  5
10
330
A
100
AcDbDictionary
281
1
  3
Standard
350
22
  0
DICTIONARY
  5
11
330
A
100
AcDbDictionary
281
1
  0
ACDBDICTIONARYWDFLT
  5
12
330
A
100
AcDbDictionary
281
1
  3
Normal
350
13
100
AcDbDictionaryWithDefault
340
13
  0
ACDBPLACEHOLDER
  5
13
330
12
  0
DICTIONARY
  5
14
330
A
100
AcDbDictionary
281
1
  0
DICTIONARY
  5
15
330
A
100
AcDbDictionary
281
1
  0
DICTIONARY
  5
16
330
A
100
AcDbDictionary
281
1
  0
LAYOUT
  5
1A
330
D
100
AcDbPlotSettings
  1

  4
A3
  6

 40
7.5
 41
20.0
 42
7.5
 43
20.0
 44
420.0
 45
297.0
 46
0.0
 47
0.0
 48
0.0
 49
0.0
140
0.0
141
0.0
142
1.0
143
1.0
 70
1024
 72
1
 73
0
 74
5
  7

 75
16
 76
0
 77
2
 78
300
147
1.0
148
0.0
149
0.0
100
AcDbLayout
  1
Model
 70
1
 71
0
 10
0.0
 20
0.0
 11
420.0
 21
297.0
 12
0.0
 22
0.0
 32
0.0
 14
1e+20
 24
1e+20
 34
1e+20
 15
-1e+20
 25
-1e+20
 35
-1e+20
146
0.0
 13
0.0
 23
0.0
 33
0.0
 16
1.0
 26
0.0
 36
0.0
 17
0.0
 27
1.0
 37
0.0
 76
1
330
17
  0
LAYOUT
  5
1E
330
D
100
AcDbPlotSettings
  1

  4
A3
  6

 40
7.5
 41
20.0
 42
7.5
 43
20.0
 44
420.0
 45
297.0
 46
0.0
 47
0.0
 48
0.0
 49
0.0
140
0.0
141
0.0
142
1.0
143
1.0
 70
0
 72
1
 73
0
 74
5
  7

 75
16
 76
0
 77
2
 78
300
147
1.0
148
0.0
149
0.0
100
AcDbLayout
  1
Layout1
 70
1
 71
1
 10
0.0
 20
0.0
 11
420.0
 21
297.0
 12
0.0
 22
0.0
 32
0.0
 14
1e+20
 24
1e+20
 34
1e+20
 15
-1e+20
 25
-1e+20
 35
-1e+20
146
0.0
 13
0.0
 23
0.0
 33
0.0
 16
1.0
 26
0.0
 36
0.0
 17
0.0
 27
1.0
 37
0.0
 76
1
330
1B
  0
MATERIAL
  5
1F
102
{ACAD_REACTORS
330
E
102
}
330
E
100
AcDbMaterial
  1
ByBlock
  2

 70
0
 40
1.0
 71
1
 41
1.0
 91
-1023410177
 42
1.0
 72
1
  3

 73
1
 74
1
 75
1
 44
0.5
 73
0
 45
1.0
 46
1.0
 77
1
  4

 78
1
 79
1
170
1
 48
1.0
171
1
  6

172
1
173
1
174
1
140
1.0
141
1.0
175
1
  7

176
1
177
1
178
1
143
1.0
179
1
  8

270
1
271
1
272
1
145
1.0
146
1.0
273
1
  9

274
1
275
1
276
1
 42
1.0
 72
1
  3

 73
1
 74
1
 75
1
 94
63
  0
MATERIAL
  5
20
102
{ACAD_REACTORS
330
E
102
}
330
E
100
AcDbMaterial
  1
ByLayer
  2

 70
0
 40
1.0
 71
1
 41
1.0
 91
-1023410177
 42
1.0
 72
1
  3

 73
1
 74
1
 75
1
 44
0.5
 73
0
 45
1.0
 46
1.0
 77
1
  4

 78
1
 79
1
170
1
 48
1.0
171
1
  6

172
1
173
1
174
1
140
1.0
141
1.0
175
1
  7

176
1
177
1
178
1
143
1.0
179
1
  8

270
1
271
1
272
1
145
1.0
146
1.0
273
1
  9

274
1
275
1
276
1
 42
1.0
 72
1
  3

 73
1
 74
1
 75
1
 94
63
  0
MATERIAL
  5
21
102
{ACAD_REACTORS
330
E
102
}
330
E
100
AcDbMaterial
  1
Global
  2

 70
0
 40
1.0
 71
1
 41
1.0
 91
-1023410177
 42
1.0
 72
1
  3

 73
1
 74
1
 75
1
 44
0.5
 73
0
 45
1.0
 46
1.0
 77
1
  4

 78
1
 79
1
170
1
 48
1.0
171
1
  6

172
1
173
1
174
1
140
1.0
141
1.0
175
1
  7

176
1
177
1
178
1
143
1.0
179
1
  8

270
1
271
1
272
1
145
1.0
146
1.0
273
1
  9

274
1
275
1
276
1
 42
1.0
 72
1
  3

 73
1
 74
1
 75
1
 94
63
  0
MLINESTYLE
  5
22
102
{ACAD_REACTORS
330
10
102
}
330
10
100
AcDbMlineStyle
  2
Standard
 70
0
  3

 62
256
 51
90.0
 52
90.0
 71
2
 49
0.5
 62
256
  6
BYLAYER
 49
-0.5
 62
256
  6
BYLAYER
  0
MLEADERSTYLE
  5
2C
102
{ACAD_REACTORS
330
F
102
}
330
F
100
AcDbMLeaderStyle
179
2
170
2
171
1
172
0
 90
2
 40
0.0
 41
0.0
173
1
 91
-1056964608
 92
-2
290
1
 42
2.0
291
1
 43
8.0
  3
Standard
 44
4.0
300

342
29
174
1
175
1
176
0
178
1
 93
-1056964608
 45
4.0
292
0
297
0
 46
4.0
 94
-1056964608
 47
1.0
 49
1.0
140
1.0
294
1
141
0.0
177
0
142
1.0
295
0
296
0
143
3.75
271
0
272
9
273
9
  0
DICTIONARY
  5
2D
330
A
100
AcDbDictionary
280
1
281
1
  3
CREATED_BY_EZDXF
350
2E
  3
WRITTEN_BY_EZDXF
350
F2
  0
DICTIONARYVAR
  5
2E
330
2D
100
DictionaryVariables
280
0
  1
1.4.4 @ 2026-09-22T04:34:52.012056+00:00
  0
DICTIONARYVAR
  5
F2
330
2D
100
DictionaryVariables
280
0
  1
1.4.4 @ 2026-09-22T04:34:52.150265+00:00
  0
ENDSEC
  0
EOF
