  0
SECTION
  2
HEADER
  9
$ACADVER
  1
AC1027
  9
$ACADMAINTVER
 70
105
  9
$DWGCODEPAGE
  3
ANSI_1252
  9
$LASTSAVEDBY
  1
ezdxf
  9
$REQUIREDVERSIONS
160
0
  9
$INSBASE
 10
0.0
 20
0.0
 30
0.0
  9
$EXTMIN
 10
1e+20
 20
1e+20
 30
1e+20
  9
$EXTMAX
 10
-1e+20
 20
-1e+20
 30
-1e+20
  9
$LIMMIN
 10
0.0
 20
0.0
  9
$LIMMAX
 10
420.0
 20
297.0
  9
$ORTHOMODE
 70
0
  9
$REGENMODE
 70
1
  9
$FILLMODE
 70
1
  9
$QTEXTMODE
 70
0
  9
$MIRRTEXT
 70
1
  9
$LTSCALE
 40
1.0
  9
$ATTMODE
 70
1
  9
$TEXTSIZE
 40
2.5
  9
$TRACEWID
 40
1.0
  9
$TEXTSTYLE
  7
Standard
  9
$CLAYER
  8
0
  9
$CELTYPE
  6
ByLayer
  9
$CECOLOR
 62
256
  9
$CELTSCALE
 40
1.0
  9
$DISPSILH
 70
0
  9
$DIMSCALE
 40
1.0
  9
$DIMASZ
 40
2.5
  9
$DIMEXO
 40
0.625
  9
$DIMDLI
 40
3.75
  9
$DIMRND
 40
0.0
  9
$DIMDLE
 40
0.0
  9
$DIMEXE
 40
1.25
  9
$DIMTP
 40
0.0
  9
$DIMTM
 40
0.0
  9
$DIMTXT
 40
2.5
  9
$DIMCEN
 40
2.5
  9
$DIMTSZ
 40
0.0
  9
$DIMTOL
 70
0
  9
$DIMLIM
 70
0
  9
$DIMTIH
 70
0
  9
$DIMTOH
 70
0
  9
$DIMSE1
 70
0
  9
$DIMSE2
 70
0
  9
$DIMTAD
 70
1
  9
$DIMZIN
 70
8
  9
$DIMBLK
  1

  9
$DIMASO
 70
1
  9
$DIMSHO
 70
1
  9
$DIMPOST
  1

  9
$DIMAPOST
  1

  9
$DIMALT
 70
0
  9
$DIMALTD
 70
3
  9
$DIMALTF
 40
0.03937007874
  9
$DIMLFAC
 40
1.0
  9
$DIMTOFL
 70
1
  9
$DIMTVP
 40
0.0
  9
$DIMTIX
 70
0
  9
$DIMSOXD
 70
0
  9
$DIMSAH
 70
0
  9
$DIMBLK1
  1

  9
$DIMBLK2
  1

  9
$DIMSTYLE
  2
ISO-25
  9
$DIMCLRD
 70
0
  9
$DIMCLRE
 70
0
  9
$DIMCLRT
 70
0
  9
$DIMTFAC
 40
1.0
  9
$DIMGAP
 40
0.625
  9
$DIMJUST
 70
0
  9
$DIMSD1
 70
0
  9
$DIMSD2
 70
0
  9
$DIMTOLJ
 70
0
  9
$DIMTZIN
 70
8
  9
$DIMALTZ
 70
0
  9
$DIMALTTZ
 70
0
  9
$DIMUPT
 70
0
  9
$DIMDEC
 70
2
  9
$DIMTDEC
 70
2
  9
$DIMALTU
 70
2
  9
$DIMALTTD
 70
3
  9
$DIMTXSTY
  7
Standard
  9
$DIMAUNIT
 70
0
  9
$DIMADEC
 70
0
  9
$DIMALTRND
 40
0.0
  9
$DIMAZIN
 70
0
  9
$DIMDSEP
 70
44
  9
$DIMATFIT
 70
3
  9
$DIMFRAC
 70
0
  9
$DIMLDRBLK
  1

  9
$DIMLUNIT
 70
2
  9
$DIMLWD
 70
-2
  9
$DIMLWE
 70
-2
  9
$DIMTMOVE
 70
0
  9
$DIMFXL
 40
1.0
  9
$DIMFXLON
 70
0
  9
$DIMJOGANG
 40
0.785398163397
  9
$DIMTFILL
 70
0
  9
$DIMTFILLCLR
 70
0
  9
$DIMARCSYM
 70
0
  9
$DIMLTYPE
  6

  9
$DIMLTEX1
  6

  9
$DIMLTEX2
  6

  9
$DIMTXTDIRECTION
 70
0
  9
$LUNITS
 70
2
  9
$LUPREC
 70
4
  9
$SKETCHINC
 40
1.0
  9
$FILLETRAD
 40
10.0
  9
$AUNITS
 70
0
  9
$AUPREC
 70
2
  9
$MENU
  1
.
  9
$ELEVATION
 40
0.0
  9
$PELEVATION
 40
0.0
  9
$THICKNESS
 40
0.0
  9
$LIMCHECK
 70
0
  9
$CHAMFERA
 40
0.0
  9
$CHAMFERB
 40
0.0
  9
$CHAMFERC
 40
0.0
  9
$CHAMFERD
 40
0.0
  9
$SKPOLY
 70
0
  9
$TDCREATE
 40
2461306.274224537
  9
$TDUCREATE
 40
2458532.153996898
  9
$TDUPDATE
 40
2461306.274224537
  9
$TDUUPDATE
 40
2458532.1544311
  9
$TDINDWG
 40
0.0
  9
$TDUSRTIMER
 40
0.0
  9
$USRTIMER
 70
1
  9
$ANGBASE
 50
0.0
  9
$ANGDIR
 70
0
  9
$PDMODE
 70
0
  9
$PDSIZE
 40
0.0
  9
$PLINEWID
 40
0.0
  9
$SPLFRAME
 70
0
  9
$SPLINETYPE
 70
6
  9
$SPLINESEGS
 70
8
  9
$HANDSEED
  5
A2
  9
$SURFTAB1
 70
6
  9
$SURFTAB2
 70
6
  9
$SURFTYPE
 70
6
  9
$SURFU
 70
6
  9
$SURFV
 70
6
  9
$UCSBASE
  2

  9
$UCSNAME
  2

  9
$UCSORG
 10
0.0
 20
0.0
 30
0.0
  9
$UCSXDIR
 10
1.0
 20
0.0
 30
0.0
  9
$UCSYDIR
 10
0.0
 20
1.0
 30
0.0
  9
$UCSORTHOREF
  2

  9
$UCSORTHOVIEW
 70
0
  9
$UCSORGTOP
 10
0.0
 20
0.0
 30
0.0
  9
$UCSORGBOTTOM
 10
0.0
 20
0.0
 30
0.0
  9
$UCSORGLEFT
 10
0.0
 20
0.0
 30
0.0
  9
$UCSORGRIGHT
 10
0.0
 20
0.0
 30
0.0
  9
$UCSORGFRONT
 10
0.0
 20
0.0
 30
0.0
  9
$UCSORGBACK
 10
0.0
 20
0.0
 30
0.0
  9
$PUCSBASE
  2

  9
$PUCSNAME
  2

  9
$PUCSORG
 10
0.0
 20
0.0
 30
0.0
  9
$PUCSXDIR
 10
1.0
 20
0.0
 30
0.0
  9
$PUCSYDIR
 10
0.0
 20
1.0
 30
0.0
  9
$PUCSORTHOREF
  2

  9
$PUCSORTHOVIEW
 70
0
  9
$PUCSORGTOP
 10
0.0
 20
0.0
 30
0.0
  9
$PUCSORGBOTTOM
 10
0.0
 20
0.0
 30
0.0
  9
$PUCSORGLEFT
 10
0.0
 20
0.0
 30
0.0
  9
$PUCSORGRIGHT
 10
0.0
 20
0.0
 30
0.0
  9
$PUCSORGFRONT
 10
0.0
 20
0.0
 30
0.0
  9
$PUCSORGBACK
 10
0.0
 20
0.0
 30
0.0
  9
$USERI1
 70
0
  9
$USERI2
 70
0
  9
$USERI3
 70
0
  9
$USERI4
 70
0
  9
$USERI5
 70
0
  9
$USERR1
 40
0.0
  9
$USERR2
 40
0.0
  9
$USERR3
 40
0.0
  9
$USERR4
 40
0.0
  9
$USERR5
 40
0.0
  9
$WORLDVIEW
 70
1
  9
$SHADEDGE
 70
3
  9
$SHADEDIF
 70
70
  9
$TILEMODE
 70
1
  9
$MAXACTVP
 70
64
  9
$PINSBASE
 10
0.0
 20
0.0
 30
0.0
  9
$PLIMCHECK
 70
0
  9
$PEXTMIN
 10
1e+20
 20
1e+20
 30
1e+20
  9
$PEXTMAX
 10
-1e+20
 20
-1e+20
 30
-1e+20
  9
$PLIMMIN
 10
0.0
 20
0.0
  9
$PLIMMAX
 10
420.0
 20
297.0
  9
$UNITMODE
 70
0
  9
$VISRETAIN
 70
1
  9
$PLINEGEN
 70
0
  9
$PSLTSCALE
 70
1
  9
$TREEDEPTH
 70
3020
  9
$CMLSTYLE
  2
Standard
  9
$CMLJUST
 70
0
  9
$CMLSCALE
 40
20.0
  9
$PROXYGRAPHICS
 70
1
  9
$MEASUREMENT
 70
1
  9
$CELWEIGHT
370
-1
  9
$ENDCAPS
280
0
  9
$JOINSTYLE
280
0
  9
$LWDISPLAY
290
0
  9
$INSUNITS
 70
4
  9
$HYPERLINKBASE
  1

  9
$STYLESHEET
  1

  9
$XEDIT
290
1
  9
$CEPSNTYPE
380
0
  9
$PSTYLEMODE
290
1
  9
$FINGERPRINTGUID
  2
{D105CE08-71C6-40CD-90F0-26B3F1CDCEE8}
  9
$VERSIONGUID
  2
{2C3CEE79-F818-4FE6-86AE-6D656AD854FF}
  9
$EXTNAMES
290
1
  9
$PSVPSCALE
 40
0.0
  9
$OLESTARTUP
290
0
  9
$SORTENTS
280
127
  9
$INDEXCTL
280
0
  9
$HIDETEXT
280
1
  9
$XCLIPFRAME
280
1
  9
$HALOGAP
280
0
  9
$OBSCOLOR
 70
257
  9
$OBSLTYPE
280
0
  9
$INTERSECTIONDISPLAY
280
0
  9
$INTERSECTIONCOLOR
 70
257
  9
$DIMASSOC
280
2
  9
$PROJECTNAME
  1

  9
$CAMERADISPLAY
290
0
  9
$LENSLENGTH
 40
50.0
  9
$CAMERAHEIGHT
 40
0.0
  9
$STEPSPERSEC
 40
24.0
  9
$STEPSIZE
 40
100.0
  9
$3DDWFPREC
 40
2.0
  9
$PSOLWIDTH
 40
0.005
  9
$PSOLHEIGHT
 40
0.08
  9
$LOFTANG1
 40
1.570796326795
  9
$LOFTANG2
 40
1.570796326795
  9
$LOFTMAG1
 40
0.0
  9
$LOFTMAG2
 40
0.0
  9
$LOFTPARAM
 70
7
  9
$LOFTNORMALS
280
1
  9
$LATITUDE
 40
37.795
  9
$LONGITUDE
 40
-122.394
  9
$NORTHDIRECTION
 40
0.0
  9
$TIMEZONE
 70
-8000
  9
$LIGHTGLYPHDISPLAY
280
1
  9
$TILEMODELIGHTSYNCH
280
1
  9
$CMATERIAL
347
20
  9
$SOLIDHIST
280
0
  9
$SHOWHIST
280
1
  9
$DWFFRAME
280
2
  9
$DGNFRAME
280
2
  9
$REALWORLDSCALE
290
1
  9
$INTERFERECOLOR
 62
256
  9
$CSHADOW
280
0
  9
$SHADOWPLANELOCATION
 40
0.0
  0
ENDSEC
  0
SECTION
  2
CLASSES
  0
CLASS
  1
ACDBDICTIONARYWDFLT
  2
AcDbDictionaryWithDefault
  3
ObjectDBX Classes
 90
0
 91
0
280
0
281
0
  0
CLASS
  1
SUN
  2
AcDbSun
  3
SCENEOE
 90
1153
 91
0
280
0
281
0
  0
CLASS
  1
VISUALSTYLE
  2
AcDbVisualStyle
  3
ObjectDBX Classes
 90
4095
 91
0
280
0
281
0
  0
CLASS
  1
MATERIAL
  2
AcDbMaterial
  3
ObjectDBX Classes
 90
1153
 91
0
280
0
281
0
  0
CLASS
  1
SCALE
  2
AcDbScale
  3
ObjectDBX Classes
 90
1153
 91
0
280
0
281
0
  0
CLASS
  1
TABLESTYLE
  2
AcDbTableStyle
  3
ObjectDBX Classes
 90
4095
 91
0
280
0
281
0
  0
CLASS
  1
MLEADERSTYLE
  2
AcDbMLeaderStyle
  3
ACDB_MLEADERSTYLE_CLASS
 90
4095
 91
0
280
0
281
0
  0
CLASS
  1
DICTIONARYVAR
  2
AcDbDictionaryVar
  3
ObjectDBX Classes
 90
0
 91
0
280
0
281
0
  0
CLASS
  1
CELLSTYLEMAP
  2
AcDbCellStyleMap
  3
ObjectDBX Classes
 90
1152
 91
0
280
0
281
0
  0
CLASS
  1
MENTALRAYRENDERSETTINGS
  2
AcDbMentalRayRenderSettings
  3
SCENEOE
 90
1024
 91
0
280
0
281
0
  0
CLASS
  1
ACDBDETAILVIEWSTYLE
  2
AcDbDetailViewStyle
  3
ObjectDBX Classes
 90
1025
 91
0
280
0
281
0
  0
CLASS
  1
ACDBSECTIONVIEWSTYLE
  2
AcDbSectionViewStyle
  3
ObjectDBX Classes
 90
1025
 91
0
280
0
281
0
  0
CLASS
  1
RASTERVARIABLES
  2
AcDbRasterVariables
  3
ISM
 90
0
 91
0
280
0
281
0
  0
CLASS
  1
LAYOUT
  2
AcDbLayout
  3
ObjectDBX Classes
 90
0
 91
0
280
0
281
0
  0
CLASS
  1
ACDBPLACEHOLDER
  2
AcDbPlaceHolder
  3
ObjectDBX Classes
 90
0
 91
0
280
0
281
0
  0
ENDSEC
  0
SECTION
  2
TABLES
  0
TABLE
  2
VPORT
  5
8
330
0
100
AcDbSymbolTable
 70
1
  0
VPORT
  5
9E
330
8
100
AcDbSymbolTableRecord
100
AcDbViewportTableRecord
  2
*Active
 70
0
 10
0.0
 20
0.0
 11
1.0
 21
1.0
 12
3.1560580540686516
 22
5.4742245042528666
 13
0.0
 23
0.0
 14
0.5
 24
0.5
 15
0.5
 25
0.5
 16
0.0
 26
0.0
 36
1.0
 17
0.0
 27
0.0
 37
0.0
 40
92.5000000000042
 41
1.34
 42
50.0
 43
0.0
 44
0.0
 50
0.0
 51
0.0
 71
0
 72
1000
 73
1
 74
3
 75
0
 76
0
 77
0
 78
0
281
0
 65
1
110
0.0
120
0.0
130
0.0
111
1.0
121
0.0
131
0.0
112
0.0
122
1.0
132
0.0
 79
0
146
0.0
  0
ENDTAB
  0
TABLE
  2
LTYPE
  5
2
330
0
100
AcDbSymbolTable
 70
3
  0
LTYPE
  5
24
330
2
100
AcDbSymbolTableRecord
100
AcDbLinetypeTableRecord
  2
ByBlock
 70
0
  3

 72
65
 73
0
 40
0.0
  0
LTYPE
  5
25
330
2
100
AcDbSymbolTableRecord
100
AcDbLinetypeTableRecord
  2
ByLayer
 70
0
  3

 72
65
 73
0
 40
0.0
  0
LTYPE
  5
26
330
2
100
AcDbSymbolTableRecord
100
AcDbLinetypeTableRecord
  2
Continuous
 70
0
  3

 72
65
 73
0
 40
0.0
  0
ENDTAB
  0
TABLE
  2
LAYER
  5
1
330
0
100
AcDbSymbolTable
 70
2
  0
LAYER
  5
27
330
1
100
AcDbSymbolTableRecord
100
AcDbLayerTableRecord
  2
0
 70
0
 62
7
  6
Continuous
370
-3
390
13
347
21
  0
LAYER
  5
28
330
1
100
AcDbSymbolTableRecord
100
AcDbLayerTableRecord
  2
Defpoints
 70
0
 62
7
  6
Continuous
290
0
370
-3
390
13
347
21
  0
ENDTAB
  0
TABLE
  2
STYLE
  5
5
330
0
100
AcDbSymbolTable
 70
1
  0
STYLE
  5
29
330
5
100
AcDbSymbolTableRecord
100
AcDbTextStyleTableRecord
  2
Standard
 70
0
 40
0.0
 41
1.0
 50
0.0
 71
0
 42
2.5
  3
txt
  4

  0
ENDTAB
  0
TABLE
  2
VIEW
  5
7
330
0
100
AcDbSymbolTable
 70
0
  0
ENDTAB
  0
TABLE
  2
UCS
  5
6
330
0
100
AcDbSymbolTable
 70
0
  0
ENDTAB
  0
TABLE
  2
APPID
  5
3
330
0
100
AcDbSymbolTable
 70
3
  0
APPID
  5
2A
330
3
100
AcDbSymbolTableRecord
100
AcDbRegAppTableRecord
  2
ACAD
 70
0
  0
APPID
  5
9F
330
3
100
AcDbSymbolTableRecord
100
AcDbRegAppTableRecord
  2
HATCHBACKGROUNDCOLOR
 70
0
  0
APPID
  5
A0
330
3
100
AcDbSymbolTableRecord
100
AcDbRegAppTableRecord
  2
EZDXF
 70
0
  0
ENDTAB
  0
TABLE
  2
DIMSTYLE
  5
4
330
0
100
AcDbSymbolTable
 70
1
100
AcDbDimStyleTable
  0
DIMSTYLE
105
2B
330
4
100
AcDbSymbolTableRecord
100
AcDbDimStyleTableRecord
  2
Standard
 70
0
 40
1.0
 41
2.5
 42
0.625
 43
3.75
 44
1.25
 45
0.0
 46
0.0
 47
0.0
 48
0.0
 49
2.5
140
2.5
141
2.5
142
0.0
143
0.03937007874
144
1.0
145
0.0
146
1.0
147
0.625
148
0.0
 69
0
 70
0
 71
0
 72
0
 73
0
 74
0
 75
0
 76
0
 77
1
 78
8
 79
3
170
0
171
3
172
1
173
0
174
0
175
0
176
0
177
0
178
0
179
2
271
2
272
2
273
2
274
3
275
0
276
0
277
2
278
44
279
0
280
0
281
0
282
0
283
0
284
8
285
0
286
0
288
0
289
3
290
0
371
-2
372
-2
  0
ENDTAB
  0
TABLE
  2
BLOCK_RECORD
  5
9
330
0
100
AcDbSymbolTable
 70
2
  0
BLOCK_RECORD
  5
17
330
9
100
AcDbSymbolTableRecord
100
AcDbBlockTableRecord
  2
*Model_Space
340
1A
 70
0
280
1
281
0
  0
BLOCK_RECORD
  5
1B
330
9
100
AcDbSymbolTableRecord
100
AcDbBlockTableRecord
  2
*Paper_Space
340
1E
 70
0
280
1
281
0
  0
ENDTAB
  0
ENDSEC
  0
SECTION
  2
BLOCKS
  0
BLOCK
  5
18
330
17
100
AcDbEntity
  8
0
100
AcDbBlockBegin
  2
*Model_Space
 70
0
 10
0.0
 20
0.0
 30
0.0
  3
*Model_Space
  1

  0
ENDBLK
  5
19
330
17
100
AcDbEntity
  8
0
100
AcDbBlockEnd
  0
BLOCK
  5
1C
330
1B
100
AcDbEntity
  8
0
100
AcDbBlockBegin
  2
*Paper_Space
 70
0
 10
0.0
 20
0.0
 30
0.0
  3
*Paper_Space
  1

  0
ENDBLK
  5
1D
330
1B
100
AcDbEntity
  8
0
100
AcDbBlockEnd
  0
ENDSEC
  0
SECTION
  2
ENTITIES
  0
LINE
  5
2F
330
17
100
AcDbEntity
  8
0
100
AcDbLine
 10
86.15605805406724
 20
-40.77577549574924
 30
-6.242092384897263e-30
 11
88.15605805406742
 21
-38.77577549574915
 31
-6.321106212554195e-30
  0
LINE
  5
30
330
17
100
AcDbEntity
  8
0
100
AcDbLine
 10
88.15605805406742
 20
-38.77577549574915
 30
-6.321106212554195e-30
 11
88.15605805406932
 21
34.224224504250785
 31
-6.321106212554195e-30
  0
LINE
  5
31
330
17
100
AcDbEntity
  8
0
100
AcDbLine
 10
88.15605805406932
 20
34.224224504250785
 30
-6.321106212554195e-30
 11
86.15605805406926
 21
36.22422450425084
 31
-6.242092384897263e-30
  0
LINE
  5
32
330
17
100
AcDbEntity
  8
0
100
AcDbLine
 10
86.15605805406926
 20
36.22422450425084
 30
-6.242092384897263e-30
 11
30.65605805406925
 21
36.22422450425229
 31
-4.0494586674175274e-30
  0
LINE
  5
33
330
17
100
AcDbEntity
  8
0
100
AcDbLine
 10
30.65605805406925
 20
36.22422450425229
 30
-4.0494586674175274e-30
 11
30.65605805406966
 21
51.72422450425229
 31
-4.0494586674175274e-30
  0
LINE
  5
34
330
17
100
AcDbEntity
  8
0
100
AcDbLine
 10
30.65605805406966
 20
51.72422450425229
 30
-4.0494586674175274e-30
 11
20.65605805406979
 21
51.724224504252554
 31
-3.654389529132895e-30
  0
LINE
  5
35
330
17
100
AcDbEntity
  8
0
100
AcDbLine
 10
20.65605805406979
 20
51.724224504252554
 30
-3.654389529132895e-30
 11
20.65605805406946
 21
39.22422450425256
 31
-3.654389529132895e-30
  0
ARC
  5
36
330
17
100
AcDbEntity
  8
0
100
AcDbCircle
 10
8.156058054069419
 20
39.22422450425289
 30
-3.1605531062770976e-30
 40
12.499999999999988
100
AcDbArc
 50
269.99999999999847
 51
359.99999999999847
  0
LINE
  5
37
330
17
100
AcDbEntity
  8
0
100
AcDbLine
 10
8.156058054069092
 20
26.724224504252877
 30
-3.1605531062770976e-30
 11
-49.34394194593095
 21
26.72422450425438
 31
-8.88905561140433e-31
  0
ARC
  5
38
330
17
100
AcDbEntity
  8
0
100
AcDbCircle
 10
-49.343941945930624
 20
39.224224504254394
 30
-8.88905561140433e-31
 40
12.499999999999988
100
AcDbArc
 50
179.9999999999985
 51
269.99999999999847
  0
LINE
  5
39
330
17
100
AcDbEntity
  8
0
100
AcDbLine
 10
-61.84394194593061
 20
39.22422450425472
 30
-3.950691382846372e-31
 11
-61.84394194593028
 21
51.72422450425471
 31
-3.950691382846372e-31
  0
LINE
  5
3A
330
17
100
AcDbEntity
  8
0
100
AcDbLine
 10
-61.84394194593028
 20
51.72422450425471
 30
-3.950691382846372e-31
 11
-71.84394194593028
 21
51.72422450425497
 31
0.0
  0
LINE
  5
3B
330
17
100
AcDbEntity
  8
0
100
AcDbLine
 10
-71.84394194593028
 20
51.72422450425497
 30
0.0
 11
-71.84394194593041
 21
46.72422450425498
 31
0.0
  0
LINE
  5
3C
330
17
100
AcDbEntity
  8
0
100
AcDbLine
 10
-71.84394194593041
 20
46.72422450425498
 30
0.0
 11
-81.84394194593068
 21
36.72422450425523
 31
3.950691382846372e-31
  0
LINE
  5
3D
330
17
100
AcDbEntity
  8
0
100
AcDbLine
 10
-81.84394194593068
 20
36.72422450425523
 30
3.950691382846372e-31
 11
-81.84394194593203
 21
-15.775775495744774
 31
3.9506913828463615e-31
  0
LINE
  5
3E
330
17
100
AcDbEntity
  8
0
100
AcDbLine
 10
-81.84394194593203
 20
-15.775775495744774
 30
3.9506913828463615e-31
 11
-71.84394194593231
 21
-25.775775495744917
 31
0.0
  0
LINE
  5
3F
330
17
100
AcDbEntity
  8
0
100
AcDbLine
 10
-71.84394194593231
 20
-25.775775495744917
 30
0.0
 11
-71.8439419459327
 21
-40.7757754957451
 31
0.0
  0
LINE
  5
40
330
17
100
AcDbEntity
  8
0
100
AcDbLine
 10
-71.8439419459327
 20
-40.7757754957451
 30
0.0
 11
86.15605805406724
 21
-40.77577549574924
 31
-6.242092384897263e-30
  0
LINE
  5
41
330
17
100
AcDbEntity
  8
0
100
AcDbLine
 10
38.12080401622414
 20
-2.7757754956508123
 30
-4.344367742895793e-30
 11
55.441312091912906
 21
-2.775775495651267
 31
-5.028647562907238e-30
  0
LINE
  5
42
330
17
100
AcDbEntity
  8
0
100
AcDbLine
 10
55.441312091912906
 20
-2.775775495651267
 30
-5.028647562907238e-30
 11
46.781058054068126
 21
-17.77577549565097
 31
-4.686507652901516e-30
  0
LINE
  5
43
330
17
100
AcDbEntity
  8
0
100
AcDbLine
 10
46.781058054068126
 20
-17.77577549565097
 30
-4.686507652901516e-30
 11
38.12080401622414
 21
-2.7757754956508123
 31
-4.344367742895793e-30
  0
LINE
  5
44
330
17
100
AcDbEntity
  8
0
100
AcDbLine
 10
32.12080401622427
 20
-2.775775495650656
 30
-4.1073262599250155e-30
 11
23.460549978379476
 21
-17.775775495650358
 31
-3.7651863499192924e-30
  0
LINE
  5
45
330
17
100
AcDbEntity
  8
0
100
AcDbLine
 10
23.460549978379476
 20
-17.775775495650358
 30
-3.7651863499192924e-30
 11
14.800295940535506
 21
-2.7757754956499454
 31
-3.42304643991357e-30
  0
LINE
  5
46
330
17
100
AcDbEntity
  8
0
100
AcDbLine
 10
14.800295940535506
 20
-2.7757754956499454
 30
-3.42304643991357e-30
 11
32.12080401622427
 21
-2.775775495650656
 31
-4.1073262599250155e-30
  0
LINE
  5
47
330
17
100
AcDbEntity
  8
0
100
AcDbLine
 10
61.441312091911385
 20
-35.77577549565124
 30
-5.265689045877995e-30
 11
70.1015661297564
 21
-20.77577549565178
 31
-5.607828955883728e-30
  0
LINE
  5
48
330
17
100
AcDbEntity
  8
0
100
AcDbLine
 10
70.1015661297564
 20
-20.77577549565178
 30
-5.607828955883728e-30
 11
78.76182016760015
 21
-35.77577549565195
 31
-5.949968865889441e-30
  0
LINE
  5
49
330
17
100
AcDbEntity
  8
0
100
AcDbLine
 10
78.76182016760015
 20
-35.77577549565195
 30
-5.949968865889441e-30
 11
61.441312091911385
 21
-35.77577549565124
 31
-5.265689045877995e-30
  0
LINE
  5
4A
330
17
100
AcDbEntity
  8
0
100
AcDbLine
 10
35.120804016223076
 20
-35.77577549565056
 30
-4.225847001410394e-30
 11
26.460549978379348
 21
-20.77577549565064
 31
-3.8837070914046814e-30
  0
LINE
  5
4B
330
17
100
AcDbEntity
  8
0
100
AcDbLine
 10
26.460549978379348
 20
-20.77577549565064
 30
-3.8837070914046814e-30
 11
43.781058054067856
 21
-20.775775495651096
 31
-4.567986911416117e-30
  0
LINE
  5
4C
330
17
100
AcDbEntity
  8
0
100
AcDbLine
 10
43.781058054067856
 20
-20.775775495651096
 30
-4.567986911416117e-30
 11
35.120804016223076
 21
-35.77577549565056
 31
-4.225847001410394e-30
  0
LINE
  5
4D
330
17
100
AcDbEntity
  8
0
100
AcDbLine
 10
35.12080401622427
 20
0.22422450434946484
 30
-4.225847001410404e-30
 11
26.460549978380286
 21
15.224224504349372
 31
-3.8837070914046814e-30
  0
LINE
  5
4E
330
17
100
AcDbEntity
  8
0
100
AcDbLine
 10
26.460549978380286
 20
15.224224504349372
 30
-3.8837070914046814e-30
 11
43.781058054068794
 21
15.224224504348918
 31
-4.567986911416117e-30
  0
LINE
  5
4F
330
17
100
AcDbEntity
  8
0
100
AcDbLine
 10
43.781058054068794
 20
15.224224504348918
 30
-4.567986911416117e-30
 11
35.12080401622427
 21
0.22422450434946484
 31
-4.225847001410404e-30
  0
LINE
  5
50
330
17
100
AcDbEntity
  8
0
100
AcDbLine
 10
58.44131209191144
 20
-35.77577549565117
 30
-5.147168304392607e-30
 11
49.781058054067984
 21
-20.775775495651253
 31
-4.805028394386904e-30
  0
LINE
  5
51
330
17
100
AcDbEntity
  8
0
100
AcDbLine
 10
49.781058054067984
 20
-20.775775495651253
 30
-4.805028394386904e-30
 11
67.10156612975649
 21
-20.775775495651963
 31
-5.4893082143983405e-30
  0
LINE
  5
52
330
17
100
AcDbEntity
  8
0
100
AcDbLine
 10
67.10156612975649
 20
-20.775775495651963
 30
-5.4893082143983405e-30
 11
58.44131209191144
 21
-35.77577549565117
 31
-5.147168304392607e-30
  0
LINE
  5
53
330
17
100
AcDbEntity
  8
0
100
AcDbLine
 10
58.441312091912835
 20
-2.775775495651594
 30
-5.1471683043926265e-30
 11
67.10156612975658
 21
-17.77577549565151
 31
-5.4893082143983405e-30
  0
LINE
  5
54
330
17
100
AcDbEntity
  8
0
100
AcDbLine
 10
67.10156612975658
 20
-17.77577549565151
 30
-5.4893082143983405e-30
 11
49.781058054068296
 21
-17.775775495651054
 31
-4.805028394386913e-30
  0
LINE
  5
55
330
17
100
AcDbEntity
  8
0
100
AcDbLine
 10
49.781058054068296
 20
-17.775775495651054
 30
-4.805028394386913e-30
 11
58.441312091912835
 21
-2.775775495651594
 31
-5.1471683043926265e-30
  0
LINE
  5
56
330
17
100
AcDbEntity
  8
0
100
AcDbLine
 10
55.44131209191298
 20
0.22422450434866903
 30
-5.028647562907238e-30
 11
38.12080401622394
 21
0.22422450434912378
 31
-4.344367742895782e-30
  0
LINE
  5
57
330
17
100
AcDbEntity
  8
0
100
AcDbLine
 10
38.12080401622394
 20
0.22422450434912378
 30
-4.344367742895782e-30
 11
46.78105805406899
 21
15.224224504349095
 31
-4.686507652901516e-30
  0
LINE
  5
58
330
17
100
AcDbEntity
  8
0
100
AcDbLine
 10
46.78105805406899
 20
15.224224504349095
 30
-4.686507652901516e-30
 11
55.44131209191298
 21
0.22422450434866903
 31
-5.028647562907238e-30
  0
LINE
  5
59
330
17
100
AcDbEntity
  8
0
100
AcDbLine
 10
78.76182016760151
 20
-2.775775495651871
 30
-5.94996886588946e-30
 11
70.10156612975649
 21
-17.775775495651835
 31
-5.607828955883728e-30
  0
LINE
  5
5A
330
17
100
AcDbEntity
  8
0
100
AcDbLine
 10
70.10156612975649
 20
-17.775775495651835
 30
-5.607828955883728e-30
 11
61.44131209191252
 21
-2.7757754956511675
 31
-5.265689045878006e-30
  0
LINE
  5
5B
330
17
100
AcDbEntity
  8
0
100
AcDbLine
 10
61.44131209191252
 20
-2.7757754956511675
 30
-5.265689045878006e-30
 11
78.76182016760151
 21
-2.775775495651871
 31
-5.94996886588946e-30
  0
LINE
  5
5C
330
17
100
AcDbEntity
  8
0
100
AcDbLine
 10
23.460549978379404
 20
-20.775775495650556
 30
-3.7651863499192924e-30
 11
32.1208040162234
 21
-35.77577549565073
 31
-4.1073262599250155e-30
  0
LINE
  5
5D
330
17
100
AcDbEntity
  8
0
100
AcDbLine
 10
32.1208040162234
 20
-35.77577549565073
 30
-4.1073262599250155e-30
 11
14.800295940534639
 21
-35.77577549565027
 31
-3.42304643991357e-30
  0
LINE
  5
5E
330
17
100
AcDbEntity
  8
0
100
AcDbLine
 10
14.800295940534639
 20
-35.77577549565027
 30
-3.42304643991357e-30
 11
23.460549978379404
 21
-20.775775495650556
 31
-3.7651863499192924e-30
  0
LINE
  5
5F
330
17
100
AcDbEntity
  8
0
100
AcDbLine
 10
58.441312091912664
 20
0.22422450434885377
 30
-5.147168304392617e-30
 11
49.78105805406892
 21
15.224224504349017
 31
-4.805028394386904e-30
  0
LINE
  5
60
330
17
100
AcDbEntity
  8
0
100
AcDbLine
 10
49.78105805406892
 20
15.224224504349017
 30
-4.805028394386904e-30
 11
67.10156612975743
 21
15.224224504348314
 31
-5.4893082143983405e-30
  0
LINE
  5
61
330
17
100
AcDbEntity
  8
0
100
AcDbLine
 10
67.10156612975743
 20
15.224224504348314
 30
-5.4893082143983405e-30
 11
58.441312091912664
 21
0.22422450434885377
 31
-5.147168304392617e-30
  0
LINE
  5
62
330
17
100
AcDbEntity
  8
0
100
AcDbLine
 10
38.120804016223005
 20
-35.77577549565088
 30
-4.344367742895782e-30
 11
46.781058054067785
 21
-20.77577549565091
 31
-4.6865076529015054e-30
  0
LINE
  5
63
330
17
100
AcDbEntity
  8
0
100
AcDbLine
 10
46.781058054067785
 20
-20.77577549565091
 30
-4.6865076529015054e-30
 11
55.44131209191177
 21
-35.77577549565134
 31
-5.028647562907228e-30
  0
LINE
  5
64
330
17
100
AcDbEntity
  8
0
100
AcDbLine
 10
55.44131209191177
 20
-35.77577549565134
 30
-5.028647562907228e-30
 11
38.120804016223005
 21
-35.77577549565088
 31
-4.344367742895782e-30
  0
LINE
  5
65
330
17
100
AcDbEntity
  8
0
100
AcDbLine
 10
14.800295940535577
 20
0.22422450434973484
 30
-3.42304643991357e-30
 11
23.460549978380342
 21
15.224224504349706
 31
-3.7651863499192924e-30
  0
LINE
  5
66
330
17
100
AcDbEntity
  8
0
100
AcDbLine
 10
23.460549978380342
 20
15.224224504349706
 30
-3.7651863499192924e-30
 11
32.12080401622434
 21
0.2242245043492801
 31
-4.1073262599250155e-30
  0
LINE
  5
67
330
17
100
AcDbEntity
  8
0
100
AcDbLine
 10
32.12080401622434
 20
0.2242245043492801
 30
-4.1073262599250155e-30
 11
14.800295940535577
 21
0.22422450434973484
 31
-3.42304643991357e-30
  0
LINE
  5
68
330
17
100
AcDbEntity
  8
0
100
AcDbLine
 10
35.12080401622444
 20
-2.775775495650734
 30
-4.2258470014104136e-30
 11
43.78105805406818
 21
-17.775775495650898
 31
-4.567986911416127e-30
  0
LINE
  5
69
330
17
100
AcDbEntity
  8
0
100
AcDbLine
 10
43.78105805406818
 20
-17.775775495650898
 30
-4.567986911416127e-30
 11
26.46054997837942
 21
-17.7757754956502
 31
-3.8837070914046814e-30
  0
LINE
  5
6A
330
17
100
AcDbEntity
  8
0
100
AcDbLine
 10
26.46054997837942
 20
-17.7757754956502
 30
-3.8837070914046814e-30
 11
35.12080401622444
 21
-2.775775495650734
 31
-4.2258470014104136e-30
  0
LINE
  5
6B
330
17
100
AcDbEntity
  8
0
100
AcDbLine
 10
61.44131209191261
 20
0.2242245043487756
 30
-5.265689045878006e-30
 11
70.10156612975734
 21
15.224224504348491
 31
-5.607828955883728e-30
  0
LINE
  5
6C
330
17
100
AcDbEntity
  8
0
100
AcDbLine
 10
70.10156612975734
 20
15.224224504348491
 30
-5.607828955883728e-30
 11
78.76182016760134
 21
0.22422450434832797
 31
-5.9499688658894505e-30
  0
LINE
  5
6D
330
17
100
AcDbEntity
  8
0
100
AcDbLine
 10
78.76182016760134
 20
0.22422450434832797
 30
-5.9499688658894505e-30
 11
61.44131209191261
 21
0.2242245043487756
 31
-5.265689045878006e-30
  0
CIRCLE
  5
6E
330
17
100
AcDbEntity
  8
0
100
AcDbCircle
 10
83.15605805406815
 20
-8.275775495749116
 30
-6.123571643411874e-30
 40
1.7499999999999927
  0
CIRCLE
  5
6F
330
17
100
AcDbEntity
  8
0
100
AcDbCircle
 10
83.15605805406892
 20
21.724224504251026
 30
-6.123571643411874e-30
 40
1.7500000000000029
  0
CIRCLE
  5
70
330
17
100
AcDbEntity
  8
0
100
AcDbCircle
 10
-45.59394194593126
 20
17.97422450425441
 30
-1.0370564879971683e-30
 40
1.75
  0
ARC
  5
71
330
17
100
AcDbEntity
  8
0
100
AcDbCircle
 10
-20.593941945931846
 20
-7.025775495746323
 30
-2.0247293337087637e-30
 40
28.75000000000006
100
AcDbArc
 50
-118.48179979882622
 51
-61.518200201176796
  0
ARC
  5
72
330
17
100
AcDbEntity
  8
0
100
AcDbCircle
 10
-33.350470628439766
 20
-30.538186600785274
 30
-1.520758254298622e-30
 40
2.000000000000001
100
AcDbArc
 50
143.9999999999942
 51
241.51820020117628
  0
LINE
  5
73
330
17
100
AcDbEntity
  8
0
100
AcDbLine
 10
-34.96850461718952
 20
-29.362616096200178
 30
-1.4568347249335588e-30
 11
-30.65609262190005
 21
-23.42709019226111
 31
-1.6272048140242872e-30
  0
ARC
  5
74
330
17
100
AcDbEntity
  8
0
100
AcDbCircle
 10
-29.038058633150293
 20
-24.602660696846208
 30
-1.6911283433893503e-30
 40
2.000000000000001
100
AcDbArc
 50
424.3398908939247
 51
503.9999999999942
  0
ARC
  5
75
330
17
100
AcDbEntity
  8
0
100
AcDbCircle
 10
-20.593941945931846
 20
-7.025775495746323
 30
-2.0247293337087637e-30
 40
17.5
100
AcDbArc
 50
244.33989089392622
 51
295.6601091060708
  0
ARC
  5
76
330
17
100
AcDbEntity
  8
0
100
AcDbCircle
 10
-12.149825258714316
 20
-24.602660696846648
 30
-2.358330324028177e-30
 40
2.000000000000001
100
AcDbArc
 50
396.00000000000284
 51
475.6601091060723
  0
LINE
  5
77
330
17
100
AcDbEntity
  8
0
100
AcDbLine
 10
-10.5317912699645
 20
-23.427090192261637
 30
-2.4222538533932406e-30
 11
-6.219379274675333
 21
-29.36261609620093
 31
-2.5926239424839687e-30
  0
ARC
  5
78
330
17
100
AcDbEntity
  8
0
100
AcDbCircle
 10
-7.837413263425148
 20
-30.53818660078594
 30
-2.5287004131189055e-30
 40
2.000000000000001
100
AcDbArc
 50
298.4817997988207
 51
396.0000000000028
  0
ARC
  5
79
330
17
100
AcDbEntity
  8
0
100
AcDbCircle
 10
-20.593941945931846
 20
-7.025775495746323
 30
-2.0247293337087637e-30
 40
28.75000000000006
100
AcDbArc
 50
-46.4817997988263
 51
10.48179979882346
  0
ARC
  5
7A
330
17
100
AcDbEntity
  8
0
100
AcDbCircle
 10
-2.1742943028004333
 20
-26.423689834738674
 30
-2.752432765896641e-30
 40
2.000000000000001
100
AcDbArc
 50
215.9999999999984
 51
313.518200201173
  0
LINE
  5
7B
330
17
100
AcDbEntity
  8
0
100
AcDbLine
 10
-3.79232829155049
 20
-27.59926033932367
 30
-2.6885092365315682e-30
 11
-8.104740286839657
 21
-21.663734435384377
 31
-2.5181391474408398e-30
  0
ARC
  5
7C
330
17
100
AcDbEntity
  8
0
100
AcDbCircle
 10
-6.486706298089587
 20
-20.48816393079938
 30
-2.582062676805913e-30
 40
2.000000000000001
100
AcDbArc
 50
496.339890893927
 51
575.9999999999982
  0
ARC
  5
7D
330
17
100
AcDbEntity
  8
0
100
AcDbCircle
 10
-20.593941945931846
 20
-7.025775495746323
 30
-2.0247293337087637e-30
 40
17.5
100
AcDbArc
 50
316.339890893926
 51
367.6601091060705
  0
ARC
  5
7E
330
17
100
AcDbEntity
  8
0
100
AcDbCircle
 10
-1.2679551804182267
 20
-4.4264995313289575
 30
-2.7882394275039373e-30
 40
2.000000000000001
100
AcDbArc
 50
468.0000000000006
 51
547.6601091060752
  0
LINE
  5
7F
330
17
100
AcDbEntity
  8
0
100
AcDbLine
 10
-1.8859891691681554
 20
-2.524386498738643
 30
-2.7638228119673305e-30
 11
5.091640012702612
 21
-0.25721734453958334
 31
-3.0394874067824703e-30
  0
ARC
  5
80
330
17
100
AcDbEntity
  8
0
100
AcDbCircle
 10
5.709674001452527
 20
-2.159330377129905
 30
-3.0639040223190767e-30
 40
2.000000000000001
100
AcDbArc
 50
370.4817997988273
 51
468.0000000000002
  0
ARC
  5
81
330
17
100
AcDbEntity
  8
0
100
AcDbCircle
 10
-20.593941945931846
 20
-7.025775495746323
 30
-2.0247293337087637e-30
 40
28.75000000000006
100
AcDbArc
 50
-190.48179979882644
 51
-133.51820020117674
  0
ARC
  5
82
330
17
100
AcDbEntity
  8
0
100
AcDbCircle
 10
-46.89755789331595
 20
-2.1593303771285335
 30
-9.855546450984515e-31
 40
2.000000000000001
100
AcDbArc
 50
431.99999999999716
 51
529.51820020117
  0
LINE
  5
83
330
17
100
AcDbEntity
  8
0
100
AcDbLine
 10
-46.27952390456595
 20
-0.2572173445382404
 30
-1.0099712606350574e-30
 11
-39.30189472269531
 21
-2.5243864987376625
 31
-1.2856358554501967e-30
  0
ARC
  5
84
330
17
100
AcDbEntity
  8
0
100
AcDbCircle
 10
-39.919928711445074
 20
-4.4264995313279485
 30
-1.2612192399136e-30
 40
2.000000000000001
100
AcDbArc
 50
352.33989089392077
 51
432.0000000000032
  0
ARC
  5
85
330
17
100
AcDbEntity
  8
0
100
AcDbCircle
 10
-20.593941945931846
 20
-7.025775495746323
 30
-2.0247293337087637e-30
 40
17.5
100
AcDbArc
 50
172.33989089392654
 51
223.660109106071
  0
ARC
  5
86
330
17
100
AcDbEntity
  8
0
100
AcDbCircle
 10
-34.70117759377481
 20
-20.488163930798642
 30
-1.4673959906116144e-30
 40
2.000000000000001
100
AcDbArc
 50
323.99999999999875
 51
403.66010910607
  0
LINE
  5
87
330
17
100
AcDbEntity
  8
0
100
AcDbLine
 10
-33.0831436050248
 20
-21.663734435383724
 30
-1.5313195199766875e-30
 11
-37.39555560031427
 21
-27.59926033932279
 31
-1.3609494308859596e-30
  0
ARC
  5
88
330
17
100
AcDbEntity
  8
0
100
AcDbCircle
 10
-39.013589589064274
 20
-26.423689834737708
 30
-1.2970259015208865e-30
 40
2.000000000000001
100
AcDbArc
 50
226.4817997988238
 51
323.9999999999987
  0
CIRCLE
  5
89
330
17
100
AcDbEntity
  8
0
100
AcDbCircle
 10
4.406058054068893
 20
17.9742245042531
 30
-3.0124021794203594e-30
 40
1.7500000000000029
  0
ARC
  5
8A
330
17
100
AcDbEntity
  8
0
100
AcDbCircle
 10
-20.593941945931846
 20
-7.025775495746323
 30
-2.0247293337087637e-30
 40
28.75000000000006
100
AcDbArc
 50
-262.48179979882656
 51
-205.51820020117657
  0
ARC
  5
8B
330
17
100
AcDbEntity
  8
0
100
AcDbCircle
 10
-24.093941945931128
 20
19.49426409698443
 30
-1.8864551353091418e-30
 40
2.000000000000001
100
AcDbArc
 50
359.99999999999847
 51
457.5182002011713
  0
LINE
  5
8C
330
17
100
AcDbEntity
  8
0
100
AcDbLine
 10
-22.09394194593125
 20
19.49426409698438
 30
-1.9654689629660643e-30
 11
-22.09394194593144
 21
12.157550597504482
 31
-1.9654689629660643e-30
  0
ARC
  5
8D
330
17
100
AcDbEntity
  8
0
100
AcDbCircle
 10
-24.09394194593132
 20
12.157550597504532
 30
-1.8864551353091418e-30
 40
2.000000000000001
100
AcDbArc
 50
280.3398908939274
 51
359.99999999999847
  0
ARC
  5
8E
330
17
100
AcDbEntity
  8
0
100
AcDbCircle
 10
-20.593941945931846
 20
-7.025775495746323
 30
-2.0247293337087637e-30
 40
17.5
100
AcDbArc
 50
100.33989089392587
 51
151.6601091060707
  0
ARC
  5
8F
330
17
100
AcDbEntity
  8
0
100
AcDbCircle
 10
-37.75680975082025
 20
2.230896082738063
 30
-1.3466773942917138e-30
 40
2.000000000000001
100
AcDbArc
 50
251.99999999999645
 51
331.66010910607116
  0
LINE
  5
90
330
17
100
AcDbEntity
  8
0
100
AcDbLine
 10
-38.374843739570274
 20
0.32878305014777
 30
-1.322260778755107e-30
 11
-45.35247292144117
 21
2.595952204347185
 31
-1.0465961839399575e-30
  0
ARC
  5
91
330
17
100
AcDbEntity
  8
0
100
AcDbCircle
 10
-44.73443893269115
 20
4.498065236937471
 30
-1.0710127994765646e-30
 40
2.000000000000001
100
AcDbArc
 50
154.4817997988216
 51
251.99999999999622
  0
CIRCLE
  5
92
330
17
100
AcDbEntity
  8
0
100
AcDbCircle
 10
-45.59394194593257
 20
-32.02577549574573
 30
-1.0370564879971683e-30
 40
1.7500000000000029
  0
ARC
  5
93
330
17
100
AcDbEntity
  8
0
100
AcDbCircle
 10
-20.593941945931846
 20
-7.025775495746323
 30
-2.0247293337087637e-30
 40
28.75000000000006
100
AcDbArc
 50
-334.4817997988265
 51
-277.5182002011769
  0
ARC
  5
94
330
17
100
AcDbEntity
  8
0
100
AcDbCircle
 10
3.5465550408280535
 20
4.498065236936206
 30
-2.978445867940963e-30
 40
2.000000000000001
100
AcDbArc
 50
288.0000000000006
 51
385.5182002011741
  0
LINE
  5
95
330
17
100
AcDbEntity
  8
0
100
AcDbLine
 10
4.164589029577982
 20
2.595952204345892
 30
-3.0028624834775697e-30
 11
-2.813040152293027
 21
0.3287830501468392
 31
-2.727197888662421e-30
  0
ARC
  5
96
330
17
100
AcDbEntity
  8
0
100
AcDbCircle
 10
-3.4310741410427
 20
2.2308960827371607
 30
-2.7027812731258236e-30
 40
1.9999999999999984
100
AcDbArc
 50
208.33989089392247
 51
287.999999999994
  0
ARC
  5
97
330
17
100
AcDbEntity
  8
0
100
AcDbCircle
 10
-20.593941945931846
 20
-7.025775495746323
 30
-2.0247293337087637e-30
 40
17.5
100
AcDbArc
 50
28.339890893926306
 51
79.66010910607112
  0
ARC
  5
98
330
17
100
AcDbEntity
  8
0
100
AcDbCircle
 10
-17.093941945931377
 20
12.157550597504347
 30
-2.1630035321083856e-30
 40
2.000000000000001
100
AcDbArc
 50
179.99999999999847
 51
259.6601091060698
  0
LINE
  5
99
330
17
100
AcDbEntity
  8
0
100
AcDbLine
 10
-19.09394194593125
 20
12.157550597504404
 30
-2.083989704451463e-30
 11
-19.093941945931057
 21
19.494264096984303
 31
-2.083989704451463e-30
  0
ARC
  5
9A
330
17
100
AcDbEntity
  8
0
100
AcDbCircle
 10
-17.093941945931185
 20
19.494264096984246
 30
-2.1630035321083856e-30
 40
2.000000000000001
100
AcDbArc
 50
442.4817997988182
 51
539.9999999999985
  0
CIRCLE
  5
9B
330
17
100
AcDbEntity
  8
0
100
AcDbCircle
 10
4.406058054067586
 20
-32.025775495747034
 30
-3.0124021794203594e-30
 40
1.7499999999999976
  0
CIRCLE
  5
9C
330
17
100
AcDbEntity
  8
0
100
AcDbCircle
 10
-76.84394194593185
 20
-8.27577549574493
 30
1.9753456914231808e-31
 40
1.7499999999999976
  0
CIRCLE
  5
9D
330
17
100
AcDbEntity
  8
0
100
AcDbCircle
 10
-76.84394194593105
 20
21.72422450425521
 30
1.9753456914231808e-31
 40
1.75
  0
ENDSEC
  0
SECTION
  2
OBJECTS
  0
DICTIONARY
  5
A
330
0
100
AcDbDictionary
281
1
  3
ACAD_COLOR
350
B
  3
ACAD_GROUP
350
C
  3
ACAD_LAYOUT
350
D
  3
ACAD_MATERIAL
350
E
  3
ACAD_MLEADERSTYLE
350
F
  3
ACAD_MLINESTYLE
350
10
  3
ACAD_PLOTSETTINGS
350
11
  3
ACAD_PLOTSTYLENAME
350
12
  3
ACAD_SCALELIST
350
14
  3
ACAD_TABLESTYLE
350
15
  3
ACAD_VISUALSTYLE
350
16
  3
EZDXF_META
350
2D
  0
DICTIONARY
  5
B
330
A
100
AcDbDictionary
281
1
  0
DICTIONARY
  5
C
330
A
100
AcDbDictionary
281
1
  0
DICTIONARY
  5
D
330
A
100
AcDbDictionary
281
1
  3
Model
350
1A
  3
Layout1
350
1E
  0
DICTIONARY
  5
E
330
A
100
AcDbDictionary
281
1
  3
ByBlock
350
1F
  3
ByLayer
350
20
  3
Global
350
21
  0
DICTIONARY
  5
F
330
A
100
AcDbDictionary
281
1
  3
Standard
350
2C
  0
DICTIONARY
  5
10
330
A
100
AcDbDictionary
281
1
  3
Standard
350
22
  0
DICTIONARY
  5
11
330
A
100
AcDbDictionary
281
1
  0
ACDBDICTIONARYWDFLT
  5
12
330
A
100
AcDbDictionary
281
1
  3
Normal
350
13
100
AcDbDictionaryWithDefault
340
13
  0
ACDBPLACEHOLDER
  5
13
330
12
  0
DICTIONARY
  5
14
330
A
100
AcDbDictionary
281
1
  0
DICTIONARY
  5
15
330
A
100
AcDbDictionary
281
1
  0
DICTIONARY
  5
16
330
A
100
AcDbDictionary
281
1
  0
LAYOUT
  5
1A
330
D
100
AcDbPlotSettings
  1

  4
A3
  6

 40
7.5
 41
20.0
 42
7.5
 43
20.0
 44
420.0
 45
297.0
 46
0.0
 47
0.0
 48
0.0
 49
0.0
140
0.0
141
0.0
142
1.0
143
1.0
 70
1024
 72
1
 73
0
 74
5
  7

 75
16
 76
0
 77
2
 78
300
147
1.0
148
0.0
149
0.0
100
AcDbLayout
  1
Model
 70
1
 71
0
 10
0.0
 20
0.0
 11
420.0
 21
297.0
 12
0.0
 22
0.0
 32
0.0
 14
1e+20
 24
1e+20
 34
1e+20
 15
-1e+20
 25
-1e+20
 35
-1e+20
146
0.0
 13
0.0
 23
0.0
 33
0.0
 16
1.0
 26
0.0
 36
0.0
 17
0.0
 27
1.0
 37
0.0
 76
1
330
17
  0
LAYOUT
  5
1E
330
D
100
AcDbPlotSettings
  1

  4
A3
  6

 40
7.5
 41
20.0
 42
7.5
 43
20.0
 44
420.0
 45
297.0
 46
0.0
 47
0.0
 48
0.0
 49
0.0
140
0.0
141
0.0
142
1.0
143
1.0
 70
0
 72
1
 73
0
 74
5
  7

 75
16
 76
0
 77
2
 78
300
147
1.0
148
0.0
149
0.0
100
AcDbLayout
  1
Layout1
 70
1
 71
1
 10
0.0
 20
0.0
 11
420.0
 21
297.0
 12
0.0
 22
0.0
 32
0.0
 14
1e+20
 24
1e+20
 34
1e+20
 15
-1e+20
 25
-1e+20
 35
-1e+20
146
0.0
 13
0.0
 23
0.0
 33
0.0
 16
1.0
 26
0.0
 36
0.0
 17
0.0
 27
1.0
 37
0.0
 76
1
330
1B
  0
MATERIAL
  5
1F
102
{ACAD_REACTORS
330
E
102
}
330
E
100
AcDbMaterial
  1
ByBlock
  2

 70
0
 40
1.0
 71
1
 41
1.0
 91
-1023410177
 42
1.0
 72
1
  3

 73
1
 74
1
 75
1
 44
0.5
 73
0
 45
1.0
 46
1.0
 77
1
  4

 78
1
 79
1
170
1
 48
1.0
171
1
  6

172
1
173
1
174
1
140
1.0
141
1.0
175
1
  7

176
1
177
1
178
1
143
1.0
179
1
  8

270
1
271
1
272
1
145
1.0
146
1.0
273
1
  9

274
1
275
1
276
1
 42
1.0
 72
1
  3

 73
1
 74
1
 75
1
 94
63
  0
MATERIAL
  5
20
102
{ACAD_REACTORS
330
E
102
}
330
E
100
AcDbMaterial
  1
ByLayer
  2

 70
0
 40
1.0
 71
1
 41
1.0
 91
-1023410177
 42
1.0
 72
1
  3

 73
1
 74
1
 75
1
 44
0.5
 73
0
 45
1.0
 46
1.0
 77
1
  4

 78
1
 79
1
170
1
 48
1.0
171
1
  6

172
1
173
1
174
1
140
1.0
141
1.0
175
1
  7

176
1
177
1
178
1
143
1.0
179
1
  8

270
1
271
1
272
1
145
1.0
146
1.0
273
1
  9

274
1
275
1
276
1
 42
1.0
 72
1
  3

 73
1
 74
1
 75
1
 94
63
  0
MATERIAL
  5
21
102
{ACAD_REACTORS
330
E
102
}
330
E
100
AcDbMaterial
  1
Global
  2

 70
0
 40
1.0
 71
1
 41
1.0
 91
-1023410177
 42
1.0
 72
1
  3

 73
1
 74
1
 75
1
 44
0.5
 73
0
 45
1.0
 46
1.0
 77
1
  4

 78
1
 79
1
170
1
 48
1.0
171
1
  6

172
1
173
1
174
1
140
1.0
141
1.0
175
1
  7

176
1
177
1
178
1
143
1.0
179
1
  8

270
1
271
1
272
1
145
1.0
146
1.0
273
1
  9

274
1
275
1
276
1
 42
1.0
 72
1
  3

 73
1
 74
1
 75
1
 94
63
  0
MLINESTYLE
  5
22
102
{ACAD_REACTORS
330
10
102
}
330
10
100
AcDbMlineStyle
  2
Standard
 70
0
  3

 62
256
 51
90.0
 52
90.0
 71
2
 49
0.5
 62
256
  6
BYLAYER
 49
-0.5
 62
256
  6
BYLAYER
  0
MLEADERSTYLE
  5
2C
102
{ACAD_REACTORS
330
F
102
}
330
F
100
AcDbMLeaderStyle
179
2
170
2
171
1
172
0
 90
2
 40
0.0
 41
0.0
173
1
 91
-1056964608
 92
-2
290
1
 42
2.0
291
1
 43
8.0
  3
Standard
 44
4.0
300

342
29
174
1
175
1
176
0
178
1
 93
-1056964608
 45
4.0
292
0
297
0
 46
4.0
 94
-1056964608
 47
1.0
 49
1.0
140
1.0
294
1
141
0.0
177
0
142
1.0
295
0
296
0
143
3.75
271
0
272
9
273
9
  0
DICTIONARY
  5
2D
330
A
100
AcDbDictionary
280
1
281
1
  3
CREATED_BY_EZDXF
350
2E
  3
WRITTEN_BY_EZDXF
350
A1
  0
DICTIONARYVAR
  5
2E
330
2D
100
DictionaryVariables
280
0
  1
1.4.4 @ 2026-09-22T04:34:53.208870+00:00
  0
DICTIONARYVAR
  5
A1
330
2D
100
DictionaryVariables
280
0
  1
1.4.4 @ 2026-09-22T04:34:53.288294+00:00
  0
ENDSEC
  0
EOF
