  0
SECTION
  2
HEADER
  9
$ACADVER
  1
AC1027
  9
$ACADMAINTVER
 70
105
  9
$DWGCODEPAGE
  3
ANSI_1252
  9
$LASTSAVEDBY
  1
ezdxf
  9
$REQUIREDVERSIONS
160
0
  9
$INSBASE
 10
0.0
 20
0.0
 30
0.0
  9
$EXTMIN
 10
1e+20
 20
1e+20
 30
1e+20
  9
$EXTMAX
 10
-1e+20
 20
-1e+20
 30
-1e+20
  9
$LIMMIN
 10
0.0
 20
0.0
  9
$LIMMAX
 10
420.0
 20
297.0
  9
$ORTHOMODE
 70
0
  9
$REGENMODE
 70
1
  9
$FILLMODE
 70
1
  9
$QTEXTMODE
 70
0
  9
$MIRRTEXT
 70
1
  9
$LTSCALE
 40
1.0
  9
$ATTMODE
 70
1
  9
$TEXTSIZE
 40
2.5
  9
$TRACEWID
 40
1.0
  9
$TEXTSTYLE
  7
Standard
  9
$CLAYER
  8
0
  9
$CELTYPE
  6
ByLayer
  9
$CECOLOR
 62
256
  9
$CELTSCALE
 40
1.0
  9
$DISPSILH
 70
0
  9
$DIMSCALE
 40
1.0
  9
$DIMASZ
 40
2.5
  9
$DIMEXO
 40
0.625
  9
$DIMDLI
 40
3.75
  9
$DIMRND
 40
0.0
  9
$DIMDLE
 40
0.0
  9
$DIMEXE
 40
1.25
  9
$DIMTP
 40
0.0
  9
$DIMTM
 40
0.0
  9
$DIMTXT
 40
2.5
  9
$DIMCEN
 40
2.5
  9
$DIMTSZ
 40
0.0
  9
$DIMTOL
 70
0
  9
$DIMLIM
 70
0
  9
$DIMTIH
 70
0
  9
$DIMTOH
 70
0
  9
$DIMSE1
 70
0
  9
$DIMSE2
 70
0
  9
$DIMTAD
 70
1
  9
$DIMZIN
 70
8
  9
$DIMBLK
  1

  9
$DIMASO
 70
1
  9
$DIMSHO
 70
1
  9
$DIMPOST
  1

  9
$DIMAPOST
  1

  9
$DIMALT
 70
0
  9
$DIMALTD
 70
3
  9
$DIMALTF
 40
0.03937007874
  9
$DIMLFAC
 40
1.0
  9
$DIMTOFL
 70
1
  9
$DIMTVP
 40
0.0
  9
$DIMTIX
 70
0
  9
$DIMSOXD
 70
0
  9
$DIMSAH
 70
0
  9
$DIMBLK1
  1

  9
$DIMBLK2
  1

  9
$DIMSTYLE
  2
ISO-25
  9
$DIMCLRD
 70
0
  9
$DIMCLRE
 70
0
  9
$DIMCLRT
 70
0
  9
$DIMTFAC
 40
1.0
  9
$DIMGAP
 40
0.625
  9
$DIMJUST
 70
0
  9
$DIMSD1
 70
0
  9
$DIMSD2
 70
0
  9
$DIMTOLJ
 70
0
  9
$DIMTZIN
 70
8
  9
$DIMALTZ
 70
0
  9
$DIMALTTZ
 70
0
  9
$DIMUPT
 70
0
  9
$DIMDEC
 70
2
  9
$DIMTDEC
 70
2
  9
$DIMALTU
 70
2
  9
$DIMALTTD
 70
3
  9
$DIMTXSTY
  7
Standard
  9
$DIMAUNIT
 70
0
  9
$DIMADEC
 70
0
  9
$DIMALTRND
 40
0.0
  9
$DIMAZIN
 70
0
  9
$DIMDSEP
 70
44
  9
$DIMATFIT
 70
3
  9
$DIMFRAC
 70
0
  9
$DIMLDRBLK
  1

  9
$DIMLUNIT
 70
2
  9
$DIMLWD
 70
-2
  9
$DIMLWE
 70
-2
  9
$DIMTMOVE
 70
0
  9
$DIMFXL
 40
1.0
  9
$DIMFXLON
 70
0
  9
$DIMJOGANG
 40
0.785398163397
  9
$DIMTFILL
 70
0
  9
$DIMTFILLCLR
 70
0
  9
$DIMARCSYM
 70
0
  9
$DIMLTYPE
  6

  9
$DIMLTEX1
  6

  9
$DIMLTEX2
  6

  9
$DIMTXTDIRECTION
 70
0
  9
$LUNITS
 70
2
  9
$LUPREC
 70
4
  9
$SKETCHINC
 40
1.0
  9
$FILLETRAD
 40
10.0
  9
$AUNITS
 70
0
  9
$AUPREC
 70
2
  9
$MENU
  1
.
  9
$ELEVATION
 40
0.0
  9
$PELEVATION
 40
0.0
  9
$THICKNESS
 40
0.0
  9
$LIMCHECK
 70
0
  9
$CHAMFERA
 40
0.0
  9
$CHAMFERB
 40
0.0
  9
$CHAMFERC
 40
0.0
  9
$CHAMFERD
 40
0.0
  9
$SKPOLY
 70
0
  9
$TDCREATE
 40
2461306.274212963
  9
$TDUCREATE
 40
2458532.153996898
  9
$TDUPDATE
 40
2461306.274212963
  9
$TDUUPDATE
 40
2458532.1544311
  9
$TDINDWG
 40
0.0
  9
$TDUSRTIMER
 40
0.0
  9
$USRTIMER
 70
1
  9
$ANGBASE
 50
0.0
  9
$ANGDIR
 70
0
  9
$PDMODE
 70
0
  9
$PDSIZE
 40
0.0
  9
$PLINEWID
 40
0.0
  9
$SPLFRAME
 70
0
  9
$SPLINETYPE
 70
6
  9
$SPLINESEGS
 70
8
  9
$HANDSEED
  5
A2
  9
$SURFTAB1
 70
6
  9
$SURFTAB2
 70
6
  9
$SURFTYPE
 70
6
  9
$SURFU
 70
6
  9
$SURFV
 70
6
  9
$UCSBASE
  2

  9
$UCSNAME
  2

  9
$UCSORG
 10
0.0
 20
0.0
 30
0.0
  9
$UCSXDIR
 10
1.0
 20
0.0
 30
0.0
  9
$UCSYDIR
 10
0.0
 20
1.0
 30
0.0
  9
$UCSORTHOREF
  2

  9
$UCSORTHOVIEW
 70
0
  9
$UCSORGTOP
 10
0.0
 20
0.0
 30
0.0
  9
$UCSORGBOTTOM
 10
0.0
 20
0.0
 30
0.0
  9
$UCSORGLEFT
 10
0.0
 20
0.0
 30
0.0
  9
$UCSORGRIGHT
 10
0.0
 20
0.0
 30
0.0
  9
$UCSORGFRONT
 10
0.0
 20
0.0
 30
0.0
  9
$UCSORGBACK
 10
0.0
 20
0.0
 30
0.0
  9
$PUCSBASE
  2

  9
$PUCSNAME
  2

  9
$PUCSORG
 10
0.0
 20
0.0
 30
0.0
  9
$PUCSXDIR
 10
1.0
 20
0.0
 30
0.0
  9
$PUCSYDIR
 10
0.0
 20
1.0
 30
0.0
  9
$PUCSORTHOREF
  2

  9
$PUCSORTHOVIEW
 70
0
  9
$PUCSORGTOP
 10
0.0
 20
0.0
 30
0.0
  9
$PUCSORGBOTTOM
 10
0.0
 20
0.0
 30
0.0
  9
$PUCSORGLEFT
 10
0.0
 20
0.0
 30
0.0
  9
$PUCSORGRIGHT
 10
0.0
 20
0.0
 30
0.0
  9
$PUCSORGFRONT
 10
0.0
 20
0.0
 30
0.0
  9
$PUCSORGBACK
 10
0.0
 20
0.0
 30
0.0
  9
$USERI1
 70
0
  9
$USERI2
 70
0
  9
$USERI3
 70
0
  9
$USERI4
 70
0
  9
$USERI5
 70
0
  9
$USERR1
 40
0.0
  9
$USERR2
 40
0.0
  9
$USERR3
 40
0.0
  9
$USERR4
 40
0.0
  9
$USERR5
 40
0.0
  9
$WORLDVIEW
 70
1
  9
$SHADEDGE
 70
3
  9
$SHADEDIF
 70
70
  9
$TILEMODE
 70
1
  9
$MAXACTVP
 70
64
  9
$PINSBASE
 10
0.0
 20
0.0
 30
0.0
  9
$PLIMCHECK
 70
0
  9
$PEXTMIN
 10
1e+20
 20
1e+20
 30
1e+20
  9
$PEXTMAX
 10
-1e+20
 20
-1e+20
 30
-1e+20
  9
$PLIMMIN
 10
0.0
 20
0.0
  9
$PLIMMAX
 10
420.0
 20
297.0
  9
$UNITMODE
 70
0
  9
$VISRETAIN
 70
1
  9
$PLINEGEN
 70
0
  9
$PSLTSCALE
 70
1
  9
$TREEDEPTH
 70
3020
  9
$CMLSTYLE
  2
Standard
  9
$CMLJUST
 70
0
  9
$CMLSCALE
 40
20.0
  9
$PROXYGRAPHICS
 70
1
  9
$MEASUREMENT
 70
1
  9
$CELWEIGHT
370
-1
  9
$ENDCAPS
280
0
  9
$JOINSTYLE
280
0
  9
$LWDISPLAY
290
0
  9
$INSUNITS
 70
4
  9
$HYPERLINKBASE
  1

  9
$STYLESHEET
  1

  9
$XEDIT
290
1
  9
$CEPSNTYPE
380
0
  9
$PSTYLEMODE
290
1
  9
$FINGERPRINTGUID
  2
{74601E7F-EC89-4555-B068-1E97E9A0F41D}
  9
$VERSIONGUID
  2
{11B224F1-492A-46F5-A80D-FF2AC71ED4AA}
  9
$EXTNAMES
290
1
  9
$PSVPSCALE
 40
0.0
  9
$OLESTARTUP
290
0
  9
$SORTENTS
280
127
  9
$INDEXCTL
280
0
  9
$HIDETEXT
280
1
  9
$XCLIPFRAME
280
1
  9
$HALOGAP
280
0
  9
$OBSCOLOR
 70
257
  9
$OBSLTYPE
280
0
  9
$INTERSECTIONDISPLAY
280
0
  9
$INTERSECTIONCOLOR
 70
257
  9
$DIMASSOC
280
2
  9
$PROJECTNAME
  1

  9
$CAMERADISPLAY
290
0
  9
$LENSLENGTH
 40
50.0
  9
$CAMERAHEIGHT
 40
0.0
  9
$STEPSPERSEC
 40
24.0
  9
$STEPSIZE
 40
100.0
  9
$3DDWFPREC
 40
2.0
  9
$PSOLWIDTH
 40
0.005
  9
$PSOLHEIGHT
 40
0.08
  9
$LOFTANG1
 40
1.570796326795
  9
$LOFTANG2
 40
1.570796326795
  9
$LOFTMAG1
 40
0.0
  9
$LOFTMAG2
 40
0.0
  9
$LOFTPARAM
 70
7
  9
$LOFTNORMALS
280
1
  9
$LATITUDE
 40
37.795
  9
$LONGITUDE
 40
-122.394
  9
$NORTHDIRECTION
 40
0.0
  9
$TIMEZONE
 70
-8000
  9
$LIGHTGLYPHDISPLAY
280
1
  9
$TILEMODELIGHTSYNCH
280
1
  9
$CMATERIAL
347
20
  9
$SOLIDHIST
280
0
  9
$SHOWHIST
280
1
  9
$DWFFRAME
280
2
  9
$DGNFRAME
280
2
  9
$REALWORLDSCALE
290
1
  9
$INTERFERECOLOR
 62
256
  9
$CSHADOW
280
0
  9
$SHADOWPLANELOCATION
 40
0.0
  0
ENDSEC
  0
SECTION
  2
CLASSES
  0
CLASS
  1
ACDBDICTIONARYWDFLT
  2
AcDbDictionaryWithDefault
  3
ObjectDBX Classes
 90
0
 91
0
280
0
281
0
  0
CLASS
  1
SUN
  2
AcDbSun
  3
SCENEOE
 90
1153
 91
0
280
0
281
0
  0
CLASS
  1
VISUALSTYLE
  2
AcDbVisualStyle
  3
ObjectDBX Classes
 90
4095
 91
0
280
0
281
0
  0
CLASS
  1
MATERIAL
  2
AcDbMaterial
  3
ObjectDBX Classes
 90
1153
 91
0
280
0
281
0
  0
CLASS
  1
SCALE
  2
AcDbScale
  3
ObjectDBX Classes
 90
1153
 91
0
280
0
281
0
  0
CLASS
  1
TABLESTYLE
  2
AcDbTableStyle
  3
ObjectDBX Classes
 90
4095
 91
0
280
0
281
0
  0
CLASS
  1
MLEADERSTYLE
  2
AcDbMLeaderStyle
  3
ACDB_MLEADERSTYLE_CLASS
 90
4095
 91
0
280
0
281
0
  0
CLASS
  1
DICTIONARYVAR
  2
AcDbDictionaryVar
  3
ObjectDBX Classes
 90
0
 91
0
280
0
281
0
  0
CLASS
  1
CELLSTYLEMAP
  2
AcDbCellStyleMap
  3
ObjectDBX Classes
 90
1152
 91
0
280
0
281
0
  0
CLASS
  1
MENTALRAYRENDERSETTINGS
  2
AcDbMentalRayRenderSettings
  3
SCENEOE
 90
1024
 91
0
280
0
281
0
  0
CLASS
  1
ACDBDETAILVIEWSTYLE
  2
AcDbDetailViewStyle
  3
ObjectDBX Classes
 90
1025
 91
0
280
0
281
0
  0
CLASS
  1
ACDBSECTIONVIEWSTYLE
  2
AcDbSectionViewStyle
  3
ObjectDBX Classes
 90
1025
 91
0
280
0
281
0
  0
CLASS
  1
RASTERVARIABLES
  2
AcDbRasterVariables
  3
ISM
 90
0
 91
0
280
0
281
0
  0
CLASS
  1
LAYOUT
  2
AcDbLayout
  3
ObjectDBX Classes
 90
0
 91
0
280
0
281
0
  0
CLASS
  1
ACDBPLACEHOLDER
  2
AcDbPlaceHolder
  3
ObjectDBX Classes
 90
0
 91
0
280
0
281
0
  0
ENDSEC
  0
SECTION
  2
TABLES
  0
TABLE
  2
VPORT
  5
8
330
0
100
AcDbSymbolTable
 70
1
  0
VPORT
  5
9E
330
8
100
AcDbSymbolTableRecord
100
AcDbViewportTableRecord
  2
*Active
 70
0
 10
0.0
 20
0.0
 11
1.0
 21
1.0
 12
3.156058054067941
 22
5.474224504252938
 13
0.0
 23
0.0
 14
0.5
 24
0.5
 15
0.5
 25
0.5
 16
0.0
 26
0.0
 36
1.0
 17
0.0
 27
0.0
 37
0.0
 40
92.50000000000095
 41
1.34
 42
50.0
 43
0.0
 44
0.0
 50
0.0
 51
0.0
 71
0
 72
1000
 73
1
 74
3
 75
0
 76
0
 77
0
 78
0
281
0
 65
1
110
0.0
120
0.0
130
0.0
111
1.0
121
0.0
131
0.0
112
0.0
122
1.0
132
0.0
 79
0
146
0.0
  0
ENDTAB
  0
TABLE
  2
LTYPE
  5
2
330
0
100
AcDbSymbolTable
 70
3
  0
LTYPE
  5
24
330
2
100
AcDbSymbolTableRecord
100
AcDbLinetypeTableRecord
  2
ByBlock
 70
0
  3

 72
65
 73
0
 40
0.0
  0
LTYPE
  5
25
330
2
100
AcDbSymbolTableRecord
100
AcDbLinetypeTableRecord
  2
ByLayer
 70
0
  3

 72
65
 73
0
 40
0.0
  0
LTYPE
  5
26
330
2
100
AcDbSymbolTableRecord
100
AcDbLinetypeTableRecord
  2
Continuous
 70
0
  3

 72
65
 73
0
 40
0.0
  0
ENDTAB
  0
TABLE
  2
LAYER
  5
1
330
0
100
AcDbSymbolTable
 70
2
  0
LAYER
  5
27
330
1
100
AcDbSymbolTableRecord
100
AcDbLayerTableRecord
  2
0
 70
0
 62
7
  6
Continuous
370
-3
390
13
347
21
  0
LAYER
  5
28
330
1
100
AcDbSymbolTableRecord
100
AcDbLayerTableRecord
  2
Defpoints
 70
0
 62
7
  6
Continuous
290
0
370
-3
390
13
347
21
  0
ENDTAB
  0
TABLE
  2
STYLE
  5
5
330
0
100
AcDbSymbolTable
 70
1
  0
STYLE
  5
29
330
5
100
AcDbSymbolTableRecord
100
AcDbTextStyleTableRecord
  2
Standard
 70
0
 40
0.0
 41
1.0
 50
0.0
 71
0
 42
2.5
  3
txt
  4

  0
ENDTAB
  0
TABLE
  2
VIEW
  5
7
330
0
100
AcDbSymbolTable
 70
0
  0
ENDTAB
  0
TABLE
  2
UCS
  5
6
330
0
100
AcDbSymbolTable
 70
0
  0
ENDTAB
  0
TABLE
  2
APPID
  5
3
330
0
100
AcDbSymbolTable
 70
3
  0
APPID
  5
2A
330
3
100
AcDbSymbolTableRecord
100
AcDbRegAppTableRecord
  2
ACAD
 70
0
  0
APPID
  5
9F
330
3
100
AcDbSymbolTableRecord
100
AcDbRegAppTableRecord
  2
HATCHBACKGROUNDCOLOR
 70
0
  0
APPID
  5
A0
330
3
100
AcDbSymbolTableRecord
100
AcDbRegAppTableRecord
  2
EZDXF
 70
0
  0
ENDTAB
  0
TABLE
  2
DIMSTYLE
  5
4
330
0
100
AcDbSymbolTable
 70
1
100
AcDbDimStyleTable
  0
DIMSTYLE
105
2B
330
4
100
AcDbSymbolTableRecord
100
AcDbDimStyleTableRecord
  2
Standard
 70
0
 40
1.0
 41
2.5
 42
0.625
 43
3.75
 44
1.25
 45
0.0
 46
0.0
 47
0.0
 48
0.0
 49
2.5
140
2.5
141
2.5
142
0.0
143
0.03937007874
144
1.0
145
0.0
146
1.0
147
0.625
148
0.0
 69
0
 70
0
 71
0
 72
0
 73
0
 74
0
 75
0
 76
0
 77
1
 78
8
 79
3
170
0
171
3
172
1
173
0
174
0
175
0
176
0
177
0
178
0
179
2
271
2
272
2
273
2
274
3
275
0
276
0
277
2
278
44
279
0
280
0
281
0
282
0
283
0
284
8
285
0
286
0
288
0
289
3
290
0
371
-2
372
-2
  0
ENDTAB
  0
TABLE
  2
BLOCK_RECORD
  5
9
330
0
100
AcDbSymbolTable
 70
2
  0
BLOCK_RECORD
  5
17
330
9
100
AcDbSymbolTableRecord
100
AcDbBlockTableRecord
  2
*Model_Space
340
1A
 70
0
280
1
281
0
  0
BLOCK_RECORD
  5
1B
330
9
100
AcDbSymbolTableRecord
100
AcDbBlockTableRecord
  2
*Paper_Space
340
1E
 70
0
280
1
281
0
  0
ENDTAB
  0
ENDSEC
  0
SECTION
  2
BLOCKS
  0
BLOCK
  5
18
330
17
100
AcDbEntity
  8
0
100
AcDbBlockBegin
  2
*Model_Space
 70
0
 10
0.0
 20
0.0
 30
0.0
  3
*Model_Space
  1

  0
ENDBLK
  5
19
330
17
100
AcDbEntity
  8
0
100
AcDbBlockEnd
  0
BLOCK
  5
1C
330
1B
100
AcDbEntity
  8
0
100
AcDbBlockBegin
  2
*Paper_Space
 70
0
 10
0.0
 20
0.0
 30
0.0
  3
*Paper_Space
  1

  0
ENDBLK
  5
1D
330
1B
100
AcDbEntity
  8
0
100
AcDbBlockEnd
  0
ENDSEC
  0
SECTION
  2
ENTITIES
  0
LINE
  5
2F
330
17
100
AcDbEntity
  8
0
100
AcDbLine
 10
86.15605805406756
 20
-40.77577549574754
 30
2.9575661150702253e-30
 11
88.15605805406767
 21
-38.775775495747425
 31
2.99500366083061e-30
  0
LINE
  5
30
330
17
100
AcDbEntity
  8
0
100
AcDbLine
 10
88.15605805406767
 20
-38.775775495747425
 30
2.99500366083061e-30
 11
88.1560580540681
 21
34.22422450425252
 31
2.99500366083061e-30
  0
LINE
  5
31
330
17
100
AcDbEntity
  8
0
100
AcDbLine
 10
88.1560580540681
 20
34.22422450425252
 30
2.99500366083061e-30
 11
86.15605805406798
 21
36.22422450425253
 31
2.9575661150702253e-30
  0
LINE
  5
32
330
17
100
AcDbEntity
  8
0
100
AcDbLine
 10
86.15605805406798
 20
36.22422450425253
 30
2.9575661150702253e-30
 11
30.656058054067984
 21
36.224224504252845
 31
1.9186742202196078e-30
  0
LINE
  5
33
330
17
100
AcDbEntity
  8
0
100
AcDbLine
 10
30.656058054067984
 20
36.224224504252845
 30
1.9186742202196078e-30
 11
30.65605805406807
 21
51.724224504252845
 31
1.9186742202196078e-30
  0
LINE
  5
34
330
17
100
AcDbEntity
  8
0
100
AcDbLine
 10
30.65605805406807
 20
51.724224504252845
 30
1.9186742202196078e-30
 11
20.656058054068197
 21
51.724224504252895
 31
1.731486491417697e-30
  0
LINE
  5
35
330
17
100
AcDbEntity
  8
0
100
AcDbLine
 10
20.656058054068197
 20
51.724224504252895
 30
1.731486491417697e-30
 11
20.656058054068126
 21
39.22422450425291
 31
1.731486491417697e-30
  0
ARC
  5
36
330
17
100
AcDbEntity
  8
0
100
AcDbCircle
 10
8.156058054068083
 20
39.22422450425298
 30
1.497501830415305e-30
 40
12.499999999999988
100
AcDbArc
 50
269.9999999999997
 51
359.9999999999997
  0
LINE
  5
37
330
17
100
AcDbEntity
  8
0
100
AcDbLine
 10
8.156058054068012
 20
26.724224504252966
 30
1.497501830415305e-30
 11
-49.34394194593202
 21
26.72422450425329
 31
4.211723898043042e-31
  0
ARC
  5
38
330
17
100
AcDbEntity
  8
0
100
AcDbCircle
 10
-49.34394194593196
 20
39.2242245042533
 30
4.211723898043042e-31
 40
12.499999999999988
100
AcDbArc
 50
179.9999999999997
 51
269.9999999999997
  0
LINE
  5
39
330
17
100
AcDbEntity
  8
0
100
AcDbLine
 10
-61.84394194593194
 20
39.22422450425337
 30
1.8718772880191313e-31
 11
-61.843941945931874
 21
51.72422450425336
 31
1.8718772880191313e-31
  0
LINE
  5
3A
330
17
100
AcDbEntity
  8
0
100
AcDbLine
 10
-61.843941945931874
 20
51.72422450425336
 30
1.8718772880191313e-31
 11
-71.84394194593187
 21
51.724224504253414
 31
0.0
  0
LINE
  5
3B
330
17
100
AcDbEntity
  8
0
100
AcDbLine
 10
-71.84394194593187
 20
51.724224504253414
 30
0.0
 11
-71.8439419459319
 21
46.72422450425343
 31
0.0
  0
LINE
  5
3C
330
17
100
AcDbEntity
  8
0
100
AcDbLine
 10
-71.8439419459319
 20
46.72422450425343
 30
0.0
 11
-81.84394194593196
 21
36.72422450425347
 31
-1.8718772880191313e-31
  0
LINE
  5
3D
330
17
100
AcDbEntity
  8
0
100
AcDbLine
 10
-81.84394194593196
 20
36.72422450425347
 30
-1.8718772880191313e-31
 11
-81.84394194593223
 21
-15.77577549574653
 31
-1.8718772880191267e-31
  0
LINE
  5
3E
330
17
100
AcDbEntity
  8
0
100
AcDbLine
 10
-81.84394194593223
 20
-15.77577549574653
 30
-1.8718772880191267e-31
 11
-71.8439419459323
 21
-25.775775495746473
 31
0.0
  0
LINE
  5
3F
330
17
100
AcDbEntity
  8
0
100
AcDbLine
 10
-71.8439419459323
 20
-25.775775495746473
 30
0.0
 11
-71.84394194593239
 21
-40.77577549574666
 31
0.0
  0
LINE
  5
40
330
17
100
AcDbEntity
  8
0
100
AcDbLine
 10
-71.84394194593239
 20
-40.77577549574666
 30
0.0
 11
86.15605805406756
 21
-40.77577549574754
 31
2.9575661150702253e-30
  0
LINE
  5
41
330
17
100
AcDbEntity
  8
0
100
AcDbLine
 10
38.12080401622367
 20
-2.7757754956501017
 30
2.0584051044935293e-30
 11
55.44131209191244
 21
-2.775775495650201
 31
2.3826237613318668e-30
  0
LINE
  5
42
330
17
100
AcDbEntity
  8
0
100
AcDbLine
 10
55.44131209191244
 20
-2.775775495650201
 30
2.3826237613318668e-30
 11
46.78105805406797
 21
-17.775775495650095
 31
2.220514432912698e-30
  0
LINE
  5
43
330
17
100
AcDbEntity
  8
0
100
AcDbLine
 10
46.78105805406797
 20
-17.775775495650095
 30
2.220514432912698e-30
 11
38.12080401622367
 21
-2.7757754956501017
 31
2.0584051044935293e-30
  0
LINE
  5
44
330
17
100
AcDbEntity
  8
0
100
AcDbLine
 10
32.1208040162238
 20
-2.7757754956500733
 30
1.946092467212384e-30
 11
23.46054997837932
 21
-17.775775495649953
 31
1.7839831387932148e-30
  0
LINE
  5
45
330
17
100
AcDbEntity
  8
0
100
AcDbLine
 10
23.46054997837932
 20
-17.775775495649953
 30
1.7839831387932148e-30
 11
14.800295940535037
 21
-2.775775495649718
 31
1.6218738103740466e-30
  0
LINE
  5
46
330
17
100
AcDbEntity
  8
0
100
AcDbLine
 10
14.800295940535037
 20
-2.775775495649718
 30
1.6218738103740466e-30
 11
32.1208040162238
 21
-2.7757754956500733
 31
1.946092467212384e-30
  0
LINE
  5
47
330
17
100
AcDbEntity
  8
0
100
AcDbLine
 10
61.44131209191161
 20
-35.77577549565005
 30
2.4949363986130026e-30
 11
70.10156612975632
 21
-20.77577549565042
 31
2.6570457270321757e-30
  0
LINE
  5
48
330
17
100
AcDbEntity
  8
0
100
AcDbLine
 10
70.10156612975632
 20
-20.77577549565042
 30
2.6570457270321757e-30
 11
78.76182016760038
 21
-35.77577549565041
 31
2.8191550554513397e-30
  0
LINE
  5
49
330
17
100
AcDbEntity
  8
0
100
AcDbLine
 10
78.76182016760038
 20
-35.77577549565041
 30
2.8191550554513397e-30
 11
61.44131209191161
 21
-35.77577549565005
 31
2.4949363986130026e-30
  0
LINE
  5
4A
330
17
100
AcDbEntity
  8
0
100
AcDbLine
 10
35.12080401622329
 20
-35.77577549564991
 30
2.0022487858529518e-30
 11
26.460549978379248
 21
-20.77577549565018
 31
1.8401394574337878e-30
  0
LINE
  5
4B
330
17
100
AcDbEntity
  8
0
100
AcDbLine
 10
26.460549978379248
 20
-20.77577549565018
 30
1.8401394574337878e-30
 11
43.781058054067756
 21
-20.775775495650265
 31
2.1643581142721203e-30
  0
LINE
  5
4C
330
17
100
AcDbEntity
  8
0
100
AcDbLine
 10
43.781058054067756
 20
-20.775775495650265
 30
2.1643581142721203e-30
 11
35.12080401622329
 21
-35.77577549564991
 31
2.0022487858529518e-30
  0
LINE
  5
4D
330
17
100
AcDbEntity
  8
0
100
AcDbLine
 10
35.120804016223744
 20
0.22422450435011143
 30
2.0022487858529563e-30
 11
26.460549978379447
 21
15.224224504349841
 31
1.8401394574337878e-30
  0
LINE
  5
4E
330
17
100
AcDbEntity
  8
0
100
AcDbLine
 10
26.460549978379447
 20
15.224224504349841
 30
1.8401394574337878e-30
 11
43.781058054067955
 21
15.224224504349742
 31
2.1643581142721203e-30
  0
LINE
  5
4F
330
17
100
AcDbEntity
  8
0
100
AcDbLine
 10
43.781058054067955
 20
15.224224504349742
 30
2.1643581142721203e-30
 11
35.120804016223744
 21
0.22422450435011143
 31
2.0022487858529563e-30
  0
LINE
  5
50
330
17
100
AcDbEntity
  8
0
100
AcDbLine
 10
58.44131209191167
 20
-35.77577549565004
 30
2.4387800799724296e-30
 11
49.781058054067884
 21
-20.775775495650308
 31
2.2766707515532705e-30
  0
LINE
  5
51
330
17
100
AcDbEntity
  8
0
100
AcDbLine
 10
49.781058054067884
 20
-20.775775495650308
 30
2.2766707515532705e-30
 11
67.1015661297564
 21
-20.775775495650663
 31
2.6008894083916034e-30
  0
LINE
  5
52
330
17
100
AcDbEntity
  8
0
100
AcDbLine
 10
67.1015661297564
 20
-20.775775495650663
 30
2.6008894083916034e-30
 11
58.44131209191167
 21
-35.77577549565004
 31
2.4387800799724296e-30
  0
LINE
  5
53
330
17
100
AcDbEntity
  8
0
100
AcDbLine
 10
58.44131209191235
 20
-2.775775495650464
 30
2.4387800799724394e-30
 11
67.1015661297564
 21
-17.77577549565021
 31
2.6008894083916034e-30
  0
LINE
  5
54
330
17
100
AcDbEntity
  8
0
100
AcDbLine
 10
67.1015661297564
 20
-17.77577549565021
 30
2.6008894083916034e-30
 11
49.78105805406814
 21
-17.77577549565011
 31
2.276670751553275e-30
  0
LINE
  5
55
330
17
100
AcDbEntity
  8
0
100
AcDbLine
 10
49.78105805406814
 20
-17.77577549565011
 30
2.276670751553275e-30
 11
58.44131209191235
 21
-2.775775495650464
 31
2.4387800799724394e-30
  0
LINE
  5
56
330
17
100
AcDbEntity
  8
0
100
AcDbLine
 10
55.44131209191245
 20
0.22422450434973484
 30
2.3826237613318668e-30
 11
38.12080401622342
 21
0.22422450434983432
 31
2.0584051044935244e-30
  0
LINE
  5
57
330
17
100
AcDbEntity
  8
0
100
AcDbLine
 10
38.12080401622342
 20
0.22422450434983432
 30
2.0584051044935244e-30
 11
46.781058054068154
 21
15.224224504349984
 31
2.220514432912698e-30
  0
LINE
  5
58
330
17
100
AcDbEntity
  8
0
100
AcDbLine
 10
46.781058054068154
 20
15.224224504349984
 30
2.220514432912698e-30
 11
55.44131209191245
 21
0.22422450434973484
 31
2.3826237613318668e-30
  0
LINE
  5
59
330
17
100
AcDbEntity
  8
0
100
AcDbLine
 10
78.76182016760103
 20
-2.775775495650329
 30
2.819155055451349e-30
 11
70.10156612975632
 21
-17.77577549565048
 31
2.6570457270321757e-30
  0
LINE
  5
5A
330
17
100
AcDbEntity
  8
0
100
AcDbLine
 10
70.10156612975632
 20
-17.77577549565048
 30
2.6570457270321757e-30
 11
61.44131209191204
 21
-2.775775495649981
 31
2.4949363986130072e-30
  0
LINE
  5
5B
330
17
100
AcDbEntity
  8
0
100
AcDbLine
 10
61.44131209191204
 20
-2.775775495649981
 30
2.4949363986130072e-30
 11
78.76182016760103
 21
-2.775775495650329
 31
2.819155055451349e-30
  0
LINE
  5
5C
330
17
100
AcDbEntity
  8
0
100
AcDbLine
 10
23.460549978379305
 20
-20.77577549565015
 30
1.7839831387932148e-30
 11
32.120804016223616
 21
-35.77577549565015
 31
1.946092467212384e-30
  0
LINE
  5
5D
330
17
100
AcDbEntity
  8
0
100
AcDbLine
 10
32.120804016223616
 20
-35.77577549565015
 30
1.946092467212384e-30
 11
14.800295940534852
 21
-35.77577549565005
 31
1.6218738103740466e-30
  0
LINE
  5
5E
330
17
100
AcDbEntity
  8
0
100
AcDbLine
 10
14.800295940534852
 20
-35.77577549565005
 30
1.6218738103740466e-30
 11
23.460549978379305
 21
-20.77577549565015
 31
1.7839831387932148e-30
  0
LINE
  5
5F
330
17
100
AcDbEntity
  8
0
100
AcDbLine
 10
58.441312091912124
 20
0.22422450434998353
 30
2.4387800799724345e-30
 11
49.78105805406808
 21
15.22422450434997
 31
2.2766707515532705e-30
  0
LINE
  5
60
330
17
100
AcDbEntity
  8
0
100
AcDbLine
 10
49.78105805406808
 20
15.22422450434997
 30
2.2766707515532705e-30
 11
67.1015661297566
 21
15.224224504349614
 31
2.6008894083916034e-30
  0
LINE
  5
61
330
17
100
AcDbEntity
  8
0
100
AcDbLine
 10
67.1015661297566
 20
15.224224504349614
 30
2.6008894083916034e-30
 11
58.441312091912124
 21
0.22422450434998353
 31
2.4387800799724345e-30
  0
LINE
  5
62
330
17
100
AcDbEntity
  8
0
100
AcDbLine
 10
38.12080401622322
 20
-35.77577549565018
 30
2.0584051044935244e-30
 11
46.781058054067685
 21
-20.775775495650038
 31
2.220514432912693e-30
  0
LINE
  5
63
330
17
100
AcDbEntity
  8
0
100
AcDbLine
 10
46.781058054067685
 20
-20.775775495650038
 30
2.220514432912693e-30
 11
55.44131209191198
 21
-35.77577549565028
 31
2.3826237613318615e-30
  0
LINE
  5
64
330
17
100
AcDbEntity
  8
0
100
AcDbLine
 10
55.44131209191198
 20
-35.77577549565028
 30
2.3826237613318615e-30
 11
38.12080401622322
 21
-35.77577549565018
 31
2.0584051044935244e-30
  0
LINE
  5
65
330
17
100
AcDbEntity
  8
0
100
AcDbLine
 10
14.800295940535051
 20
0.22422450434996222
 30
1.6218738103740466e-30
 11
23.460549978379504
 21
15.224224504350111
 31
1.7839831387932148e-30
  0
LINE
  5
66
330
17
100
AcDbEntity
  8
0
100
AcDbLine
 10
23.460549978379504
 20
15.224224504350111
 30
1.7839831387932148e-30
 11
32.120804016223815
 21
0.22422450434986274
 31
1.946092467212384e-30
  0
LINE
  5
67
330
17
100
AcDbEntity
  8
0
100
AcDbLine
 10
32.120804016223815
 20
0.22422450434986274
 30
1.946092467212384e-30
 11
14.800295940535051
 21
0.22422450434996222
 31
1.6218738103740466e-30
  0
LINE
  5
68
330
17
100
AcDbEntity
  8
0
100
AcDbLine
 10
35.12080401622397
 20
-2.7757754956500875
 30
2.002248785852961e-30
 11
43.781058054068026
 21
-17.775775495650066
 31
2.1643581142721252e-30
  0
LINE
  5
69
330
17
100
AcDbEntity
  8
0
100
AcDbLine
 10
43.781058054068026
 20
-17.775775495650066
 30
2.1643581142721252e-30
 11
26.460549978379262
 21
-17.77577549564974
 31
1.8401394574337878e-30
  0
LINE
  5
6A
330
17
100
AcDbEntity
  8
0
100
AcDbLine
 10
26.460549978379262
 20
-17.77577549564974
 30
1.8401394574337878e-30
 11
35.12080401622397
 21
-2.7757754956500875
 31
2.002248785852961e-30
  0
LINE
  5
6B
330
17
100
AcDbEntity
  8
0
100
AcDbLine
 10
61.44131209191207
 20
0.22422450434996222
 30
2.4949363986130072e-30
 11
70.10156612975652
 21
15.224224504349856
 31
2.6570457270321757e-30
  0
LINE
  5
6C
330
17
100
AcDbEntity
  8
0
100
AcDbLine
 10
70.10156612975652
 20
15.224224504349856
 30
2.6570457270321757e-30
 11
78.7618201676008
 21
0.22422450434986985
 31
2.8191550554513443e-30
  0
LINE
  5
6D
330
17
100
AcDbEntity
  8
0
100
AcDbLine
 10
78.7618201676008
 20
0.22422450434986985
 30
2.8191550554513443e-30
 11
61.44131209191207
 21
0.22422450434996222
 31
2.4949363986130072e-30
  0
CIRCLE
  5
6E
330
17
100
AcDbEntity
  8
0
100
AcDbCircle
 10
83.15605805406778
 20
-8.275775495747482
 30
2.9014097964296527e-30
 40
1.7499999999999927
  0
CIRCLE
  5
6F
330
17
100
AcDbEntity
  8
0
100
AcDbCircle
 10
83.15605805406796
 20
21.72422450425266
 30
2.9014097964296527e-30
 40
1.7500000000000029
  0
CIRCLE
  5
70
330
17
100
AcDbEntity
  8
0
100
AcDbCircle
 10
-45.59394194593216
 20
17.974224504253392
 30
4.9136778810502e-31
 40
1.75
  0
ARC
  5
71
330
17
100
AcDbEntity
  8
0
100
AcDbCircle
 10
-20.59394194593223
 20
-7.025775495746821
 30
9.593371101098039e-31
 40
28.75000000000006
100
AcDbArc
 50
-118.48179979882502
 51
-61.51820020117563
  0
ARC
  5
72
330
17
100
AcDbEntity
  8
0
100
AcDbCircle
 10
-33.350470628439666
 20
-30.538186600786034
 30
7.205505469623037e-31
 40
2.000000000000001
100
AcDbArc
 50
143.99999999999537
 51
241.51820020117745
  0
LINE
  5
73
330
17
100
AcDbEntity
  8
0
100
AcDbLine
 10
-34.968504617189446
 20
-29.362616096200966
 30
6.902629362144664e-31
 11
-30.656092621900093
 21
-23.427090192261815
 31
7.709859969200998e-31
  0
ARC
  5
74
330
17
100
AcDbEntity
  8
0
100
AcDbCircle
 10
-29.038058633150314
 20
-24.602660696846883
 30
8.012736076679371e-31
 40
2.000000000000001
100
AcDbArc
 50
424.3398908939259
 51
503.99999999999534
  0
ARC
  5
75
330
17
100
AcDbEntity
  8
0
100
AcDbCircle
 10
-20.59394194593223
 20
-7.025775495746821
 30
9.593371101098039e-31
 40
17.5
100
AcDbArc
 50
244.3398908939274
 51
295.660109106072
  0
ARC
  5
76
330
17
100
AcDbEntity
  8
0
100
AcDbCircle
 10
-12.149825258714337
 20
-24.602660696846968
 30
1.1174006125516709e-30
 40
2.000000000000001
100
AcDbArc
 50
396.000000000004
 51
475.6601091060735
  0
LINE
  5
77
330
17
100
AcDbEntity
  8
0
100
AcDbLine
 10
-10.531791269964543
 20
-23.42709019226193
 30
1.1476882232995082e-30
 11
-6.219379274675262
 21
-29.362616096201137
 31
1.2284112840051416e-30
  0
ARC
  5
78
330
17
100
AcDbEntity
  8
0
100
AcDbCircle
 10
-7.837413263425049
 20
-30.538186600786176
 30
1.1981236732573043e-30
 40
2.000000000000001
100
AcDbArc
 50
298.4817997988219
 51
396.000000000004
  0
ARC
  5
79
330
17
100
AcDbEntity
  8
0
100
AcDbCircle
 10
-20.59394194593223
 20
-7.025775495746821
 30
9.593371101098039e-31
 40
28.75000000000006
100
AcDbArc
 50
-46.481799798825136
 51
10.481799798824625
  0
ARC
  5
7A
330
17
100
AcDbEntity
  8
0
100
AcDbCircle
 10
-2.174294302800419
 20
-26.423689834738795
 30
1.3041303108747415e-30
 40
2.000000000000001
100
AcDbArc
 50
215.9999999999996
 51
313.5182002011741
  0
LINE
  5
7B
330
17
100
AcDbEntity
  8
0
100
AcDbLine
 10
-3.7923282915504473
 20
-27.599260339323834
 30
1.2738427001268997e-30
 11
-8.104740286839743
 21
-21.663734435384626
 31
1.1931196394212662e-30
  0
ARC
  5
7C
330
17
100
AcDbEntity
  8
0
100
AcDbCircle
 10
-6.486706298089686
 20
-20.4881639307996
 30
1.2234072501691082e-30
 40
2.000000000000001
100
AcDbArc
 50
496.3398908939281
 51
575.9999999999994
  0
ARC
  5
7D
330
17
100
AcDbEntity
  8
0
100
AcDbCircle
 10
-20.59394194593223
 20
-7.025775495746821
 30
9.593371101098039e-31
 40
17.5
100
AcDbArc
 50
316.3398908939272
 51
367.6601091060717
  0
ARC
  5
7E
330
17
100
AcDbEntity
  8
0
100
AcDbCircle
 10
-1.2679551804186673
 20
-4.426499531329057
 30
1.321095867059035e-30
 40
2.000000000000001
100
AcDbArc
 50
468.0000000000018
 51
547.6601091060764
  0
LINE
  5
7F
330
17
100
AcDbEntity
  8
0
100
AcDbLine
 10
-1.8859891691686244
 20
-2.5243864987387568
 30
1.3095270291913856e-30
 11
5.091640012702101
 21
-0.2572173445395549
 31
1.4401396850890185e-30
  0
ARC
  5
80
330
17
100
AcDbEntity
  8
0
100
AcDbCircle
 10
5.7096740014520435
 20
-2.1593303771298693
 30
1.4517085229566677e-30
 40
2.000000000000001
100
AcDbArc
 50
370.48179979882843
 51
468.0000000000014
  0
ARC
  5
81
330
17
100
AcDbEntity
  8
0
100
AcDbCircle
 10
-20.59394194593223
 20
-7.025775495746821
 30
9.593371101098039e-31
 40
28.75000000000006
100
AcDbArc
 50
-190.48179979882525
 51
-133.51820020117555
  0
ARC
  5
82
330
17
100
AcDbEntity
  8
0
100
AcDbCircle
 10
-46.89755789331643
 20
-2.159330377129578
 30
4.669656972629406e-31
 40
2.000000000000001
100
AcDbArc
 50
431.9999999999983
 51
529.5182002011711
  0
LINE
  5
83
330
17
100
AcDbEntity
  8
0
100
AcDbLine
 10
-46.279523904566474
 20
-0.2572173445392707
 30
4.785345351305895e-31
 11
-39.301894722695785
 21
-2.5243864987385507
 31
6.091471910282222e-31
  0
ARC
  5
84
330
17
100
AcDbEntity
  8
0
100
AcDbCircle
 10
-39.91992871144551
 20
-4.426499531328844
 30
5.975783531605775e-31
 40
2.000000000000001
100
AcDbArc
 50
352.33989089392196
 51
432.0000000000044
  0
ARC
  5
85
330
17
100
AcDbEntity
  8
0
100
AcDbCircle
 10
-20.59394194593223
 20
-7.025775495746821
 30
9.593371101098039e-31
 40
17.5
100
AcDbArc
 50
172.3398908939277
 51
223.66010910607216
  0
ARC
  5
86
330
17
100
AcDbEntity
  8
0
100
AcDbCircle
 10
-34.701177593774915
 20
-20.488163930799445
 30
6.952669700504997e-31
 40
2.000000000000001
100
AcDbArc
 50
323.9999999999999
 51
403.66010910607116
  0
LINE
  5
87
330
17
100
AcDbEntity
  8
0
100
AcDbLine
 10
-33.08314360502489
 20
-21.663734435384484
 30
7.255545807983416e-31
 11
-37.395555600314225
 21
-27.59926033932365
 31
6.448315200927084e-31
  0
ARC
  5
88
330
17
100
AcDbEntity
  8
0
100
AcDbCircle
 10
-39.01358958906425
 20
-26.423689834738596
 30
6.145439093448665e-31
 40
2.000000000000001
100
AcDbArc
 50
226.481799798825
 51
323.99999999999983
  0
CIRCLE
  5
89
330
17
100
AcDbEntity
  8
0
100
AcDbCircle
 10
4.406058054067998
 20
17.974224504253115
 30
1.4273064321145882e-30
 40
1.7500000000000029
  0
ARC
  5
8A
330
17
100
AcDbEntity
  8
0
100
AcDbCircle
 10
-20.59394194593223
 20
-7.025775495746821
 30
9.593371101098039e-31
 40
28.75000000000006
100
AcDbArc
 50
-262.48179979882536
 51
-205.51820020117543
  0
ARC
  5
8B
330
17
100
AcDbEntity
  8
0
100
AcDbCircle
 10
-24.093941945932052
 20
19.494264096983862
 30
8.938214050291349e-31
 40
2.000000000000001
100
AcDbArc
 50
359.9999999999997
 51
457.51820020117253
  0
LINE
  5
8C
330
17
100
AcDbEntity
  8
0
100
AcDbLine
 10
-22.093941945932173
 20
19.494264096983848
 30
9.312589507895153e-31
 11
-22.093941945932215
 21
12.157550597503949
 31
9.312589507895153e-31
  0
ARC
  5
8D
330
17
100
AcDbEntity
  8
0
100
AcDbCircle
 10
-24.093941945932094
 20
12.157550597503963
 30
8.938214050291349e-31
 40
2.000000000000001
100
AcDbArc
 50
280.33989089392855
 51
359.99999999999966
  0
ARC
  5
8E
330
17
100
AcDbEntity
  8
0
100
AcDbCircle
 10
-20.59394194593223
 20
-7.025775495746821
 30
9.593371101098039e-31
 40
17.5
100
AcDbArc
 50
100.33989089392705
 51
151.66010910607187
  0
ARC
  5
8F
330
17
100
AcDbEntity
  8
0
100
AcDbCircle
 10
-37.75680975082083
 20
2.2308960827372033
 30
6.380692856973458e-31
 40
2.000000000000001
100
AcDbArc
 50
251.9999999999976
 51
331.66010910607235
  0
LINE
  5
90
330
17
100
AcDbEntity
  8
0
100
AcDbLine
 10
-38.37484373957081
 20
0.3287830501469031
 30
6.265004478296964e-31
 11
-45.352472921441745
 21
2.595952204346176
 31
4.9588779193205895e-31
  0
ARC
  5
91
330
17
100
AcDbEntity
  8
0
100
AcDbCircle
 10
-44.73443893269176
 20
4.498065236936476
 30
5.074566297997084e-31
 40
2.000000000000001
100
AcDbArc
 50
154.4817997988228
 51
251.99999999999744
  0
CIRCLE
  5
92
330
17
100
AcDbEntity
  8
0
100
AcDbCircle
 10
-45.59394194593244
 20
-32.02577549574674
 30
4.9136778810502e-31
 40
1.7500000000000029
  0
ARC
  5
93
330
17
100
AcDbEntity
  8
0
100
AcDbCircle
 10
-20.59394194593223
 20
-7.025775495746821
 30
9.593371101098039e-31
 40
28.75000000000006
100
AcDbArc
 50
-334.48179979882536
 51
-277.5182002011758
  0
ARC
  5
94
330
17
100
AcDbEntity
  8
0
100
AcDbCircle
 10
3.5465550408274282
 20
4.498065236936206
 30
1.4112175904198996e-30
 40
2.000000000000001
100
AcDbArc
 50
288.0000000000018
 51
385.5182002011753
  0
LINE
  5
95
330
17
100
AcDbEntity
  8
0
100
AcDbLine
 10
4.1645890295773995
 20
2.595952204345899
 30
1.4227864282875489e-30
 11
-2.813040152293553
 21
0.32878305014670417
 31
1.2921737723899118e-30
  0
ARC
  5
96
330
17
100
AcDbEntity
  8
0
100
AcDbCircle
 10
-3.4310741410432684
 20
2.2308960827370115
 30
1.2806049345222669e-30
 40
1.9999999999999984
100
AcDbArc
 50
208.33989089392367
 51
287.9999999999952
  0
ARC
  5
97
330
17
100
AcDbEntity
  8
0
100
AcDbCircle
 10
-20.59394194593223
 20
-7.025775495746821
 30
9.593371101098039e-31
 40
17.5
100
AcDbArc
 50
28.33989089392748
 51
79.6601091060723
  0
ARC
  5
98
330
17
100
AcDbEntity
  8
0
100
AcDbCircle
 10
-17.09394194593215
 20
12.15755059750392
 30
1.024852815190473e-30
 40
2.000000000000001
100
AcDbArc
 50
179.99999999999966
 51
259.660109106071
  0
LINE
  5
99
330
17
100
AcDbEntity
  8
0
100
AcDbLine
 10
-19.093941945932023
 20
12.157550597503935
 30
9.874152694300927e-31
 11
-19.09394194593198
 21
19.494264096983834
 31
9.874152694300927e-31
  0
ARC
  5
9A
330
17
100
AcDbEntity
  8
0
100
AcDbCircle
 10
-17.09394194593211
 20
19.49426409698382
 30
1.024852815190473e-30
 40
2.000000000000001
100
AcDbArc
 50
442.48179979881945
 51
539.9999999999997
  0
CIRCLE
  5
9B
330
17
100
AcDbEntity
  8
0
100
AcDbCircle
 10
4.406058054067714
 20
-32.02577549574703
 30
1.4273064321145882e-30
 40
1.7499999999999976
  0
CIRCLE
  5
9C
330
17
100
AcDbEntity
  8
0
100
AcDbCircle
 10
-76.8439419459322
 20
-8.275775495746586
 30
-9.359386440095634e-32
 40
1.7499999999999976
  0
CIRCLE
  5
9D
330
17
100
AcDbEntity
  8
0
100
AcDbCircle
 10
-76.84394194593203
 20
21.724224504253552
 30
-9.359386440095634e-32
 40
1.75
  0
ENDSEC
  0
SECTION
  2
OBJECTS
  0
DICTIONARY
  5
A
330
0
100
AcDbDictionary
281
1
  3
ACAD_COLOR
350
B
  3
ACAD_GROUP
350
C
  3
ACAD_LAYOUT
350
D
  3
ACAD_MATERIAL
350
E
  3
ACAD_MLEADERSTYLE
350
F
  3
ACAD_MLINESTYLE
350
10
  3
ACAD_PLOTSETTINGS
350
11
  3
ACAD_PLOTSTYLENAME
350
12
  3
ACAD_SCALELIST
350
14
  3
ACAD_TABLESTYLE
350
15
  3
ACAD_VISUALSTYLE
350
16
  3
EZDXF_META
350
2D
  0
DICTIONARY
  5
B
330
A
100
AcDbDictionary
281
1
  0
DICTIONARY
  5
C
330
A
100
AcDbDictionary
281
1
  0
DICTIONARY
  5
D
330
A
100
AcDbDictionary
281
1
  3
Model
350
1A
  3
Layout1
350
1E
  0
DICTIONARY
  5
E
330
A
100
AcDbDictionary
281
1
  3
ByBlock
350
1F
  3
ByLayer
350
20
  3
Global
350
21
  0
DICTIONARY
  5
F
330
A
100
AcDbDictionary
281
1
  3
Standard
350
2C
  0
DICTIONARY
  5
10
330
A
100
AcDbDictionary
281
1
  3
Standard
350
22
  0
DICTIONARY
  5
11
330
A
100
AcDbDictionary
281
1
  0
ACDBDICTIONARYWDFLT
  5
12
330
A
100
AcDbDictionary
281
1
  3
Normal
350
13
100
AcDbDictionaryWithDefault
340
13
  0
ACDBPLACEHOLDER
  5
13
330
12
  0
DICTIONARY
  5
14
330
A
100
AcDbDictionary
281
1
  0
DICTIONARY
  5
15
330
A
100
AcDbDictionary
281
1
  0
DICTIONARY
  5
16
330
A
100
AcDbDictionary
281
1
  0
LAYOUT
  5
1A
330
D
100
AcDbPlotSettings
  1

  4
A3
  6

 40
7.5
 41
20.0
 42
7.5
 43
20.0
 44
420.0
 45
297.0
 46
0.0
 47
0.0
 48
0.0
 49
0.0
140
0.0
141
0.0
142
1.0
143
1.0
 70
1024
 72
1
 73
0
 74
5
  7

 75
16
 76
0
 77
2
 78
300
147
1.0
148
0.0
149
0.0
100
AcDbLayout
  1
Model
 70
1
 71
0
 10
0.0
 20
0.0
 11
420.0
 21
297.0
 12
0.0
 22
0.0
 32
0.0
 14
1e+20
 24
1e+20
 34
1e+20
 15
-1e+20
 25
-1e+20
 35
-1e+20
146
0.0
 13
0.0
 23
0.0
 33
0.0
 16
1.0
 26
0.0
 36
0.0
 17
0.0
 27
1.0
 37
0.0
 76
1
330
17
  0
LAYOUT
  5
1E
330
D
100
AcDbPlotSettings
  1

  4
A3
  6

 40
7.5
 41
20.0
 42
7.5
 43
20.0
 44
420.0
 45
297.0
 46
0.0
 47
0.0
 48
0.0
 49
0.0
140
0.0
141
0.0
142
1.0
143
1.0
 70
0
 72
1
 73
0
 74
5
  7

 75
16
 76
0
 77
2
 78
300
147
1.0
148
0.0
149
0.0
100
AcDbLayout
  1
Layout1
 70
1
 71
1
 10
0.0
 20
0.0
 11
420.0
 21
297.0
 12
0.0
 22
0.0
 32
0.0
 14
1e+20
 24
1e+20
 34
1e+20
 15
-1e+20
 25
-1e+20
 35
-1e+20
146
0.0
 13
0.0
 23
0.0
 33
0.0
 16
1.0
 26
0.0
 36
0.0
 17
0.0
 27
1.0
 37
0.0
 76
1
330
1B
  0
MATERIAL
  5
1F
102
{ACAD_REACTORS
330
E
102
}
330
E
100
AcDbMaterial
  1
ByBlock
  2

 70
0
 40
1.0
 71
1
 41
1.0
 91
-1023410177
 42
1.0
 72
1
  3

 73
1
 74
1
 75
1
 44
0.5
 73
0
 45
1.0
 46
1.0
 77
1
  4

 78
1
 79
1
170
1
 48
1.0
171
1
  6

172
1
173
1
174
1
140
1.0
141
1.0
175
1
  7

176
1
177
1
178
1
143
1.0
179
1
  8

270
1
271
1
272
1
145
1.0
146
1.0
273
1
  9

274
1
275
1
276
1
 42
1.0
 72
1
  3

 73
1
 74
1
 75
1
 94
63
  0
MATERIAL
  5
20
102
{ACAD_REACTORS
330
E
102
}
330
E
100
AcDbMaterial
  1
ByLayer
  2

 70
0
 40
1.0
 71
1
 41
1.0
 91
-1023410177
 42
1.0
 72
1
  3

 73
1
 74
1
 75
1
 44
0.5
 73
0
 45
1.0
 46
1.0
 77
1
  4

 78
1
 79
1
170
1
 48
1.0
171
1
  6

172
1
173
1
174
1
140
1.0
141
1.0
175
1
  7

176
1
177
1
178
1
143
1.0
179
1
  8

270
1
271
1
272
1
145
1.0
146
1.0
273
1
  9

274
1
275
1
276
1
 42
1.0
 72
1
  3

 73
1
 74
1
 75
1
 94
63
  0
MATERIAL
  5
21
102
{ACAD_REACTORS
330
E
102
}
330
E
100
AcDbMaterial
  1
Global
  2

 70
0
 40
1.0
 71
1
 41
1.0
 91
-1023410177
 42
1.0
 72
1
  3

 73
1
 74
1
 75
1
 44
0.5
 73
0
 45
1.0
 46
1.0
 77
1
  4

 78
1
 79
1
170
1
 48
1.0
171
1
  6

172
1
173
1
174
1
140
1.0
141
1.0
175
1
  7

176
1
177
1
178
1
143
1.0
179
1
  8

270
1
271
1
272
1
145
1.0
146
1.0
273
1
  9

274
1
275
1
276
1
 42
1.0
 72
1
  3

 73
1
 74
1
 75
1
 94
63
  0
MLINESTYLE
  5
22
102
{ACAD_REACTORS
330
10
102
}
330
10
100
AcDbMlineStyle
  2
Standard
 70
0
  3

 62
256
 51
90.0
 52
90.0
 71
2
 49
0.5
 62
256
  6
BYLAYER
 49
-0.5
 62
256
  6
BYLAYER
  0
MLEADERSTYLE
  5
2C
102
{ACAD_REACTORS
330
F
102
}
330
F
100
AcDbMLeaderStyle
179
2
170
2
171
1
172
0
 90
2
 40
0.0
 41
0.0
173
1
 91
-1056964608
 92
-2
290
1
 42
2.0
291
1
 43
8.0
  3
Standard
 44
4.0
300

342
29
174
1
175
1
176
0
178
1
 93
-1056964608
 45
4.0
292
0
297
0
 46
4.0
 94
-1056964608
 47
1.0
 49
1.0
140
1.0
294
1
141
0.0
177
0
142
1.0
295
0
296
0
143
3.75
271
0
272
9
273
9
  0
DICTIONARY
  5
2D
330
A
100
AcDbDictionary
280
1
281
1
  3
CREATED_BY_EZDXF
350
2E
  3
WRITTEN_BY_EZDXF
350
A1
  0
DICTIONARYVAR
  5
2E
330
2D
100
DictionaryVariables
280
0
  1
1.4.4 @ 2026-09-22T04:34:52.509112+00:00
  0
DICTIONARYVAR
  5
A1
330
2D
100
DictionaryVariables
280
0
  1
1.4.4 @ 2026-09-22T04:34:52.592865+00:00
  0
ENDSEC
  0
EOF
