  0
SECTION
  2
HEADER
  9
$ACADVER
  1
AC1027
  9
$ACADMAINTVER
 70
105
  9
$DWGCODEPAGE
  3
ANSI_1252
  9
$LASTSAVEDBY
  1
ezdxf
  9
$REQUIREDVERSIONS
160
0
  9
$INSBASE
 10
0.0
 20
0.0
 30
0.0
  9
$EXTMIN
 10
1e+20
 20
1e+20
 30
1e+20
  9
$EXTMAX
 10
-1e+20
 20
-1e+20
 30
-1e+20
  9
$LIMMIN
 10
0.0
 20
0.0
  9
$LIMMAX
 10
420.0
 20
297.0
  9
$ORTHOMODE
 70
0
  9
$REGENMODE
 70
1
  9
$FILLMODE
 70
1
  9
$QTEXTMODE
 70
0
  9
$MIRRTEXT
 70
1
  9
$LTSCALE
 40
1.0
  9
$ATTMODE
 70
1
  9
$TEXTSIZE
 40
2.5
  9
$TRACEWID
 40
1.0
  9
$TEXTSTYLE
  7
Standard
  9
$CLAYER
  8
0
  9
$CELTYPE
  6
ByLayer
  9
$CECOLOR
 62
256
  9
$CELTSCALE
 40
1.0
  9
$DISPSILH
 70
0
  9
$DIMSCALE
 40
1.0
  9
$DIMASZ
 40
2.5
  9
$DIMEXO
 40
0.625
  9
$DIMDLI
 40
3.75
  9
$DIMRND
 40
0.0
  9
$DIMDLE
 40
0.0
  9
$DIMEXE
 40
1.25
  9
$DIMTP
 40
0.0
  9
$DIMTM
 40
0.0
  9
$DIMTXT
 40
2.5
  9
$DIMCEN
 40
2.5
  9
$DIMTSZ
 40
0.0
  9
$DIMTOL
 70
0
  9
$DIMLIM
 70
0
  9
$DIMTIH
 70
0
  9
$DIMTOH
 70
0
  9
$DIMSE1
 70
0
  9
$DIMSE2
 70
0
  9
$DIMTAD
 70
1
  9
$DIMZIN
 70
8
  9
$DIMBLK
  1

  9
$DIMASO
 70
1
  9
$DIMSHO
 70
1
  9
$DIMPOST
  1

  9
$DIMAPOST
  1

  9
$DIMALT
 70
0
  9
$DIMALTD
 70
3
  9
$DIMALTF
 40
0.03937007874
  9
$DIMLFAC
 40
1.0
  9
$DIMTOFL
 70
1
  9
$DIMTVP
 40
0.0
  9
$DIMTIX
 70
0
  9
$DIMSOXD
 70
0
  9
$DIMSAH
 70
0
  9
$DIMBLK1
  1

  9
$DIMBLK2
  1

  9
$DIMSTYLE
  2
ISO-25
  9
$DIMCLRD
 70
0
  9
$DIMCLRE
 70
0
  9
$DIMCLRT
 70
0
  9
$DIMTFAC
 40
1.0
  9
$DIMGAP
 40
0.625
  9
$DIMJUST
 70
0
  9
$DIMSD1
 70
0
  9
$DIMSD2
 70
0
  9
$DIMTOLJ
 70
0
  9
$DIMTZIN
 70
8
  9
$DIMALTZ
 70
0
  9
$DIMALTTZ
 70
0
  9
$DIMUPT
 70
0
  9
$DIMDEC
 70
2
  9
$DIMTDEC
 70
2
  9
$DIMALTU
 70
2
  9
$DIMALTTD
 70
3
  9
$DIMTXSTY
  7
Standard
  9
$DIMAUNIT
 70
0
  9
$DIMADEC
 70
0
  9
$DIMALTRND
 40
0.0
  9
$DIMAZIN
 70
0
  9
$DIMDSEP
 70
44
  9
$DIMATFIT
 70
3
  9
$DIMFRAC
 70
0
  9
$DIMLDRBLK
  1

  9
$DIMLUNIT
 70
2
  9
$DIMLWD
 70
-2
  9
$DIMLWE
 70
-2
  9
$DIMTMOVE
 70
0
  9
$DIMFXL
 40
1.0
  9
$DIMFXLON
 70
0
  9
$DIMJOGANG
 40
0.785398163397
  9
$DIMTFILL
 70
0
  9
$DIMTFILLCLR
 70
0
  9
$DIMARCSYM
 70
0
  9
$DIMLTYPE
  6

  9
$DIMLTEX1
  6

  9
$DIMLTEX2
  6

  9
$DIMTXTDIRECTION
 70
0
  9
$LUNITS
 70
2
  9
$LUPREC
 70
4
  9
$SKETCHINC
 40
1.0
  9
$FILLETRAD
 40
10.0
  9
$AUNITS
 70
0
  9
$AUPREC
 70
2
  9
$MENU
  1
.
  9
$ELEVATION
 40
0.0
  9
$PELEVATION
 40
0.0
  9
$THICKNESS
 40
0.0
  9
$LIMCHECK
 70
0
  9
$CHAMFERA
 40
0.0
  9
$CHAMFERB
 40
0.0
  9
$CHAMFERC
 40
0.0
  9
$CHAMFERD
 40
0.0
  9
$SKPOLY
 70
0
  9
$TDCREATE
 40
2461306.274224537
  9
$TDUCREATE
 40
2458532.153996898
  9
$TDUPDATE
 40
2461306.274224537
  9
$TDUUPDATE
 40
2458532.1544311
  9
$TDINDWG
 40
0.0
  9
$TDUSRTIMER
 40
0.0
  9
$USRTIMER
 70
1
  9
$ANGBASE
 50
0.0
  9
$ANGDIR
 70
0
  9
$PDMODE
 70
0
  9
$PDSIZE
 40
0.0
  9
$PLINEWID
 40
0.0
  9
$SPLFRAME
 70
0
  9
$SPLINETYPE
 70
6
  9
$SPLINESEGS
 70
8
  9
$HANDSEED
  5
A0
  9
$SURFTAB1
 70
6
  9
$SURFTAB2
 70
6
  9
$SURFTYPE
 70
6
  9
$SURFU
 70
6
  9
$SURFV
 70
6
  9
$UCSBASE
  2

  9
$UCSNAME
  2

  9
$UCSORG
 10
0.0
 20
0.0
 30
0.0
  9
$UCSXDIR
 10
1.0
 20
0.0
 30
0.0
  9
$UCSYDIR
 10
0.0
 20
1.0
 30
0.0
  9
$UCSORTHOREF
  2

  9
$UCSORTHOVIEW
 70
0
  9
$UCSORGTOP
 10
0.0
 20
0.0
 30
0.0
  9
$UCSORGBOTTOM
 10
0.0
 20
0.0
 30
0.0
  9
$UCSORGLEFT
 10
0.0
 20
0.0
 30
0.0
  9
$UCSORGRIGHT
 10
0.0
 20
0.0
 30
0.0
  9
$UCSORGFRONT
 10
0.0
 20
0.0
 30
0.0
  9
$UCSORGBACK
 10
0.0
 20
0.0
 30
0.0
  9
$PUCSBASE
  2

  9
$PUCSNAME
  2

  9
$PUCSORG
 10
0.0
 20
0.0
 30
0.0
  9
$PUCSXDIR
 10
1.0
 20
0.0
 30
0.0
  9
$PUCSYDIR
 10
0.0
 20
1.0
 30
0.0
  9
$PUCSORTHOREF
  2

  9
$PUCSORTHOVIEW
 70
0
  9
$PUCSORGTOP
 10
0.0
 20
0.0
 30
0.0
  9
$PUCSORGBOTTOM
 10
0.0
 20
0.0
 30
0.0
  9
$PUCSORGLEFT
 10
0.0
 20
0.0
 30
0.0
  9
$PUCSORGRIGHT
 10
0.0
 20
0.0
 30
0.0
  9
$PUCSORGFRONT
 10
0.0
 20
0.0
 30
0.0
  9
$PUCSORGBACK
 10
0.0
 20
0.0
 30
0.0
  9
$USERI1
 70
0
  9
$USERI2
 70
0
  9
$USERI3
 70
0
  9
$USERI4
 70
0
  9
$USERI5
 70
0
  9
$USERR1
 40
0.0
  9
$USERR2
 40
0.0
  9
$USERR3
 40
0.0
  9
$USERR4
 40
0.0
  9
$USERR5
 40
0.0
  9
$WORLDVIEW
 70
1
  9
$SHADEDGE
 70
3
  9
$SHADEDIF
 70
70
  9
$TILEMODE
 70
1
  9
$MAXACTVP
 70
64
  9
$PINSBASE
 10
0.0
 20
0.0
 30
0.0
  9
$PLIMCHECK
 70
0
  9
$PEXTMIN
 10
1e+20
 20
1e+20
 30
1e+20
  9
$PEXTMAX
 10
-1e+20
 20
-1e+20
 30
-1e+20
  9
$PLIMMIN
 10
0.0
 20
0.0
  9
$PLIMMAX
 10
420.0
 20
297.0
  9
$UNITMODE
 70
0
  9
$VISRETAIN
 70
1
  9
$PLINEGEN
 70
0
  9
$PSLTSCALE
 70
1
  9
$TREEDEPTH
 70
3020
  9
$CMLSTYLE
  2
Standard
  9
$CMLJUST
 70
0
  9
$CMLSCALE
 40
20.0
  9
$PROXYGRAPHICS
 70
1
  9
$MEASUREMENT
 70
1
  9
$CELWEIGHT
370
-1
  9
$ENDCAPS
280
0
  9
$JOINSTYLE
280
0
  9
$LWDISPLAY
290
0
  9
$INSUNITS
 70
4
  9
$HYPERLINKBASE
  1

  9
$STYLESHEET
  1

  9
$XEDIT
290
1
  9
$CEPSNTYPE
380
0
  9
$PSTYLEMODE
290
1
  9
$FINGERPRINTGUID
  2
{3CBFB589-6738-48B0-A660-B715DE067CFC}
  9
$VERSIONGUID
  2
{12055FD7-7AB5-43D6-AB79-3137FEA84B55}
  9
$EXTNAMES
290
1
  9
$PSVPSCALE
 40
0.0
  9
$OLESTARTUP
290
0
  9
$SORTENTS
280
127
  9
$INDEXCTL
280
0
  9
$HIDETEXT
280
1
  9
$XCLIPFRAME
280
1
  9
$HALOGAP
280
0
  9
$OBSCOLOR
 70
257
  9
$OBSLTYPE
280
0
  9
$INTERSECTIONDISPLAY
280
0
  9
$INTERSECTIONCOLOR
 70
257
  9
$DIMASSOC
280
2
  9
$PROJECTNAME
  1

  9
$CAMERADISPLAY
290
0
  9
$LENSLENGTH
 40
50.0
  9
$CAMERAHEIGHT
 40
0.0
  9
$STEPSPERSEC
 40
24.0
  9
$STEPSIZE
 40
100.0
  9
$3DDWFPREC
 40
2.0
  9
$PSOLWIDTH
 40
0.005
  9
$PSOLHEIGHT
 40
0.08
  9
$LOFTANG1
 40
1.570796326795
  9
$LOFTANG2
 40
1.570796326795
  9
$LOFTMAG1
 40
0.0
  9
$LOFTMAG2
 40
0.0
  9
$LOFTPARAM
 70
7
  9
$LOFTNORMALS
280
1
  9
$LATITUDE
 40
37.795
  9
$LONGITUDE
 40
-122.394
  9
$NORTHDIRECTION
 40
0.0
  9
$TIMEZONE
 70
-8000
  9
$LIGHTGLYPHDISPLAY
280
1
  9
$TILEMODELIGHTSYNCH
280
1
  9
$CMATERIAL
347
20
  9
$SOLIDHIST
280
0
  9
$SHOWHIST
280
1
  9
$DWFFRAME
280
2
  9
$DGNFRAME
280
2
  9
$REALWORLDSCALE
290
1
  9
$INTERFERECOLOR
 62
256
  9
$CSHADOW
280
0
  9
$SHADOWPLANELOCATION
 40
0.0
  0
ENDSEC
  0
SECTION
  2
CLASSES
  0
CLASS
  1
ACDBDICTIONARYWDFLT
  2
AcDbDictionaryWithDefault
  3
ObjectDBX Classes
 90
0
 91
0
280
0
281
0
  0
CLASS
  1
SUN
  2
AcDbSun
  3
SCENEOE
 90
1153
 91
0
280
0
281
0
  0
CLASS
  1
VISUALSTYLE
  2
AcDbVisualStyle
  3
ObjectDBX Classes
 90
4095
 91
0
280
0
281
0
  0
CLASS
  1
MATERIAL
  2
AcDbMaterial
  3
ObjectDBX Classes
 90
1153
 91
0
280
0
281
0
  0
CLASS
  1
SCALE
  2
AcDbScale
  3
ObjectDBX Classes
 90
1153
 91
0
280
0
281
0
  0
CLASS
  1
TABLESTYLE
  2
AcDbTableStyle
  3
ObjectDBX Classes
 90
4095
 91
0
280
0
281
0
  0
CLASS
  1
MLEADERSTYLE
  2
AcDbMLeaderStyle
  3
ACDB_MLEADERSTYLE_CLASS
 90
4095
 91
0
280
0
281
0
  0
CLASS
  1
DICTIONARYVAR
  2
AcDbDictionaryVar
  3
ObjectDBX Classes
 90
0
 91
0
280
0
281
0
  0
CLASS
  1
CELLSTYLEMAP
  2
AcDbCellStyleMap
  3
ObjectDBX Classes
 90
1152
 91
0
280
0
281
0
  0
CLASS
  1
MENTALRAYRENDERSETTINGS
  2
AcDbMentalRayRenderSettings
  3
SCENEOE
 90
1024
 91
0
280
0
281
0
  0
CLASS
  1
ACDBDETAILVIEWSTYLE
  2
AcDbDetailViewStyle
  3
ObjectDBX Classes
 90
1025
 91
0
280
0
281
0
  0
CLASS
  1
ACDBSECTIONVIEWSTYLE
  2
AcDbSectionViewStyle
  3
ObjectDBX Classes
 90
1025
 91
0
280
0
281
0
  0
CLASS
  1
RASTERVARIABLES
  2
AcDbRasterVariables
  3
ISM
 90
0
 91
0
280
0
281
0
  0
CLASS
  1
LAYOUT
  2
AcDbLayout
  3
ObjectDBX Classes
 90
0
 91
0
280
0
281
0
  0
CLASS
  1
ACDBPLACEHOLDER
  2
AcDbPlaceHolder
  3
ObjectDBX Classes
 90
0
 91
0
280
0
281
0
  0
ENDSEC
  0
SECTION
  2
TABLES
  0
TABLE
  2
VPORT
  5
8
330
0
100
AcDbSymbolTable
 70
1
  0
VPORT
  5
9C
330
8
100
AcDbSymbolTableRecord
100
AcDbViewportTableRecord
  2
*Active
 70
0
 10
0.0
 20
0.0
 11
1.0
 21
1.0
 12
-3.303962666778091
 22
-1.9686949756382361
 13
0.0
 23
0.0
 14
0.5
 24
0.5
 15
0.5
 25
0.5
 16
0.0
 26
0.0
 36
1.0
 17
0.0
 27
0.0
 37
0.0
 40
92.50000000000011
 41
1.34
 42
50.0
 43
0.0
 44
0.0
 50
0.0
 51
0.0
 71
0
 72
1000
 73
1
 74
3
 75
0
 76
0
 77
0
 78
0
281
0
 65
1
110
0.0
120
0.0
130
0.0
111
1.0
121
0.0
131
0.0
112
0.0
122
1.0
132
0.0
 79
0
146
0.0
  0
ENDTAB
  0
TABLE
  2
LTYPE
  5
2
330
0
100
AcDbSymbolTable
 70
3
  0
LTYPE
  5
24
330
2
100
AcDbSymbolTableRecord
100
AcDbLinetypeTableRecord
  2
ByBlock
 70
0
  3

 72
65
 73
0
 40
0.0
  0
LTYPE
  5
25
330
2
100
AcDbSymbolTableRecord
100
AcDbLinetypeTableRecord
  2
ByLayer
 70
0
  3

 72
65
 73
0
 40
0.0
  0
LTYPE
  5
26
330
2
100
AcDbSymbolTableRecord
100
AcDbLinetypeTableRecord
  2
Continuous
 70
0
  3

 72
65
 73
0
 40
0.0
  0
ENDTAB
  0
TABLE
  2
LAYER
  5
1
330
0
100
AcDbSymbolTable
 70
2
  0
LAYER
  5
27
330
1
100
AcDbSymbolTableRecord
100
AcDbLayerTableRecord
  2
0
 70
0
 62
7
  6
Continuous
370
-3
390
13
347
21
  0
LAYER
  5
28
330
1
100
AcDbSymbolTableRecord
100
AcDbLayerTableRecord
  2
Defpoints
 70
0
 62
7
  6
Continuous
290
0
370
-3
390
13
347
21
  0
ENDTAB
  0
TABLE
  2
STYLE
  5
5
330
0
100
AcDbSymbolTable
 70
1
  0
STYLE
  5
29
330
5
100
AcDbSymbolTableRecord
100
AcDbTextStyleTableRecord
  2
Standard
 70
0
 40
0.0
 41
1.0
 50
0.0
 71
0
 42
2.5
  3
txt
  4

  0
ENDTAB
  0
TABLE
  2
VIEW
  5
7
330
0
100
AcDbSymbolTable
 70
0
  0
ENDTAB
  0
TABLE
  2
UCS
  5
6
330
0
100
AcDbSymbolTable
 70
0
  0
ENDTAB
  0
TABLE
  2
APPID
  5
3
330
0
100
AcDbSymbolTable
 70
3
  0
APPID
  5
2A
330
3
100
AcDbSymbolTableRecord
100
AcDbRegAppTableRecord
  2
ACAD
 70
0
  0
APPID
  5
9D
330
3
100
AcDbSymbolTableRecord
100
AcDbRegAppTableRecord
  2
HATCHBACKGROUNDCOLOR
 70
0
  0
APPID
  5
9E
330
3
100
AcDbSymbolTableRecord
100
AcDbRegAppTableRecord
  2
EZDXF
 70
0
  0
ENDTAB
  0
TABLE
  2
DIMSTYLE
  5
4
330
0
100
AcDbSymbolTable
 70
1
100
AcDbDimStyleTable
  0
DIMSTYLE
105
2B
330
4
100
AcDbSymbolTableRecord
100
AcDbDimStyleTableRecord
  2
Standard
 70
0
 40
1.0
 41
2.5
 42
0.625
 43
3.75
 44
1.25
 45
0.0
 46
0.0
 47
0.0
 48
0.0
 49
2.5
140
2.5
141
2.5
142
0.0
143
0.03937007874
144
1.0
145
0.0
146
1.0
147
0.625
148
0.0
 69
0
 70
0
 71
0
 72
0
 73
0
 74
0
 75
0
 76
0
 77
1
 78
8
 79
3
170
0
171
3
172
1
173
0
174
0
175
0
176
0
177
0
178
0
179
2
271
2
272
2
273
2
274
3
275
0
276
0
277
2
278
44
279
0
280
0
281
0
282
0
283
0
284
8
285
0
286
0
288
0
289
3
290
0
371
-2
372
-2
  0
ENDTAB
  0
TABLE
  2
BLOCK_RECORD
  5
9
330
0
100
AcDbSymbolTable
 70
2
  0
BLOCK_RECORD
  5
17
330
9
100
AcDbSymbolTableRecord
100
AcDbBlockTableRecord
  2
*Model_Space
340
1A
 70
0
280
1
281
0
  0
BLOCK_RECORD
  5
1B
330
9
100
AcDbSymbolTableRecord
100
AcDbBlockTableRecord
  2
*Paper_Space
340
1E
 70
0
280
1
281
0
  0
ENDTAB
  0
ENDSEC
  0
SECTION
  2
BLOCKS
  0
BLOCK
  5
18
330
17
100
AcDbEntity
  8
0
100
AcDbBlockBegin
  2
*Model_Space
 70
0
 10
0.0
 20
0.0
 30
0.0
  3
*Model_Space
  1

  0
ENDBLK
  5
19
330
17
100
AcDbEntity
  8
0
100
AcDbBlockEnd
  0
BLOCK
  5
1C
330
1B
100
AcDbEntity
  8
0
100
AcDbBlockBegin
  2
*Paper_Space
 70
0
 10
0.0
 20
0.0
 30
0.0
  3
*Paper_Space
  1

  0
ENDBLK
  5
1D
330
1B
100
AcDbEntity
  8
0
100
AcDbBlockEnd
  0
ENDSEC
  0
SECTION
  2
ENTITIES
  0
LINE
  5
2F
330
17
100
AcDbEntity
  8
0
100
AcDbLine
 10
55.44603733322191
 20
-43.21869497563825
 30
2.6499305576741814e-30
 11
65.44603733322197
 21
-33.218694975638236
 31
1.7990116794165115e-30
  0
LINE
  5
30
330
17
100
AcDbEntity
  8
0
100
AcDbLine
 10
65.44603733322197
 20
-33.218694975638236
 30
1.7990116794165115e-30
 11
65.44603733322192
 21
24.281305024361828
 31
1.6218261245328858e-30
  0
LINE
  5
31
330
17
100
AcDbEntity
  8
0
100
AcDbLine
 10
65.44603733322192
 20
24.281305024361828
 30
1.6218261245328858e-30
 11
55.44603733322185
 21
34.2813050243617
 31
2.4111152445701642e-30
  0
LINE
  5
32
330
17
100
AcDbEntity
  8
0
100
AcDbLine
 10
55.44603733322185
 20
34.2813050243617
 30
2.4111152445701642e-30
 11
55.446037333221845
 21
44.28130502436183
 31
2.380300365459968e-30
  0
LINE
  5
33
330
17
100
AcDbEntity
  8
0
100
AcDbLine
 10
55.446037333221845
 20
44.28130502436183
 30
2.380300365459968e-30
 11
-70.05396266677806
 21
44.28130502436173
 31
1.26726055547607e-29
  0
LINE
  5
34
330
17
100
AcDbEntity
  8
0
100
AcDbLine
 10
-70.05396266677806
 20
44.28130502436173
 30
1.26726055547607e-29
 11
-72.05396266677815
 21
42.2813050243616
 31
1.2842789330412242e-29
  0
LINE
  5
35
330
17
100
AcDbEntity
  8
0
100
AcDbLine
 10
-72.05396266677815
 20
42.2813050243616
 30
1.2842789330412242e-29
 11
-72.05396266677809
 21
-30.71869497563834
 31
1.306773794791667e-29
  0
LINE
  5
36
330
17
100
AcDbEntity
  8
0
100
AcDbLine
 10
-72.05396266677809
 20
-30.71869497563834
 30
1.306773794791667e-29
 11
-70.05396266677798
 21
-32.718694975638336
 31
1.2909880123909208e-29
  0
LINE
  5
37
330
17
100
AcDbEntity
  8
0
100
AcDbLine
 10
-70.05396266677798
 20
-32.718694975638336
 30
1.2909880123909208e-29
 11
-14.553962666777991
 21
-32.71869497563829
 31
8.358302928640753e-30
  0
LINE
  5
38
330
17
100
AcDbEntity
  8
0
100
AcDbLine
 10
-14.553962666777991
 20
-32.71869497563829
 30
8.358302928640753e-30
 11
-14.553962666777977
 21
-48.21869497563829
 31
8.406065991261556e-30
  0
LINE
  5
39
330
17
100
AcDbEntity
  8
0
100
AcDbLine
 10
-14.553962666777977
 20
-48.21869497563829
 30
8.406065991261556e-30
 11
55.446037333221916
 21
-48.21869497563824
 31
2.6653379972292793e-30
  0
LINE
  5
3A
330
17
100
AcDbEntity
  8
0
100
AcDbLine
 10
55.446037333221916
 20
-48.21869497563824
 30
2.6653379972292793e-30
 11
55.44603733322191
 21
-43.21869497563825
 31
2.6499305576741814e-30
  0
LINE
  5
3B
330
17
100
AcDbEntity
  8
0
100
AcDbLine
 10
-54.94497881815542
 20
14.531305024361622
 30
1.152518601238254e-29
 11
-46.28472478031074
 21
-0.4686949756383214
 31
1.0861177434040891e-29
  0
LINE
  5
3C
330
17
100
AcDbEntity
  8
0
100
AcDbLine
 10
-46.28472478031074
 20
-0.4686949756383214
 30
1.0861177434040891e-29
 11
-63.6052328559995
 21
-0.4686949756383356
 31
1.228163922805473e-29
  0
LINE
  5
3D
330
17
100
AcDbEntity
  8
0
100
AcDbLine
 10
-63.6052328559995
 20
-0.4686949756383356
 30
1.228163922805473e-29
 11
-54.94497881815542
 21
14.531305024361622
 31
1.152518601238254e-29
  0
LINE
  5
3E
330
17
100
AcDbEntity
  8
0
100
AcDbLine
 10
-31.62447074246677
 20
14.531305024361643
 30
9.612661818880229e-30
 11
-22.964216704622388
 21
-0.4686949756383001
 31
8.948653240538603e-30
  0
LINE
  5
3F
330
17
100
AcDbEntity
  8
0
100
AcDbLine
 10
-22.964216704622388
 20
-0.4686949756383001
 30
8.948653240538603e-30
 11
-40.28472478031114
 21
-0.4686949756383143
 31
1.0369115034552442e-29
  0
LINE
  5
40
330
17
100
AcDbEntity
  8
0
100
AcDbLine
 10
-40.28472478031114
 20
-0.4686949756383143
 30
1.0369115034552442e-29
 11
-31.62447074246677
 21
14.531305024361643
 31
9.612661818880229e-30
  0
LINE
  5
41
330
17
100
AcDbEntity
  8
0
100
AcDbLine
 10
38.33705348459916
 20
-21.468694975638066
 30
3.9860228031700014e-30
 11
46.99730752244355
 21
-36.46869497563803
 31
3.322014224828376e-30
  0
LINE
  5
42
330
17
100
AcDbEntity
  8
0
100
AcDbLine
 10
46.99730752244355
 20
-36.46869497563803
 30
3.322014224828376e-30
 11
29.676799446754792
 21
-36.468694975638066
 31
4.742476018842215e-30
  0
LINE
  5
43
330
17
100
AcDbEntity
  8
0
100
AcDbLine
 10
29.676799446754792
 20
-36.468694975638066
 30
4.742476018842215e-30
 11
38.33705348459916
 21
-21.468694975638066
 31
3.9860228031700014e-30
  0
LINE
  5
44
330
17
100
AcDbEntity
  8
0
100
AcDbLine
 10
-11.303962666778062
 20
-18.46869497563842
 30
8.047857926185801e-30
 11
-28.624470742466812
 21
-18.46869497563818
 31
9.468319720199639e-30
  0
LINE
  5
45
330
17
100
AcDbEntity
  8
0
100
AcDbLine
 10
-28.624470742466812
 20
-18.46869497563818
 30
9.468319720199639e-30
 11
-19.96421670462219
 21
-3.468694975638229
 31
8.711866504527406e-30
  0
LINE
  5
46
330
17
100
AcDbEntity
  8
0
100
AcDbLine
 10
-19.96421670462219
 20
-3.468694975638229
 30
8.711866504527406e-30
 11
-11.303962666778062
 21
-18.46869497563842
 31
8.047857926185801e-30
  0
LINE
  5
47
330
17
100
AcDbEntity
  8
0
100
AcDbLine
 10
-34.624470742466684
 20
-18.46869497563844
 30
9.96038211968811e-30
 11
-51.94497881815545
 21
-18.4686949756382
 31
1.138084391370195e-29
  0
LINE
  5
48
330
17
100
AcDbEntity
  8
0
100
AcDbLine
 10
-51.94497881815545
 20
-18.4686949756382
 30
1.138084391370195e-29
 11
-43.284724780310825
 21
-3.4686949756382432
 31
1.0624390698029717e-29
  0
LINE
  5
49
330
17
100
AcDbEntity
  8
0
100
AcDbLine
 10
-43.284724780310825
 20
-3.4686949756382432
 30
1.0624390698029717e-29
 11
-34.624470742466684
 21
-18.46869497563844
 31
9.96038211968811e-30
  0
LINE
  5
4A
330
17
100
AcDbEntity
  8
0
100
AcDbLine
 10
-8.30396266677812
 20
-18.468694975638165
 30
7.801826726441565e-30
 11
-16.9642167046225
 21
-3.468694975638222
 31
8.465835304783191e-30
  0
LINE
  5
4B
330
17
100
AcDbEntity
  8
0
100
AcDbLine
 10
-16.9642167046225
 20
-3.468694975638222
 30
8.465835304783191e-30
 11
0.35629137106626274
 21
-3.468694975638215
 31
7.045373510769351e-30
  0
LINE
  5
4C
330
17
100
AcDbEntity
  8
0
100
AcDbLine
 10
0.35629137106626274
 20
-3.468694975638215
 30
7.045373510769351e-30
 11
-8.30396266677812
 21
-18.468694975638165
 31
7.801826726441565e-30
  0
LINE
  5
4D
330
17
100
AcDbEntity
  8
0
100
AcDbLine
 10
15.016545408910488
 20
17.531305024361615
 30
5.7783689681425495e-30
 11
6.356291371066106
 21
32.53130502436156
 31
6.442377546484175e-30
  0
LINE
  5
4E
330
17
100
AcDbEntity
  8
0
100
AcDbLine
 10
6.356291371066106
 20
32.53130502436156
 30
6.442377546484175e-30
 11
23.67679944675487
 21
32.53130502436156
 31
5.0219157524703364e-30
  0
LINE
  5
4F
330
17
100
AcDbEntity
  8
0
100
AcDbLine
 10
23.67679944675487
 20
32.53130502436156
 30
5.0219157524703364e-30
 11
15.016545408910488
 21
17.531305024361615
 31
5.7783689681425495e-30
  0
LINE
  5
50
330
17
100
AcDbEntity
  8
0
100
AcDbLine
 10
38.33705348459938
 20
17.53130502436163
 30
3.865844774640219e-30
 11
29.676799446754984
 21
32.53130502436157
 31
4.5298533529818455e-30
  0
LINE
  5
51
330
17
100
AcDbEntity
  8
0
100
AcDbLine
 10
29.676799446754984
 20
32.53130502436157
 30
4.5298533529818455e-30
 11
46.99730752244374
 21
32.531305024361586
 31
3.1093915589680066e-30
  0
LINE
  5
52
330
17
100
AcDbEntity
  8
0
100
AcDbLine
 10
46.99730752244374
 20
32.531305024361586
 30
3.1093915589680066e-30
 11
38.33705348459938
 21
17.53130502436163
 31
3.865844774640219e-30
  0
LINE
  5
53
330
17
100
AcDbEntity
  8
0
100
AcDbLine
 10
35.33705348459922
 20
-18.468694975638385
 30
4.22280953918118e-30
 11
18.0165454089107
 21
-18.468694975638144
 31
5.643271333194997e-30
  0
LINE
  5
54
330
17
100
AcDbEntity
  8
0
100
AcDbLine
 10
18.0165454089107
 20
-18.468694975638144
 30
5.643271333194997e-30
 11
26.676799446755076
 21
-3.4686949756381935
 31
4.886818117522785e-30
  0
LINE
  5
55
330
17
100
AcDbEntity
  8
0
100
AcDbLine
 10
26.676799446755076
 20
-3.4686949756381935
 30
4.886818117522785e-30
 11
35.33705348459922
 21
-18.468694975638385
 31
4.22280953918118e-30
  0
LINE
  5
56
330
17
100
AcDbEntity
  8
0
100
AcDbLine
 10
-5.30396266677819
 20
-18.46869497563816
 30
7.555795526697329e-30
 11
3.3562913710664617
 21
-3.4686949756382077
 31
6.799342311025094e-30
  0
LINE
  5
57
330
17
100
AcDbEntity
  8
0
100
AcDbLine
 10
3.3562913710664617
 20
-3.4686949756382077
 30
6.799342311025094e-30
 11
12.016545408910574
 21
-18.468694975638403
 31
6.135333732683491e-30
  0
LINE
  5
58
330
17
100
AcDbEntity
  8
0
100
AcDbLine
 10
12.016545408910574
 20
-18.468694975638403
 30
6.135333732683491e-30
 11
-5.30396266677819
 21
-18.46869497563816
 31
7.555795526697329e-30
  0
LINE
  5
59
330
17
100
AcDbEntity
  8
0
100
AcDbLine
 10
-31.624470742466542
 20
17.531305024361572
 30
9.60341735514715e-30
 11
-40.284724780311166
 21
32.531305024361515
 31
1.0267425933488796e-29
  0
LINE
  5
5A
330
17
100
AcDbEntity
  8
0
100
AcDbLine
 10
-40.284724780311166
 20
32.531305024361515
 30
1.0267425933488796e-29
 11
-22.9642167046224
 21
32.53130502436153
 31
8.846964139474957e-30
  0
LINE
  5
5B
330
17
100
AcDbEntity
  8
0
100
AcDbLine
 10
-22.9642167046224
 20
32.53130502436153
 30
8.846964139474957e-30
 11
-31.624470742466542
 21
17.531305024361572
 31
9.60341735514715e-30
  0
LINE
  5
5C
330
17
100
AcDbEntity
  8
0
100
AcDbLine
 10
-54.944978818155164
 20
17.531305024361558
 30
1.151594154864946e-29
 11
-63.605232855999816
 21
32.5313050243615
 31
1.2179950126991108e-29
  0
LINE
  5
5D
330
17
100
AcDbEntity
  8
0
100
AcDbLine
 10
-63.605232855999816
 20
32.5313050243615
 30
1.2179950126991108e-29
 11
-46.28472478031105
 21
32.531305024361515
 31
1.0759488332977269e-29
  0
LINE
  5
5E
330
17
100
AcDbEntity
  8
0
100
AcDbLine
 10
-46.28472478031105
 20
32.531305024361515
 30
1.0759488332977269e-29
 11
-54.944978818155164
 21
17.531305024361558
 31
1.151594154864946e-29
  0
LINE
  5
5F
330
17
100
AcDbEntity
  8
0
100
AcDbLine
 10
3.3562913710661775
 20
-0.4686949756382788
 30
6.790097847292057e-30
 11
-5.3039626667782045
 21
14.531305024361913
 31
7.454106425633683e-30
  0
LINE
  5
60
330
17
100
AcDbEntity
  8
0
100
AcDbLine
 10
-5.3039626667782045
 20
14.531305024361913
 30
7.454106425633683e-30
 11
12.01654540891056
 21
14.531305024361679
 31
6.033644631619844e-30
  0
LINE
  5
61
330
17
100
AcDbEntity
  8
0
100
AcDbLine
 10
12.01654540891056
 20
14.531305024361679
 30
6.033644631619844e-30
 11
3.3562913710661775
 21
-0.4686949756382788
 31
6.790097847292057e-30
  0
LINE
  5
62
330
17
100
AcDbEntity
  8
0
100
AcDbLine
 10
26.676799446754828
 20
-0.46869497563826457
 30
4.8775736537897465e-30
 11
18.01654540891043
 21
14.531305024361679
 31
5.541582232131373e-30
  0
LINE
  5
63
330
17
100
AcDbEntity
  8
0
100
AcDbLine
 10
18.01654540891043
 20
14.531305024361679
 30
5.541582232131373e-30
 11
35.33705348459919
 21
14.531305024361693
 31
4.1211204381175334e-30
  0
LINE
  5
64
330
17
100
AcDbEntity
  8
0
100
AcDbLine
 10
35.33705348459919
 20
14.531305024361693
 30
4.1211204381175334e-30
 11
26.676799446754828
 21
-0.46869497563826457
 31
4.8775736537897465e-30
  0
LINE
  5
65
330
17
100
AcDbEntity
  8
0
100
AcDbLine
 10
-19.964216704622444
 20
-0.4686949756383001
 30
8.702622040794367e-30
 11
-28.624470742466826
 21
14.531305024361643
 31
9.366630619135993e-30
  0
LINE
  5
66
330
17
100
AcDbEntity
  8
0
100
AcDbLine
 10
-28.624470742466826
 20
14.531305024361643
 30
9.366630619135993e-30
 11
-11.303962666778077
 21
14.531305024361657
 31
7.946168825122155e-30
  0
LINE
  5
67
330
17
100
AcDbEntity
  8
0
100
AcDbLine
 10
-11.303962666778077
 20
14.531305024361657
 30
7.946168825122155e-30
 11
-19.964216704622444
 21
-0.4686949756383001
 31
8.702622040794367e-30
  0
LINE
  5
68
330
17
100
AcDbEntity
  8
0
100
AcDbLine
 10
-43.28472478031108
 20
-0.4686949756383143
 30
1.0615146234296678e-29
 11
-51.94497881815522
 21
14.531305024361629
 31
1.1279154812638283e-29
  0
LINE
  5
69
330
17
100
AcDbEntity
  8
0
100
AcDbLine
 10
-51.94497881815522
 20
14.531305024361629
 30
1.1279154812638283e-29
 11
-34.6244707424667
 21
14.531305024361643
 31
9.858693018624463e-30
  0
LINE
  5
6A
330
17
100
AcDbEntity
  8
0
100
AcDbLine
 10
-34.6244707424667
 20
14.531305024361643
 30
9.858693018624463e-30
 11
-43.28472478031108
 21
-0.4686949756383143
 31
1.0615146234296678e-29
  0
LINE
  5
6B
330
17
100
AcDbEntity
  8
0
100
AcDbLine
 10
-8.303962666778148
 20
17.5313050243616
 30
7.69089316164486e-30
 11
-16.96421670462253
 21
32.53130502436153
 31
8.354901739986486e-30
  0
LINE
  5
6C
330
17
100
AcDbEntity
  8
0
100
AcDbLine
 10
-16.96421670462253
 20
32.53130502436153
 30
8.354901739986486e-30
 11
0.3562913710662343
 21
32.531305024361544
 31
6.934439945972646e-30
  0
LINE
  5
6D
330
17
100
AcDbEntity
  8
0
100
AcDbLine
 10
0.3562913710662343
 20
32.531305024361544
 30
6.934439945972646e-30
 11
-8.303962666778148
 21
17.5313050243616
 31
7.69089316164486e-30
  0
LINE
  5
6E
330
17
100
AcDbEntity
  8
0
100
AcDbLine
 10
6.356291371066121
 20
-0.4686949756382788
 30
6.544066647547821e-30
 11
15.016545408910503
 21
14.531305024361679
 31
5.787613431875608e-30
  0
LINE
  5
6F
330
17
100
AcDbEntity
  8
0
100
AcDbLine
 10
15.016545408910503
 20
14.531305024361679
 30
5.787613431875608e-30
 11
23.676799446754885
 21
-0.46869497563826457
 31
5.123604853533982e-30
  0
LINE
  5
70
330
17
100
AcDbEntity
  8
0
100
AcDbLine
 10
23.676799446754885
 20
-0.46869497563826457
 30
5.123604853533982e-30
 11
6.356291371066121
 21
-0.4686949756382788
 31
6.544066647547821e-30
  0
LINE
  5
71
330
17
100
AcDbEntity
  8
0
100
AcDbLine
 10
-16.964216704622515
 20
-0.468694975638293
 30
8.456590841050132e-30
 11
-8.303962666778133
 21
14.531305024361657
 31
7.700137625377919e-30
  0
LINE
  5
72
330
17
100
AcDbEntity
  8
0
100
AcDbLine
 10
-8.303962666778133
 20
14.531305024361657
 30
7.700137625377919e-30
 11
0.35629137106624853
 21
-0.4686949756382859
 31
7.036129047036292e-30
  0
LINE
  5
73
330
17
100
AcDbEntity
  8
0
100
AcDbLine
 10
0.35629137106624853
 20
-0.4686949756382859
 30
7.036129047036292e-30
 11
-16.964216704622515
 21
-0.468694975638293
 31
8.456590841050132e-30
  0
LINE
  5
74
330
17
100
AcDbEntity
  8
0
100
AcDbLine
 10
-43.28472478031085
 20
32.531305024361515
 30
1.0513457133233012e-29
 11
-34.62447074246671
 21
17.531305024361572
 31
9.849448554891405e-30
  0
LINE
  5
75
330
17
100
AcDbEntity
  8
0
100
AcDbLine
 10
-34.62447074246671
 20
17.531305024361572
 30
9.849448554891405e-30
 11
-51.94497881815548
 21
17.531305024361558
 31
1.1269910348905245e-29
  0
LINE
  5
76
330
17
100
AcDbEntity
  8
0
100
AcDbLine
 10
-51.94497881815548
 20
17.531305024361558
 30
1.1269910348905245e-29
 11
-43.28472478031085
 21
32.531305024361515
 31
1.0513457133233012e-29
  0
LINE
  5
77
330
17
100
AcDbEntity
  8
0
100
AcDbLine
 10
-19.964216704622217
 20
32.53130502436153
 30
8.600932939730701e-30
 11
-11.30396266677809
 21
17.531305024361345
 31
7.936924361389098e-30
  0
LINE
  5
78
330
17
100
AcDbEntity
  8
0
100
AcDbLine
 10
-11.30396266677809
 20
17.531305024361345
 30
7.936924361389098e-30
 11
-28.62447074246684
 21
17.531305024361586
 31
9.357386155402934e-30
  0
LINE
  5
79
330
17
100
AcDbEntity
  8
0
100
AcDbLine
 10
-28.62447074246684
 20
17.531305024361586
 30
9.357386155402934e-30
 11
-19.964216704622217
 21
32.53130502436153
 31
8.600932939730701e-30
  0
LINE
  5
7A
330
17
100
AcDbEntity
  8
0
100
AcDbLine
 10
38.33705348459941
 20
-18.46869497563813
 30
3.9767783394369224e-30
 11
29.676799446755012
 21
-3.4686949756381864
 31
4.6407869177785496e-30
  0
LINE
  5
7B
330
17
100
AcDbEntity
  8
0
100
AcDbLine
 10
29.676799446755012
 20
-3.4686949756381864
 30
4.6407869177785496e-30
 11
46.99730752244377
 21
-3.468694975638172
 31
3.220325123764711e-30
  0
LINE
  5
7C
330
17
100
AcDbEntity
  8
0
100
AcDbLine
 10
46.99730752244377
 20
-3.468694975638172
 30
3.220325123764711e-30
 11
38.33705348459941
 21
-18.46869497563813
 31
3.9767783394369224e-30
  0
LINE
  5
7D
330
17
100
AcDbEntity
  8
0
100
AcDbLine
 10
15.016545408910517
 20
-18.468694975638147
 30
5.8893025329392536e-30
 11
6.356291371066391
 21
-3.4686949756382077
 31
6.553311111280859e-30
  0
LINE
  5
7E
330
17
100
AcDbEntity
  8
0
100
AcDbLine
 10
6.356291371066391
 20
-3.4686949756382077
 30
6.553311111280859e-30
 11
23.6767994467549
 21
-3.4686949756381935
 31
5.1328493172670405e-30
  0
LINE
  5
7F
330
17
100
AcDbEntity
  8
0
100
AcDbLine
 10
23.6767994467549
 20
-3.4686949756381935
 30
5.1328493172670405e-30
 11
15.016545408910517
 21
-18.468694975638147
 31
5.8893025329392536e-30
  0
LINE
  5
80
330
17
100
AcDbEntity
  8
0
100
AcDbLine
 10
26.676799446755048
 20
32.53130502436157
 30
4.775884552726081e-30
 11
35.33705348459919
 21
17.531305024361373
 31
4.111875974384476e-30
  0
LINE
  5
81
330
17
100
AcDbEntity
  8
0
100
AcDbLine
 10
35.33705348459919
 20
17.531305024361373
 30
4.111875974384476e-30
 11
18.016545408910417
 21
17.531305024361615
 31
5.532337768398315e-30
  0
LINE
  5
82
330
17
100
AcDbEntity
  8
0
100
AcDbLine
 10
18.016545408910417
 20
17.531305024361615
 30
5.532337768398315e-30
 11
26.676799446755048
 21
32.53130502436157
 31
4.775884552726081e-30
  0
LINE
  5
83
330
17
100
AcDbEntity
  8
0
100
AcDbLine
 10
3.3562913710664333
 20
32.531305024361544
 30
6.688408746228389e-30
 11
12.016545408910545
 21
17.53130502436136
 31
6.024400167886787e-30
  0
LINE
  5
84
330
17
100
AcDbEntity
  8
0
100
AcDbLine
 10
12.016545408910545
 20
17.53130502436136
 30
6.024400167886787e-30
 11
-5.303962666778219
 21
17.5313050243616
 31
7.444861961900624e-30
  0
LINE
  5
85
330
17
100
AcDbEntity
  8
0
100
AcDbLine
 10
-5.303962666778219
 20
17.5313050243616
 30
7.444861961900624e-30
 11
3.3562913710664333
 21
32.531305024361544
 31
6.688408746228389e-30
  0
LINE
  5
86
330
17
100
AcDbEntity
  8
0
100
AcDbLine
 10
-31.624470742466514
 20
-18.468694975638183
 30
9.714350919943855e-30
 11
-40.28472478031088
 21
-3.4686949756382432
 31
1.037835949828548e-29
  0
LINE
  5
87
330
17
100
AcDbEntity
  8
0
100
AcDbLine
 10
-40.28472478031088
 20
-3.4686949756382432
 30
1.037835949828548e-29
 11
-22.964216704622373
 21
-3.468694975638229
 31
8.957897704271662e-30
  0
LINE
  5
88
330
17
100
AcDbEntity
  8
0
100
AcDbLine
 10
-22.964216704622373
 20
-3.468694975638229
 30
8.957897704271662e-30
 11
-31.624470742466514
 21
-18.468694975638183
 31
9.714350919943855e-30
  0
LINE
  5
89
330
17
100
AcDbEntity
  8
0
100
AcDbLine
 10
-63.60523285599979
 20
-3.4686949756382646
 30
1.2290883691787813e-29
 11
-46.28472478031102
 21
-3.4686949756382504
 31
1.0870421897773974e-29
  0
LINE
  5
8A
330
17
100
AcDbEntity
  8
0
100
AcDbLine
 10
-46.28472478031102
 20
-3.4686949756382504
 30
1.0870421897773974e-29
 11
-54.94497881815539
 21
-18.4686949756382
 31
1.1626875113446186e-29
  0
LINE
  5
8B
330
17
100
AcDbEntity
  8
0
100
AcDbLine
 10
-54.94497881815539
 20
-18.4686949756382
 30
1.1626875113446186e-29
 11
-63.60523285599979
 21
-3.4686949756382646
 31
1.2290883691787813e-29
  0
LINE
  5
8C
330
17
100
AcDbEntity
  8
0
100
AcDbLine
 10
15.016545408910531
 20
-21.468694975638083
 30
5.898546996672312e-30
 11
23.676799446754913
 21
-36.46869497563807
 31
5.234538418330686e-30
  0
LINE
  5
8D
330
17
100
AcDbEntity
  8
0
100
AcDbLine
 10
23.676799446754913
 20
-36.46869497563807
 30
5.234538418330686e-30
 11
6.356291371066149
 21
-36.468694975638115
 31
6.655000212344526e-30
  0
LINE
  5
8E
330
17
100
AcDbEntity
  8
0
100
AcDbLine
 10
6.356291371066149
 20
-36.468694975638115
 30
6.655000212344526e-30
 11
15.016545408910531
 21
-21.468694975638083
 31
5.898546996672312e-30
  0
LINE
  5
8F
330
17
100
AcDbEntity
  8
0
100
AcDbLine
 10
18.01654540891046
 20
-21.46869497563808
 30
5.652515796928077e-30
 11
35.33705348459922
 21
-21.46869497563807
 31
4.2320540029142374e-30
  0
LINE
  5
90
330
17
100
AcDbEntity
  8
0
100
AcDbLine
 10
35.33705348459922
 20
-21.46869497563807
 30
4.2320540029142374e-30
 11
26.676799446754856
 21
-36.46869497563807
 31
4.9885072185864505e-30
  0
LINE
  5
91
330
17
100
AcDbEntity
  8
0
100
AcDbLine
 10
26.676799446754856
 20
-36.46869497563807
 30
4.9885072185864505e-30
 11
18.01654540891046
 21
-21.46869497563808
 31
5.652515796928077e-30
  0
LINE
  5
92
330
17
100
AcDbEntity
  8
0
100
AcDbLine
 10
29.676799446754764
 20
-0.46869497563825746
 30
4.631542454045511e-30
 11
38.33705348459913
 21
14.5313050243617
 31
3.875089238373297e-30
  0
LINE
  5
93
330
17
100
AcDbEntity
  8
0
100
AcDbLine
 10
38.33705348459913
 20
14.5313050243617
 30
3.875089238373297e-30
 11
46.99730752244352
 21
-0.46869497563824325
 31
3.211080660031672e-30
  0
LINE
  5
94
330
17
100
AcDbEntity
  8
0
100
AcDbLine
 10
46.99730752244352
 20
-0.46869497563824325
 30
3.211080660031672e-30
 11
29.676799446754764
 21
-0.46869497563825746
 31
4.631542454045511e-30
  0
LINE
  5
95
330
17
100
AcDbEntity
  8
0
100
AcDbLine
 10
12.016545408910588
 20
-21.468694975638087
 30
6.1445781964165484e-30
 11
3.356291371066206
 21
-36.46869497563804
 31
6.901031412088761e-30
  0
LINE
  5
96
330
17
100
AcDbEntity
  8
0
100
AcDbLine
 10
3.356291371066206
 20
-36.46869497563804
 30
6.901031412088761e-30
 11
-5.303962666777906
 21
-21.468694975638098
 31
7.565039990430366e-30
  0
LINE
  5
97
330
17
100
AcDbEntity
  8
0
100
AcDbLine
 10
-5.303962666777906
 20
-21.468694975638098
 30
7.565039990430366e-30
 11
12.016545408910588
 21
-21.468694975638087
 31
6.1445781964165484e-30
  0
CIRCLE
  5
98
330
17
100
AcDbEntity
  8
0
100
AcDbCircle
 10
-67.05396266677809
 20
11.781305024361693
 30
1.25267227121246e-29
 40
1.7499999999999927
  0
CIRCLE
  5
99
330
17
100
AcDbEntity
  8
0
100
AcDbCircle
 10
-67.05396266677806
 20
-18.218694975638446
 30
1.2619167349455188e-29
 40
1.7500000000000029
  0
CIRCLE
  5
9A
330
17
100
AcDbEntity
  8
0
100
AcDbCircle
 10
60.446037333221966
 20
-18.218694975638346
 30
2.162841360324952e-30
 40
1.7499999999999976
  0
CIRCLE
  5
9B
330
17
100
AcDbEntity
  8
0
100
AcDbCircle
 10
60.44603733322194
 20
11.781305024361792
 30
2.0703967229943644e-30
 40
1.7499999999999976
  0
ENDSEC
  0
SECTION
  2
OBJECTS
  0
DICTIONARY
  5
A
330
0
100
AcDbDictionary
281
1
  3
ACAD_COLOR
350
B
  3
ACAD_GROUP
350
C
  3
ACAD_LAYOUT
350
D
  3
ACAD_MATERIAL
350
E
  3
ACAD_MLEADERSTYLE
350
F
  3
ACAD_MLINESTYLE
350
10
  3
ACAD_PLOTSETTINGS
350
11
  3
ACAD_PLOTSTYLENAME
350
12
  3
ACAD_SCALELIST
350
14
  3
ACAD_TABLESTYLE
350
15
  3
ACAD_VISUALSTYLE
350
16
  3
EZDXF_META
350
2D
  0
DICTIONARY
  5
B
330
A
100
AcDbDictionary
281
1
  0
DICTIONARY
  5
C
330
A
100
AcDbDictionary
281
1
  0
DICTIONARY
  5
D
330
A
100
AcDbDictionary
281
1
  3
Model
350
1A
  3
Layout1
350
1E
  0
DICTIONARY
  5
E
330
A
100
AcDbDictionary
281
1
  3
ByBlock
350
1F
  3
ByLayer
350
20
  3
Global
350
21
  0
DICTIONARY
  5
F
330
A
100
AcDbDictionary
281
1
  3
Standard
350
2C
  0
DICTIONARY
  5
10
330
A
100
AcDbDictionary
281
1
  3
Standard
350
22
  0
DICTIONARY
  5
11
330
A
100
AcDbDictionary
281
1
  0
ACDBDICTIONARYWDFLT
  5
12
330
A
100
AcDbDictionary
281
1
  3
Normal
350
13
100
AcDbDictionaryWithDefault
340
13
  0
ACDBPLACEHOLDER
  5
13
330
12
  0
DICTIONARY
  5
14
330
A
100
AcDbDictionary
281
1
  0
DICTIONARY
  5
15
330
A
100
AcDbDictionary
281
1
  0
DICTIONARY
  5
16
330
A
100
AcDbDictionary
281
1
  0
LAYOUT
  5
1A
330
D
100
AcDbPlotSettings
  1

  4
A3
  6

 40
7.5
 41
20.0
 42
7.5
 43
20.0
 44
420.0
 45
297.0
 46
0.0
 47
0.0
 48
0.0
 49
0.0
140
0.0
141
0.0
142
1.0
143
1.0
 70
1024
 72
1
 73
0
 74
5
  7

 75
16
 76
0
 77
2
 78
300
147
1.0
148
0.0
149
0.0
100
AcDbLayout
  1
Model
 70
1
 71
0
 10
0.0
 20
0.0
 11
420.0
 21
297.0
 12
0.0
 22
0.0
 32
0.0
 14
1e+20
 24
1e+20
 34
1e+20
 15
-1e+20
 25
-1e+20
 35
-1e+20
146
0.0
 13
0.0
 23
0.0
 33
0.0
 16
1.0
 26
0.0
 36
0.0
 17
0.0
 27
1.0
 37
0.0
 76
1
330
17
  0
LAYOUT
  5
1E
330
D
100
AcDbPlotSettings
  1

  4
A3
  6

 40
7.5
 41
20.0
 42
7.5
 43
20.0
 44
420.0
 45
297.0
 46
0.0
 47
0.0
 48
0.0
 49
0.0
140
0.0
141
0.0
142
1.0
143
1.0
 70
0
 72
1
 73
0
 74
5
  7

 75
16
 76
0
 77
2
 78
300
147
1.0
148
0.0
149
0.0
100
AcDbLayout
  1
Layout1
 70
1
 71
1
 10
0.0
 20
0.0
 11
420.0
 21
297.0
 12
0.0
 22
0.0
 32
0.0
 14
1e+20
 24
1e+20
 34
1e+20
 15
-1e+20
 25
-1e+20
 35
-1e+20
146
0.0
 13
0.0
 23
0.0
 33
0.0
 16
1.0
 26
0.0
 36
0.0
 17
0.0
 27
1.0
 37
0.0
 76
1
330
1B
  0
MATERIAL
  5
1F
102
{ACAD_REACTORS
330
E
102
}
330
E
100
AcDbMaterial
  1
ByBlock
  2

 70
0
 40
1.0
 71
1
 41
1.0
 91
-1023410177
 42
1.0
 72
1
  3

 73
1
 74
1
 75
1
 44
0.5
 73
0
 45
1.0
 46
1.0
 77
1
  4

 78
1
 79
1
170
1
 48
1.0
171
1
  6

172
1
173
1
174
1
140
1.0
141
1.0
175
1
  7

176
1
177
1
178
1
143
1.0
179
1
  8

270
1
271
1
272
1
145
1.0
146
1.0
273
1
  9

274
1
275
1
276
1
 42
1.0
 72
1
  3

 73
1
 74
1
 75
1
 94
63
  0
MATERIAL
  5
20
102
{ACAD_REACTORS
330
E
102
}
330
E
100
AcDbMaterial
  1
ByLayer
  2

 70
0
 40
1.0
 71
1
 41
1.0
 91
-1023410177
 42
1.0
 72
1
  3

 73
1
 74
1
 75
1
 44
0.5
 73
0
 45
1.0
 46
1.0
 77
1
  4

 78
1
 79
1
170
1
 48
1.0
171
1
  6

172
1
173
1
174
1
140
1.0
141
1.0
175
1
  7

176
1
177
1
178
1
143
1.0
179
1
  8

270
1
271
1
272
1
145
1.0
146
1.0
273
1
  9

274
1
275
1
276
1
 42
1.0
 72
1
  3

 73
1
 74
1
 75
1
 94
63
  0
MATERIAL
  5
21
102
{ACAD_REACTORS
330
E
102
}
330
E
100
AcDbMaterial
  1
Global
  2

 70
0
 40
1.0
 71
1
 41
1.0
 91
-1023410177
 42
1.0
 72
1
  3

 73
1
 74
1
 75
1
 44
0.5
 73
0
 45
1.0
 46
1.0
 77
1
  4

 78
1
 79
1
170
1
 48
1.0
171
1
  6

172
1
173
1
174
1
140
1.0
141
1.0
175
1
  7

176
1
177
1
178
1
143
1.0
179
1
  8

270
1
271
1
272
1
145
1.0
146
1.0
273
1
  9

274
1
275
1
276
1
 42
1.0
 72
1
  3

 73
1
 74
1
 75
1
 94
63
  0
MLINESTYLE
  5
22
102
{ACAD_REACTORS
330
10
102
}
330
10
100
AcDbMlineStyle
  2
Standard
 70
0
  3

 62
256
 51
90.0
 52
90.0
 71
2
 49
0.5
 62
256
  6
BYLAYER
 49
-0.5
 62
256
  6
BYLAYER
  0
MLEADERSTYLE
  5
2C
102
{ACAD_REACTORS
330
F
102
}
330
F
100
AcDbMLeaderStyle
179
2
170
2
171
1
172
0
 90
2
 40
0.0
 41
0.0
173
1
 91
-1056964608
 92
-2
290
1
 42
2.0
291
1
 43
8.0
  3
Standard
 44
4.0
300

342
29
174
1
175
1
176
0
178
1
 93
-1056964608
 45
4.0
292
0
297
0
 46
4.0
 94
-1056964608
 47
1.0
 49
1.0
140
1.0
294
1
141
0.0
177
0
142
1.0
295
0
296
0
143
3.75
271
0
272
9
273
9
  0
DICTIONARY
  5
2D
330
A
100
AcDbDictionary
280
1
281
1
  3
CREATED_BY_EZDXF
350
2E
  3
WRITTEN_BY_EZDXF
350
9F
  0
DICTIONARYVAR
  5
2E
330
2D
100
DictionaryVariables
280
0
  1
1.4.4 @ 2026-09-22T04:34:53.426227+00:00
  0
DICTIONARYVAR
  5
9F
330
2D
100
DictionaryVariables
280
0
  1
1.4.4 @ 2026-09-22T04:34:53.505348+00:00
  0
ENDSEC
  0
EOF
