  0
SECTION
  2
HEADER
  9
$ACADVER
  1
AC1027
  9
$ACADMAINTVER
 70
105
  9
$DWGCODEPAGE
  3
ANSI_1252
  9
$LASTSAVEDBY
  1
ezdxf
  9
$REQUIREDVERSIONS
160
0
  9
$INSBASE
 10
0.0
 20
0.0
 30
0.0
  9
$EXTMIN
 10
1e+20
 20
1e+20
 30
1e+20
  9
$EXTMAX
 10
-1e+20
 20
-1e+20
 30
-1e+20
  9
$LIMMIN
 10
0.0
 20
0.0
  9
$LIMMAX
 10
420.0
 20
297.0
  9
$ORTHOMODE
 70
0
  9
$REGENMODE
 70
1
  9
$FILLMODE
 70
1
  9
$QTEXTMODE
 70
0
  9
$MIRRTEXT
 70
1
  9
$LTSCALE
 40
1.0
  9
$ATTMODE
 70
1
  9
$TEXTSIZE
 40
2.5
  9
$TRACEWID
 40
1.0
  9
$TEXTSTYLE
  7
Standard
  9
$CLAYER
  8
0
  9
$CELTYPE
  6
ByLayer
  9
$CECOLOR
 62
256
  9
$CELTSCALE
 40
1.0
  9
$DISPSILH
 70
0
  9
$DIMSCALE
 40
1.0
  9
$DIMASZ
 40
2.5
  9
$DIMEXO
 40
0.625
  9
$DIMDLI
 40
3.75
  9
$DIMRND
 40
0.0
  9
$DIMDLE
 40
0.0
  9
$DIMEXE
 40
1.25
  9
$DIMTP
 40
0.0
  9
$DIMTM
 40
0.0
  9
$DIMTXT
 40
2.5
  9
$DIMCEN
 40
2.5
  9
$DIMTSZ
 40
0.0
  9
$DIMTOL
 70
0
  9
$DIMLIM
 70
0
  9
$DIMTIH
 70
0
  9
$DIMTOH
 70
0
  9
$DIMSE1
 70
0
  9
$DIMSE2
 70
0
  9
$DIMTAD
 70
1
  9
$DIMZIN
 70
8
  9
$DIMBLK
  1

  9
$DIMASO
 70
1
  9
$DIMSHO
 70
1
  9
$DIMPOST
  1

  9
$DIMAPOST
  1

  9
$DIMALT
 70
0
  9
$DIMALTD
 70
3
  9
$DIMALTF
 40
0.03937007874
  9
$DIMLFAC
 40
1.0
  9
$DIMTOFL
 70
1
  9
$DIMTVP
 40
0.0
  9
$DIMTIX
 70
0
  9
$DIMSOXD
 70
0
  9
$DIMSAH
 70
0
  9
$DIMBLK1
  1

  9
$DIMBLK2
  1

  9
$DIMSTYLE
  2
ISO-25
  9
$DIMCLRD
 70
0
  9
$DIMCLRE
 70
0
  9
$DIMCLRT
 70
0
  9
$DIMTFAC
 40
1.0
  9
$DIMGAP
 40
0.625
  9
$DIMJUST
 70
0
  9
$DIMSD1
 70
0
  9
$DIMSD2
 70
0
  9
$DIMTOLJ
 70
0
  9
$DIMTZIN
 70
8
  9
$DIMALTZ
 70
0
  9
$DIMALTTZ
 70
0
  9
$DIMUPT
 70
0
  9
$DIMDEC
 70
2
  9
$DIMTDEC
 70
2
  9
$DIMALTU
 70
2
  9
$DIMALTTD
 70
3
  9
$DIMTXSTY
  7
Standard
  9
$DIMAUNIT
 70
0
  9
$DIMADEC
 70
0
  9
$DIMALTRND
 40
0.0
  9
$DIMAZIN
 70
0
  9
$DIMDSEP
 70
44
  9
$DIMATFIT
 70
3
  9
$DIMFRAC
 70
0
  9
$DIMLDRBLK
  1

  9
$DIMLUNIT
 70
2
  9
$DIMLWD
 70
-2
  9
$DIMLWE
 70
-2
  9
$DIMTMOVE
 70
0
  9
$DIMFXL
 40
1.0
  9
$DIMFXLON
 70
0
  9
$DIMJOGANG
 40
0.785398163397
  9
$DIMTFILL
 70
0
  9
$DIMTFILLCLR
 70
0
  9
$DIMARCSYM
 70
0
  9
$DIMLTYPE
  6

  9
$DIMLTEX1
  6

  9
$DIMLTEX2
  6

  9
$DIMTXTDIRECTION
 70
0
  9
$LUNITS
 70
2
  9
$LUPREC
 70
4
  9
$SKETCHINC
 40
1.0
  9
$FILLETRAD
 40
10.0
  9
$AUNITS
 70
0
  9
$AUPREC
 70
2
  9
$MENU
  1
.
  9
$ELEVATION
 40
0.0
  9
$PELEVATION
 40
0.0
  9
$THICKNESS
 40
0.0
  9
$LIMCHECK
 70
0
  9
$CHAMFERA
 40
0.0
  9
$CHAMFERB
 40
0.0
  9
$CHAMFERC
 40
0.0
  9
$CHAMFERD
 40
0.0
  9
$SKPOLY
 70
0
  9
$TDCREATE
 40
2461306.274212963
  9
$TDUCREATE
 40
2458532.153996898
  9
$TDUPDATE
 40
2461306.274224537
  9
$TDUUPDATE
 40
2458532.1544311
  9
$TDINDWG
 40
0.0
  9
$TDUSRTIMER
 40
0.0
  9
$USRTIMER
 70
1
  9
$ANGBASE
 50
0.0
  9
$ANGDIR
 70
0
  9
$PDMODE
 70
0
  9
$PDSIZE
 40
0.0
  9
$PLINEWID
 40
0.0
  9
$SPLFRAME
 70
0
  9
$SPLINETYPE
 70
6
  9
$SPLINESEGS
 70
8
  9
$HANDSEED
  5
A2
  9
$SURFTAB1
 70
6
  9
$SURFTAB2
 70
6
  9
$SURFTYPE
 70
6
  9
$SURFU
 70
6
  9
$SURFV
 70
6
  9
$UCSBASE
  2

  9
$UCSNAME
  2

  9
$UCSORG
 10
0.0
 20
0.0
 30
0.0
  9
$UCSXDIR
 10
1.0
 20
0.0
 30
0.0
  9
$UCSYDIR
 10
0.0
 20
1.0
 30
0.0
  9
$UCSORTHOREF
  2

  9
$UCSORTHOVIEW
 70
0
  9
$UCSORGTOP
 10
0.0
 20
0.0
 30
0.0
  9
$UCSORGBOTTOM
 10
0.0
 20
0.0
 30
0.0
  9
$UCSORGLEFT
 10
0.0
 20
0.0
 30
0.0
  9
$UCSORGRIGHT
 10
0.0
 20
0.0
 30
0.0
  9
$UCSORGFRONT
 10
0.0
 20
0.0
 30
0.0
  9
$UCSORGBACK
 10
0.0
 20
0.0
 30
0.0
  9
$PUCSBASE
  2

  9
$PUCSNAME
  2

  9
$PUCSORG
 10
0.0
 20
0.0
 30
0.0
  9
$PUCSXDIR
 10
1.0
 20
0.0
 30
0.0
  9
$PUCSYDIR
 10
0.0
 20
1.0
 30
0.0
  9
$PUCSORTHOREF
  2

  9
$PUCSORTHOVIEW
 70
0
  9
$PUCSORGTOP
 10
0.0
 20
0.0
 30
0.0
  9
$PUCSORGBOTTOM
 10
0.0
 20
0.0
 30
0.0
  9
$PUCSORGLEFT
 10
0.0
 20
0.0
 30
0.0
  9
$PUCSORGRIGHT
 10
0.0
 20
0.0
 30
0.0
  9
$PUCSORGFRONT
 10
0.0
 20
0.0
 30
0.0
  9
$PUCSORGBACK
 10
0.0
 20
0.0
 30
0.0
  9
$USERI1
 70
0
  9
$USERI2
 70
0
  9
$USERI3
 70
0
  9
$USERI4
 70
0
  9
$USERI5
 70
0
  9
$USERR1
 40
0.0
  9
$USERR2
 40
0.0
  9
$USERR3
 40
0.0
  9
$USERR4
 40
0.0
  9
$USERR5
 40
0.0
  9
$WORLDVIEW
 70
1
  9
$SHADEDGE
 70
3
  9
$SHADEDIF
 70
70
  9
$TILEMODE
 70
1
  9
$MAXACTVP
 70
64
  9
$PINSBASE
 10
0.0
 20
0.0
 30
0.0
  9
$PLIMCHECK
 70
0
  9
$PEXTMIN
 10
1e+20
 20
1e+20
 30
1e+20
  9
$PEXTMAX
 10
-1e+20
 20
-1e+20
 30
-1e+20
  9
$PLIMMIN
 10
0.0
 20
0.0
  9
$PLIMMAX
 10
420.0
 20
297.0
  9
$UNITMODE
 70
0
  9
$VISRETAIN
 70
1
  9
$PLINEGEN
 70
0
  9
$PSLTSCALE
 70
1
  9
$TREEDEPTH
 70
3020
  9
$CMLSTYLE
  2
Standard
  9
$CMLJUST
 70
0
  9
$CMLSCALE
 40
20.0
  9
$PROXYGRAPHICS
 70
1
  9
$MEASUREMENT
 70
1
  9
$CELWEIGHT
370
-1
  9
$ENDCAPS
280
0
  9
$JOINSTYLE
280
0
  9
$LWDISPLAY
290
0
  9
$INSUNITS
 70
4
  9
$HYPERLINKBASE
  1

  9
$STYLESHEET
  1

  9
$XEDIT
290
1
  9
$CEPSNTYPE
380
0
  9
$PSTYLEMODE
290
1
  9
$FINGERPRINTGUID
  2
{7210376C-70EF-48BF-9420-3648A291B7FF}
  9
$VERSIONGUID
  2
{206B55CB-8DE9-423A-B1E6-349DD48E069A}
  9
$EXTNAMES
290
1
  9
$PSVPSCALE
 40
0.0
  9
$OLESTARTUP
290
0
  9
$SORTENTS
280
127
  9
$INDEXCTL
280
0
  9
$HIDETEXT
280
1
  9
$XCLIPFRAME
280
1
  9
$HALOGAP
280
0
  9
$OBSCOLOR
 70
257
  9
$OBSLTYPE
280
0
  9
$INTERSECTIONDISPLAY
280
0
  9
$INTERSECTIONCOLOR
 70
257
  9
$DIMASSOC
280
2
  9
$PROJECTNAME
  1

  9
$CAMERADISPLAY
290
0
  9
$LENSLENGTH
 40
50.0
  9
$CAMERAHEIGHT
 40
0.0
  9
$STEPSPERSEC
 40
24.0
  9
$STEPSIZE
 40
100.0
  9
$3DDWFPREC
 40
2.0
  9
$PSOLWIDTH
 40
0.005
  9
$PSOLHEIGHT
 40
0.08
  9
$LOFTANG1
 40
1.570796326795
  9
$LOFTANG2
 40
1.570796326795
  9
$LOFTMAG1
 40
0.0
  9
$LOFTMAG2
 40
0.0
  9
$LOFTPARAM
 70
7
  9
$LOFTNORMALS
280
1
  9
$LATITUDE
 40
37.795
  9
$LONGITUDE
 40
-122.394
  9
$NORTHDIRECTION
 40
0.0
  9
$TIMEZONE
 70
-8000
  9
$LIGHTGLYPHDISPLAY
280
1
  9
$TILEMODELIGHTSYNCH
280
1
  9
$CMATERIAL
347
20
  9
$SOLIDHIST
280
0
  9
$SHOWHIST
280
1
  9
$DWFFRAME
280
2
  9
$DGNFRAME
280
2
  9
$REALWORLDSCALE
290
1
  9
$INTERFERECOLOR
 62
256
  9
$CSHADOW
280
0
  9
$SHADOWPLANELOCATION
 40
0.0
  0
ENDSEC
  0
SECTION
  2
CLASSES
  0
CLASS
  1
ACDBDICTIONARYWDFLT
  2
AcDbDictionaryWithDefault
  3
ObjectDBX Classes
 90
0
 91
0
280
0
281
0
  0
CLASS
  1
SUN
  2
AcDbSun
  3
SCENEOE
 90
1153
 91
0
280
0
281
0
  0
CLASS
  1
VISUALSTYLE
  2
AcDbVisualStyle
  3
ObjectDBX Classes
 90
4095
 91
0
280
0
281
0
  0
CLASS
  1
MATERIAL
  2
AcDbMaterial
  3
ObjectDBX Classes
 90
1153
 91
0
280
0
281
0
  0
CLASS
  1
SCALE
  2
AcDbScale
  3
ObjectDBX Classes
 90
1153
 91
0
280
0
281
0
  0
CLASS
  1
TABLESTYLE
  2
AcDbTableStyle
  3
ObjectDBX Classes
 90
4095
 91
0
280
0
281
0
  0
CLASS
  1
MLEADERSTYLE
  2
AcDbMLeaderStyle
  3
ACDB_MLEADERSTYLE_CLASS
 90
4095
 91
0
280
0
281
0
  0
CLASS
  1
DICTIONARYVAR
  2
AcDbDictionaryVar
  3
ObjectDBX Classes
 90
0
 91
0
280
0
281
0
  0
CLASS
  1
CELLSTYLEMAP
  2
AcDbCellStyleMap
  3
ObjectDBX Classes
 90
1152
 91
0
280
0
281
0
  0
CLASS
  1
MENTALRAYRENDERSETTINGS
  2
AcDbMentalRayRenderSettings
  3
SCENEOE
 90
1024
 91
0
280
0
281
0
  0
CLASS
  1
ACDBDETAILVIEWSTYLE
  2
AcDbDetailViewStyle
  3
ObjectDBX Classes
 90
1025
 91
0
280
0
281
0
  0
CLASS
  1
ACDBSECTIONVIEWSTYLE
  2
AcDbSectionViewStyle
  3
ObjectDBX Classes
 90
1025
 91
0
280
0
281
0
  0
CLASS
  1
RASTERVARIABLES
  2
AcDbRasterVariables
  3
ISM
 90
0
 91
0
280
0
281
0
  0
CLASS
  1
LAYOUT
  2
AcDbLayout
  3
ObjectDBX Classes
 90
0
 91
0
280
0
281
0
  0
CLASS
  1
ACDBPLACEHOLDER
  2
AcDbPlaceHolder
  3
ObjectDBX Classes
 90
0
 91
0
280
0
281
0
  0
ENDSEC
  0
SECTION
  2
TABLES
  0
TABLE
  2
VPORT
  5
8
330
0
100
AcDbSymbolTable
 70
1
  0
VPORT
  5
9E
330
8
100
AcDbSymbolTableRecord
100
AcDbViewportTableRecord
  2
*Active
 70
0
 10
0.0
 20
0.0
 11
1.0
 21
1.0
 12
3.1560580540680405
 22
5.47422450425298
 13
0.0
 23
0.0
 14
0.5
 24
0.5
 15
0.5
 25
0.5
 16
0.0
 26
0.0
 36
1.0
 17
0.0
 27
0.0
 37
0.0
 40
92.50000000000051
 41
1.34
 42
50.0
 43
0.0
 44
0.0
 50
0.0
 51
0.0
 71
0
 72
1000
 73
1
 74
3
 75
0
 76
0
 77
0
 78
0
281
0
 65
1
110
0.0
120
0.0
130
0.0
111
1.0
121
0.0
131
0.0
112
0.0
122
1.0
132
0.0
 79
0
146
0.0
  0
ENDTAB
  0
TABLE
  2
LTYPE
  5
2
330
0
100
AcDbSymbolTable
 70
3
  0
LTYPE
  5
24
330
2
100
AcDbSymbolTableRecord
100
AcDbLinetypeTableRecord
  2
ByBlock
 70
0
  3

 72
65
 73
0
 40
0.0
  0
LTYPE
  5
25
330
2
100
AcDbSymbolTableRecord
100
AcDbLinetypeTableRecord
  2
ByLayer
 70
0
  3

 72
65
 73
0
 40
0.0
  0
LTYPE
  5
26
330
2
100
AcDbSymbolTableRecord
100
AcDbLinetypeTableRecord
  2
Continuous
 70
0
  3

 72
65
 73
0
 40
0.0
  0
ENDTAB
  0
TABLE
  2
LAYER
  5
1
330
0
100
AcDbSymbolTable
 70
2
  0
LAYER
  5
27
330
1
100
AcDbSymbolTableRecord
100
AcDbLayerTableRecord
  2
0
 70
0
 62
7
  6
Continuous
370
-3
390
13
347
21
  0
LAYER
  5
28
330
1
100
AcDbSymbolTableRecord
100
AcDbLayerTableRecord
  2
Defpoints
 70
0
 62
7
  6
Continuous
290
0
370
-3
390
13
347
21
  0
ENDTAB
  0
TABLE
  2
STYLE
  5
5
330
0
100
AcDbSymbolTable
 70
1
  0
STYLE
  5
29
330
5
100
AcDbSymbolTableRecord
100
AcDbTextStyleTableRecord
  2
Standard
 70
0
 40
0.0
 41
1.0
 50
0.0
 71
0
 42
2.5
  3
txt
  4

  0
ENDTAB
  0
TABLE
  2
VIEW
  5
7
330
0
100
AcDbSymbolTable
 70
0
  0
ENDTAB
  0
TABLE
  2
UCS
  5
6
330
0
100
AcDbSymbolTable
 70
0
  0
ENDTAB
  0
TABLE
  2
APPID
  5
3
330
0
100
AcDbSymbolTable
 70
3
  0
APPID
  5
2A
330
3
100
AcDbSymbolTableRecord
100
AcDbRegAppTableRecord
  2
ACAD
 70
0
  0
APPID
  5
9F
330
3
100
AcDbSymbolTableRecord
100
AcDbRegAppTableRecord
  2
HATCHBACKGROUNDCOLOR
 70
0
  0
APPID
  5
A0
330
3
100
AcDbSymbolTableRecord
100
AcDbRegAppTableRecord
  2
EZDXF
 70
0
  0
ENDTAB
  0
TABLE
  2
DIMSTYLE
  5
4
330
0
100
AcDbSymbolTable
 70
1
100
AcDbDimStyleTable
  0
DIMSTYLE
105
2B
330
4
100
AcDbSymbolTableRecord
100
AcDbDimStyleTableRecord
  2
Standard
 70
0
 40
1.0
 41
2.5
 42
0.625
 43
3.75
 44
1.25
 45
0.0
 46
0.0
 47
0.0
 48
0.0
 49
2.5
140
2.5
141
2.5
142
0.0
143
0.03937007874
144
1.0
145
0.0
146
1.0
147
0.625
148
0.0
 69
0
 70
0
 71
0
 72
0
 73
0
 74
0
 75
0
 76
0
 77
1
 78
8
 79
3
170
0
171
3
172
1
173
0
174
0
175
0
176
0
177
0
178
0
179
2
271
2
272
2
273
2
274
3
275
0
276
0
277
2
278
44
279
0
280
0
281
0
282
0
283
0
284
8
285
0
286
0
288
0
289
3
290
0
371
-2
372
-2
  0
ENDTAB
  0
TABLE
  2
BLOCK_RECORD
  5
9
330
0
100
AcDbSymbolTable
 70
2
  0
BLOCK_RECORD
  5
17
330
9
100
AcDbSymbolTableRecord
100
AcDbBlockTableRecord
  2
*Model_Space
340
1A
 70
0
280
1
281
0
  0
BLOCK_RECORD
  5
1B
330
9
100
AcDbSymbolTableRecord
100
AcDbBlockTableRecord
  2
*Paper_Space
340
1E
 70
0
280
1
281
0
  0
ENDTAB
  0
ENDSEC
  0
SECTION
  2
BLOCKS
  0
BLOCK
  5
18
330
17
100
AcDbEntity
  8
0
100
AcDbBlockBegin
  2
*Model_Space
 70
0
 10
0.0
 20
0.0
 30
0.0
  3
*Model_Space
  1

  0
ENDBLK
  5
19
330
17
100
AcDbEntity
  8
0
100
AcDbBlockEnd
  0
BLOCK
  5
1C
330
1B
100
AcDbEntity
  8
0
100
AcDbBlockBegin
  2
*Paper_Space
 70
0
 10
0.0
 20
0.0
 30
0.0
  3
*Paper_Space
  1

  0
ENDBLK
  5
1D
330
1B
100
AcDbEntity
  8
0
100
AcDbBlockEnd
  0
ENDSEC
  0
SECTION
  2
ENTITIES
  0
LINE
  5
2F
330
17
100
AcDbEntity
  8
0
100
AcDbLine
 10
86.15605805406781
 20
-40.775775495747276
 30
-2.2522125624360728e-30
 11
88.15605805406793
 21
-38.77577549574715
 31
-2.2416373937727106e-30
  0
LINE
  5
30
330
17
100
AcDbEntity
  8
0
100
AcDbLine
 10
88.15605805406793
 20
-38.77577549574715
 30
-2.2416373937727106e-30
 11
88.15605805406813
 21
34.22422450425279
 31
-1.3418429237549947e-30
  0
LINE
  5
31
330
17
100
AcDbEntity
  8
0
100
AcDbLine
 10
88.15605805406813
 20
34.22422450425279
 30
-1.3418429237549947e-30
 11
86.15605805406801
 21
36.224224504252795
 31
-1.303114285842042e-30
  0
LINE
  5
32
330
17
100
AcDbEntity
  8
0
100
AcDbLine
 10
86.15605805406801
 20
36.224224504252795
 30
-1.303114285842042e-30
 11
30.656058054068026
 21
36.22422450425295
 31
-9.124849000039725e-31
  0
LINE
  5
33
330
17
100
AcDbEntity
  8
0
100
AcDbLine
 10
30.656058054068026
 20
36.22422450425295
 30
-9.124849000039725e-31
 11
30.65605805406807
 21
51.72422450425295
 31
-7.214326495207587e-31
  0
LINE
  5
34
330
17
100
AcDbEntity
  8
0
100
AcDbLine
 10
30.65605805406807
 20
51.72422450425295
 30
-7.214326495207587e-31
 11
20.656058054068197
 21
51.72422450425298
 31
-6.510489763967831e-31
  0
LINE
  5
35
330
17
100
AcDbEntity
  8
0
100
AcDbLine
 10
20.656058054068197
 20
51.72422450425298
 30
-6.510489763967831e-31
 11
20.65605805406817
 21
39.22422450425299
 31
-8.051233719477619e-31
  0
ARC
  5
36
330
17
100
AcDbEntity
  8
0
100
AcDbCircle
 10
8.156058054068126
 20
39.22422450425303
 30
-7.171437805427909e-31
 40
12.499999999999988
100
AcDbArc
 50
269.99999999999983
 51
359.99999999999983
  0
LINE
  5
37
330
17
100
AcDbEntity
  8
0
100
AcDbLine
 10
8.156058054068083
 20
26.724224504253012
 30
-8.712181760937699e-31
 11
-49.34394194593196
 21
26.724224504253172
 31
-4.665120556309048e-31
  0
ARC
  5
38
330
17
100
AcDbEntity
  8
0
100
AcDbCircle
 10
-49.34394194593192
 20
39.224224504253186
 30
-3.1243766007992574e-31
 40
12.499999999999988
100
AcDbArc
 50
179.99999999999983
 51
269.9999999999998
  0
LINE
  5
39
330
17
100
AcDbEntity
  8
0
100
AcDbLine
 10
-61.8439419459319
 20
39.22422450425322
 30
-2.2445806867495524e-31
 11
-61.843941945931874
 21
51.72422450425321
 31
-7.038367312397652e-32
  0
LINE
  5
3A
330
17
100
AcDbEntity
  8
0
100
AcDbLine
 10
-61.843941945931874
 20
51.72422450425321
 30
-7.038367312397652e-32
 11
-71.84394194593187
 21
51.724224504253236
 31
0.0
  0
LINE
  5
3B
330
17
100
AcDbEntity
  8
0
100
AcDbLine
 10
-71.84394194593187
 20
51.724224504253236
 30
0.0
 11
-71.84394194593189
 21
46.72422450425324
 31
-6.162975822039142e-32
  0
LINE
  5
3C
330
17
100
AcDbEntity
  8
0
100
AcDbLine
 10
-71.84394194593189
 20
46.72422450425324
 30
-6.162975822039142e-32
 11
-81.84394194593192
 21
36.72422450425327
 31
-1.1450560153719806e-31
  0
LINE
  5
3D
330
17
100
AcDbEntity
  8
0
100
AcDbLine
 10
-81.84394194593192
 20
36.72422450425327
 30
-1.1450560153719806e-31
 11
-81.84394194593204
 21
-15.775775495746736
 31
-7.616180628513095e-31
  0
LINE
  5
3E
330
17
100
AcDbEntity
  8
0
100
AcDbLine
 10
-81.84394194593204
 20
-15.775775495746736
 30
-7.616180628513095e-31
 11
-71.84394194593209
 21
-25.77577549574665
 31
-9.552612524160676e-31
  0
LINE
  5
3F
330
17
100
AcDbEntity
  8
0
100
AcDbLine
 10
-71.84394194593209
 20
-25.77577549574665
 30
-9.552612524160676e-31
 11
-71.84394194593213
 21
-40.775775495746835
 31
-1.1401505270772445e-30
  0
LINE
  5
40
330
17
100
AcDbEntity
  8
0
100
AcDbLine
 10
-71.84394194593213
 20
-40.775775495746835
 30
-1.1401505270772445e-30
 11
86.15605805406781
 21
-40.775775495747276
 31
-2.2522125624360728e-30
  0
LINE
  5
41
330
17
100
AcDbEntity
  8
0
100
AcDbLine
 10
38.120804016223815
 20
-2.775775495649974
 30
-1.4457366380972203e-30
 11
55.44131209191258
 21
-2.7757754956500236
 31
-1.5676447359712677e-30
  0
LINE
  5
42
330
17
100
AcDbEntity
  8
0
100
AcDbLine
 10
55.44131209191258
 20
-2.7757754956500236
 30
-1.5676447359712677e-30
 11
46.781058054068154
 21
-17.77577549564993
 31
-1.6915799616954178e-30
  0
LINE
  5
43
330
17
100
AcDbEntity
  8
0
100
AcDbLine
 10
46.781058054068154
 20
-17.77577549564993
 30
-1.6915799616954178e-30
 11
38.120804016223815
 21
-2.775775495649974
 31
-1.4457366380972203e-30
  0
LINE
  5
44
330
17
100
AcDbEntity
  8
0
100
AcDbLine
 10
32.12080401622394
 20
-2.7757754956499596
 30
-1.4035064342228351e-30
 11
23.460549978379504
 21
-17.775775495649874
 31
-1.5274416599469852e-30
  0
LINE
  5
45
330
17
100
AcDbEntity
  8
0
100
AcDbLine
 10
23.460549978379504
 20
-17.775775495649874
 30
-1.5274416599469852e-30
 11
14.800295940535179
 21
-2.775775495649654
 31
-1.2815983363487847e-30
  0
LINE
  5
46
330
17
100
AcDbEntity
  8
0
100
AcDbLine
 10
14.800295940535179
 20
-2.775775495649654
 30
-1.2815983363487847e-30
 11
32.12080401622394
 21
-2.7757754956499596
 31
-1.4035064342228351e-30
  0
LINE
  5
47
330
17
100
AcDbEntity
  8
0
100
AcDbLine
 10
61.44131209191184
 20
-35.77577549564986
 30
-2.0166313441002308e-30
 11
70.10156612975652
 21
-20.7757754956502
 31
-1.8926961183760856e-30
  0
LINE
  5
48
330
17
100
AcDbEntity
  8
0
100
AcDbLine
 10
70.10156612975652
 20
-20.7757754956502
 30
-1.8926961183760856e-30
 11
78.7618201676006
 21
-35.77577549565016
 31
-2.1385394419742813e-30
  0
LINE
  5
49
330
17
100
AcDbEntity
  8
0
100
AcDbLine
 10
78.7618201676006
 20
-35.77577549565016
 30
-2.1385394419742813e-30
 11
61.44131209191184
 21
-35.77577549564986
 31
-2.0166313441002308e-30
  0
LINE
  5
4A
330
17
100
AcDbEntity
  8
0
100
AcDbLine
 10
35.12080401622353
 20
-35.77577549564979
 30
-1.831377940414608e-30
 11
26.460549978379447
 21
-20.775775495650073
 31
-1.5855346168164153e-30
  0
LINE
  5
4B
330
17
100
AcDbEntity
  8
0
100
AcDbLine
 10
26.460549978379447
 20
-20.775775495650073
 30
-1.5855346168164153e-30
 11
43.781058054067955
 21
-20.77577549565013
 31
-1.707442714690461e-30
  0
LINE
  5
4C
330
17
100
AcDbEntity
  8
0
100
AcDbLine
 10
43.781058054067955
 20
-20.77577549565013
 30
-1.707442714690461e-30
 11
35.12080401622353
 21
-35.77577549564979
 31
-1.831377940414608e-30
  0
LINE
  5
4D
330
17
100
AcDbEntity
  8
0
100
AcDbLine
 10
35.120804016223886
 20
0.22422450435023222
 30
-1.3876436812277903e-30
 11
26.460549978379547
 21
15.224224504349941
 31
-1.1418003576295958e-30
  0
LINE
  5
4E
330
17
100
AcDbEntity
  8
0
100
AcDbLine
 10
26.460549978379547
 20
15.224224504349941
 30
-1.1418003576295958e-30
 11
43.781058054068055
 21
15.224224504349891
 31
-1.2637084555036415e-30
  0
LINE
  5
4F
330
17
100
AcDbEntity
  8
0
100
AcDbLine
 10
43.781058054068055
 20
15.224224504349891
 30
-1.2637084555036415e-30
 11
35.120804016223886
 21
0.22422450435023222
 31
-1.3876436812277903e-30
  0
LINE
  5
50
330
17
100
AcDbEntity
  8
0
100
AcDbLine
 10
58.4413120919119
 20
-35.775775495649846
 30
-1.9955162421630384e-30
 11
49.78105805406808
 21
-20.775775495650144
 31
-1.7496729185648475e-30
  0
LINE
  5
51
330
17
100
AcDbEntity
  8
0
100
AcDbLine
 10
49.78105805406808
 20
-20.775775495650144
 30
-1.7496729185648475e-30
 11
67.1015661297566
 21
-20.775775495650443
 31
-1.8715810164388964e-30
  0
LINE
  5
52
330
17
100
AcDbEntity
  8
0
100
AcDbLine
 10
67.1015661297566
 20
-20.775775495650443
 30
-1.8715810164388964e-30
 11
58.4413120919119
 21
-35.775775495649846
 31
-1.9955162421630384e-30
  0
LINE
  5
53
330
17
100
AcDbEntity
  8
0
100
AcDbLine
 10
58.44131209191252
 20
-2.7757754956502794
 30
-1.5887598379084633e-30
 11
67.1015661297566
 21
-17.775775495649988
 31
-1.834603161506656e-30
  0
LINE
  5
54
330
17
100
AcDbEntity
  8
0
100
AcDbLine
 10
67.1015661297566
 20
-17.775775495649988
 30
-1.834603161506656e-30
 11
49.781058054068325
 21
-17.775775495649945
 31
-1.712695063632612e-30
  0
LINE
  5
55
330
17
100
AcDbEntity
  8
0
100
AcDbLine
 10
49.781058054068325
 20
-17.775775495649945
 30
-1.712695063632612e-30
 11
58.44131209191252
 21
-2.7757754956502794
 31
-1.5887598379084633e-30
  0
LINE
  5
56
330
17
100
AcDbEntity
  8
0
100
AcDbLine
 10
55.44131209191259
 20
0.22422450434991248
 30
-1.5306668810390335e-30
 11
38.12080401622356
 21
0.22422450434996222
 31
-1.4087587831649843e-30
  0
LINE
  5
57
330
17
100
AcDbEntity
  8
0
100
AcDbLine
 10
38.12080401622356
 20
0.22422450434996222
 30
-1.4087587831649843e-30
 11
46.781058054068254
 21
15.22422450435014
 31
-1.2848235574408327e-30
  0
LINE
  5
58
330
17
100
AcDbEntity
  8
0
100
AcDbLine
 10
46.781058054068254
 20
15.22422450435014
 30
-1.2848235574408327e-30
 11
55.44131209191259
 21
0.22422450434991248
 31
-1.5306668810390335e-30
  0
LINE
  5
59
330
17
100
AcDbEntity
  8
0
100
AcDbLine
 10
78.7618201676012
 20
-2.7757754956500875
 30
-1.7317830377196996e-30
 11
70.10156612975652
 21
-17.775775495650258
 31
-1.8557182634438514e-30
  0
LINE
  5
5A
330
17
100
AcDbEntity
  8
0
100
AcDbLine
 10
70.10156612975652
 20
-17.775775495650258
 30
-1.8557182634438514e-30
 11
61.44131209191221
 21
-2.775775495649782
 31
-1.6098749398456476e-30
  0
LINE
  5
5B
330
17
100
AcDbEntity
  8
0
100
AcDbLine
 10
61.44131209191221
 20
-2.775775495649782
 30
-1.6098749398456476e-30
 11
78.7618201676012
 21
-2.7757754956500875
 31
-1.7317830377196996e-30
  0
LINE
  5
5C
330
17
100
AcDbEntity
  8
0
100
AcDbLine
 10
23.460549978379504
 20
-20.775775495650073
 30
-1.5644195148792226e-30
 11
32.12080401622386
 21
-35.77577549565003
 31
-1.8102628384774204e-30
  0
LINE
  5
5D
330
17
100
AcDbEntity
  8
0
100
AcDbLine
 10
32.12080401622386
 20
-35.77577549565003
 30
-1.8102628384774204e-30
 11
14.800295940535094
 21
-35.77577549564999
 31
-1.688354740603373e-30
  0
LINE
  5
5E
330
17
100
AcDbEntity
  8
0
100
AcDbLine
 10
14.800295940535094
 20
-35.77577549564999
 30
-1.688354740603373e-30
 11
23.460549978379504
 21
-20.775775495650073
 31
-1.5644195148792226e-30
  0
LINE
  5
5F
330
17
100
AcDbEntity
  8
0
100
AcDbLine
 10
58.441312091912266
 20
0.22422450435016827
 30
-1.551781982976221e-30
 11
49.78105805406818
 21
15.224224504350126
 31
-1.305938659378025e-30
  0
LINE
  5
60
330
17
100
AcDbEntity
  8
0
100
AcDbLine
 10
49.78105805406818
 20
15.224224504350126
 30
-1.305938659378025e-30
 11
67.10156612975669
 21
15.224224504349827
 31
-1.4278467572520739e-30
  0
LINE
  5
61
330
17
100
AcDbEntity
  8
0
100
AcDbLine
 10
67.10156612975669
 20
15.224224504349827
 30
-1.4278467572520739e-30
 11
58.441312091912266
 21
0.22422450435016827
 31
-1.551781982976221e-30
  0
LINE
  5
62
330
17
100
AcDbEntity
  8
0
100
AcDbLine
 10
38.12080401622346
 20
-35.775775495650045
 30
-1.8524930423518035e-30
 11
46.781058054067884
 21
-20.775775495649874
 31
-1.72855781662765e-30
  0
LINE
  5
63
330
17
100
AcDbEntity
  8
0
100
AcDbLine
 10
46.781058054067884
 20
-20.775775495649874
 30
-1.72855781662765e-30
 11
55.44131209191222
 21
-35.7757754956501
 31
-1.974401140225851e-30
  0
LINE
  5
64
330
17
100
AcDbEntity
  8
0
100
AcDbLine
 10
55.44131209191222
 20
-35.7757754956501
 30
-1.974401140225851e-30
 11
38.12080401622346
 21
-35.775775495650045
 31
-1.8524930423518035e-30
  0
LINE
  5
65
330
17
100
AcDbEntity
  8
0
100
AcDbLine
 10
14.800295940535193
 20
0.22422450435002617
 30
-1.2446204814165538e-30
 11
23.460549978379603
 21
15.224224504350204
 31
-1.1206852556924003e-30
  0
LINE
  5
66
330
17
100
AcDbEntity
  8
0
100
AcDbLine
 10
23.460549978379603
 20
15.224224504350204
 30
-1.1206852556924003e-30
 11
32.12080401622396
 21
0.22422450434997643
 31
-1.366528579290601e-30
  0
LINE
  5
67
330
17
100
AcDbEntity
  8
0
100
AcDbLine
 10
32.12080401622396
 20
0.22422450434997643
 30
-1.366528579290601e-30
 11
14.800295940535193
 21
0.22422450435002617
 31
-1.2446204814165538e-30
  0
LINE
  5
68
330
17
100
AcDbEntity
  8
0
100
AcDbLine
 10
35.12080401622411
 20
-2.7757754956499667
 30
-1.4246215361600293e-30
 11
43.78105805406821
 21
-17.77577549564993
 31
-1.6704648597582254e-30
  0
LINE
  5
69
330
17
100
AcDbEntity
  8
0
100
AcDbLine
 10
43.78105805406821
 20
-17.77577549564993
 30
-1.6704648597582254e-30
 11
26.460549978379447
 21
-17.775775495649633
 31
-1.5485567618841748e-30
  0
LINE
  5
6A
330
17
100
AcDbEntity
  8
0
100
AcDbLine
 10
26.460549978379447
 20
-17.775775495649633
 30
-1.5485567618841748e-30
 11
35.12080401622411
 21
-2.7757754956499667
 31
-1.4246215361600293e-30
  0
LINE
  5
6B
330
17
100
AcDbEntity
  8
0
100
AcDbLine
 10
61.44131209191221
 20
0.22422450435016117
 30
-1.5728970849134134e-30
 11
70.1015661297566
 21
15.224224504350076
 31
-1.4489618591892631e-30
  0
LINE
  5
6C
330
17
100
AcDbEntity
  8
0
100
AcDbLine
 10
70.1015661297566
 20
15.224224504350076
 30
-1.4489618591892631e-30
 11
78.76182016760094
 21
0.22422450435011143
 31
-1.6948051827874604e-30
  0
LINE
  5
6D
330
17
100
AcDbEntity
  8
0
100
AcDbLine
 10
78.76182016760094
 20
0.22422450435011143
 30
-1.6948051827874604e-30
 11
61.44131209191221
 21
0.22422450435016117
 31
-1.5728970849134134e-30
  0
CIRCLE
  5
6E
330
17
100
AcDbEntity
  8
0
100
AcDbCircle
 10
83.15605805406796
 20
-8.275775495747226
 30
-1.8305040320663346e-30
 40
1.7499999999999927
  0
CIRCLE
  5
6F
330
17
100
AcDbEntity
  8
0
100
AcDbCircle
 10
83.15605805406804
 20
21.724224504252916
 30
-1.4607254827439836e-30
 40
1.7500000000000029
  0
CIRCLE
  5
70
330
17
100
AcDbEntity
  8
0
100
AcDbCircle
 10
-45.593941945932066
 20
17.974224504253293
 30
-6.00758009938079e-31
 40
1.75
  0
ARC
  5
71
330
17
100
AcDbEntity
  8
0
100
AcDbCircle
 10
-20.593941945932066
 20
-7.025775495746856
 30
-1.0848659838499794e-30
 40
28.75000000000006
100
AcDbArc
 50
-118.48179979882485
 51
-61.51820020117546
  0
ARC
  5
72
330
17
100
AcDbEntity
  8
0
100
AcDbCircle
 10
-33.35047062843943
 20
-30.538186600786112
 30
-1.284893691667761e-30
 40
2.000000000000001
100
AcDbArc
 50
143.9999999999955
 51
241.51820020117762
  0
LINE
  5
73
330
17
100
AcDbEntity
  8
0
100
AcDbLine
 10
-34.96850461718922
 20
-29.362616096201045
 30
-1.259015348937276e-30
 11
-30.65609262189988
 21
-23.42709019226188
 31
-1.2162066832883834e-30
  0
ARC
  5
74
330
17
100
AcDbEntity
  8
0
100
AcDbCircle
 10
-29.0380586331501
 20
-24.602660696846932
 30
-1.2420850260188684e-30
 40
2.000000000000001
100
AcDbArc
 50
424.33989089392605
 51
503.9999999999955
  0
ARC
  5
75
330
17
100
AcDbEntity
  8
0
100
AcDbCircle
 10
-20.593941945932066
 20
-7.025775495746856
 30
-1.0848659838499794e-30
 40
17.5
100
AcDbArc
 50
244.33989089392762
 51
295.6601091060721
  0
ARC
  5
76
330
17
100
AcDbEntity
  8
0
100
AcDbCircle
 10
-12.149825258714124
 20
-24.60266069684699
 30
-1.3609506157656417e-30
 40
2.000000000000001
100
AcDbArc
 50
396.00000000000415
 51
475.6601091060736
  0
LINE
  5
77
330
17
100
AcDbEntity
  8
0
100
AcDbLine
 10
-10.53179126996433
 20
-23.427090192261936
 30
-1.3578489081086863e-30
 11
-6.219379274675035
 21
-29.36261609620113
 31
-1.4613622530080507e-30
  0
ARC
  5
78
330
17
100
AcDbEntity
  8
0
100
AcDbCircle
 10
-7.837413263424821
 20
-30.538186600786183
 30
-1.464463960665006e-30
 40
2.000000000000001
100
AcDbArc
 50
298.48179979882207
 51
396.00000000000415
  0
ARC
  5
79
330
17
100
AcDbEntity
  8
0
100
AcDbCircle
 10
-20.593941945932066
 20
-7.025775495746856
 30
-1.0848659838499794e-30
 40
28.75000000000006
100
AcDbArc
 50
-46.481799798824994
 51
10.481799798824767
  0
ARC
  5
7A
330
17
100
AcDbEntity
  8
0
100
AcDbCircle
 10
-2.1742943028001918
 20
-26.423689834738788
 30
-1.4536079838656687e-30
 40
2.000000000000001
100
AcDbArc
 50
215.99999999999974
 51
313.5182002011743
  0
LINE
  5
7B
330
17
100
AcDbEntity
  8
0
100
AcDbLine
 10
-3.79232829155022
 20
-27.599260339323813
 30
-1.4567096915226221e-30
 11
-8.104740286839537
 21
-21.66373443538462
 31
-1.3531963466232576e-30
  0
ARC
  5
7C
330
17
100
AcDbEntity
  8
0
100
AcDbCircle
 10
-6.486706298089487
 20
-20.488163930799594
 30
-1.3500946389663043e-30
 40
2.000000000000001
100
AcDbArc
 50
496.3398908939283
 51
575.9999999999995
  0
ARC
  5
7D
330
17
100
AcDbEntity
  8
0
100
AcDbCircle
 10
-20.593941945932066
 20
-7.025775495746856
 30
-1.0848659838499794e-30
 40
17.5
100
AcDbArc
 50
316.33989089392736
 51
367.66010910607184
  0
ARC
  5
7E
330
17
100
AcDbEntity
  8
0
100
AcDbCircle
 10
-1.267955180418511
 20
-4.426499531329043
 30
-1.1888508275331699e-30
 40
2.000000000000001
100
AcDbArc
 50
468.00000000000205
 51
547.6601091060766
  0
LINE
  5
7F
330
17
100
AcDbEntity
  8
0
100
AcDbLine
 10
-1.8859891691684822
 20
-2.5243864987387354
 30
-1.161055524047522e-30
 11
5.091640012702243
 21
-0.2572173445395194
 31
-1.1822216238356271e-30
  0
ARC
  5
80
330
17
100
AcDbEntity
  8
0
100
AcDbCircle
 10
5.709674001452186
 20
-2.1593303771298267
 30
-1.2100169273212749e-30
 40
2.000000000000001
100
AcDbArc
 50
370.4817997988286
 51
468.00000000000153
  0
ARC
  5
81
330
17
100
AcDbEntity
  8
0
100
AcDbCircle
 10
-20.593941945932066
 20
-7.025775495746856
 30
-1.0848659838499794e-30
 40
28.75000000000006
100
AcDbArc
 50
-190.48179979882508
 51
-133.51820020117538
  0
ARC
  5
82
330
17
100
AcDbEntity
  8
0
100
AcDbCircle
 10
-46.897557893316275
 20
-2.1593303771296846
 30
-8.397479059574135e-31
 40
2.000000000000001
100
AcDbArc
 50
431.99999999999847
 51
529.5182002011713
  0
LINE
  5
83
330
17
100
AcDbEntity
  8
0
100
AcDbLine
 10
-46.279523904566325
 20
-0.2572173445393773
 30
-8.206525029205025e-31
 11
-39.30189472269563
 21
-2.524386498738636
 31
-8.97708637435819e-31
  0
ARC
  5
84
330
17
100
AcDbEntity
  8
0
100
AcDbCircle
 10
-39.91992871144535
 20
-4.426499531328929
 30
-9.168040404727313e-31
 40
2.000000000000001
100
AcDbArc
 50
352.33989089392213
 51
432.0000000000046
  0
ARC
  5
85
330
17
100
AcDbEntity
  8
0
100
AcDbCircle
 10
-20.593941945932066
 20
-7.025775495746856
 30
-1.0848659838499794e-30
 40
17.5
100
AcDbArc
 50
172.33989089392787
 51
223.66010910607235
  0
ARC
  5
86
330
17
100
AcDbEntity
  8
0
100
AcDbCircle
 10
-34.70117759377471
 20
-20.48816393079951
 30
-1.1515108264621717e-30
 40
2.000000000000001
100
AcDbArc
 50
324.00000000000006
 51
403.66010910607133
  0
LINE
  5
87
330
17
100
AcDbEntity
  8
0
100
AcDbLine
 10
-33.08314360502468
 20
-21.663734435384562
 30
-1.1773891691926582e-30
 11
-37.395555600314005
 21
-27.599260339323727
 31
-1.220197834841551e-30
  0
ARC
  5
88
330
17
100
AcDbEntity
  8
0
100
AcDbCircle
 10
-39.01358958906404
 20
-26.423689834738674
 30
-1.1943194921110644e-30
 40
2.000000000000001
100
AcDbArc
 50
226.48179979882516
 51
324.0
  0
CIRCLE
  5
89
330
17
100
AcDbEntity
  8
0
100
AcDbCircle
 10
4.406058054068083
 20
17.97422450425315
 30
-9.526763755579625e-31
 40
1.7500000000000029
  0
ARC
  5
8A
330
17
100
AcDbEntity
  8
0
100
AcDbCircle
 10
-20.593941945932066
 20
-7.025775495746856
 30
-1.0848659838499794e-30
 40
28.75000000000006
100
AcDbArc
 50
-262.48179979882525
 51
-205.51820020117526
  0
ARC
  5
8B
330
17
100
AcDbEntity
  8
0
100
AcDbCircle
 10
-24.093941945931967
 20
19.494264096983812
 30
-7.333469726375475e-31
 40
2.000000000000001
100
AcDbArc
 50
359.99999999999983
 51
457.51820020117265
  0
LINE
  5
8C
330
17
100
AcDbEntity
  8
0
100
AcDbLine
 10
-22.093941945932087
 20
19.494264096983812
 30
-7.474237072623419e-31
 11
-22.0939419459321
 21
12.157550597503914
 31
-8.378556830833877e-31
  0
ARC
  5
8D
330
17
100
AcDbEntity
  8
0
100
AcDbCircle
 10
-24.09394194593198
 20
12.157550597503914
 30
-8.237789484585932e-31
 40
2.000000000000001
100
AcDbArc
 50
280.3398908939288
 51
359.99999999999983
  0
ARC
  5
8E
330
17
100
AcDbEntity
  8
0
100
AcDbCircle
 10
-20.593941945932066
 20
-7.025775495746856
 30
-1.0848659838499794e-30
 40
17.5
100
AcDbArc
 50
100.3398908939272
 51
151.66010910607204
  0
ARC
  5
8F
330
17
100
AcDbEntity
  8
0
100
AcDbCircle
 10
-37.756809750820686
 20
2.230896082737125
 30
-8.499701298435422e-31
 40
2.000000000000001
100
AcDbArc
 50
251.99999999999775
 51
331.66010910607247
  0
LINE
  5
90
330
17
100
AcDbEntity
  8
0
100
AcDbLine
 10
-38.374843739570665
 20
0.32878305014681786
 30
-8.69065532880453e-31
 11
-45.35247292144161
 21
2.5959522043460765
 31
-7.920093983651347e-31
  0
ARC
  5
91
330
17
100
AcDbEntity
  8
0
100
AcDbCircle
 10
-44.73443893269163
 20
4.49806523693637
 30
-7.729139953282241e-31
 40
2.000000000000001
100
AcDbArc
 50
154.48179979882298
 51
251.99999999999756
  0
CIRCLE
  5
92
330
17
100
AcDbEntity
  8
0
100
AcDbCircle
 10
-45.5939419459322
 20
-32.02577549574685
 30
-1.2170555921419961e-30
 40
1.7500000000000029
  0
ARC
  5
93
330
17
100
AcDbEntity
  8
0
100
AcDbCircle
 10
-20.593941945932066
 20
-7.025775495746856
 30
-1.0848659838499794e-30
 40
28.75000000000006
100
AcDbArc
 50
-334.48179979882514
 51
-277.5182002011756
  0
ARC
  5
94
330
17
100
AcDbEntity
  8
0
100
AcDbCircle
 10
3.5465550408275703
 20
4.498065236936242
 30
-1.1127333651215096e-30
 40
2.000000000000001
100
AcDbArc
 50
288.000000000002
 51
385.5182002011755
  0
LINE
  5
95
330
17
100
AcDbEntity
  8
0
100
AcDbLine
 10
4.164589029577527
 20
2.5959522043459344
 30
-1.1405286686071572e-30
 11
-2.8130401522934108
 21
0.3287830501467184
 31
-1.1193625688190506e-30
  0
ARC
  5
96
330
17
100
AcDbEntity
  8
0
100
AcDbCircle
 10
-3.4310741410431405
 20
2.2308960827370257
 30
-1.0915672653334046e-30
 40
1.9999999999999984
100
AcDbArc
 50
208.33989089392384
 51
287.9999999999954
  0
ARC
  5
97
330
17
100
AcDbEntity
  8
0
100
AcDbCircle
 10
-20.593941945932066
 20
-7.025775495746856
 30
-1.0848659838499794e-30
 40
17.5
100
AcDbArc
 50
28.33989089392763
 51
79.66010910607244
  0
ARC
  5
98
330
17
100
AcDbEntity
  8
0
100
AcDbCircle
 10
-17.093941945932038
 20
12.1575505975039
 30
-8.730475196453765e-31
 40
2.000000000000001
100
AcDbArc
 50
179.99999999999983
 51
259.66010910607116
  0
LINE
  5
99
330
17
100
AcDbEntity
  8
0
100
AcDbLine
 10
-19.09394194593191
 20
12.1575505975039
 30
-8.58970785020582e-31
 11
-19.093941945931896
 21
19.494264096983798
 31
-7.685388091995362e-31
  0
ARC
  5
9A
330
17
100
AcDbEntity
  8
0
100
AcDbCircle
 10
-17.093941945932023
 20
19.494264096983798
 30
-7.826155438243307e-31
 40
2.000000000000001
100
AcDbArc
 50
442.4817997988195
 51
539.9999999999998
  0
CIRCLE
  5
9B
330
17
100
AcDbEntity
  8
0
100
AcDbCircle
 10
4.406058054067955
 20
-32.02577549574699
 30
-1.5689739577618797e-30
 40
1.7499999999999976
  0
CIRCLE
  5
9C
330
17
100
AcDbEntity
  8
0
100
AcDbCircle
 10
-76.84394194593203
 20
-8.275775495746778
 30
-7.043652620827107e-31
 40
1.7499999999999976
  0
CIRCLE
  5
9D
330
17
100
AcDbEntity
  8
0
100
AcDbCircle
 10
-76.84394194593195
 20
21.72422450425336
 30
-3.3458671276035974e-31
 40
1.75
  0
ENDSEC
  0
SECTION
  2
OBJECTS
  0
DICTIONARY
  5
A
330
0
100
AcDbDictionary
281
1
  3
ACAD_COLOR
350
B
  3
ACAD_GROUP
350
C
  3
ACAD_LAYOUT
350
D
  3
ACAD_MATERIAL
350
E
  3
ACAD_MLEADERSTYLE
350
F
  3
ACAD_MLINESTYLE
350
10
  3
ACAD_PLOTSETTINGS
350
11
  3
ACAD_PLOTSTYLENAME
350
12
  3
ACAD_SCALELIST
350
14
  3
ACAD_TABLESTYLE
350
15
  3
ACAD_VISUALSTYLE
350
16
  3
EZDXF_META
350
2D
  0
DICTIONARY
  5
B
330
A
100
AcDbDictionary
281
1
  0
DICTIONARY
  5
C
330
A
100
AcDbDictionary
281
1
  0
DICTIONARY
  5
D
330
A
100
AcDbDictionary
281
1
  3
Model
350
1A
  3
Layout1
350
1E
  0
DICTIONARY
  5
E
330
A
100
AcDbDictionary
281
1
  3
ByBlock
350
1F
  3
ByLayer
350
20
  3
Global
350
21
  0
DICTIONARY
  5
F
330
A
100
AcDbDictionary
281
1
  3
Standard
350
2C
  0
DICTIONARY
  5
10
330
A
100
AcDbDictionary
281
1
  3
Standard
350
22
  0
DICTIONARY
  5
11
330
A
100
AcDbDictionary
281
1
  0
ACDBDICTIONARYWDFLT
  5
12
330
A
100
AcDbDictionary
281
1
  3
Normal
350
13
100
AcDbDictionaryWithDefault
340
13
  0
ACDBPLACEHOLDER
  5
13
330
12
  0
DICTIONARY
  5
14
330
A
100
AcDbDictionary
281
1
  0
DICTIONARY
  5
15
330
A
100
AcDbDictionary
281
1
  0
DICTIONARY
  5
16
330
A
100
AcDbDictionary
281
1
  0
LAYOUT
  5
1A
330
D
100
AcDbPlotSettings
  1

  4
A3
  6

 40
7.5
 41
20.0
 42
7.5
 43
20.0
 44
420.0
 45
297.0
 46
0.0
 47
0.0
 48
0.0
 49
0.0
140
0.0
141
0.0
142
1.0
143
1.0
 70
1024
 72
1
 73
0
 74
5
  7

 75
16
 76
0
 77
2
 78
300
147
1.0
148
0.0
149
0.0
100
AcDbLayout
  1
Model
 70
1
 71
0
 10
0.0
 20
0.0
 11
420.0
 21
297.0
 12
0.0
 22
0.0
 32
0.0
 14
1e+20
 24
1e+20
 34
1e+20
 15
-1e+20
 25
-1e+20
 35
-1e+20
146
0.0
 13
0.0
 23
0.0
 33
0.0
 16
1.0
 26
0.0
 36
0.0
 17
0.0
 27
1.0
 37
0.0
 76
1
330
17
  0
LAYOUT
  5
1E
330
D
100
AcDbPlotSettings
  1

  4
A3
  6

 40
7.5
 41
20.0
 42
7.5
 43
20.0
 44
420.0
 45
297.0
 46
0.0
 47
0.0
 48
0.0
 49
0.0
140
0.0
141
0.0
142
1.0
143
1.0
 70
0
 72
1
 73
0
 74
5
  7

 75
16
 76
0
 77
2
 78
300
147
1.0
148
0.0
149
0.0
100
AcDbLayout
  1
Layout1
 70
1
 71
1
 10
0.0
 20
0.0
 11
420.0
 21
297.0
 12
0.0
 22
0.0
 32
0.0
 14
1e+20
 24
1e+20
 34
1e+20
 15
-1e+20
 25
-1e+20
 35
-1e+20
146
0.0
 13
0.0
 23
0.0
 33
0.0
 16
1.0
 26
0.0
 36
0.0
 17
0.0
 27
1.0
 37
0.0
 76
1
330
1B
  0
MATERIAL
  5
1F
102
{ACAD_REACTORS
330
E
102
}
330
E
100
AcDbMaterial
  1
ByBlock
  2

 70
0
 40
1.0
 71
1
 41
1.0
 91
-1023410177
 42
1.0
 72
1
  3

 73
1
 74
1
 75
1
 44
0.5
 73
0
 45
1.0
 46
1.0
 77
1
  4

 78
1
 79
1
170
1
 48
1.0
171
1
  6

172
1
173
1
174
1
140
1.0
141
1.0
175
1
  7

176
1
177
1
178
1
143
1.0
179
1
  8

270
1
271
1
272
1
145
1.0
146
1.0
273
1
  9

274
1
275
1
276
1
 42
1.0
 72
1
  3

 73
1
 74
1
 75
1
 94
63
  0
MATERIAL
  5
20
102
{ACAD_REACTORS
330
E
102
}
330
E
100
AcDbMaterial
  1
ByLayer
  2

 70
0
 40
1.0
 71
1
 41
1.0
 91
-1023410177
 42
1.0
 72
1
  3

 73
1
 74
1
 75
1
 44
0.5
 73
0
 45
1.0
 46
1.0
 77
1
  4

 78
1
 79
1
170
1
 48
1.0
171
1
  6

172
1
173
1
174
1
140
1.0
141
1.0
175
1
  7

176
1
177
1
178
1
143
1.0
179
1
  8

270
1
271
1
272
1
145
1.0
146
1.0
273
1
  9

274
1
275
1
276
1
 42
1.0
 72
1
  3

 73
1
 74
1
 75
1
 94
63
  0
MATERIAL
  5
21
102
{ACAD_REACTORS
330
E
102
}
330
E
100
AcDbMaterial
  1
Global
  2

 70
0
 40
1.0
 71
1
 41
1.0
 91
-1023410177
 42
1.0
 72
1
  3

 73
1
 74
1
 75
1
 44
0.5
 73
0
 45
1.0
 46
1.0
 77
1
  4

 78
1
 79
1
170
1
 48
1.0
171
1
  6

172
1
173
1
174
1
140
1.0
141
1.0
175
1
  7

176
1
177
1
178
1
143
1.0
179
1
  8

270
1
271
1
272
1
145
1.0
146
1.0
273
1
  9

274
1
275
1
276
1
 42
1.0
 72
1
  3

 73
1
 74
1
 75
1
 94
63
  0
MLINESTYLE
  5
22
102
{ACAD_REACTORS
330
10
102
}
330
10
100
AcDbMlineStyle
  2
Standard
 70
0
  3

 62
256
 51
90.0
 52
90.0
 71
2
 49
0.5
 62
256
  6
BYLAYER
 49
-0.5
 62
256
  6
BYLAYER
  0
MLEADERSTYLE
  5
2C
102
{ACAD_REACTORS
330
F
102
}
330
F
100
AcDbMLeaderStyle
179
2
170
2
171
1
172
0
 90
2
 40
0.0
 41
0.0
173
1
 91
-1056964608
 92
-2
290
1
 42
2.0
291
1
 43
8.0
  3
Standard
 44
4.0
300

342
29
174
1
175
1
176
0
178
1
 93
-1056964608
 45
4.0
292
0
297
0
 46
4.0
 94
-1056964608
 47
1.0
 49
1.0
140
1.0
294
1
141
0.0
177
0
142
1.0
295
0
296
0
143
3.75
271
0
272
9
273
9
  0
DICTIONARY
  5
2D
330
A
100
AcDbDictionary
280
1
281
1
  3
CREATED_BY_EZDXF
350
2E
  3
WRITTEN_BY_EZDXF
350
A1
  0
DICTIONARYVAR
  5
2E
330
2D
100
DictionaryVariables
280
0
  1
1.4.4 @ 2026-09-22T04:34:52.973178+00:00
  0
DICTIONARYVAR
  5
A1
330
2D
100
DictionaryVariables
280
0
  1
1.4.4 @ 2026-09-22T04:34:53.066372+00:00
  0
ENDSEC
  0
EOF
