  0
SECTION
  2
HEADER
  9
$ACADVER
  1
AC1027
  9
$ACADMAINTVER
 70
105
  9
$DWGCODEPAGE
  3
ANSI_1252
  9
$LASTSAVEDBY
  1
ezdxf
  9
$REQUIREDVERSIONS
160
0
  9
$INSBASE
 10
0.0
 20
0.0
 30
0.0
  9
$EXTMIN
 10
1e+20
 20
1e+20
 30
1e+20
  9
$EXTMAX
 10
-1e+20
 20
-1e+20
 30
-1e+20
  9
$LIMMIN
 10
0.0
 20
0.0
  9
$LIMMAX
 10
420.0
 20
297.0
  9
$ORTHOMODE
 70
0
  9
$REGENMODE
 70
1
  9
$FILLMODE
 70
1
  9
$QTEXTMODE
 70
0
  9
$MIRRTEXT
 70
1
  9
$LTSCALE
 40
1.0
  9
$ATTMODE
 70
1
  9
$TEXTSIZE
 40
2.5
  9
$TRACEWID
 40
1.0
  9
$TEXTSTYLE
  7
Standard
  9
$CLAYER
  8
0
  9
$CELTYPE
  6
ByLayer
  9
$CECOLOR
 62
256
  9
$CELTSCALE
 40
1.0
  9
$DISPSILH
 70
0
  9
$DIMSCALE
 40
1.0
  9
$DIMASZ
 40
2.5
  9
$DIMEXO
 40
0.625
  9
$DIMDLI
 40
3.75
  9
$DIMRND
 40
0.0
  9
$DIMDLE
 40
0.0
  9
$DIMEXE
 40
1.25
  9
$DIMTP
 40
0.0
  9
$DIMTM
 40
0.0
  9
$DIMTXT
 40
2.5
  9
$DIMCEN
 40
2.5
  9
$DIMTSZ
 40
0.0
  9
$DIMTOL
 70
0
  9
$DIMLIM
 70
0
  9
$DIMTIH
 70
0
  9
$DIMTOH
 70
0
  9
$DIMSE1
 70
0
  9
$DIMSE2
 70
0
  9
$DIMTAD
 70
1
  9
$DIMZIN
 70
8
  9
$DIMBLK
  1

  9
$DIMASO
 70
1
  9
$DIMSHO
 70
1
  9
$DIMPOST
  1

  9
$DIMAPOST
  1

  9
$DIMALT
 70
0
  9
$DIMALTD
 70
3
  9
$DIMALTF
 40
0.03937007874
  9
$DIMLFAC
 40
1.0
  9
$DIMTOFL
 70
1
  9
$DIMTVP
 40
0.0
  9
$DIMTIX
 70
0
  9
$DIMSOXD
 70
0
  9
$DIMSAH
 70
0
  9
$DIMBLK1
  1

  9
$DIMBLK2
  1

  9
$DIMSTYLE
  2
ISO-25
  9
$DIMCLRD
 70
0
  9
$DIMCLRE
 70
0
  9
$DIMCLRT
 70
0
  9
$DIMTFAC
 40
1.0
  9
$DIMGAP
 40
0.625
  9
$DIMJUST
 70
0
  9
$DIMSD1
 70
0
  9
$DIMSD2
 70
0
  9
$DIMTOLJ
 70
0
  9
$DIMTZIN
 70
8
  9
$DIMALTZ
 70
0
  9
$DIMALTTZ
 70
0
  9
$DIMUPT
 70
0
  9
$DIMDEC
 70
2
  9
$DIMTDEC
 70
2
  9
$DIMALTU
 70
2
  9
$DIMALTTD
 70
3
  9
$DIMTXSTY
  7
Standard
  9
$DIMAUNIT
 70
0
  9
$DIMADEC
 70
0
  9
$DIMALTRND
 40
0.0
  9
$DIMAZIN
 70
0
  9
$DIMDSEP
 70
44
  9
$DIMATFIT
 70
3
  9
$DIMFRAC
 70
0
  9
$DIMLDRBLK
  1

  9
$DIMLUNIT
 70
2
  9
$DIMLWD
 70
-2
  9
$DIMLWE
 70
-2
  9
$DIMTMOVE
 70
0
  9
$DIMFXL
 40
1.0
  9
$DIMFXLON
 70
0
  9
$DIMJOGANG
 40
0.785398163397
  9
$DIMTFILL
 70
0
  9
$DIMTFILLCLR
 70
0
  9
$DIMARCSYM
 70
0
  9
$DIMLTYPE
  6

  9
$DIMLTEX1
  6

  9
$DIMLTEX2
  6

  9
$DIMTXTDIRECTION
 70
0
  9
$LUNITS
 70
2
  9
$LUPREC
 70
4
  9
$SKETCHINC
 40
1.0
  9
$FILLETRAD
 40
10.0
  9
$AUNITS
 70
0
  9
$AUPREC
 70
2
  9
$MENU
  1
.
  9
$ELEVATION
 40
0.0
  9
$PELEVATION
 40
0.0
  9
$THICKNESS
 40
0.0
  9
$LIMCHECK
 70
0
  9
$CHAMFERA
 40
0.0
  9
$CHAMFERB
 40
0.0
  9
$CHAMFERC
 40
0.0
  9
$CHAMFERD
 40
0.0
  9
$SKPOLY
 70
0
  9
$TDCREATE
 40
2461306.274224537
  9
$TDUCREATE
 40
2458532.153996898
  9
$TDUPDATE
 40
2461306.274224537
  9
$TDUUPDATE
 40
2458532.1544311
  9
$TDINDWG
 40
0.0
  9
$TDUSRTIMER
 40
0.0
  9
$USRTIMER
 70
1
  9
$ANGBASE
 50
0.0
  9
$ANGDIR
 70
0
  9
$PDMODE
 70
0
  9
$PDSIZE
 40
0.0
  9
$PLINEWID
 40
0.0
  9
$SPLFRAME
 70
0
  9
$SPLINETYPE
 70
6
  9
$SPLINESEGS
 70
8
  9
$HANDSEED
  5
A0
  9
$SURFTAB1
 70
6
  9
$SURFTAB2
 70
6
  9
$SURFTYPE
 70
6
  9
$SURFU
 70
6
  9
$SURFV
 70
6
  9
$UCSBASE
  2

  9
$UCSNAME
  2

  9
$UCSORG
 10
0.0
 20
0.0
 30
0.0
  9
$UCSXDIR
 10
1.0
 20
0.0
 30
0.0
  9
$UCSYDIR
 10
0.0
 20
1.0
 30
0.0
  9
$UCSORTHOREF
  2

  9
$UCSORTHOVIEW
 70
0
  9
$UCSORGTOP
 10
0.0
 20
0.0
 30
0.0
  9
$UCSORGBOTTOM
 10
0.0
 20
0.0
 30
0.0
  9
$UCSORGLEFT
 10
0.0
 20
0.0
 30
0.0
  9
$UCSORGRIGHT
 10
0.0
 20
0.0
 30
0.0
  9
$UCSORGFRONT
 10
0.0
 20
0.0
 30
0.0
  9
$UCSORGBACK
 10
0.0
 20
0.0
 30
0.0
  9
$PUCSBASE
  2

  9
$PUCSNAME
  2

  9
$PUCSORG
 10
0.0
 20
0.0
 30
0.0
  9
$PUCSXDIR
 10
1.0
 20
0.0
 30
0.0
  9
$PUCSYDIR
 10
0.0
 20
1.0
 30
0.0
  9
$PUCSORTHOREF
  2

  9
$PUCSORTHOVIEW
 70
0
  9
$PUCSORGTOP
 10
0.0
 20
0.0
 30
0.0
  9
$PUCSORGBOTTOM
 10
0.0
 20
0.0
 30
0.0
  9
$PUCSORGLEFT
 10
0.0
 20
0.0
 30
0.0
  9
$PUCSORGRIGHT
 10
0.0
 20
0.0
 30
0.0
  9
$PUCSORGFRONT
 10
0.0
 20
0.0
 30
0.0
  9
$PUCSORGBACK
 10
0.0
 20
0.0
 30
0.0
  9
$USERI1
 70
0
  9
$USERI2
 70
0
  9
$USERI3
 70
0
  9
$USERI4
 70
0
  9
$USERI5
 70
0
  9
$USERR1
 40
0.0
  9
$USERR2
 40
0.0
  9
$USERR3
 40
0.0
  9
$USERR4
 40
0.0
  9
$USERR5
 40
0.0
  9
$WORLDVIEW
 70
1
  9
$SHADEDGE
 70
3
  9
$SHADEDIF
 70
70
  9
$TILEMODE
 70
1
  9
$MAXACTVP
 70
64
  9
$PINSBASE
 10
0.0
 20
0.0
 30
0.0
  9
$PLIMCHECK
 70
0
  9
$PEXTMIN
 10
1e+20
 20
1e+20
 30
1e+20
  9
$PEXTMAX
 10
-1e+20
 20
-1e+20
 30
-1e+20
  9
$PLIMMIN
 10
0.0
 20
0.0
  9
$PLIMMAX
 10
420.0
 20
297.0
  9
$UNITMODE
 70
0
  9
$VISRETAIN
 70
1
  9
$PLINEGEN
 70
0
  9
$PSLTSCALE
 70
1
  9
$TREEDEPTH
 70
3020
  9
$CMLSTYLE
  2
Standard
  9
$CMLJUST
 70
0
  9
$CMLSCALE
 40
20.0
  9
$PROXYGRAPHICS
 70
1
  9
$MEASUREMENT
 70
1
  9
$CELWEIGHT
370
-1
  9
$ENDCAPS
280
0
  9
$JOINSTYLE
280
0
  9
$LWDISPLAY
290
0
  9
$INSUNITS
 70
4
  9
$HYPERLINKBASE
  1

  9
$STYLESHEET
  1

  9
$XEDIT
290
1
  9
$CEPSNTYPE
380
0
  9
$PSTYLEMODE
290
1
  9
$FINGERPRINTGUID
  2
{BD1D8BDA-B82B-469E-9461-B86BC79CF28B}
  9
$VERSIONGUID
  2
{273E5D25-4DD2-4B55-B50D-F551CF5B789D}
  9
$EXTNAMES
290
1
  9
$PSVPSCALE
 40
0.0
  9
$OLESTARTUP
290
0
  9
$SORTENTS
280
127
  9
$INDEXCTL
280
0
  9
$HIDETEXT
280
1
  9
$XCLIPFRAME
280
1
  9
$HALOGAP
280
0
  9
$OBSCOLOR
 70
257
  9
$OBSLTYPE
280
0
  9
$INTERSECTIONDISPLAY
280
0
  9
$INTERSECTIONCOLOR
 70
257
  9
$DIMASSOC
280
2
  9
$PROJECTNAME
  1

  9
$CAMERADISPLAY
290
0
  9
$LENSLENGTH
 40
50.0
  9
$CAMERAHEIGHT
 40
0.0
  9
$STEPSPERSEC
 40
24.0
  9
$STEPSIZE
 40
100.0
  9
$3DDWFPREC
 40
2.0
  9
$PSOLWIDTH
 40
0.005
  9
$PSOLHEIGHT
 40
0.08
  9
$LOFTANG1
 40
1.570796326795
  9
$LOFTANG2
 40
1.570796326795
  9
$LOFTMAG1
 40
0.0
  9
$LOFTMAG2
 40
0.0
  9
$LOFTPARAM
 70
7
  9
$LOFTNORMALS
280
1
  9
$LATITUDE
 40
37.795
  9
$LONGITUDE
 40
-122.394
  9
$NORTHDIRECTION
 40
0.0
  9
$TIMEZONE
 70
-8000
  9
$LIGHTGLYPHDISPLAY
280
1
  9
$TILEMODELIGHTSYNCH
280
1
  9
$CMATERIAL
347
20
  9
$SOLIDHIST
280
0
  9
$SHOWHIST
280
1
  9
$DWFFRAME
280
2
  9
$DGNFRAME
280
2
  9
$REALWORLDSCALE
290
1
  9
$INTERFERECOLOR
 62
256
  9
$CSHADOW
280
0
  9
$SHADOWPLANELOCATION
 40
0.0
  0
ENDSEC
  0
SECTION
  2
CLASSES
  0
CLASS
  1
ACDBDICTIONARYWDFLT
  2
AcDbDictionaryWithDefault
  3
ObjectDBX Classes
 90
0
 91
0
280
0
281
0
  0
CLASS
  1
SUN
  2
AcDbSun
  3
SCENEOE
 90
1153
 91
0
280
0
281
0
  0
CLASS
  1
VISUALSTYLE
  2
AcDbVisualStyle
  3
ObjectDBX Classes
 90
4095
 91
0
280
0
281
0
  0
CLASS
  1
MATERIAL
  2
AcDbMaterial
  3
ObjectDBX Classes
 90
1153
 91
0
280
0
281
0
  0
CLASS
  1
SCALE
  2
AcDbScale
  3
ObjectDBX Classes
 90
1153
 91
0
280
0
281
0
  0
CLASS
  1
TABLESTYLE
  2
AcDbTableStyle
  3
ObjectDBX Classes
 90
4095
 91
0
280
0
281
0
  0
CLASS
  1
MLEADERSTYLE
  2
AcDbMLeaderStyle
  3
ACDB_MLEADERSTYLE_CLASS
 90
4095
 91
0
280
0
281
0
  0
CLASS
  1
DICTIONARYVAR
  2
AcDbDictionaryVar
  3
ObjectDBX Classes
 90
0
 91
0
280
0
281
0
  0
CLASS
  1
CELLSTYLEMAP
  2
AcDbCellStyleMap
  3
ObjectDBX Classes
 90
1152
 91
0
280
0
281
0
  0
CLASS
  1
MENTALRAYRENDERSETTINGS
  2
AcDbMentalRayRenderSettings
  3
SCENEOE
 90
1024
 91
0
280
0
281
0
  0
CLASS
  1
ACDBDETAILVIEWSTYLE
  2
AcDbDetailViewStyle
  3
ObjectDBX Classes
 90
1025
 91
0
280
0
281
0
  0
CLASS
  1
ACDBSECTIONVIEWSTYLE
  2
AcDbSectionViewStyle
  3
ObjectDBX Classes
 90
1025
 91
0
280
0
281
0
  0
CLASS
  1
RASTERVARIABLES
  2
AcDbRasterVariables
  3
ISM
 90
0
 91
0
280
0
281
0
  0
CLASS
  1
LAYOUT
  2
AcDbLayout
  3
ObjectDBX Classes
 90
0
 91
0
280
0
281
0
  0
CLASS
  1
ACDBPLACEHOLDER
  2
AcDbPlaceHolder
  3
ObjectDBX Classes
 90
0
 91
0
280
0
281
0
  0
ENDSEC
  0
SECTION
  2
TABLES
  0
TABLE
  2
VPORT
  5
8
330
0
100
AcDbSymbolTable
 70
1
  0
VPORT
  5
9C
330
8
100
AcDbSymbolTableRecord
100
AcDbViewportTableRecord
  2
*Active
 70
0
 10
0.0
 20
0.0
 11
1.0
 21
1.0
 12
-3.303962666777892
 22
-1.9686949756382361
 13
0.0
 23
0.0
 14
0.5
 24
0.5
 15
0.5
 25
0.5
 16
0.0
 26
0.0
 36
1.0
 17
0.0
 27
0.0
 37
0.0
 40
92.50000000000017
 41
1.34
 42
50.0
 43
0.0
 44
0.0
 50
0.0
 51
0.0
 71
0
 72
1000
 73
1
 74
3
 75
0
 76
0
 77
0
 78
0
281
0
 65
1
110
0.0
120
0.0
130
0.0
111
1.0
121
0.0
131
0.0
112
0.0
122
1.0
132
0.0
 79
0
146
0.0
  0
ENDTAB
  0
TABLE
  2
LTYPE
  5
2
330
0
100
AcDbSymbolTable
 70
3
  0
LTYPE
  5
24
330
2
100
AcDbSymbolTableRecord
100
AcDbLinetypeTableRecord
  2
ByBlock
 70
0
  3

 72
65
 73
0
 40
0.0
  0
LTYPE
  5
25
330
2
100
AcDbSymbolTableRecord
100
AcDbLinetypeTableRecord
  2
ByLayer
 70
0
  3

 72
65
 73
0
 40
0.0
  0
LTYPE
  5
26
330
2
100
AcDbSymbolTableRecord
100
AcDbLinetypeTableRecord
  2
Continuous
 70
0
  3

 72
65
 73
0
 40
0.0
  0
ENDTAB
  0
TABLE
  2
LAYER
  5
1
330
0
100
AcDbSymbolTable
 70
2
  0
LAYER
  5
27
330
1
100
AcDbSymbolTableRecord
100
AcDbLayerTableRecord
  2
0
 70
0
 62
7
  6
Continuous
370
-3
390
13
347
21
  0
LAYER
  5
28
330
1
100
AcDbSymbolTableRecord
100
AcDbLayerTableRecord
  2
Defpoints
 70
0
 62
7
  6
Continuous
290
0
370
-3
390
13
347
21
  0
ENDTAB
  0
TABLE
  2
STYLE
  5
5
330
0
100
AcDbSymbolTable
 70
1
  0
STYLE
  5
29
330
5
100
AcDbSymbolTableRecord
100
AcDbTextStyleTableRecord
  2
Standard
 70
0
 40
0.0
 41
1.0
 50
0.0
 71
0
 42
2.5
  3
txt
  4

  0
ENDTAB
  0
TABLE
  2
VIEW
  5
7
330
0
100
AcDbSymbolTable
 70
0
  0
ENDTAB
  0
TABLE
  2
UCS
  5
6
330
0
100
AcDbSymbolTable
 70
0
  0
ENDTAB
  0
TABLE
  2
APPID
  5
3
330
0
100
AcDbSymbolTable
 70
3
  0
APPID
  5
2A
330
3
100
AcDbSymbolTableRecord
100
AcDbRegAppTableRecord
  2
ACAD
 70
0
  0
APPID
  5
9D
330
3
100
AcDbSymbolTableRecord
100
AcDbRegAppTableRecord
  2
HATCHBACKGROUNDCOLOR
 70
0
  0
APPID
  5
9E
330
3
100
AcDbSymbolTableRecord
100
AcDbRegAppTableRecord
  2
EZDXF
 70
0
  0
ENDTAB
  0
TABLE
  2
DIMSTYLE
  5
4
330
0
100
AcDbSymbolTable
 70
1
100
AcDbDimStyleTable
  0
DIMSTYLE
105
2B
330
4
100
AcDbSymbolTableRecord
100
AcDbDimStyleTableRecord
  2
Standard
 70
0
 40
1.0
 41
2.5
 42
0.625
 43
3.75
 44
1.25
 45
0.0
 46
0.0
 47
0.0
 48
0.0
 49
2.5
140
2.5
141
2.5
142
0.0
143
0.03937007874
144
1.0
145
0.0
146
1.0
147
0.625
148
0.0
 69
0
 70
0
 71
0
 72
0
 73
0
 74
0
 75
0
 76
0
 77
1
 78
8
 79
3
170
0
171
3
172
1
173
0
174
0
175
0
176
0
177
0
178
0
179
2
271
2
272
2
273
2
274
3
275
0
276
0
277
2
278
44
279
0
280
0
281
0
282
0
283
0
284
8
285
0
286
0
288
0
289
3
290
0
371
-2
372
-2
  0
ENDTAB
  0
TABLE
  2
BLOCK_RECORD
  5
9
330
0
100
AcDbSymbolTable
 70
2
  0
BLOCK_RECORD
  5
17
330
9
100
AcDbSymbolTableRecord
100
AcDbBlockTableRecord
  2
*Model_Space
340
1A
 70
0
280
1
281
0
  0
BLOCK_RECORD
  5
1B
330
9
100
AcDbSymbolTableRecord
100
AcDbBlockTableRecord
  2
*Paper_Space
340
1E
 70
0
280
1
281
0
  0
ENDTAB
  0
ENDSEC
  0
SECTION
  2
BLOCKS
  0
BLOCK
  5
18
330
17
100
AcDbEntity
  8
0
100
AcDbBlockBegin
  2
*Model_Space
 70
0
 10
0.0
 20
0.0
 30
0.0
  3
*Model_Space
  1

  0
ENDBLK
  5
19
330
17
100
AcDbEntity
  8
0
100
AcDbBlockEnd
  0
BLOCK
  5
1C
330
1B
100
AcDbEntity
  8
0
100
AcDbBlockBegin
  2
*Paper_Space
 70
0
 10
0.0
 20
0.0
 30
0.0
  3
*Paper_Space
  1

  0
ENDBLK
  5
1D
330
1B
100
AcDbEntity
  8
0
100
AcDbBlockEnd
  0
ENDSEC
  0
SECTION
  2
ENTITIES
  0
LINE
  5
2F
330
17
100
AcDbEntity
  8
0
100
AcDbLine
 10
55.44603733322214
 20
-43.21869497563824
 30
2.2737367544323206e-13
 11
65.44603733322218
 21
-33.21869497563822
 31
2.2737367544323206e-13
  0
LINE
  5
30
330
17
100
AcDbEntity
  8
0
100
AcDbLine
 10
65.44603733322218
 20
-33.21869497563822
 30
2.2737367544323206e-13
 11
65.44603733322211
 21
24.281305024361842
 31
2.2737367544323206e-13
  0
LINE
  5
31
330
17
100
AcDbEntity
  8
0
100
AcDbLine
 10
65.44603733322211
 20
24.281305024361842
 30
2.2737367544323206e-13
 11
55.44603733322204
 21
34.281305024361714
 31
2.2737367544323206e-13
  0
LINE
  5
32
330
17
100
AcDbEntity
  8
0
100
AcDbLine
 10
55.44603733322204
 20
34.281305024361714
 30
2.2737367544323206e-13
 11
55.44603733322202
 21
44.28130502436184
 31
2.2737367544323206e-13
  0
LINE
  5
33
330
17
100
AcDbEntity
  8
0
100
AcDbLine
 10
55.44603733322202
 20
44.28130502436184
 30
2.2737367544323206e-13
 11
-70.05396266677786
 21
44.28130502436167
 31
2.2737367544323206e-13
  0
LINE
  5
34
330
17
100
AcDbEntity
  8
0
100
AcDbLine
 10
-70.05396266677786
 20
44.28130502436167
 30
2.2737367544323206e-13
 11
-72.05396266677798
 21
42.281305024361544
 31
2.2737367544323206e-13
  0
LINE
  5
35
330
17
100
AcDbEntity
  8
0
100
AcDbLine
 10
-72.05396266677798
 20
42.281305024361544
 30
2.2737367544323206e-13
 11
-72.05396266677789
 21
-30.718694975638396
 31
2.2737367544323206e-13
  0
LINE
  5
36
330
17
100
AcDbEntity
  8
0
100
AcDbLine
 10
-72.05396266677789
 20
-30.718694975638396
 30
2.2737367544323206e-13
 11
-70.05396266677778
 21
-32.71869497563839
 31
2.2737367544323206e-13
  0
LINE
  5
37
330
17
100
AcDbEntity
  8
0
100
AcDbLine
 10
-70.05396266677778
 20
-32.71869497563839
 30
2.2737367544323206e-13
 11
-14.553962666777764
 21
-32.71869497563832
 31
2.2737367544323206e-13
  0
LINE
  5
38
330
17
100
AcDbEntity
  8
0
100
AcDbLine
 10
-14.553962666777764
 20
-32.71869497563832
 30
2.2737367544323206e-13
 11
-14.55396266677775
 21
-48.21869497563832
 31
2.2737367544323206e-13
  0
LINE
  5
39
330
17
100
AcDbEntity
  8
0
100
AcDbLine
 10
-14.55396266677775
 20
-48.21869497563832
 30
2.2737367544323206e-13
 11
55.446037333222144
 21
-48.21869497563823
 31
2.2737367544323206e-13
  0
LINE
  5
3A
330
17
100
AcDbEntity
  8
0
100
AcDbLine
 10
55.446037333222144
 20
-48.21869497563823
 30
2.2737367544323206e-13
 11
55.44603733322214
 21
-43.21869497563824
 31
2.2737367544323206e-13
  0
LINE
  5
3B
330
17
100
AcDbEntity
  8
0
100
AcDbLine
 10
-54.94497881815522
 20
14.53130502436158
 30
2.2737367544323206e-13
 11
-46.28472478031054
 21
-0.46869497563836404
 31
2.2737367544323206e-13
  0
LINE
  5
3C
330
17
100
AcDbEntity
  8
0
100
AcDbLine
 10
-46.28472478031054
 20
-0.46869497563836404
 30
2.2737367544323206e-13
 11
-63.605232855999304
 21
-0.46869497563838536
 31
2.2737367544323206e-13
  0
LINE
  5
3D
330
17
100
AcDbEntity
  8
0
100
AcDbLine
 10
-63.605232855999304
 20
-0.46869497563838536
 30
2.2737367544323206e-13
 11
-54.94497881815522
 21
14.53130502436158
 31
2.2737367544323206e-13
  0
LINE
  5
3E
330
17
100
AcDbEntity
  8
0
100
AcDbLine
 10
-31.624470742466585
 20
14.531305024361608
 30
2.2737367544323206e-13
 11
-22.964216704622174
 21
-0.4686949756383285
 31
2.2737367544323206e-13
  0
LINE
  5
3F
330
17
100
AcDbEntity
  8
0
100
AcDbLine
 10
-22.964216704622174
 20
-0.4686949756383285
 30
2.2737367544323206e-13
 11
-40.28472478031094
 21
-0.46869497563835694
 31
2.2737367544323206e-13
  0
LINE
  5
40
330
17
100
AcDbEntity
  8
0
100
AcDbLine
 10
-40.28472478031094
 20
-0.46869497563835694
 30
2.2737367544323206e-13
 11
-31.624470742466585
 21
14.531305024361608
 31
2.2737367544323206e-13
  0
LINE
  5
41
330
17
100
AcDbEntity
  8
0
100
AcDbLine
 10
38.33705348459937
 20
-21.468694975638062
 30
2.2737367544323206e-13
 11
46.99730752244377
 21
-36.46869497563802
 31
2.2737367544323206e-13
  0
LINE
  5
42
330
17
100
AcDbEntity
  8
0
100
AcDbLine
 10
46.99730752244377
 20
-36.46869497563802
 30
2.2737367544323206e-13
 11
29.676799446755012
 21
-36.46869497563807
 31
2.2737367544323206e-13
  0
LINE
  5
43
330
17
100
AcDbEntity
  8
0
100
AcDbLine
 10
29.676799446755012
 20
-36.46869497563807
 30
2.2737367544323206e-13
 11
38.33705348459937
 21
-21.468694975638062
 31
2.2737367544323206e-13
  0
LINE
  5
44
330
17
100
AcDbEntity
  8
0
100
AcDbLine
 10
-11.30396266677785
 20
-18.468694975638442
 30
2.2737367544323206e-13
 11
-28.6244707424666
 21
-18.468694975638215
 31
2.2737367544323206e-13
  0
LINE
  5
45
330
17
100
AcDbEntity
  8
0
100
AcDbLine
 10
-28.6244707424666
 20
-18.468694975638215
 30
2.2737367544323206e-13
 11
-19.96421670462199
 21
-3.4686949756382575
 31
2.2737367544323206e-13
  0
LINE
  5
46
330
17
100
AcDbEntity
  8
0
100
AcDbLine
 10
-19.96421670462199
 20
-3.4686949756382575
 30
2.2737367544323206e-13
 11
-11.30396266677785
 21
-18.468694975638442
 31
2.2737367544323206e-13
  0
LINE
  5
47
330
17
100
AcDbEntity
  8
0
100
AcDbLine
 10
-34.62447074246647
 20
-18.468694975638474
 30
2.2737367544323206e-13
 11
-51.94497881815522
 21
-18.468694975638243
 31
2.2737367544323206e-13
  0
LINE
  5
48
330
17
100
AcDbEntity
  8
0
100
AcDbLine
 10
-51.94497881815522
 20
-18.468694975638243
 30
2.2737367544323206e-13
 11
-43.284724780310626
 21
-3.468694975638286
 31
2.2737367544323206e-13
  0
LINE
  5
49
330
17
100
AcDbEntity
  8
0
100
AcDbLine
 10
-43.284724780310626
 20
-3.468694975638286
 30
2.2737367544323206e-13
 11
-34.62447074246647
 21
-18.468694975638474
 31
2.2737367544323206e-13
  0
LINE
  5
4A
330
17
100
AcDbEntity
  8
0
100
AcDbLine
 10
-8.303962666777906
 20
-18.468694975638186
 30
2.2737367544323206e-13
 11
-16.964216704622302
 21
-3.4686949756382504
 31
2.2737367544323206e-13
  0
LINE
  5
4B
330
17
100
AcDbEntity
  8
0
100
AcDbLine
 10
-16.964216704622302
 20
-3.4686949756382504
 30
2.2737367544323206e-13
 11
0.3562913710664617
 21
-3.468694975638229
 31
2.2737367544323206e-13
  0
LINE
  5
4C
330
17
100
AcDbEntity
  8
0
100
AcDbLine
 10
0.3562913710664617
 20
-3.468694975638229
 30
2.2737367544323206e-13
 11
-8.303962666777906
 21
-18.468694975638186
 31
2.2737367544323206e-13
  0
LINE
  5
4D
330
17
100
AcDbEntity
  8
0
100
AcDbLine
 10
15.016545408910687
 20
17.5313050243616
 30
2.2737367544323206e-13
 11
6.356291371066291
 21
32.531305024361544
 31
2.2737367544323206e-13
  0
LINE
  5
4E
330
17
100
AcDbEntity
  8
0
100
AcDbLine
 10
6.356291371066291
 20
32.531305024361544
 30
2.2737367544323206e-13
 11
23.676799446755055
 21
32.53130502436156
 31
2.2737367544323206e-13
  0
LINE
  5
4F
330
17
100
AcDbEntity
  8
0
100
AcDbLine
 10
23.676799446755055
 20
32.53130502436156
 30
2.2737367544323206e-13
 11
15.016545408910687
 21
17.5313050243616
 31
2.2737367544323206e-13
  0
LINE
  5
50
330
17
100
AcDbEntity
  8
0
100
AcDbLine
 10
38.33705348459957
 20
17.53130502436163
 30
2.2737367544323206e-13
 11
29.67679944675517
 21
32.53130502436157
 31
2.2737367544323206e-13
  0
LINE
  5
51
330
17
100
AcDbEntity
  8
0
100
AcDbLine
 10
29.67679944675517
 20
32.53130502436157
 30
2.2737367544323206e-13
 11
46.997307522443926
 21
32.531305024361586
 31
2.2737367544323206e-13
  0
LINE
  5
52
330
17
100
AcDbEntity
  8
0
100
AcDbLine
 10
46.997307522443926
 20
32.531305024361586
 30
2.2737367544323206e-13
 11
38.33705348459957
 21
17.53130502436163
 31
2.2737367544323206e-13
  0
LINE
  5
53
330
17
100
AcDbEntity
  8
0
100
AcDbLine
 10
35.33705348459943
 20
-18.468694975638382
 30
2.2737367544323206e-13
 11
18.016545408910915
 21
-18.468694975638154
 31
2.2737367544323206e-13
  0
LINE
  5
54
330
17
100
AcDbEntity
  8
0
100
AcDbLine
 10
18.016545408910915
 20
-18.468694975638154
 30
2.2737367544323206e-13
 11
26.676799446755282
 21
-3.4686949756381935
 31
2.2737367544323206e-13
  0
LINE
  5
55
330
17
100
AcDbEntity
  8
0
100
AcDbLine
 10
26.676799446755282
 20
-3.4686949756381935
 30
2.2737367544323206e-13
 11
35.33705348459943
 21
-18.468694975638382
 31
2.2737367544323206e-13
  0
LINE
  5
56
330
17
100
AcDbEntity
  8
0
100
AcDbLine
 10
-5.303962666777977
 20
-18.468694975638183
 30
2.2737367544323206e-13
 11
3.3562913710666606
 21
-3.468694975638229
 31
2.2737367544323206e-13
  0
LINE
  5
57
330
17
100
AcDbEntity
  8
0
100
AcDbLine
 10
3.3562913710666606
 20
-3.468694975638229
 30
2.2737367544323206e-13
 11
12.016545408910787
 21
-18.468694975638414
 31
2.2737367544323206e-13
  0
LINE
  5
58
330
17
100
AcDbEntity
  8
0
100
AcDbLine
 10
12.016545408910787
 20
-18.468694975638414
 30
2.2737367544323206e-13
 11
-5.303962666777977
 21
-18.468694975638183
 31
2.2737367544323206e-13
  0
LINE
  5
59
330
17
100
AcDbEntity
  8
0
100
AcDbLine
 10
-31.624470742466343
 20
17.531305024361544
 30
2.2737367544323206e-13
 11
-40.284724780310995
 21
32.53130502436147
 31
2.2737367544323206e-13
  0
LINE
  5
5A
330
17
100
AcDbEntity
  8
0
100
AcDbLine
 10
-40.284724780310995
 20
32.53130502436147
 30
2.2737367544323206e-13
 11
-22.964216704622217
 21
32.5313050243615
 31
2.2737367544323206e-13
  0
LINE
  5
5B
330
17
100
AcDbEntity
  8
0
100
AcDbLine
 10
-22.964216704622217
 20
32.5313050243615
 30
2.2737367544323206e-13
 11
-31.624470742466343
 21
17.531305024361544
 31
2.2737367544323206e-13
  0
LINE
  5
5C
330
17
100
AcDbEntity
  8
0
100
AcDbLine
 10
-54.944978818154965
 20
17.531305024361515
 30
2.2737367544323206e-13
 11
-63.605232855999645
 21
32.531305024361444
 31
2.2737367544323206e-13
  0
LINE
  5
5D
330
17
100
AcDbEntity
  8
0
100
AcDbLine
 10
-63.605232855999645
 20
32.531305024361444
 30
2.2737367544323206e-13
 11
-46.28472478031088
 21
32.53130502436147
 31
2.2737367544323206e-13
  0
LINE
  5
5E
330
17
100
AcDbEntity
  8
0
100
AcDbLine
 10
-46.28472478031088
 20
32.53130502436147
 30
2.2737367544323206e-13
 11
-54.944978818154965
 21
17.531305024361515
 31
2.2737367544323206e-13
  0
LINE
  5
5F
330
17
100
AcDbEntity
  8
0
100
AcDbLine
 10
3.3562913710663906
 20
-0.4686949756383001
 30
2.2737367544323206e-13
 11
-5.30396266677802
 21
14.531305024361892
 31
2.2737367544323206e-13
  0
LINE
  5
60
330
17
100
AcDbEntity
  8
0
100
AcDbLine
 10
-5.30396266677802
 20
14.531305024361892
 30
2.2737367544323206e-13
 11
12.016545408910744
 21
14.531305024361664
 31
2.2737367544323206e-13
  0
LINE
  5
61
330
17
100
AcDbEntity
  8
0
100
AcDbLine
 10
12.016545408910744
 20
14.531305024361664
 30
2.2737367544323206e-13
 11
3.3562913710663906
 21
-0.4686949756383001
 31
2.2737367544323206e-13
  0
LINE
  5
62
330
17
100
AcDbEntity
  8
0
100
AcDbLine
 10
26.676799446755027
 20
-0.46869497563826457
 30
2.2737367544323206e-13
 11
18.016545408910616
 21
14.531305024361671
 31
2.2737367544323206e-13
  0
LINE
  5
63
330
17
100
AcDbEntity
  8
0
100
AcDbLine
 10
18.016545408910616
 20
14.531305024361671
 30
2.2737367544323206e-13
 11
35.33705348459938
 21
14.531305024361693
 31
2.2737367544323206e-13
  0
LINE
  5
64
330
17
100
AcDbEntity
  8
0
100
AcDbLine
 10
35.33705348459938
 20
14.531305024361693
 30
2.2737367544323206e-13
 11
26.676799446755027
 21
-0.46869497563826457
 31
2.2737367544323206e-13
  0
LINE
  5
65
330
17
100
AcDbEntity
  8
0
100
AcDbLine
 10
-19.96421670462223
 20
-0.4686949756383285
 30
2.2737367544323206e-13
 11
-28.62447074246664
 21
14.531305024361615
 31
2.2737367544323206e-13
  0
LINE
  5
66
330
17
100
AcDbEntity
  8
0
100
AcDbLine
 10
-28.62447074246664
 20
14.531305024361615
 30
2.2737367544323206e-13
 11
-11.303962666777892
 21
14.531305024361636
 31
2.2737367544323206e-13
  0
LINE
  5
67
330
17
100
AcDbEntity
  8
0
100
AcDbLine
 10
-11.303962666777892
 20
14.531305024361636
 30
2.2737367544323206e-13
 11
-19.96421670462223
 21
-0.4686949756383285
 31
2.2737367544323206e-13
  0
LINE
  5
68
330
17
100
AcDbEntity
  8
0
100
AcDbLine
 10
-43.28472478031088
 20
-0.46869497563835694
 30
2.2737367544323206e-13
 11
-51.94497881815502
 21
14.53130502436158
 31
2.2737367544323206e-13
  0
LINE
  5
69
330
17
100
AcDbEntity
  8
0
100
AcDbLine
 10
-51.94497881815502
 20
14.53130502436158
 30
2.2737367544323206e-13
 11
-34.624470742466514
 21
14.5313050243616
 31
2.2737367544323206e-13
  0
LINE
  5
6A
330
17
100
AcDbEntity
  8
0
100
AcDbLine
 10
-34.624470742466514
 20
14.5313050243616
 30
2.2737367544323206e-13
 11
-43.28472478031088
 21
-0.46869497563835694
 31
2.2737367544323206e-13
  0
LINE
  5
6B
330
17
100
AcDbEntity
  8
0
100
AcDbLine
 10
-8.303962666777949
 20
17.531305024361572
 30
2.2737367544323206e-13
 11
-16.964216704622345
 21
32.5313050243615
 31
2.2737367544323206e-13
  0
LINE
  5
6C
330
17
100
AcDbEntity
  8
0
100
AcDbLine
 10
-16.964216704622345
 20
32.5313050243615
 30
2.2737367544323206e-13
 11
0.35629137106641906
 21
32.53130502436153
 31
2.2737367544323206e-13
  0
LINE
  5
6D
330
17
100
AcDbEntity
  8
0
100
AcDbLine
 10
0.35629137106641906
 20
32.53130502436153
 30
2.2737367544323206e-13
 11
-8.303962666777949
 21
17.531305024361572
 31
2.2737367544323206e-13
  0
LINE
  5
6E
330
17
100
AcDbEntity
  8
0
100
AcDbLine
 10
6.356291371066334
 20
-0.468694975638293
 30
2.2737367544323206e-13
 11
15.016545408910687
 21
14.531305024361671
 31
2.2737367544323206e-13
  0
LINE
  5
6F
330
17
100
AcDbEntity
  8
0
100
AcDbLine
 10
15.016545408910687
 20
14.531305024361671
 30
2.2737367544323206e-13
 11
23.676799446755098
 21
-0.46869497563827167
 31
2.2737367544323206e-13
  0
LINE
  5
70
330
17
100
AcDbEntity
  8
0
100
AcDbLine
 10
23.676799446755098
 20
-0.46869497563827167
 30
2.2737367544323206e-13
 11
6.356291371066334
 21
-0.468694975638293
 31
2.2737367544323206e-13
  0
LINE
  5
71
330
17
100
AcDbEntity
  8
0
100
AcDbLine
 10
-16.964216704622302
 20
-0.4686949756383214
 30
2.2737367544323206e-13
 11
-8.303962666777949
 21
14.531305024361636
 31
2.2737367544323206e-13
  0
LINE
  5
72
330
17
100
AcDbEntity
  8
0
100
AcDbLine
 10
-8.303962666777949
 20
14.531305024361636
 30
2.2737367544323206e-13
 11
0.3562913710664617
 21
-0.4686949756383001
 31
2.2737367544323206e-13
  0
LINE
  5
73
330
17
100
AcDbEntity
  8
0
100
AcDbLine
 10
0.3562913710664617
 20
-0.4686949756383001
 30
2.2737367544323206e-13
 11
-16.964216704622302
 21
-0.4686949756383214
 31
2.2737367544323206e-13
  0
LINE
  5
74
330
17
100
AcDbEntity
  8
0
100
AcDbLine
 10
-43.28472478031068
 20
32.53130502436147
 30
2.2737367544323206e-13
 11
-34.624470742466514
 21
17.531305024361544
 31
2.2737367544323206e-13
  0
LINE
  5
75
330
17
100
AcDbEntity
  8
0
100
AcDbLine
 10
-34.624470742466514
 20
17.531305024361544
 30
2.2737367544323206e-13
 11
-51.94497881815528
 21
17.531305024361515
 31
2.2737367544323206e-13
  0
LINE
  5
76
330
17
100
AcDbEntity
  8
0
100
AcDbLine
 10
-51.94497881815528
 20
17.531305024361515
 30
2.2737367544323206e-13
 11
-43.28472478031068
 21
32.53130502436147
 31
2.2737367544323206e-13
  0
LINE
  5
77
330
17
100
AcDbEntity
  8
0
100
AcDbLine
 10
-19.964216704622032
 20
32.5313050243615
 30
2.2737367544323206e-13
 11
-11.303962666777892
 21
17.531305024361316
 31
2.2737367544323206e-13
  0
LINE
  5
78
330
17
100
AcDbEntity
  8
0
100
AcDbLine
 10
-11.303962666777892
 20
17.531305024361316
 30
2.2737367544323206e-13
 11
-28.62447074246664
 21
17.531305024361544
 31
2.2737367544323206e-13
  0
LINE
  5
79
330
17
100
AcDbEntity
  8
0
100
AcDbLine
 10
-28.62447074246664
 20
17.531305024361544
 30
2.2737367544323206e-13
 11
-19.964216704622032
 21
32.5313050243615
 31
2.2737367544323206e-13
  0
LINE
  5
7A
330
17
100
AcDbEntity
  8
0
100
AcDbLine
 10
38.33705348459962
 20
-18.468694975638126
 30
2.2737367544323206e-13
 11
29.67679944675522
 21
-3.4686949756381935
 31
2.2737367544323206e-13
  0
LINE
  5
7B
330
17
100
AcDbEntity
  8
0
100
AcDbLine
 10
29.67679944675522
 20
-3.4686949756381935
 30
2.2737367544323206e-13
 11
46.997307522443975
 21
-3.468694975638172
 31
2.2737367544323206e-13
  0
LINE
  5
7C
330
17
100
AcDbEntity
  8
0
100
AcDbLine
 10
46.997307522443975
 20
-3.468694975638172
 30
2.2737367544323206e-13
 11
38.33705348459962
 21
-18.468694975638126
 31
2.2737367544323206e-13
  0
LINE
  5
7D
330
17
100
AcDbEntity
  8
0
100
AcDbLine
 10
15.01654540891073
 20
-18.468694975638158
 30
2.2737367544323206e-13
 11
6.35629137106659
 21
-3.468694975638222
 31
2.2737367544323206e-13
  0
LINE
  5
7E
330
17
100
AcDbEntity
  8
0
100
AcDbLine
 10
6.35629137106659
 20
-3.468694975638222
 30
2.2737367544323206e-13
 11
23.676799446755098
 21
-3.4686949756382006
 31
2.2737367544323206e-13
  0
LINE
  5
7F
330
17
100
AcDbEntity
  8
0
100
AcDbLine
 10
23.676799446755098
 20
-3.4686949756382006
 30
2.2737367544323206e-13
 11
15.01654540891073
 21
-18.468694975638158
 31
2.2737367544323206e-13
  0
LINE
  5
80
330
17
100
AcDbEntity
  8
0
100
AcDbLine
 10
26.676799446755233
 20
32.53130502436156
 30
2.2737367544323206e-13
 11
35.33705348459938
 21
17.531305024361373
 31
2.2737367544323206e-13
  0
LINE
  5
81
330
17
100
AcDbEntity
  8
0
100
AcDbLine
 10
35.33705348459938
 20
17.531305024361373
 30
2.2737367544323206e-13
 11
18.016545408910616
 21
17.531305024361615
 31
2.2737367544323206e-13
  0
LINE
  5
82
330
17
100
AcDbEntity
  8
0
100
AcDbLine
 10
18.016545408910616
 20
17.531305024361615
 30
2.2737367544323206e-13
 11
26.676799446755233
 21
32.53130502436156
 31
2.2737367544323206e-13
  0
LINE
  5
83
330
17
100
AcDbEntity
  8
0
100
AcDbLine
 10
3.356291371066618
 20
32.53130502436153
 30
2.2737367544323206e-13
 11
12.016545408910744
 21
17.531305024361345
 31
2.2737367544323206e-13
  0
LINE
  5
84
330
17
100
AcDbEntity
  8
0
100
AcDbLine
 10
12.016545408910744
 20
17.531305024361345
 30
2.2737367544323206e-13
 11
-5.30396266677802
 21
17.531305024361572
 31
2.2737367544323206e-13
  0
LINE
  5
85
330
17
100
AcDbEntity
  8
0
100
AcDbLine
 10
-5.30396266677802
 20
17.531305024361572
 30
2.2737367544323206e-13
 11
3.356291371066618
 21
32.53130502436153
 31
2.2737367544323206e-13
  0
LINE
  5
86
330
17
100
AcDbEntity
  8
0
100
AcDbLine
 10
-31.6244707424663
 20
-18.46869497563822
 30
2.2737367544323206e-13
 11
-40.28472478031068
 21
-3.468694975638286
 31
2.2737367544323206e-13
  0
LINE
  5
87
330
17
100
AcDbEntity
  8
0
100
AcDbLine
 10
-40.28472478031068
 20
-3.468694975638286
 30
2.2737367544323206e-13
 11
-22.964216704622174
 21
-3.4686949756382575
 31
2.2737367544323206e-13
  0
LINE
  5
88
330
17
100
AcDbEntity
  8
0
100
AcDbLine
 10
-22.964216704622174
 20
-3.4686949756382575
 30
2.2737367544323206e-13
 11
-31.6244707424663
 21
-18.46869497563822
 31
2.2737367544323206e-13
  0
LINE
  5
89
330
17
100
AcDbEntity
  8
0
100
AcDbLine
 10
-63.60523285599959
 20
-3.4686949756383143
 30
2.2737367544323206e-13
 11
-46.284724780310825
 21
-3.468694975638293
 31
2.2737367544323206e-13
  0
LINE
  5
8A
330
17
100
AcDbEntity
  8
0
100
AcDbLine
 10
-46.284724780310825
 20
-3.468694975638293
 30
2.2737367544323206e-13
 11
-54.944978818155164
 21
-18.468694975638247
 31
2.2737367544323206e-13
  0
LINE
  5
8B
330
17
100
AcDbEntity
  8
0
100
AcDbLine
 10
-54.944978818155164
 20
-18.468694975638247
 30
2.2737367544323206e-13
 11
-63.60523285599959
 21
-3.4686949756383143
 31
2.2737367544323206e-13
  0
LINE
  5
8C
330
17
100
AcDbEntity
  8
0
100
AcDbLine
 10
15.016545408910744
 20
-21.468694975638094
 30
2.2737367544323206e-13
 11
23.67679944675514
 21
-36.46869497563807
 31
2.2737367544323206e-13
  0
LINE
  5
8D
330
17
100
AcDbEntity
  8
0
100
AcDbLine
 10
23.67679944675514
 20
-36.46869497563807
 30
2.2737367544323206e-13
 11
6.356291371066376
 21
-36.46869497563813
 31
2.2737367544323206e-13
  0
LINE
  5
8E
330
17
100
AcDbEntity
  8
0
100
AcDbLine
 10
6.356291371066376
 20
-36.46869497563813
 30
2.2737367544323206e-13
 11
15.016545408910744
 21
-21.468694975638094
 31
2.2737367544323206e-13
  0
LINE
  5
8F
330
17
100
AcDbEntity
  8
0
100
AcDbLine
 10
18.016545408910673
 20
-21.46869497563809
 30
2.2737367544323206e-13
 11
35.33705348459943
 21
-21.468694975638066
 31
2.2737367544323206e-13
  0
LINE
  5
90
330
17
100
AcDbEntity
  8
0
100
AcDbLine
 10
35.33705348459943
 20
-21.468694975638066
 30
2.2737367544323206e-13
 11
26.676799446755076
 21
-36.46869497563807
 31
2.2737367544323206e-13
  0
LINE
  5
91
330
17
100
AcDbEntity
  8
0
100
AcDbLine
 10
26.676799446755076
 20
-36.46869497563807
 30
2.2737367544323206e-13
 11
18.016545408910673
 21
-21.46869497563809
 31
2.2737367544323206e-13
  0
LINE
  5
92
330
17
100
AcDbEntity
  8
0
100
AcDbLine
 10
29.676799446754963
 20
-0.46869497563826457
 30
2.2737367544323206e-13
 11
38.33705348459932
 21
14.5313050243617
 31
2.2737367544323206e-13
  0
LINE
  5
93
330
17
100
AcDbEntity
  8
0
100
AcDbLine
 10
38.33705348459932
 20
14.5313050243617
 30
2.2737367544323206e-13
 11
46.99730752244372
 21
-0.46869497563824325
 31
2.2737367544323206e-13
  0
LINE
  5
94
330
17
100
AcDbEntity
  8
0
100
AcDbLine
 10
46.99730752244372
 20
-0.46869497563824325
 30
2.2737367544323206e-13
 11
29.676799446754963
 21
-0.46869497563826457
 31
2.2737367544323206e-13
  0
LINE
  5
95
330
17
100
AcDbEntity
  8
0
100
AcDbLine
 10
12.016545408910801
 20
-21.468694975638098
 30
2.2737367544323206e-13
 11
3.3562913710664333
 21
-36.46869497563805
 31
2.2737367544323206e-13
  0
LINE
  5
96
330
17
100
AcDbEntity
  8
0
100
AcDbLine
 10
3.3562913710664333
 20
-36.46869497563805
 30
2.2737367544323206e-13
 11
-5.303962666777693
 21
-21.46869497563812
 31
2.2737367544323206e-13
  0
LINE
  5
97
330
17
100
AcDbEntity
  8
0
100
AcDbLine
 10
-5.303962666777693
 20
-21.46869497563812
 30
2.2737367544323206e-13
 11
12.016545408910801
 21
-21.468694975638098
 31
2.2737367544323206e-13
  0
CIRCLE
  5
98
330
17
100
AcDbEntity
  8
0
100
AcDbCircle
 10
-67.05396266677789
 20
11.781305024361643
 30
2.2737367544323206e-13
 40
1.7499999999999927
  0
CIRCLE
  5
99
330
17
100
AcDbEntity
  8
0
100
AcDbCircle
 10
-67.05396266677784
 20
-18.2186949756385
 30
2.2737367544323206e-13
 40
1.7500000000000029
  0
CIRCLE
  5
9A
330
17
100
AcDbEntity
  8
0
100
AcDbCircle
 10
60.44603733322218
 20
-18.218694975638332
 30
2.2737367544323206e-13
 40
1.7499999999999976
  0
CIRCLE
  5
9B
330
17
100
AcDbEntity
  8
0
100
AcDbCircle
 10
60.44603733322214
 20
11.781305024361806
 30
2.2737367544323206e-13
 40
1.7499999999999976
  0
ENDSEC
  0
SECTION
  2
OBJECTS
  0
DICTIONARY
  5
A
330
0
100
AcDbDictionary
281
1
  3
ACAD_COLOR
350
B
  3
ACAD_GROUP
350
C
  3
ACAD_LAYOUT
350
D
  3
ACAD_MATERIAL
350
E
  3
ACAD_MLEADERSTYLE
350
F
  3
ACAD_MLINESTYLE
350
10
  3
ACAD_PLOTSETTINGS
350
11
  3
ACAD_PLOTSTYLENAME
350
12
  3
ACAD_SCALELIST
350
14
  3
ACAD_TABLESTYLE
350
15
  3
ACAD_VISUALSTYLE
350
16
  3
EZDXF_META
350
2D
  0
DICTIONARY
  5
B
330
A
100
AcDbDictionary
281
1
  0
DICTIONARY
  5
C
330
A
100
AcDbDictionary
281
1
  0
DICTIONARY
  5
D
330
A
100
AcDbDictionary
281
1
  3
Model
350
1A
  3
Layout1
350
1E
  0
DICTIONARY
  5
E
330
A
100
AcDbDictionary
281
1
  3
ByBlock
350
1F
  3
ByLayer
350
20
  3
Global
350
21
  0
DICTIONARY
  5
F
330
A
100
AcDbDictionary
281
1
  3
Standard
350
2C
  0
DICTIONARY
  5
10
330
A
100
AcDbDictionary
281
1
  3
Standard
350
22
  0
DICTIONARY
  5
11
330
A
100
AcDbDictionary
281
1
  0
ACDBDICTIONARYWDFLT
  5
12
330
A
100
AcDbDictionary
281
1
  3
Normal
350
13
100
AcDbDictionaryWithDefault
340
13
  0
ACDBPLACEHOLDER
  5
13
330
12
  0
DICTIONARY
  5
14
330
A
100
AcDbDictionary
281
1
  0
DICTIONARY
  5
15
330
A
100
AcDbDictionary
281
1
  0
DICTIONARY
  5
16
330
A
100
AcDbDictionary
281
1
  0
LAYOUT
  5
1A
330
D
100
AcDbPlotSettings
  1

  4
A3
  6

 40
7.5
 41
20.0
 42
7.5
 43
20.0
 44
420.0
 45
297.0
 46
0.0
 47
0.0
 48
0.0
 49
0.0
140
0.0
141
0.0
142
1.0
143
1.0
 70
1024
 72
1
 73
0
 74
5
  7

 75
16
 76
0
 77
2
 78
300
147
1.0
148
0.0
149
0.0
100
AcDbLayout
  1
Model
 70
1
 71
0
 10
0.0
 20
0.0
 11
420.0
 21
297.0
 12
0.0
 22
0.0
 32
0.0
 14
1e+20
 24
1e+20
 34
1e+20
 15
-1e+20
 25
-1e+20
 35
-1e+20
146
0.0
 13
0.0
 23
0.0
 33
0.0
 16
1.0
 26
0.0
 36
0.0
 17
0.0
 27
1.0
 37
0.0
 76
1
330
17
  0
LAYOUT
  5
1E
330
D
100
AcDbPlotSettings
  1

  4
A3
  6

 40
7.5
 41
20.0
 42
7.5
 43
20.0
 44
420.0
 45
297.0
 46
0.0
 47
0.0
 48
0.0
 49
0.0
140
0.0
141
0.0
142
1.0
143
1.0
 70
0
 72
1
 73
0
 74
5
  7

 75
16
 76
0
 77
2
 78
300
147
1.0
148
0.0
149
0.0
100
AcDbLayout
  1
Layout1
 70
1
 71
1
 10
0.0
 20
0.0
 11
420.0
 21
297.0
 12
0.0
 22
0.0
 32
0.0
 14
1e+20
 24
1e+20
 34
1e+20
 15
-1e+20
 25
-1e+20
 35
-1e+20
146
0.0
 13
0.0
 23
0.0
 33
0.0
 16
1.0
 26
0.0
 36
0.0
 17
0.0
 27
1.0
 37
0.0
 76
1
330
1B
  0
MATERIAL
  5
1F
102
{ACAD_REACTORS
330
E
102
}
330
E
100
AcDbMaterial
  1
ByBlock
  2

 70
0
 40
1.0
 71
1
 41
1.0
 91
-1023410177
 42
1.0
 72
1
  3

 73
1
 74
1
 75
1
 44
0.5
 73
0
 45
1.0
 46
1.0
 77
1
  4

 78
1
 79
1
170
1
 48
1.0
171
1
  6

172
1
173
1
174
1
140
1.0
141
1.0
175
1
  7

176
1
177
1
178
1
143
1.0
179
1
  8

270
1
271
1
272
1
145
1.0
146
1.0
273
1
  9

274
1
275
1
276
1
 42
1.0
 72
1
  3

 73
1
 74
1
 75
1
 94
63
  0
MATERIAL
  5
20
102
{ACAD_REACTORS
330
E
102
}
330
E
100
AcDbMaterial
  1
ByLayer
  2

 70
0
 40
1.0
 71
1
 41
1.0
 91
-1023410177
 42
1.0
 72
1
  3

 73
1
 74
1
 75
1
 44
0.5
 73
0
 45
1.0
 46
1.0
 77
1
  4

 78
1
 79
1
170
1
 48
1.0
171
1
  6

172
1
173
1
174
1
140
1.0
141
1.0
175
1
  7

176
1
177
1
178
1
143
1.0
179
1
  8

270
1
271
1
272
1
145
1.0
146
1.0
273
1
  9

274
1
275
1
276
1
 42
1.0
 72
1
  3

 73
1
 74
1
 75
1
 94
63
  0
MATERIAL
  5
21
102
{ACAD_REACTORS
330
E
102
}
330
E
100
AcDbMaterial
  1
Global
  2

 70
0
 40
1.0
 71
1
 41
1.0
 91
-1023410177
 42
1.0
 72
1
  3

 73
1
 74
1
 75
1
 44
0.5
 73
0
 45
1.0
 46
1.0
 77
1
  4

 78
1
 79
1
170
1
 48
1.0
171
1
  6

172
1
173
1
174
1
140
1.0
141
1.0
175
1
  7

176
1
177
1
178
1
143
1.0
179
1
  8

270
1
271
1
272
1
145
1.0
146
1.0
273
1
  9

274
1
275
1
276
1
 42
1.0
 72
1
  3

 73
1
 74
1
 75
1
 94
63
  0
MLINESTYLE
  5
22
102
{ACAD_REACTORS
330
10
102
}
330
10
100
AcDbMlineStyle
  2
Standard
 70
0
  3

 62
256
 51
90.0
 52
90.0
 71
2
 49
0.5
 62
256
  6
BYLAYER
 49
-0.5
 62
256
  6
BYLAYER
  0
MLEADERSTYLE
  5
2C
102
{ACAD_REACTORS
330
F
102
}
330
F
100
AcDbMLeaderStyle
179
2
170
2
171
1
172
0
 90
2
 40
0.0
 41
0.0
173
1
 91
-1056964608
 92
-2
290
1
 42
2.0
291
1
 43
8.0
  3
Standard
 44
4.0
300

342
29
174
1
175
1
176
0
178
1
 93
-1056964608
 45
4.0
292
0
297
0
 46
4.0
 94
-1056964608
 47
1.0
 49
1.0
140
1.0
294
1
141
0.0
177
0
142
1.0
295
0
296
0
143
3.75
271
0
272
9
273
9
  0
DICTIONARY
  5
2D
330
A
100
AcDbDictionary
280
1
281
1
  3
CREATED_BY_EZDXF
350
2E
  3
WRITTEN_BY_EZDXF
350
9F
  0
DICTIONARYVAR
  5
2E
330
2D
100
DictionaryVariables
280
0
  1
1.4.4 @ 2026-09-22T04:34:53.659408+00:00
  0
DICTIONARYVAR
  5
9F
330
2D
100
DictionaryVariables
280
0
  1
1.4.4 @ 2026-09-22T04:34:53.738986+00:00
  0
ENDSEC
  0
EOF
