  0
SECTION
  2
HEADER
  9
$ACADVER
  1
AC1027
  9
$ACADMAINTVER
 70
105
  9
$DWGCODEPAGE
  3
ANSI_1252
  9
$LASTSAVEDBY
  1
ezdxf
  9
$REQUIREDVERSIONS
160
0
  9
$INSBASE
 10
0.0
 20
0.0
 30
0.0
  9
$EXTMIN
 10
1e+20
 20
1e+20
 30
1e+20
  9
$EXTMAX
 10
-1e+20
 20
-1e+20
 30
-1e+20
  9
$LIMMIN
 10
0.0
 20
0.0
  9
$LIMMAX
 10
420.0
 20
297.0
  9
$ORTHOMODE
 70
0
  9
$REGENMODE
 70
1
  9
$FILLMODE
 70
1
  9
$QTEXTMODE
 70
0
  9
$MIRRTEXT
 70
1
  9
$LTSCALE
 40
1.0
  9
$ATTMODE
 70
1
  9
$TEXTSIZE
 40
2.5
  9
$TRACEWID
 40
1.0
  9
$TEXTSTYLE
  7
Standard
  9
$CLAYER
  8
0
  9
$CELTYPE
  6
ByLayer
  9
$CECOLOR
 62
256
  9
$CELTSCALE
 40
1.0
  9
$DISPSILH
 70
0
  9
$DIMSCALE
 40
1.0
  9
$DIMASZ
 40
2.5
  9
$DIMEXO
 40
0.625
  9
$DIMDLI
 40
3.75
  9
$DIMRND
 40
0.0
  9
$DIMDLE
 40
0.0
  9
$DIMEXE
 40
1.25
  9
$DIMTP
 40
0.0
  9
$DIMTM
 40
0.0
  9
$DIMTXT
 40
2.5
  9
$DIMCEN
 40
2.5
  9
$DIMTSZ
 40
0.0
  9
$DIMTOL
 70
0
  9
$DIMLIM
 70
0
  9
$DIMTIH
 70
0
  9
$DIMTOH
 70
0
  9
$DIMSE1
 70
0
  9
$DIMSE2
 70
0
  9
$DIMTAD
 70
1
  9
$DIMZIN
 70
8
  9
$DIMBLK
  1

  9
$DIMASO
 70
1
  9
$DIMSHO
 70
1
  9
$DIMPOST
  1

  9
$DIMAPOST
  1

  9
$DIMALT
 70
0
  9
$DIMALTD
 70
3
  9
$DIMALTF
 40
0.03937007874
  9
$DIMLFAC
 40
1.0
  9
$DIMTOFL
 70
1
  9
$DIMTVP
 40
0.0
  9
$DIMTIX
 70
0
  9
$DIMSOXD
 70
0
  9
$DIMSAH
 70
0
  9
$DIMBLK1
  1

  9
$DIMBLK2
  1

  9
$DIMSTYLE
  2
ISO-25
  9
$DIMCLRD
 70
0
  9
$DIMCLRE
 70
0
  9
$DIMCLRT
 70
0
  9
$DIMTFAC
 40
1.0
  9
$DIMGAP
 40
0.625
  9
$DIMJUST
 70
0
  9
$DIMSD1
 70
0
  9
$DIMSD2
 70
0
  9
$DIMTOLJ
 70
0
  9
$DIMTZIN
 70
8
  9
$DIMALTZ
 70
0
  9
$DIMALTTZ
 70
0
  9
$DIMUPT
 70
0
  9
$DIMDEC
 70
2
  9
$DIMTDEC
 70
2
  9
$DIMALTU
 70
2
  9
$DIMALTTD
 70
3
  9
$DIMTXSTY
  7
Standard
  9
$DIMAUNIT
 70
0
  9
$DIMADEC
 70
0
  9
$DIMALTRND
 40
0.0
  9
$DIMAZIN
 70
0
  9
$DIMDSEP
 70
44
  9
$DIMATFIT
 70
3
  9
$DIMFRAC
 70
0
  9
$DIMLDRBLK
  1

  9
$DIMLUNIT
 70
2
  9
$DIMLWD
 70
-2
  9
$DIMLWE
 70
-2
  9
$DIMTMOVE
 70
0
  9
$DIMFXL
 40
1.0
  9
$DIMFXLON
 70
0
  9
$DIMJOGANG
 40
0.785398163397
  9
$DIMTFILL
 70
0
  9
$DIMTFILLCLR
 70
0
  9
$DIMARCSYM
 70
0
  9
$DIMLTYPE
  6

  9
$DIMLTEX1
  6

  9
$DIMLTEX2
  6

  9
$DIMTXTDIRECTION
 70
0
  9
$LUNITS
 70
2
  9
$LUPREC
 70
4
  9
$SKETCHINC
 40
1.0
  9
$FILLETRAD
 40
10.0
  9
$AUNITS
 70
0
  9
$AUPREC
 70
2
  9
$MENU
  1
.
  9
$ELEVATION
 40
0.0
  9
$PELEVATION
 40
0.0
  9
$THICKNESS
 40
0.0
  9
$LIMCHECK
 70
0
  9
$CHAMFERA
 40
0.0
  9
$CHAMFERB
 40
0.0
  9
$CHAMFERC
 40
0.0
  9
$CHAMFERD
 40
0.0
  9
$SKPOLY
 70
0
  9
$TDCREATE
 40
2461306.274212963
  9
$TDUCREATE
 40
2458532.153996898
  9
$TDUPDATE
 40
2461306.274212963
  9
$TDUUPDATE
 40
2458532.1544311
  9
$TDINDWG
 40
0.0
  9
$TDUSRTIMER
 40
0.0
  9
$USRTIMER
 70
1
  9
$ANGBASE
 50
0.0
  9
$ANGDIR
 70
0
  9
$PDMODE
 70
0
  9
$PDSIZE
 40
0.0
  9
$PLINEWID
 40
0.0
  9
$SPLFRAME
 70
0
  9
$SPLINETYPE
 70
6
  9
$SPLINESEGS
 70
8
  9
$HANDSEED
  5
A2
  9
$SURFTAB1
 70
6
  9
$SURFTAB2
 70
6
  9
$SURFTYPE
 70
6
  9
$SURFU
 70
6
  9
$SURFV
 70
6
  9
$UCSBASE
  2

  9
$UCSNAME
  2

  9
$UCSORG
 10
0.0
 20
0.0
 30
0.0
  9
$UCSXDIR
 10
1.0
 20
0.0
 30
0.0
  9
$UCSYDIR
 10
0.0
 20
1.0
 30
0.0
  9
$UCSORTHOREF
  2

  9
$UCSORTHOVIEW
 70
0
  9
$UCSORGTOP
 10
0.0
 20
0.0
 30
0.0
  9
$UCSORGBOTTOM
 10
0.0
 20
0.0
 30
0.0
  9
$UCSORGLEFT
 10
0.0
 20
0.0
 30
0.0
  9
$UCSORGRIGHT
 10
0.0
 20
0.0
 30
0.0
  9
$UCSORGFRONT
 10
0.0
 20
0.0
 30
0.0
  9
$UCSORGBACK
 10
0.0
 20
0.0
 30
0.0
  9
$PUCSBASE
  2

  9
$PUCSNAME
  2

  9
$PUCSORG
 10
0.0
 20
0.0
 30
0.0
  9
$PUCSXDIR
 10
1.0
 20
0.0
 30
0.0
  9
$PUCSYDIR
 10
0.0
 20
1.0
 30
0.0
  9
$PUCSORTHOREF
  2

  9
$PUCSORTHOVIEW
 70
0
  9
$PUCSORGTOP
 10
0.0
 20
0.0
 30
0.0
  9
$PUCSORGBOTTOM
 10
0.0
 20
0.0
 30
0.0
  9
$PUCSORGLEFT
 10
0.0
 20
0.0
 30
0.0
  9
$PUCSORGRIGHT
 10
0.0
 20
0.0
 30
0.0
  9
$PUCSORGFRONT
 10
0.0
 20
0.0
 30
0.0
  9
$PUCSORGBACK
 10
0.0
 20
0.0
 30
0.0
  9
$USERI1
 70
0
  9
$USERI2
 70
0
  9
$USERI3
 70
0
  9
$USERI4
 70
0
  9
$USERI5
 70
0
  9
$USERR1
 40
0.0
  9
$USERR2
 40
0.0
  9
$USERR3
 40
0.0
  9
$USERR4
 40
0.0
  9
$USERR5
 40
0.0
  9
$WORLDVIEW
 70
1
  9
$SHADEDGE
 70
3
  9
$SHADEDIF
 70
70
  9
$TILEMODE
 70
1
  9
$MAXACTVP
 70
64
  9
$PINSBASE
 10
0.0
 20
0.0
 30
0.0
  9
$PLIMCHECK
 70
0
  9
$PEXTMIN
 10
1e+20
 20
1e+20
 30
1e+20
  9
$PEXTMAX
 10
-1e+20
 20
-1e+20
 30
-1e+20
  9
$PLIMMIN
 10
0.0
 20
0.0
  9
$PLIMMAX
 10
420.0
 20
297.0
  9
$UNITMODE
 70
0
  9
$VISRETAIN
 70
1
  9
$PLINEGEN
 70
0
  9
$PSLTSCALE
 70
1
  9
$TREEDEPTH
 70
3020
  9
$CMLSTYLE
  2
Standard
  9
$CMLJUST
 70
0
  9
$CMLSCALE
 40
20.0
  9
$PROXYGRAPHICS
 70
1
  9
$MEASUREMENT
 70
1
  9
$CELWEIGHT
370
-1
  9
$ENDCAPS
280
0
  9
$JOINSTYLE
280
0
  9
$LWDISPLAY
290
0
  9
$INSUNITS
 70
4
  9
$HYPERLINKBASE
  1

  9
$STYLESHEET
  1

  9
$XEDIT
290
1
  9
$CEPSNTYPE
380
0
  9
$PSTYLEMODE
290
1
  9
$FINGERPRINTGUID
  2
{B86F77B9-D12A-4026-AB86-CF8BD99817CB}
  9
$VERSIONGUID
  2
{DC5F7F2A-D7A9-4D66-B5E2-DDE50D581F99}
  9
$EXTNAMES
290
1
  9
$PSVPSCALE
 40
0.0
  9
$OLESTARTUP
290
0
  9
$SORTENTS
280
127
  9
$INDEXCTL
280
0
  9
$HIDETEXT
280
1
  9
$XCLIPFRAME
280
1
  9
$HALOGAP
280
0
  9
$OBSCOLOR
 70
257
  9
$OBSLTYPE
280
0
  9
$INTERSECTIONDISPLAY
280
0
  9
$INTERSECTIONCOLOR
 70
257
  9
$DIMASSOC
280
2
  9
$PROJECTNAME
  1

  9
$CAMERADISPLAY
290
0
  9
$LENSLENGTH
 40
50.0
  9
$CAMERAHEIGHT
 40
0.0
  9
$STEPSPERSEC
 40
24.0
  9
$STEPSIZE
 40
100.0
  9
$3DDWFPREC
 40
2.0
  9
$PSOLWIDTH
 40
0.005
  9
$PSOLHEIGHT
 40
0.08
  9
$LOFTANG1
 40
1.570796326795
  9
$LOFTANG2
 40
1.570796326795
  9
$LOFTMAG1
 40
0.0
  9
$LOFTMAG2
 40
0.0
  9
$LOFTPARAM
 70
7
  9
$LOFTNORMALS
280
1
  9
$LATITUDE
 40
37.795
  9
$LONGITUDE
 40
-122.394
  9
$NORTHDIRECTION
 40
0.0
  9
$TIMEZONE
 70
-8000
  9
$LIGHTGLYPHDISPLAY
280
1
  9
$TILEMODELIGHTSYNCH
280
1
  9
$CMATERIAL
347
20
  9
$SOLIDHIST
280
0
  9
$SHOWHIST
280
1
  9
$DWFFRAME
280
2
  9
$DGNFRAME
280
2
  9
$REALWORLDSCALE
290
1
  9
$INTERFERECOLOR
 62
256
  9
$CSHADOW
280
0
  9
$SHADOWPLANELOCATION
 40
0.0
  0
ENDSEC
  0
SECTION
  2
CLASSES
  0
CLASS
  1
ACDBDICTIONARYWDFLT
  2
AcDbDictionaryWithDefault
  3
ObjectDBX Classes
 90
0
 91
0
280
0
281
0
  0
CLASS
  1
SUN
  2
AcDbSun
  3
SCENEOE
 90
1153
 91
0
280
0
281
0
  0
CLASS
  1
VISUALSTYLE
  2
AcDbVisualStyle
  3
ObjectDBX Classes
 90
4095
 91
0
280
0
281
0
  0
CLASS
  1
MATERIAL
  2
AcDbMaterial
  3
ObjectDBX Classes
 90
1153
 91
0
280
0
281
0
  0
CLASS
  1
SCALE
  2
AcDbScale
  3
ObjectDBX Classes
 90
1153
 91
0
280
0
281
0
  0
CLASS
  1
TABLESTYLE
  2
AcDbTableStyle
  3
ObjectDBX Classes
 90
4095
 91
0
280
0
281
0
  0
CLASS
  1
MLEADERSTYLE
  2
AcDbMLeaderStyle
  3
ACDB_MLEADERSTYLE_CLASS
 90
4095
 91
0
280
0
281
0
  0
CLASS
  1
DICTIONARYVAR
  2
AcDbDictionaryVar
  3
ObjectDBX Classes
 90
0
 91
0
280
0
281
0
  0
CLASS
  1
CELLSTYLEMAP
  2
AcDbCellStyleMap
  3
ObjectDBX Classes
 90
1152
 91
0
280
0
281
0
  0
CLASS
  1
MENTALRAYRENDERSETTINGS
  2
AcDbMentalRayRenderSettings
  3
SCENEOE
 90
1024
 91
0
280
0
281
0
  0
CLASS
  1
ACDBDETAILVIEWSTYLE
  2
AcDbDetailViewStyle
  3
ObjectDBX Classes
 90
1025
 91
0
280
0
281
0
  0
CLASS
  1
ACDBSECTIONVIEWSTYLE
  2
AcDbSectionViewStyle
  3
ObjectDBX Classes
 90
1025
 91
0
280
0
281
0
  0
CLASS
  1
RASTERVARIABLES
  2
AcDbRasterVariables
  3
ISM
 90
0
 91
0
280
0
281
0
  0
CLASS
  1
LAYOUT
  2
AcDbLayout
  3
ObjectDBX Classes
 90
0
 91
0
280
0
281
0
  0
CLASS
  1
ACDBPLACEHOLDER
  2
AcDbPlaceHolder
  3
ObjectDBX Classes
 90
0
 91
0
280
0
281
0
  0
ENDSEC
  0
SECTION
  2
TABLES
  0
TABLE
  2
VPORT
  5
8
330
0
100
AcDbSymbolTable
 70
1
  0
VPORT
  5
9E
330
8
100
AcDbSymbolTableRecord
100
AcDbViewportTableRecord
  2
*Active
 70
0
 10
0.0
 20
0.0
 11
1.0
 21
1.0
 12
3.1560580540682253
 22
5.4742245042528594
 13
0.0
 23
0.0
 14
0.5
 24
0.5
 15
0.5
 25
0.5
 16
0.0
 26
0.0
 36
1.0
 17
0.0
 27
0.0
 37
0.0
 40
92.50000000000406
 41
1.34
 42
50.0
 43
0.0
 44
0.0
 50
0.0
 51
0.0
 71
0
 72
1000
 73
1
 74
3
 75
0
 76
0
 77
0
 78
0
281
0
 65
1
110
0.0
120
0.0
130
0.0
111
1.0
121
0.0
131
0.0
112
0.0
122
1.0
132
0.0
 79
0
146
0.0
  0
ENDTAB
  0
TABLE
  2
LTYPE
  5
2
330
0
100
AcDbSymbolTable
 70
3
  0
LTYPE
  5
24
330
2
100
AcDbSymbolTableRecord
100
AcDbLinetypeTableRecord
  2
ByBlock
 70
0
  3

 72
65
 73
0
 40
0.0
  0
LTYPE
  5
25
330
2
100
AcDbSymbolTableRecord
100
AcDbLinetypeTableRecord
  2
ByLayer
 70
0
  3

 72
65
 73
0
 40
0.0
  0
LTYPE
  5
26
330
2
100
AcDbSymbolTableRecord
100
AcDbLinetypeTableRecord
  2
Continuous
 70
0
  3

 72
65
 73
0
 40
0.0
  0
ENDTAB
  0
TABLE
  2
LAYER
  5
1
330
0
100
AcDbSymbolTable
 70
2
  0
LAYER
  5
27
330
1
100
AcDbSymbolTableRecord
100
AcDbLayerTableRecord
  2
0
 70
0
 62
7
  6
Continuous
370
-3
390
13
347
21
  0
LAYER
  5
28
330
1
100
AcDbSymbolTableRecord
100
AcDbLayerTableRecord
  2
Defpoints
 70
0
 62
7
  6
Continuous
290
0
370
-3
390
13
347
21
  0
ENDTAB
  0
TABLE
  2
STYLE
  5
5
330
0
100
AcDbSymbolTable
 70
1
  0
STYLE
  5
29
330
5
100
AcDbSymbolTableRecord
100
AcDbTextStyleTableRecord
  2
Standard
 70
0
 40
0.0
 41
1.0
 50
0.0
 71
0
 42
2.5
  3
txt
  4

  0
ENDTAB
  0
TABLE
  2
VIEW
  5
7
330
0
100
AcDbSymbolTable
 70
0
  0
ENDTAB
  0
TABLE
  2
UCS
  5
6
330
0
100
AcDbSymbolTable
 70
0
  0
ENDTAB
  0
TABLE
  2
APPID
  5
3
330
0
100
AcDbSymbolTable
 70
3
  0
APPID
  5
2A
330
3
100
AcDbSymbolTableRecord
100
AcDbRegAppTableRecord
  2
ACAD
 70
0
  0
APPID
  5
9F
330
3
100
AcDbSymbolTableRecord
100
AcDbRegAppTableRecord
  2
HATCHBACKGROUNDCOLOR
 70
0
  0
APPID
  5
A0
330
3
100
AcDbSymbolTableRecord
100
AcDbRegAppTableRecord
  2
EZDXF
 70
0
  0
ENDTAB
  0
TABLE
  2
DIMSTYLE
  5
4
330
0
100
AcDbSymbolTable
 70
1
100
AcDbDimStyleTable
  0
DIMSTYLE
105
2B
330
4
100
AcDbSymbolTableRecord
100
AcDbDimStyleTableRecord
  2
Standard
 70
0
 40
1.0
 41
2.5
 42
0.625
 43
3.75
 44
1.25
 45
0.0
 46
0.0
 47
0.0
 48
0.0
 49
2.5
140
2.5
141
2.5
142
0.0
143
0.03937007874
144
1.0
145
0.0
146
1.0
147
0.625
148
0.0
 69
0
 70
0
 71
0
 72
0
 73
0
 74
0
 75
0
 76
0
 77
1
 78
8
 79
3
170
0
171
3
172
1
173
0
174
0
175
0
176
0
177
0
178
0
179
2
271
2
272
2
273
2
274
3
275
0
276
0
277
2
278
44
279
0
280
0
281
0
282
0
283
0
284
8
285
0
286
0
288
0
289
3
290
0
371
-2
372
-2
  0
ENDTAB
  0
TABLE
  2
BLOCK_RECORD
  5
9
330
0
100
AcDbSymbolTable
 70
2
  0
BLOCK_RECORD
  5
17
330
9
100
AcDbSymbolTableRecord
100
AcDbBlockTableRecord
  2
*Model_Space
340
1A
 70
0
280
1
281
0
  0
BLOCK_RECORD
  5
1B
330
9
100
AcDbSymbolTableRecord
100
AcDbBlockTableRecord
  2
*Paper_Space
340
1E
 70
0
280
1
281
0
  0
ENDTAB
  0
ENDSEC
  0
SECTION
  2
BLOCKS
  0
BLOCK
  5
18
330
17
100
AcDbEntity
  8
0
100
AcDbBlockBegin
  2
*Model_Space
 70
0
 10
0.0
 20
0.0
 30
0.0
  3
*Model_Space
  1

  0
ENDBLK
  5
19
330
17
100
AcDbEntity
  8
0
100
AcDbBlockEnd
  0
BLOCK
  5
1C
330
1B
100
AcDbEntity
  8
0
100
AcDbBlockBegin
  2
*Paper_Space
 70
0
 10
0.0
 20
0.0
 30
0.0
  3
*Paper_Space
  1

  0
ENDBLK
  5
1D
330
1B
100
AcDbEntity
  8
0
100
AcDbBlockEnd
  0
ENDSEC
  0
SECTION
  2
ENTITIES
  0
LINE
  5
2F
330
17
100
AcDbEntity
  8
0
100
AcDbLine
 10
86.15605805406688
 20
-40.77577549574917
 30
-7.469675831848082e-30
 11
88.15605805406702
 21
-38.7757754957491
 31
-7.564228690479075e-30
  0
LINE
  5
30
330
17
100
AcDbEntity
  8
0
100
AcDbLine
 10
88.15605805406702
 20
-38.7757754957491
 30
-7.564228690479075e-30
 11
88.15605805406886
 21
34.22422450425084
 31
-7.564228690479075e-30
  0
LINE
  5
31
330
17
100
AcDbEntity
  8
0
100
AcDbLine
 10
88.15605805406886
 20
34.22422450425084
 30
-7.564228690479075e-30
 11
86.15605805406881
 21
36.22422450425089
 31
-7.469675831848082e-30
  0
LINE
  5
32
330
17
100
AcDbEntity
  8
0
100
AcDbLine
 10
86.15605805406881
 20
36.22422450425089
 30
-7.469675831848082e-30
 11
30.656058054068808
 21
36.2242245042523
 31
-4.845834004838153e-30
  0
LINE
  5
33
330
17
100
AcDbEntity
  8
0
100
AcDbLine
 10
30.656058054068808
 20
36.2242245042523
 30
-4.845834004838153e-30
 11
30.656058054069206
 21
51.7242245042523
 31
-4.845834004838153e-30
  0
LINE
  5
34
330
17
100
AcDbEntity
  8
0
100
AcDbLine
 10
30.656058054069206
 20
51.7242245042523
 30
-4.845834004838153e-30
 11
20.656058054069334
 21
51.72422450425255
 31
-4.373069711683217e-30
  0
LINE
  5
35
330
17
100
AcDbEntity
  8
0
100
AcDbLine
 10
20.656058054069334
 20
51.72422450425255
 30
-4.373069711683217e-30
 11
20.65605805406902
 21
39.22422450425256
 31
-4.373069711683217e-30
  0
ARC
  5
36
330
17
100
AcDbEntity
  8
0
100
AcDbCircle
 10
8.156058054068978
 20
39.22422450425288
 30
-3.7821143452395374e-30
 40
12.499999999999988
100
AcDbArc
 50
269.9999999999986
 51
359.9999999999986
  0
LINE
  5
37
330
17
100
AcDbEntity
  8
0
100
AcDbLine
 10
8.156058054068652
 20
26.724224504252867
 30
-3.7821143452395374e-30
 11
-49.34394194593138
 21
26.724224504254323
 31
-1.063719659598619e-30
  0
ARC
  5
38
330
17
100
AcDbEntity
  8
0
100
AcDbCircle
 10
-49.343941945931064
 20
39.22422450425434
 30
-1.063719659598619e-30
 40
12.499999999999988
100
AcDbArc
 50
179.99999999999855
 51
269.9999999999986
  0
LINE
  5
39
330
17
100
AcDbEntity
  8
0
100
AcDbLine
 10
-61.84394194593105
 20
39.22422450425465
 30
-4.727642931549422e-31
 11
-61.84394194593074
 21
51.724224504254636
 31
-4.727642931549422e-31
  0
LINE
  5
3A
330
17
100
AcDbEntity
  8
0
100
AcDbLine
 10
-61.84394194593074
 20
51.724224504254636
 30
-4.727642931549422e-31
 11
-71.84394194593074
 21
51.72422450425489
 31
0.0
  0
LINE
  5
3B
330
17
100
AcDbEntity
  8
0
100
AcDbLine
 10
-71.84394194593074
 20
51.72422450425489
 30
0.0
 11
-71.84394194593087
 21
46.724224504254906
 31
0.0
  0
LINE
  5
3C
330
17
100
AcDbEntity
  8
0
100
AcDbLine
 10
-71.84394194593087
 20
46.724224504254906
 30
0.0
 11
-81.84394194593112
 21
36.72422450425515
 31
4.727642931549422e-31
  0
LINE
  5
3D
330
17
100
AcDbEntity
  8
0
100
AcDbLine
 10
-81.84394194593112
 20
36.72422450425515
 30
4.727642931549422e-31
 11
-81.84394194593243
 21
-15.775775495744853
 31
4.7276429315494095e-31
  0
LINE
  5
3E
330
17
100
AcDbEntity
  8
0
100
AcDbLine
 10
-81.84394194593243
 20
-15.775775495744853
 30
4.7276429315494095e-31
 11
-71.8439419459327
 21
-25.775775495744995
 31
0.0
  0
LINE
  5
3F
330
17
100
AcDbEntity
  8
0
100
AcDbLine
 10
-71.8439419459327
 20
-25.775775495744995
 30
0.0
 11
-71.84394194593308
 21
-40.77577549574518
 31
0.0
  0
LINE
  5
40
330
17
100
AcDbEntity
  8
0
100
AcDbLine
 10
-71.84394194593308
 20
-40.77577549574518
 30
0.0
 11
86.15605805406688
 21
-40.77577549574917
 31
-7.469675831848082e-30
  0
LINE
  5
41
330
17
100
AcDbEntity
  8
0
100
AcDbLine
 10
38.12080401622373
 20
-2.775775495650798
 30
-5.198740539676137e-30
 11
55.44131209191249
 21
-2.7757754956512315
 31
-6.017592315424884e-30
  0
LINE
  5
42
330
17
100
AcDbEntity
  8
0
100
AcDbLine
 10
55.44131209191249
 20
-2.7757754956512315
 30
-6.017592315424884e-30
 11
46.78105805406773
 21
-17.775775495650947
 31
-5.6081664275505106e-30
  0
LINE
  5
43
330
17
100
AcDbEntity
  8
0
100
AcDbLine
 10
46.78105805406773
 20
-17.775775495650947
 30
-5.6081664275505106e-30
 11
38.12080401622373
 21
-2.775775495650798
 31
-5.198740539676137e-30
  0
LINE
  5
44
330
17
100
AcDbEntity
  8
0
100
AcDbLine
 10
32.12080401622386
 20
-2.7757754956506417
 30
-4.915081963783178e-30
 11
23.460549978379078
 21
-17.775775495650365
 31
-4.505656075908804e-30
  0
LINE
  5
45
330
17
100
AcDbEntity
  8
0
100
AcDbLine
 10
23.460549978379078
 20
-17.775775495650365
 30
-4.505656075908804e-30
 11
14.800295940535094
 21
-2.7757754956499525
 31
-4.096230188034432e-30
  0
LINE
  5
46
330
17
100
AcDbEntity
  8
0
100
AcDbLine
 10
14.800295940535094
 20
-2.7757754956499525
 30
-4.096230188034432e-30
 11
32.12080401622386
 21
-2.7757754956506417
 31
-4.915081963783178e-30
  0
LINE
  5
47
330
17
100
AcDbEntity
  8
0
100
AcDbLine
 10
61.441312091911016
 20
-35.7757754956512
 30
-6.301250891317819e-30
 11
70.10156612975601
 21
-20.775775495651743
 31
-6.710676779192203e-30
  0
LINE
  5
48
330
17
100
AcDbEntity
  8
0
100
AcDbLine
 10
70.10156612975601
 20
-20.775775495651743
 30
-6.710676779192203e-30
 11
78.76182016759978
 21
-35.7757754956519
 31
-7.120102667066565e-30
  0
LINE
  5
49
330
17
100
AcDbEntity
  8
0
100
AcDbLine
 10
78.76182016759978
 20
-35.7757754956519
 30
-7.120102667066565e-30
 11
61.441312091911016
 21
-35.7757754956512
 31
-6.301250891317819e-30
  0
LINE
  5
4A
330
17
100
AcDbEntity
  8
0
100
AcDbLine
 10
35.12080401622269
 20
-35.77577549565055
 30
-5.056911251729645e-30
 11
26.46054997837895
 21
-20.775775495650635
 31
-4.647485363855284e-30
  0
LINE
  5
4B
330
17
100
AcDbEntity
  8
0
100
AcDbLine
 10
26.46054997837895
 20
-20.775775495650635
 30
-4.647485363855284e-30
 11
43.78105805406746
 21
-20.775775495651075
 31
-5.4663371396040186e-30
  0
LINE
  5
4C
330
17
100
AcDbEntity
  8
0
100
AcDbLine
 10
43.78105805406746
 20
-20.775775495651075
 30
-5.4663371396040186e-30
 11
35.12080401622269
 21
-35.77577549565055
 31
-5.056911251729645e-30
  0
LINE
  5
4D
330
17
100
AcDbEntity
  8
0
100
AcDbLine
 10
35.12080401622386
 20
0.22422450434947905
 30
-5.0569112517296574e-30
 11
26.46054997837986
 21
15.22422450434938
 31
-4.647485363855284e-30
  0
LINE
  5
4E
330
17
100
AcDbEntity
  8
0
100
AcDbLine
 10
26.46054997837986
 20
15.22422450434938
 30
-4.647485363855284e-30
 11
43.78105805406837
 21
15.224224504348939
 31
-5.4663371396040186e-30
  0
LINE
  5
4F
330
17
100
AcDbEntity
  8
0
100
AcDbLine
 10
43.78105805406837
 20
15.224224504348939
 30
-5.4663371396040186e-30
 11
35.12080401622386
 21
0.22422450434947905
 31
-5.0569112517296574e-30
  0
LINE
  5
50
330
17
100
AcDbEntity
  8
0
100
AcDbLine
 10
58.44131209191107
 20
-35.77577549565113
 30
-6.1594216033713386e-30
 11
49.781058054067586
 21
-20.77577549565123
 31
-5.7499957154969894e-30
  0
LINE
  5
51
330
17
100
AcDbEntity
  8
0
100
AcDbLine
 10
49.781058054067586
 20
-20.77577549565123
 30
-5.7499957154969894e-30
 11
67.1015661297561
 21
-20.775775495651914
 31
-6.568847491245725e-30
  0
LINE
  5
52
330
17
100
AcDbEntity
  8
0
100
AcDbLine
 10
67.1015661297561
 20
-20.775775495651914
 30
-6.568847491245725e-30
 11
58.44131209191107
 21
-35.77577549565113
 31
-6.1594216033713386e-30
  0
LINE
  5
53
330
17
100
AcDbEntity
  8
0
100
AcDbLine
 10
58.44131209191241
 20
-2.7757754956515583
 30
-6.1594216033713624e-30
 11
67.10156612975618
 21
-17.77577549565146
 31
-6.568847491245725e-30
  0
LINE
  5
54
330
17
100
AcDbEntity
  8
0
100
AcDbLine
 10
67.10156612975618
 20
-17.77577549565146
 30
-6.568847491245725e-30
 11
49.7810580540679
 21
-17.775775495651033
 31
-5.749995715497001e-30
  0
LINE
  5
55
330
17
100
AcDbEntity
  8
0
100
AcDbLine
 10
49.7810580540679
 20
-17.775775495651033
 30
-5.749995715497001e-30
 11
58.44131209191241
 21
-2.7757754956515583
 31
-6.1594216033713624e-30
  0
LINE
  5
56
330
17
100
AcDbEntity
  8
0
100
AcDbLine
 10
55.441312091912565
 20
0.22422450434870456
 30
-6.017592315424884e-30
 11
38.12080401622353
 21
0.224224504349138
 31
-5.198740539676124e-30
  0
LINE
  5
57
330
17
100
AcDbEntity
  8
0
100
AcDbLine
 10
38.12080401622353
 20
0.224224504349138
 30
-5.198740539676124e-30
 11
46.781058054068566
 21
15.224224504349117
 31
-5.6081664275505106e-30
  0
LINE
  5
58
330
17
100
AcDbEntity
  8
0
100
AcDbLine
 10
46.781058054068566
 20
15.224224504349117
 30
-5.6081664275505106e-30
 11
55.441312091912565
 21
0.22422450434870456
 31
-6.017592315424884e-30
  0
LINE
  5
59
330
17
100
AcDbEntity
  8
0
100
AcDbLine
 10
78.76182016760109
 20
-2.7757754956518284
 30
-7.120102667066587e-30
 11
70.1015661297561
 21
-17.7757754956518
 31
-6.710676779192203e-30
  0
LINE
  5
5A
330
17
100
AcDbEntity
  8
0
100
AcDbLine
 10
70.1015661297561
 20
-17.7757754956518
 30
-6.710676779192203e-30
 11
61.441312091912096
 21
-2.775775495651132
 31
-6.301250891317831e-30
  0
LINE
  5
5B
330
17
100
AcDbEntity
  8
0
100
AcDbLine
 10
61.441312091912096
 20
-2.775775495651132
 30
-6.301250891317831e-30
 11
78.76182016760109
 21
-2.7757754956518284
 31
-7.120102667066587e-30
  0
LINE
  5
5C
330
17
100
AcDbEntity
  8
0
100
AcDbLine
 10
23.460549978379007
 20
-20.775775495650564
 30
-4.505656075908804e-30
 11
32.12080401622302
 21
-35.77577549565072
 31
-4.915081963783178e-30
  0
LINE
  5
5D
330
17
100
AcDbEntity
  8
0
100
AcDbLine
 10
32.12080401622302
 20
-35.77577549565072
 30
-4.915081963783178e-30
 11
14.800295940534255
 21
-35.77577549565028
 31
-4.096230188034432e-30
  0
LINE
  5
5E
330
17
100
AcDbEntity
  8
0
100
AcDbLine
 10
14.800295940534255
 20
-35.77577549565028
 30
-4.096230188034432e-30
 11
23.460549978379007
 21
-20.775775495650564
 31
-4.505656075908804e-30
  0
LINE
  5
5F
330
17
100
AcDbEntity
  8
0
100
AcDbLine
 10
58.44131209191224
 20
0.2242245043488893
 30
-6.1594216033713505e-30
 11
49.781058054068495
 21
15.224224504349046
 31
-5.7499957154969894e-30
  0
LINE
  5
60
330
17
100
AcDbEntity
  8
0
100
AcDbLine
 10
49.781058054068495
 20
15.224224504349046
 30
-5.7499957154969894e-30
 11
67.101566129757
 21
15.22422450434835
 31
-6.568847491245725e-30
  0
LINE
  5
61
330
17
100
AcDbEntity
  8
0
100
AcDbLine
 10
67.101566129757
 20
15.22422450434835
 30
-6.568847491245725e-30
 11
58.44131209191224
 21
0.2242245043488893
 31
-6.1594216033713505e-30
  0
LINE
  5
62
330
17
100
AcDbEntity
  8
0
100
AcDbLine
 10
38.12080401622262
 20
-35.775775495650876
 30
-5.198740539676124e-30
 11
46.78105805406739
 21
-20.77577549565089
 31
-5.608166427550497e-30
  0
LINE
  5
63
330
17
100
AcDbEntity
  8
0
100
AcDbLine
 10
46.78105805406739
 20
-20.77577549565089
 30
-5.608166427550497e-30
 11
55.441312091911385
 21
-35.77577549565132
 31
-6.0175923154248704e-30
  0
LINE
  5
64
330
17
100
AcDbEntity
  8
0
100
AcDbLine
 10
55.441312091911385
 20
-35.77577549565132
 30
-6.0175923154248704e-30
 11
38.12080401622262
 21
-35.775775495650876
 31
-5.198740539676124e-30
  0
LINE
  5
65
330
17
100
AcDbEntity
  8
0
100
AcDbLine
 10
14.800295940535165
 20
0.22422450434972774
 30
-4.096230188034432e-30
 11
23.460549978379916
 21
15.224224504349706
 31
-4.505656075908804e-30
  0
LINE
  5
66
330
17
100
AcDbEntity
  8
0
100
AcDbLine
 10
23.460549978379916
 20
15.224224504349706
 30
-4.505656075908804e-30
 11
32.12080401622393
 21
0.2242245043492943
 31
-4.915081963783178e-30
  0
LINE
  5
67
330
17
100
AcDbEntity
  8
0
100
AcDbLine
 10
32.12080401622393
 20
0.2242245043492943
 30
-4.915081963783178e-30
 11
14.800295940535165
 21
0.22422450434972774
 31
-4.096230188034432e-30
  0
LINE
  5
68
330
17
100
AcDbEntity
  8
0
100
AcDbLine
 10
35.12080401622403
 20
-2.77577549565072
 30
-5.0569112517296686e-30
 11
43.781058054067785
 21
-17.775775495650876
 31
-5.4663371396040305e-30
  0
LINE
  5
69
330
17
100
AcDbEntity
  8
0
100
AcDbLine
 10
43.781058054067785
 20
-17.775775495650876
 30
-5.4663371396040305e-30
 11
26.46054997837902
 21
-17.775775495650194
 31
-4.647485363855284e-30
  0
LINE
  5
6A
330
17
100
AcDbEntity
  8
0
100
AcDbLine
 10
26.46054997837902
 20
-17.775775495650194
 30
-4.647485363855284e-30
 11
35.12080401622403
 21
-2.77577549565072
 31
-5.0569112517296686e-30
  0
LINE
  5
6B
330
17
100
AcDbEntity
  8
0
100
AcDbLine
 10
61.44131209191218
 20
0.22422450434881114
 30
-6.301250891317831e-30
 11
70.10156612975692
 21
15.224224504348527
 31
-6.710676779192203e-30
  0
LINE
  5
6C
330
17
100
AcDbEntity
  8
0
100
AcDbLine
 10
70.10156612975692
 20
15.224224504348527
 30
-6.710676779192203e-30
 11
78.76182016760092
 21
0.2242245043483706
 31
-7.120102667066576e-30
  0
LINE
  5
6D
330
17
100
AcDbEntity
  8
0
100
AcDbLine
 10
78.76182016760092
 20
0.2242245043483706
 30
-7.120102667066576e-30
 11
61.44131209191218
 21
0.22422450434881114
 31
-6.301250891317831e-30
  0
CIRCLE
  5
6E
330
17
100
AcDbEntity
  8
0
100
AcDbCircle
 10
83.15605805406776
 20
-8.275775495749059
 30
-7.327846543901601e-30
 40
1.7499999999999927
  0
CIRCLE
  5
6F
330
17
100
AcDbEntity
  8
0
100
AcDbCircle
 10
83.1560580540685
 20
21.72422450425108
 30
-7.327846543901601e-30
 40
1.7500000000000029
  0
CIRCLE
  5
70
330
17
100
AcDbEntity
  8
0
100
AcDbCircle
 10
-45.59394194593169
 20
17.97422450425435
 30
-1.2410062695317181e-30
 40
1.75
  0
ARC
  5
71
330
17
100
AcDbEntity
  8
0
100
AcDbCircle
 10
-20.59394194593225
 20
-7.025775495746359
 30
-2.4229170024190765e-30
 40
28.75000000000006
100
AcDbArc
 50
-118.48179979882616
 51
-61.51820020117674
  0
ARC
  5
72
330
17
100
AcDbEntity
  8
0
100
AcDbCircle
 10
-33.35047062844015
 20
-30.538186600785323
 30
-1.8198338758494456e-30
 40
2.000000000000001
100
AcDbArc
 50
143.99999999999423
 51
241.51820020117628
  0
LINE
  5
73
330
17
100
AcDbEntity
  8
0
100
AcDbLine
 10
-34.96850461718991
 20
-29.362616096200227
 30
-1.7433390063502493e-30
 11
-30.65609262190044
 21
-23.427090192261147
 31
-1.947214447224834e-30
  0
ARC
  5
74
330
17
100
AcDbEntity
  8
0
100
AcDbCircle
 10
-29.038058633150683
 20
-24.602660696846243
 30
-2.0237093167240304e-30
 40
2.000000000000001
100
AcDbArc
 50
424.33989089392475
 51
503.9999999999942
  0
ARC
  5
75
330
17
100
AcDbEntity
  8
0
100
AcDbCircle
 10
-20.59394194593225
 20
-7.025775495746359
 30
-2.4229170024190765e-30
 40
17.5
100
AcDbArc
 50
244.33989089392628
 51
295.6601091060709
  0
ARC
  5
76
330
17
100
AcDbEntity
  8
0
100
AcDbCircle
 10
-12.149825258714706
 20
-24.60266069684667
 30
-2.822124688114123e-30
 40
2.000000000000001
100
AcDbArc
 50
396.00000000000284
 51
475.6601091060724
  0
LINE
  5
77
330
17
100
AcDbEntity
  8
0
100
AcDbLine
 10
-10.531791269964891
 20
-23.42709019226166
 30
-2.8986195576133192e-30
 11
-6.219379274675717
 21
-29.362616096200952
 31
-3.102494998487904e-30
  0
ARC
  5
78
330
17
100
AcDbEntity
  8
0
100
AcDbCircle
 10
-7.837413263425546
 20
-30.538186600785963
 30
-3.0260001289887077e-30
 40
2.000000000000001
100
AcDbArc
 50
298.48179979882076
 51
396.00000000000284
  0
ARC
  5
79
330
17
100
AcDbEntity
  8
0
100
AcDbCircle
 10
-20.59394194593225
 20
-7.025775495746359
 30
-2.4229170024190765e-30
 40
28.75000000000006
100
AcDbArc
 50
-46.481799798826245
 51
10.481799798823516
  0
ARC
  5
7A
330
17
100
AcDbEntity
  8
0
100
AcDbCircle
 10
-2.174294302800817
 20
-26.423689834738695
 30
-3.293732172235912e-30
 40
2.000000000000001
100
AcDbArc
 50
215.99999999999844
 51
313.51820020117304
  0
LINE
  5
7B
330
17
100
AcDbEntity
  8
0
100
AcDbLine
 10
-3.7923282915508736
 20
-27.599260339323692
 30
-3.217237302736704e-30
 11
-8.104740286840048
 21
-21.663734435384413
 31
-3.0133618618621192e-30
  0
ARC
  5
7C
330
17
100
AcDbEntity
  8
0
100
AcDbCircle
 10
-6.486706298089985
 20
-20.488163930799402
 30
-3.0898567313613278e-30
 40
2.000000000000001
100
AcDbArc
 50
496.3398908939271
 51
575.9999999999982
  0
ARC
  5
7D
330
17
100
AcDbEntity
  8
0
100
AcDbCircle
 10
-20.59394194593225
 20
-7.025775495746359
 30
-2.4229170024190765e-30
 40
17.5
100
AcDbArc
 50
316.33989089392605
 51
367.66010910607054
  0
ARC
  5
7E
330
17
100
AcDbEntity
  8
0
100
AcDbCircle
 10
-1.2679551804186389
 20
-4.426499531328972
 30
-3.3365806496910544e-30
 40
2.000000000000001
100
AcDbArc
 50
468.0000000000007
 51
547.6601091060753
  0
LINE
  5
7F
330
17
100
AcDbEntity
  8
0
100
AcDbLine
 10
-1.8859891691685675
 20
-2.5243864987386573
 30
-3.307362209507343e-30
 11
5.0916400127022
 21
-0.25721734453959755
 31
-3.637239602313783e-30
  0
ARC
  5
80
330
17
100
AcDbEntity
  8
0
100
AcDbCircle
 10
5.709674001452115
 20
-2.159330377129919
 30
-3.6664580424974936e-30
 40
2.000000000000001
100
AcDbArc
 50
370.4817997988273
 51
468.0000000000002
  0
ARC
  5
81
330
17
100
AcDbEntity
  8
0
100
AcDbCircle
 10
-20.59394194593225
 20
-7.025775495746359
 30
-2.4229170024190765e-30
 40
28.75000000000006
100
AcDbArc
 50
-190.4817997988264
 51
-133.51820020117668
  0
ARC
  5
82
330
17
100
AcDbEntity
  8
0
100
AcDbCircle
 10
-46.89755789331635
 20
-2.1593303771285903
 30
-1.1793759623406602e-30
 40
2.000000000000001
100
AcDbArc
 50
431.99999999999716
 51
529.51820020117
  0
LINE
  5
83
330
17
100
AcDbEntity
  8
0
100
AcDbLine
 10
-46.27952390456636
 20
-0.25721734453829725
 30
-1.20859440252437e-30
 11
-39.301894722695714
 21
-2.5243864987377123
 31
-1.5384717953308098e-30
  0
ARC
  5
84
330
17
100
AcDbEntity
  8
0
100
AcDbCircle
 10
-39.91992871144548
 20
-4.426499531327998
 30
-1.5092533551471108e-30
 40
2.000000000000001
100
AcDbArc
 50
352.3398908939208
 51
432.00000000000324
  0
ARC
  5
85
330
17
100
AcDbEntity
  8
0
100
AcDbCircle
 10
-20.59394194593225
 20
-7.025775495746359
 30
-2.4229170024190765e-30
 40
17.5
100
AcDbArc
 50
172.3398908939266
 51
223.66010910607105
  0
ARC
  5
86
330
17
100
AcDbEntity
  8
0
100
AcDbCircle
 10
-34.7011775937752
 20
-20.48816393079869
 30
-1.7559772734768255e-30
 40
2.000000000000001
100
AcDbArc
 50
323.99999999999875
 51
403.66010910607
  0
LINE
  5
87
330
17
100
AcDbEntity
  8
0
100
AcDbLine
 10
-33.08314360502519
 20
-21.663734435383773
 30
-1.8324721429760334e-30
 11
-37.39555560031466
 21
-27.59926033932284
 31
-1.6285967021014493e-30
  0
ARC
  5
88
330
17
100
AcDbEntity
  8
0
100
AcDbCircle
 10
-39.01358958906466
 20
-26.423689834737758
 30
-1.552101832602241e-30
 40
2.000000000000001
100
AcDbArc
 50
226.48179979882386
 51
323.99999999999875
  0
CIRCLE
  5
89
330
17
100
AcDbEntity
  8
0
100
AcDbCircle
 10
4.406058054068467
 20
17.974224504253087
 30
-3.604827735306436e-30
 40
1.7500000000000029
  0
ARC
  5
8A
330
17
100
AcDbEntity
  8
0
100
AcDbCircle
 10
-20.59394194593225
 20
-7.025775495746359
 30
-2.4229170024190765e-30
 40
28.75000000000006
100
AcDbArc
 50
-262.48179979882656
 51
-205.51820020117657
  0
ARC
  5
8B
330
17
100
AcDbEntity
  8
0
100
AcDbCircle
 10
-24.093941945931554
 20
19.494264096984395
 30
-2.257449499814848e-30
 40
2.000000000000001
100
AcDbArc
 50
359.9999999999985
 51
457.51820020117134
  0
LINE
  5
8C
330
17
100
AcDbEntity
  8
0
100
AcDbLine
 10
-22.093941945931675
 20
19.494264096984345
 30
-2.3520023584458308e-30
 11
-22.09394194593186
 21
12.157550597504446
 31
-2.3520023584458308e-30
  0
ARC
  5
8D
330
17
100
AcDbEntity
  8
0
100
AcDbCircle
 10
-24.09394194593174
 20
12.157550597504496
 30
-2.257449499814848e-30
 40
2.000000000000001
100
AcDbArc
 50
280.3398908939275
 51
359.9999999999985
  0
ARC
  5
8E
330
17
100
AcDbEntity
  8
0
100
AcDbCircle
 10
-20.59394194593225
 20
-7.025775495746359
 30
-2.4229170024190765e-30
 40
17.5
100
AcDbArc
 50
100.33989089392591
 51
151.66010910607076
  0
ARC
  5
8F
330
17
100
AcDbEntity
  8
0
100
AcDbCircle
 10
-37.756809750820665
 20
2.2308960827380133
 30
-1.6115178957900872e-30
 40
2.000000000000001
100
AcDbArc
 50
251.99999999999648
 51
331.6601091060712
  0
LINE
  5
90
330
17
100
AcDbEntity
  8
0
100
AcDbLine
 10
-38.374843739570686
 20
0.32878305014772025
 30
-1.5822994556063763e-30
 11
-45.35247292144158
 21
2.5959522043471353
 31
-1.2524220627999245e-30
  0
ARC
  5
91
330
17
100
AcDbEntity
  8
0
100
AcDbCircle
 10
-44.73443893269156
 20
4.498065236937414
 30
-1.2816405029836356e-30
 40
2.000000000000001
100
AcDbArc
 50
154.48179979882167
 51
251.99999999999628
  0
CIRCLE
  5
92
330
17
100
AcDbEntity
  8
0
100
AcDbCircle
 10
-45.593941945932954
 20
-32.02577549574579
 30
-1.2410062695317181e-30
 40
1.7500000000000029
  0
ARC
  5
93
330
17
100
AcDbEntity
  8
0
100
AcDbCircle
 10
-20.59394194593225
 20
-7.025775495746359
 30
-2.4229170024190765e-30
 40
28.75000000000006
100
AcDbArc
 50
-334.4817997988265
 51
-277.5182002011769
  0
ARC
  5
94
330
17
100
AcDbEntity
  8
0
100
AcDbCircle
 10
3.5465550408276414
 20
4.498065236936192
 30
-3.564193501854517e-30
 40
2.000000000000001
100
AcDbArc
 50
288.0000000000007
 51
385.5182002011741
  0
LINE
  5
95
330
17
100
AcDbEntity
  8
0
100
AcDbLine
 10
4.164589029577556
 20
2.5959522043458776
 30
-3.5934119420382285e-30
 11
-2.813040152293439
 21
0.32878305014681786
 31
-3.263534549231777e-30
  0
ARC
  5
96
330
17
100
AcDbEntity
  8
0
100
AcDbCircle
 10
-3.431074141043112
 20
2.2308960827371394
 30
-3.234316109048078e-30
 40
1.9999999999999984
100
AcDbArc
 50
208.33989089392253
 51
287.99999999999403
  0
ARC
  5
97
330
17
100
AcDbEntity
  8
0
100
AcDbCircle
 10
-20.59394194593225
 20
-7.025775495746359
 30
-2.4229170024190765e-30
 40
17.5
100
AcDbArc
 50
28.33989089392636
 51
79.66010910607118
  0
ARC
  5
98
330
17
100
AcDbEntity
  8
0
100
AcDbCircle
 10
-17.093941945931796
 20
12.157550597504319
 30
-2.588384505023305e-30
 40
2.000000000000001
100
AcDbArc
 50
179.99999999999852
 51
259.66010910606985
  0
LINE
  5
99
330
17
100
AcDbEntity
  8
0
100
AcDbLine
 10
-19.093941945931668
 20
12.157550597504368
 30
-2.4938316463923225e-30
 11
-19.093941945931483
 21
19.494264096984267
 31
-2.4938316463923225e-30
  0
ARC
  5
9A
330
17
100
AcDbEntity
  8
0
100
AcDbCircle
 10
-17.09394194593161
 20
19.494264096984217
 30
-2.588384505023305e-30
 40
2.000000000000001
100
AcDbArc
 50
442.4817997988183
 51
539.9999999999985
  0
CIRCLE
  5
9B
330
17
100
AcDbEntity
  8
0
100
AcDbCircle
 10
4.406058054067202
 20
-32.025775495747055
 30
-3.604827735306436e-30
 40
1.7499999999999976
  0
CIRCLE
  5
9C
330
17
100
AcDbEntity
  8
0
100
AcDbCircle
 10
-76.84394194593224
 20
-8.275775495745009
 30
2.3638214657747048e-31
 40
1.7499999999999976
  0
CIRCLE
  5
9D
330
17
100
AcDbEntity
  8
0
100
AcDbCircle
 10
-76.84394194593149
 20
21.72422450425513
 30
2.3638214657747048e-31
 40
1.75
  0
ENDSEC
  0
SECTION
  2
OBJECTS
  0
DICTIONARY
  5
A
330
0
100
AcDbDictionary
281
1
  3
ACAD_COLOR
350
B
  3
ACAD_GROUP
350
C
  3
ACAD_LAYOUT
350
D
  3
ACAD_MATERIAL
350
E
  3
ACAD_MLEADERSTYLE
350
F
  3
ACAD_MLINESTYLE
350
10
  3
ACAD_PLOTSETTINGS
350
11
  3
ACAD_PLOTSTYLENAME
350
12
  3
ACAD_SCALELIST
350
14
  3
ACAD_TABLESTYLE
350
15
  3
ACAD_VISUALSTYLE
350
16
  3
EZDXF_META
350
2D
  0
DICTIONARY
  5
B
330
A
100
AcDbDictionary
281
1
  0
DICTIONARY
  5
C
330
A
100
AcDbDictionary
281
1
  0
DICTIONARY
  5
D
330
A
100
AcDbDictionary
281
1
  3
Model
350
1A
  3
Layout1
350
1E
  0
DICTIONARY
  5
E
330
A
100
AcDbDictionary
281
1
  3
ByBlock
350
1F
  3
ByLayer
350
20
  3
Global
350
21
  0
DICTIONARY
  5
F
330
A
100
AcDbDictionary
281
1
  3
Standard
350
2C
  0
DICTIONARY
  5
10
330
A
100
AcDbDictionary
281
1
  3
Standard
350
22
  0
DICTIONARY
  5
11
330
A
100
AcDbDictionary
281
1
  0
ACDBDICTIONARYWDFLT
  5
12
330
A
100
AcDbDictionary
281
1
  3
Normal
350
13
100
AcDbDictionaryWithDefault
340
13
  0
ACDBPLACEHOLDER
  5
13
330
12
  0
DICTIONARY
  5
14
330
A
100
AcDbDictionary
281
1
  0
DICTIONARY
  5
15
330
A
100
AcDbDictionary
281
1
  0
DICTIONARY
  5
16
330
A
100
AcDbDictionary
281
1
  0
LAYOUT
  5
1A
330
D
100
AcDbPlotSettings
  1

  4
A3
  6

 40
7.5
 41
20.0
 42
7.5
 43
20.0
 44
420.0
 45
297.0
 46
0.0
 47
0.0
 48
0.0
 49
0.0
140
0.0
141
0.0
142
1.0
143
1.0
 70
1024
 72
1
 73
0
 74
5
  7

 75
16
 76
0
 77
2
 78
300
147
1.0
148
0.0
149
0.0
100
AcDbLayout
  1
Model
 70
1
 71
0
 10
0.0
 20
0.0
 11
420.0
 21
297.0
 12
0.0
 22
0.0
 32
0.0
 14
1e+20
 24
1e+20
 34
1e+20
 15
-1e+20
 25
-1e+20
 35
-1e+20
146
0.0
 13
0.0
 23
0.0
 33
0.0
 16
1.0
 26
0.0
 36
0.0
 17
0.0
 27
1.0
 37
0.0
 76
1
330
17
  0
LAYOUT
  5
1E
330
D
100
AcDbPlotSettings
  1

  4
A3
  6

 40
7.5
 41
20.0
 42
7.5
 43
20.0
 44
420.0
 45
297.0
 46
0.0
 47
0.0
 48
0.0
 49
0.0
140
0.0
141
0.0
142
1.0
143
1.0
 70
0
 72
1
 73
0
 74
5
  7

 75
16
 76
0
 77
2
 78
300
147
1.0
148
0.0
149
0.0
100
AcDbLayout
  1
Layout1
 70
1
 71
1
 10
0.0
 20
0.0
 11
420.0
 21
297.0
 12
0.0
 22
0.0
 32
0.0
 14
1e+20
 24
1e+20
 34
1e+20
 15
-1e+20
 25
-1e+20
 35
-1e+20
146
0.0
 13
0.0
 23
0.0
 33
0.0
 16
1.0
 26
0.0
 36
0.0
 17
0.0
 27
1.0
 37
0.0
 76
1
330
1B
  0
MATERIAL
  5
1F
102
{ACAD_REACTORS
330
E
102
}
330
E
100
AcDbMaterial
  1
ByBlock
  2

 70
0
 40
1.0
 71
1
 41
1.0
 91
-1023410177
 42
1.0
 72
1
  3

 73
1
 74
1
 75
1
 44
0.5
 73
0
 45
1.0
 46
1.0
 77
1
  4

 78
1
 79
1
170
1
 48
1.0
171
1
  6

172
1
173
1
174
1
140
1.0
141
1.0
175
1
  7

176
1
177
1
178
1
143
1.0
179
1
  8

270
1
271
1
272
1
145
1.0
146
1.0
273
1
  9

274
1
275
1
276
1
 42
1.0
 72
1
  3

 73
1
 74
1
 75
1
 94
63
  0
MATERIAL
  5
20
102
{ACAD_REACTORS
330
E
102
}
330
E
100
AcDbMaterial
  1
ByLayer
  2

 70
0
 40
1.0
 71
1
 41
1.0
 91
-1023410177
 42
1.0
 72
1
  3

 73
1
 74
1
 75
1
 44
0.5
 73
0
 45
1.0
 46
1.0
 77
1
  4

 78
1
 79
1
170
1
 48
1.0
171
1
  6

172
1
173
1
174
1
140
1.0
141
1.0
175
1
  7

176
1
177
1
178
1
143
1.0
179
1
  8

270
1
271
1
272
1
145
1.0
146
1.0
273
1
  9

274
1
275
1
276
1
 42
1.0
 72
1
  3

 73
1
 74
1
 75
1
 94
63
  0
MATERIAL
  5
21
102
{ACAD_REACTORS
330
E
102
}
330
E
100
AcDbMaterial
  1
Global
  2

 70
0
 40
1.0
 71
1
 41
1.0
 91
-1023410177
 42
1.0
 72
1
  3

 73
1
 74
1
 75
1
 44
0.5
 73
0
 45
1.0
 46
1.0
 77
1
  4

 78
1
 79
1
170
1
 48
1.0
171
1
  6

172
1
173
1
174
1
140
1.0
141
1.0
175
1
  7

176
1
177
1
178
1
143
1.0
179
1
  8

270
1
271
1
272
1
145
1.0
146
1.0
273
1
  9

274
1
275
1
276
1
 42
1.0
 72
1
  3

 73
1
 74
1
 75
1
 94
63
  0
MLINESTYLE
  5
22
102
{ACAD_REACTORS
330
10
102
}
330
10
100
AcDbMlineStyle
  2
Standard
 70
0
  3

 62
256
 51
90.0
 52
90.0
 71
2
 49
0.5
 62
256
  6
BYLAYER
 49
-0.5
 62
256
  6
BYLAYER
  0
MLEADERSTYLE
  5
2C
102
{ACAD_REACTORS
330
F
102
}
330
F
100
AcDbMLeaderStyle
179
2
170
2
171
1
172
0
 90
2
 40
0.0
 41
0.0
173
1
 91
-1056964608
 92
-2
290
1
 42
2.0
291
1
 43
8.0
  3
Standard
 44
4.0
300

342
29
174
1
175
1
176
0
178
1
 93
-1056964608
 45
4.0
292
0
297
0
 46
4.0
 94
-1056964608
 47
1.0
 49
1.0
140
1.0
294
1
141
0.0
177
0
142
1.0
295
0
296
0
143
3.75
271
0
272
9
273
9
  0
DICTIONARY
  5
2D
330
A
100
AcDbDictionary
280
1
281
1
  3
CREATED_BY_EZDXF
350
2E
  3
WRITTEN_BY_EZDXF
350
A1
  0
DICTIONARYVAR
  5
2E
330
2D
100
DictionaryVariables
280
0
  1
1.4.4 @ 2026-09-22T04:34:52.731057+00:00
  0
DICTIONARYVAR
  5
A1
330
2D
100
DictionaryVariables
280
0
  1
1.4.4 @ 2026-09-22T04:34:52.821183+00:00
  0
ENDSEC
  0
EOF
